<svg xmlns:rdf="http://www.w3.org/1999/02/22-rdf-syntax-ns#" xmlns="http://www.w3.org/2000/svg" height="200.1mm" width="349.3mm" version="1.1" xmlns:cc="http://creativecommons.org/ns#" xmlns:dc="http://purl.org/dc/elements/1.1/" viewBox="0 0 1237.8253 708.99998">
 <g transform="translate(902.5 -177.9)">
  <path fill="#fff" fill-opacity="0.25" d="m311.9 884.4c-1.517-2.316-1.517-2.684 0-5 1.096-1.673 2.556-2.5 4.415-2.5 3.474 0 5.177 1.645 5.177 5s-1.703 5-5.177 5c-1.859 0-3.319-0.8268-4.415-2.5zm-1199-47.43c-3.219-1.379-6.388-5.995-6.388-9.306 0-2.039 1.062-4.027 3.4-6.365 2.787-2.787 4.157-3.4 7.6-3.4 3.473 0 4.811 0.6107 7.726 3.527 3.119 3.119 3.458 3.95 2.931 7.196-0.3276 2.018-1.666 4.74-2.974 6.048-2.615 2.615-8.841 3.78-12.3 2.3zm294.3-13.9c-0.9102-1.006-1.655-2.511-1.655-3.345 0-2.232 3.295-4.826 6.129-4.826 3.182 0 4.871 1.734 4.871 5 0 1.43-0.54 3.14-1.2 3.8-1.793 1.793-6.266 1.448-8.145-0.6288zm440.4-23.62c-2.656-3.201 1.245-8.118 4.71-5.936 3.462 2.18 2.229 7.388-1.75 7.388-0.9653 0-2.297-0.6534-2.96-1.452zm-35.64-13.95c-2.45-2.45-3.4-4.294-3.4-6.6 0-4.973 5.53-10 11-10s11 5.027 11 10-5.53 10-11 10c-3.443 0-4.813-0.6127-7.6-3.4zm173.6-70.05c-2.656-3.201 1.245-8.118 4.71-5.936 3.462 2.18 2.229 7.388-1.75 7.388-0.9653 0-2.297-0.6534-2.96-1.452zm199-68c-2.656-3.201 1.245-8.118 4.71-5.936 2.466 1.553 2.792 4.518 0.6676 6.072-2.33 1.704-3.884 1.665-5.378-0.1359zm-252.4-10.6c-0.9102-1.006-1.655-2.511-1.655-3.345 0-2.232 3.295-4.826 6.129-4.826 3.182 0 4.871 1.734 4.871 5 0 1.43-0.54 3.14-1.2 3.8-1.793 1.793-6.266 1.448-8.145-0.6287zm-273-6c-0.9102-1.006-1.655-2.511-1.655-3.345 0-2.232 3.295-4.826 6.129-4.826 3.182 0 4.871 1.734 4.871 5 0 1.43-0.54 3.14-1.2 3.8-1.793 1.793-6.266 1.448-8.145-0.6287zm-408-77c-0.9102-1.006-1.655-2.511-1.655-3.345 0-2.232 3.295-4.826 6.129-4.826 3.182 0 4.871 1.734 4.871 5 0 1.43-0.54 3.14-1.2 3.8-1.793 1.793-6.266 1.448-8.145-0.6287zm528.4-35.62c-2.656-3.201 1.245-8.118 4.71-5.936 3.462 2.18 2.229 7.388-1.75 7.388-0.9653 0-2.297-0.6534-2.96-1.452zm549-102c-2.656-3.201 1.245-8.118 4.71-5.936 2.466 1.553 2.792 4.518 0.6676 6.072-2.33 1.704-3.884 1.665-5.378-0.1359zm-886.4-1.377c-0.9102-1.006-1.655-2.511-1.655-3.345 0-2.232 3.295-4.826 6.129-4.826 3.182 0 4.871 1.734 4.871 5 0 1.43-0.54 3.14-1.2 3.8-1.793 1.793-6.266 1.448-8.145-0.6287zm-5-31c-0.9102-1.006-1.655-2.511-1.655-3.345 0-2.232 3.295-4.826 6.129-4.826 3.182 0 4.871 1.734 4.871 5 0 1.43-0.54 3.14-1.2 3.8-1.793 1.793-6.266 1.448-8.145-0.6287zm104.7-62.1c-3.219-1.379-6.388-5.995-6.388-9.306 0-2.039 1.062-4.027 3.4-6.365 2.787-2.787 4.157-3.4 7.6-3.4s4.813 0.6127 7.6 3.4c4.316 4.316 4.522 8.313 0.65 12.65-2.974 3.328-8.9 4.722-12.86 3.025zm478-25.57c-1.517-2.316-1.517-2.684 0-5 1.096-1.673 2.556-2.5 4.415-2.5 3.474 0 5.177 1.645 5.177 5s-1.703 5-5.177 5c-1.859 0-3.319-0.8268-4.415-2.5zm167 0c-1.517-2.316-1.517-2.684 0-5 1.096-1.673 2.556-2.5 4.415-2.5 3.474 0 5.177 1.645 5.177 5s-1.703 5-5.177 5c-1.859 0-3.319-0.8268-4.415-2.5zm-1088-110.3c-0.9103-1.006-1.655-2.511-1.655-3.345 0-2.232 3.295-4.826 6.129-4.826 3.182 0 4.871 1.734 4.871 5 0 1.43-0.54 3.14-1.2 3.8-1.793 1.793-6.266 1.448-8.145-0.6288z"/>
 </g>
</svg>
