<svg xmlns:rdf="http://www.w3.org/1999/02/22-rdf-syntax-ns#" xmlns="http://www.w3.org/2000/svg" height="384.9mm" width="228.3mm" version="1.1" xmlns:cc="http://creativecommons.org/ns#" xmlns:dc="http://purl.org/dc/elements/1.1/" viewBox="0 0 809.07258 1363.739">
 <g fill="#2b0000" transform="translate(734.2 156.2)">
  <path fill-opacity=".25" fill="#fff" d="m-469.7 1199c1.844-2.065 2.2-2.16 4.83-1.294 1.9 0.6256 3.076 1.822 3.558 3.618 0.8991 3.356-0.249 5.426-3.49 6.295-3.241 0.8683-5.27-0.3509-6.17-3.706-0.4811-1.796-0.0604-3.42 1.272-4.912zm-264.5-1171c0.4989-3.466 4.137-7.722 7.336-8.579 1.97-0.5277 4.165-0.01645 7.028 1.637 3.413 1.971 4.36 3.135 5.251 6.461 0.8989 3.355 0.6553 4.805-1.407 8.376-2.205 3.82-2.92 4.363-6.192 4.694-2.034 0.2059-5.01-0.3824-6.612-1.307-3.203-1.849-5.939-7.561-5.405-11.29zm89.6 280.7c0.7362-1.14 1.997-2.248 2.803-2.464 2.156-0.5777 5.514 1.934 6.248 4.671 0.8236 3.074-0.4142 5.154-3.569 5.999-1.381 0.3701-3.173 0.2911-3.981-0.1756-2.196-1.268-3.02-5.678-1.501-8.03zm136.8 419.3c2.404-3.394 8.164-0.8985 6.953 3.013-1.21 3.908-6.559 4.065-7.589 0.2218-0.2498-0.9324 0.0366-2.388 0.6364-3.235zm4.25-38.04c1.732-3.001 3.268-4.396 5.495-4.992 4.804-1.287 11.09 2.753 12.51 8.037 1.416 5.284-2.009 11.93-6.812 13.21-4.804 1.287-11.09-2.753-12.51-8.037-0.8911-3.326-0.6539-4.808 1.317-8.221zm112.6 149.6c2.405-3.394 8.164-0.8985 6.953 3.013-1.21 3.908-6.559 4.065-7.589 0.2218-0.2498-0.9324 0.0366-2.388 0.6364-3.235zm117.2 174.6c2.404-3.394 8.164-0.8985 6.953 3.013-0.8618 2.784-3.641 3.866-5.692 2.216-2.249-1.81-2.614-3.321-1.261-5.23zm-55.09-246.5c0.7361-1.14 1.997-2.248 2.803-2.464 2.156-0.5777 5.514 1.934 6.248 4.671 0.8236 3.074-0.4142 5.154-3.569 5.999-1.381 0.3701-3.173 0.2911-3.981-0.1756-2.196-1.268-3.02-5.678-1.501-8.03zm-64.86-265.3c0.7362-1.14 1.997-2.248 2.803-2.464 2.156-0.5777 5.514 1.934 6.248 4.671 0.8236 3.074-0.4142 5.154-3.569 5.999-1.381 0.3701-3.173 0.2911-3.981-0.1756-2.196-1.268-3.02-5.678-1.501-8.03zm-31.1-413.6c0.7361-1.14 1.997-2.249 2.803-2.464 2.156-0.5777 5.514 1.934 6.248 4.671 0.8236 3.074-0.4142 5.154-3.569 5.999-1.381 0.3701-3.173 0.2911-3.981-0.1756-2.196-1.268-3.02-5.678-1.501-8.03zm171.2 501.2c2.405-3.394 8.164-0.8985 6.953 3.013-1.21 3.908-6.559 4.065-7.589 0.2218-0.2498-0.9324 0.0366-2.388 0.6364-3.235zm240.6 503.9c2.405-3.394 8.164-0.8986 6.953 3.013-0.8618 2.784-3.641 3.866-5.692 2.216-2.249-1.81-2.614-3.321-1.261-5.23zm-228.1-856.9c0.7361-1.14 1.997-2.248 2.803-2.464 2.156-0.5777 5.514 1.934 6.248 4.671 0.8236 3.074-0.4142 5.154-3.569 5.999-1.381 0.3701-3.173 0.2911-3.981-0.1756-2.196-1.268-3.02-5.678-1.501-8.03zm28.65-12.85c0.7361-1.14 1.997-2.248 2.803-2.464 2.156-0.5777 5.514 1.934 6.248 4.671 0.8236 3.074-0.4142 5.154-3.569 5.999-1.381 0.3701-3.173 0.2911-3.981-0.1756-2.196-1.268-3.02-5.678-1.501-8.03zm87.08 85.06c0.4989-3.466 4.137-7.722 7.336-8.579 1.97-0.5277 4.165-0.0165 7.028 1.637 3.413 1.971 4.36 3.135 5.251 6.461 0.8911 3.326 0.6539 4.808-1.317 8.221-3.052 5.286-6.859 6.519-12.05 3.902-3.984-2.011-6.865-7.375-6.25-11.64zm148.4 455.1c1.844-2.065 2.2-2.16 4.83-1.294 1.9 0.6256 3.076 1.822 3.558 3.618 0.8991 3.356-0.249 5.426-3.49 6.295-3.241 0.8683-5.27-0.3509-6.17-3.706-0.4811-1.796-0.06039-3.42 1.272-4.912zm43.22 161.3c1.844-2.065 2.2-2.16 4.83-1.294 1.9 0.6256 3.076 1.822 3.558 3.618 0.8991 3.356-0.249 5.426-3.49 6.295-3.241 0.8683-5.27-0.3509-6.17-3.707-0.4811-1.796-0.06039-3.42 1.272-4.912zm-175.1-1079c0.7361-1.14 1.997-2.248 2.803-2.464 2.156-0.5777 5.514 1.934 6.248 4.671 0.8236 3.074-0.4142 5.154-3.569 5.999-1.381 0.3701-3.173 0.2911-3.981-0.1756-2.196-1.268-3.02-5.678-1.501-8.03z"/>
 </g>
</svg>
