<svg xmlns:rdf="http://www.w3.org/1999/02/22-rdf-syntax-ns#" xmlns="http://www.w3.org/2000/svg" height="250.1mm" width="436.6mm" version="1.1" xmlns:cc="http://creativecommons.org/ns#" xmlns:dc="http://purl.org/dc/elements/1.1/" viewBox="0 0 1547.1625 886.24995">
 <g transform="translate(476.4 -723.5)">
  <path fill="#fff" fill-opacity="0.25" d="m-475 1607c-1.897-2.895-1.897-3.355 0-6.25 1.37-2.092 3.196-3.125 5.519-3.125 4.342 0 6.471 2.056 6.471 6.25s-2.129 6.25-6.471 6.25c-2.323 0-4.148-1.033-5.519-3.125zm1151-138.8c-1.897-2.895-1.897-3.355 0-6.25 1.37-2.092 3.196-3.125 5.519-3.125 4.342 0 6.471 2.056 6.471 6.25s-2.129 6.25-6.471 6.25c-2.323 0-4.148-1.033-5.519-3.125zm208.7 0c-1.897-2.895-1.897-3.355 0-6.25 1.37-2.092 3.196-3.125 5.519-3.125 4.342 0 6.471 2.056 6.471 6.25s-2.129 6.25-6.471 6.25c-2.323 0-4.148-1.033-5.519-3.125zm-810-18.62c-5.477-5.477-5.661-10.38-0.6025-16.04 3.227-3.612 4.391-4.082 10.1-4.082 5.711 0 6.875 0.4705 10.1 4.082 5.059 5.662 4.874 10.57-0.6025 16.04-3.484 3.484-5.196 4.25-9.5 4.25s-6.016-0.7659-9.5-4.25zm-127.2-89.29c-1.138-1.257-2.069-3.139-2.069-4.181 0-2.79 4.118-6.033 7.661-6.033 3.978 0 6.089 2.167 6.089 6.25 0 1.788-0.675 3.925-1.5 4.75-2.242 2.242-7.832 1.81-10.18-0.7859zm6.25-38.75c-1.138-1.257-2.069-3.139-2.069-4.181 0-2.79 4.118-6.033 7.661-6.033 3.978 0 6.089 2.167 6.089 6.25 0 1.788-0.675 3.925-1.5 4.75-2.242 2.242-7.832 1.81-10.18-0.7859zm1109-3.428c-1.08-1.08-1.964-2.446-1.964-3.036 0-1.141 3.509-5 4.546-5 2.206 0 5.454 2.978 5.454 5 0 1.327-1.088 2.994-2.418 3.706-3.127 1.674-3.294 1.654-5.618-0.6703zm-687.2-128c-3.321-4.001 1.557-10.15 5.888-7.42 4.328 2.726 2.786 9.235-2.188 9.235-1.207 0-2.872-0.8167-3.7-1.815zm-660.5-42.97c-1.138-1.257-2.069-3.139-2.069-4.181 0-2.79 4.118-6.033 7.661-6.033 3.978 0 6.089 2.167 6.089 6.25 0 1.788-0.675 3.925-1.5 4.75-2.242 2.242-7.832 1.81-10.18-0.7859zm510-96.25c-1.138-1.257-2.069-3.139-2.069-4.181 0-2.79 4.118-6.033 7.661-6.033 3.978 0 6.089 2.167 6.089 6.25 0 1.788-0.675 3.925-1.5 4.75-2.242 2.242-7.832 1.81-10.18-0.7859zm341.2-7.5c-1.138-1.257-2.069-3.139-2.069-4.181 0-2.79 4.118-6.033 7.661-6.033 3.978 0 6.089 2.167 6.089 6.25 0 1.788-0.675 3.925-1.5 4.75-2.242 2.242-7.832 1.81-10.18-0.7859zm316.1-14.68c-1.08-1.08-1.964-2.446-1.964-3.036 0-1.141 3.509-5 4.546-5 2.206 0 5.454 2.978 5.454 5 0 1.327-1.088 2.994-2.418 3.706-3.127 1.673-3.294 1.654-5.618-0.6704zm-248.8-85c-1.08-1.08-1.964-2.446-1.964-3.036 0-1.141 3.509-5 4.546-5 2.206 0 5.454 2.978 5.454 5 0 1.327-1.088 2.994-2.418 3.706-3.127 1.673-3.294 1.654-5.618-0.6703zm-217.6-77.2c-5.477-5.477-5.661-10.38-0.6025-16.04 3.227-3.612 4.391-4.082 10.1-4.082 5.711 0 6.875 0.4705 10.1 4.082 5.059 5.662 4.874 10.57-0.6025 16.04-3.484 3.484-5.196 4.25-9.5 4.25s-6.016-0.7659-9.5-4.25zm44.55-27.56c-3.32-4.001 1.557-10.15 5.888-7.42 4.328 2.726 2.786 9.235-2.188 9.235-1.207 0-2.872-0.8167-3.7-1.815zm-550.5-28c-1.138-1.257-2.069-3.139-2.069-4.181 0-2.79 4.118-6.033 7.661-6.033 3.978 0 6.089 2.167 6.089 6.25 0 1.788-0.675 3.925-1.5 4.75-2.242 2.242-7.832 1.81-10.18-0.7859zm-368.3-3.007c-1.719-0.9027-4.211-3.656-5.539-6.119-2.146-3.981-2.226-4.931-0.7246-8.555 1.909-4.61 7.847-8.773 12.51-8.773 4.6 0 10.59 4.141 12.44 8.593 1.828 4.412 0.3844 9.587-3.706 13.29-3.057 2.766-11.1 3.607-14.98 1.566zm1499-75.3c-1.897-2.895-1.897-3.355 0-6.25 1.37-2.092 3.196-3.125 5.519-3.125 4.342 0 6.471 2.056 6.471 6.25s-2.129 6.25-6.471 6.25c-2.323 0-4.148-1.033-5.519-3.125z"/>
 </g>
</svg>
