<svg xmlns:rdf="http://www.w3.org/1999/02/22-rdf-syntax-ns#" xmlns="http://www.w3.org/2000/svg" height="70mm" width="49mm" version="1.1" xmlns:cc="http://creativecommons.org/ns#" xmlns:dc="http://purl.org/dc/elements/1.1/" viewBox="0 0 173.66262 248.02612">
	<path d="m51.2 152c0 7.94 13.9 20.6 13.5 31-0.396 10.3-9.72 41.1-12.7 47-2.98 5.95-5.36 6.55-8.53 7.94-3.18 1.39-4.37 2.38-4.96 3.77-0.595 1.39-1.79 3.37 0 4.56s1.39 1.39 3.57 1.59c2.18 0.199 10.7 1.19 14.9-1.59 4.17-2.78 13.3-24.4 19.1-35.1 5.76-10.7 10.1-18.7 10.3-16.5 0.199 2.18 5.76 27.2 5.56 30.6-0.199 3.37-1.19 5.36-3.57 7.74s-6.35 4.96-6.75 7.34c-0.397 2.38 1.98 4.56 4.37 4.37 2.38-0.199 14.3 0.197 16.3-6.15 1.99-6.35 3.18-34.9 2.38-51.6-0.793-16.7-2.38-17.1 1.59-26.2 3.97-9.13 15.9-17.1 15.9-17.1s0.199 24.4 5.76 33.9c5.56 9.53 9.92 12.3 9.33 19.3-0.596 6.95-8.93 27.8-12.3 30.2-3.37 2.38-6.15 5.75-6.15 7.54s-0.793 4.17 1.59 4.56c2.38 0.397 1.59 1.98 7.14-0.596 5.56-2.58 9.92-5.16 12.1-9.13s9.33-34.1 11.7-29.8c2.38 4.37 9.13 22.6 9.13 22.6s0.197 3.97-1.59 6.55-3.17 2.78-2.18 5.16c0.992 2.38 0.197 3.77 3.17 3.18 2.98-0.596 7.54-1.99 9.92-4.57s-3.57-38.3-8.34-50.2c-4.76-11.9-7.94-25.8-4.37-33.7 3.57-7.94 6.55-20.6 5.16-30.8-1.39-10.1-2.18-18.3-0.992-20.6 1.19-2.38 0.996-2.19 7.35-21.2 12.6-37.7 3.62-71.6-42.1-75.7-8.73-0.787-15.9 3.77-9.13 5.36 49.6 11.7 59.9 34.3 28 81.7 0 0-3.97-0.597-7.54-4.17s-22.6-14.5-35.9-15.7c-13.3-1.19-29.2 13.7-35.7 21.6-6.55 7.94-10.5 14.5-10.5 14.5s-12.9-3.97-21.4-2.39c-8.53 1.59-7.74 3.77-9.92 2.78-2.18-0.992-9.73-1.39-14.9-1.79-5.16-0.396-5.36 1.39-5.36 1.39s0 5.56 3.57 9.53 5.16 5.95 5.16 5.95-4.76-0.197-7.94 1.79c-3.11 3-4.7 6-4.7 6l11.1 3.37s0.993 12 3.87 15.6c2.88 3.57 4.57 5.16 4.76 7.44 0.199 2.28-0.197 4.86 0.497 5.75 0.695 0.893 1.29 0.793 2.08 1.29 0.793 0.496 0.992 1.49 2.38 2.18 1.39 0.695 4.17 1.39 7.05 0.695s6.55 0 10.7-2.58c4.17-2.58 8.73-8.33 8.73-8.33"/>
</svg>
