<svg xmlns:rdf="http://www.w3.org/1999/02/22-rdf-syntax-ns#" xmlns="http://www.w3.org/2000/svg" height="78.2mm" width="97.1mm" version="1.1" xmlns:cc="http://creativecommons.org/ns#" xmlns:dc="http://purl.org/dc/elements/1.1/" viewBox="0 0 344.14165 277.03875">
 <path d="m25.9 82.6c7.49 4.41 33.3 45.8 49.1 52.9 0 0 4.18 22.4 7.49 29.6 3.31 7.27 1.54 6.39 2.2 18.7 0.661 12.3 8.38 34.6 3.09 56s-4.19 12.8-6.39 17c-2.2 4.19-7.49 2.65-9.48 3.75-1.98 1.1-3.31 3.75-3.31 7.27 0 3.53 1.1 3.75 6.39 5.07s12.1 0 15.2-0.44c3.09-0.44 2.87-2.43 4.85-6.39 1.98-3.97 11.2-25.1 15.6-36.4 4.41-11.2 9.48-33.3 9.48-33.3s-1.54 17.2 2.87 30 17.9 22.7 17.9 22.7-17 5.51-19 7.38c-1.98 1.87-3.31 6.06-0.661 8.71 2.64 2.64 4.52 1.43 6.06 1.54 1.54 0.109 1.76 0 3.64 0.881 1.87 0.881 8.93-0.221 13.8-1.54 4.85-1.32 1.32 1.98 2.31 3.42 0.992 1.43 3.97 2.09 7.49 2.2 3.53 0.111 3.53-0.331 6.06 0.22s28.3 0.331 41.5-0.551c11.2-0.748 8.34-4.63 22.3-5.53 2.5-0.161 11.5 1.84 15.4 1.72 25.5-0.772 14.7-2.05 47.8-2.58 13.1-0.209 23.9 9.98 40.7 11.8 16.8 1.84 21.9-5.7 6.57-8.77-13.8-2.77-20.8-10.2-39.9-14.3-29.1-6.27-56.8 8.37-60-18.9-0.881-7.49-1.54-29.5-1.54-29.5s-15.9-59.5-36.6-82-38.8-19-38.8-19-11-7.93-16.8-17.6c-5.73-9.7-2.42-42.3-3.31-48.3-0.881-5.95-1.98-6.39-1.54-7.93 0.441-1.54 3.53-21.2 2.2-26.4-1.32-5.29-2.64-4.63-6.83-1.98-4.19 2.64-12.3 11.9-13.2 13-0.881 1.1-2.2 0.441-9.26-1.1-7.05-1.54-15.3 0.551-15.3 0.551s-9.7-11.6-11.6-12c-1.87-0.441-2.09 1.76-1.98 5.84 0.111 4.08 3.2 9.26 2.98 10.6-0.221 1.32-5.07 4.52-6.28 5.62s-2.2 1.32-3.31 2.87c-1.1 1.54-0.329 2.64-0.329 3.42 0 0.771-4.85 5.18-5.51 7.93-0.661 2.75 1.65 3.53 2.42 4.74 0.771 1.21 0.109 2.2-0.331 5.62-0.441 3.42 3.75 7.38 5.29 10 1.54 2.65 4.41 3.64 5.18 6.39 0.772 2.75 0.331 7.38 0.331 7.38s-1.1 2.42-3.53 6.17c-2.42 3.75-2.64 14.8-2.64 16.5 0 1.76-20.3-13.4-27.1-17.2-6.83-3.75-14.8-15.2-18.7-17.4-3.97-2.2-17.4-7.05-19.3-7.6-1.87-0.552-2.2-0.441-4.3-0.221-2.09 0.221-2.76 0.992-3.64 1.76-0.881 0.771-1.43 0.881-1.76 3.31-0.331 2.42 1.65 4.3 1.21 6.5s1.76 2.2 5.73 5.29 4.85 1.76 6.61 2.2 4.85 5.95 12.3 10.4" />
</svg>
