<svg xmlns:rdf="http://www.w3.org/1999/02/22-rdf-syntax-ns#" xmlns="http://www.w3.org/2000/svg" height="53.8mm" width="101mm" version="1.1" xmlns:cc="http://creativecommons.org/ns#" xmlns:dc="http://purl.org/dc/elements/1.1/" viewBox="0 0 357.12468 190.70557">
 <path d="m115 157c1.77 3.75 0 6.51-0.985 8.48-0.987 1.97-9.91 4.44-11.9 5.72-1.97 1.28-1.92 2.02-2.42 2.37-0.492 0.345-2.12 0.887-2.91 1.87-0.788 0.985-0.837 1.67 0 1.63 0.839-0.0493 2.96 0 2.96 0s1.04 1.68 1.63 2.02c0.592 0.345 0.74 0.541 0.74 0.541s-0.444 1.09 0.344 1.18c0.789 0.0973 2.37-0.197 3.01-0.197s3.01 1.03 6.75 0.245c3.75-0.788 7.39-2.27 8.28-4.34 0.887-2.07 5.13-15.2 5.91-15.3 0.789-0.0987 5.23 1.08 8.77 0.691 3.55-0.395 3.55-0.493 3.55-0.493s-1.08 5.03-0.887 9.07c0.197 4.04-3.35 4.44-5.91 5.22-2.56 0.789-3.65 1.38-5.62 3.85-1.97 2.46-1.87 2.46-3.06 3.55-1.18 1.08-2.96 2.66-1.68 3.06 1.28 0.393 2.37 0.689 2.37 0.689s0.887 1.77 2.96 2.17c2.07 0.393 1.87-0.395 3.45 0.196 1.58 0.592 1.38 0.888 3.84 0.987 2.46 0.0973 3.75-1.28 7.39-1.77 3.65-0.493 4.04 0.985 6.11-1.77s3.55-11 5.23-12.1c1.68-1.08 2.86-0.0973 5.22-2.56 2.37-2.46 4.63-5.22 5.62-9.86 0.985-4.63 11.2-6.7 24.6-14.2 13.4-7.49 17.9-9.46 25.4-10.3 7.49-0.788 15.4-5.52 19.7-4.93 4.34 0.592 0.985 1.38 2.76 3.55 1.77 2.17 4.34 1.18 8.28-2.56 3.94-3.75 8.48-7.49 12.4-10.3 1.59-1.12 2.93-1.75 4.04-2.12 1.62 2.36 3.22 4.66 4.33 6.05 2.2 2.76 3.84 2.56 2.54 6.9-1.31 4.34-4.03 16.2-6.88 18.1-2.85 1.97-6.23 3.75-7.71 6.31s-3.13 3.35-3.95 5.13c-0.812 1.77 0.311 1.38 1.69 1.38s2.94 1.18 6.37 0.395c3.43-0.789 1.11 0.788 6.19-0.789s6.57-0.197 8.67-4.53c2.1-4.34 1.54-7.29 4.38-13.2 2.55-5.31 7.97-15.2 8.69-22.8 3.61 3.48 8.58 8.4 11.3 10.8 3.15 2.76 4.73 2.56 4.93 6.9 0.197 4.34 1.58 16.2-0.592 18.1-2.17 1.97-4.93 3.75-5.52 6.31-0.591 2.56-1.97 3.35-2.17 5.13-0.197 1.77 0.789 1.38 2.17 1.38s3.35 1.18 6.51 0.393c3.15-0.788 1.38 0.789 5.91-0.788s6.51-0.197 7.1-4.53c0.592-4.34-0.985-7.29-0.197-13.2 0.789-5.91 3.15-17.5 0-25.2-3.15-7.69-2.37-11.2-5.52-31.7-0.697-4.53-1.67-8.47-2.8-11.9 2.05 2.21 4.28 4.47 6.79 6.66 10.4 9.05 23.2 12.4 29.5 13.4 6.27 1.05 14.8 0.328 14.8 0.328s-1.91-2.29-5.35-3.85-12.5-1.53-23.3-8.24-33.1-32-42.5-34.7c-1.17-0.333-2.29-0.556-3.37-0.689-6.51-2.74-14.5-5.17-20.5-5.38-11-0.395-62.1 4.93-83.6 9.86s-38.2 4.73-47.9-0.395c-9.66-5.13-12.6-12.4-12.6-15 0-2.56 0.197-2.17 0.592-3.75 0.393-1.58 2.96-2.76-1.38-10.4-4.34-7.69-14.4-28-27.6-32.5-13.2-4.53-36.7 0.887-41.5 3.94-4.83 3.06-5.42 3.45-6.51 5.52s1.87 2.27-2.66 5.32c-4.53 3.06-29.6 10.7-34.2 13.7-4.63 2.96-5.42 4.24-4.34 6.01s3.15 2.66 3.65 5.03c0.493 2.37-0.492 1.87 3.35 6.01s6.11 2.96 7.59 4.63c1.48 1.68 2.96 2.96 5.62 3.65 2.66 0.691 15.9-0.296 20 1.48 4.14 1.77 4.34 3.94 9.27 4.73 4.93 0.789 6.51 0.789 6.51 0.789s6.51 6.7 12.2 20.7c5.72 14 9.26 39.8 12.4 51.1 3.15 11.2 6.9 12.2 16.2 15.6 9.27 3.35 17.4 7.59 17.4 7.59" />
</svg>
