<svg xmlns:rdf="http://www.w3.org/1999/02/22-rdf-syntax-ns#" xmlns="http://www.w3.org/2000/svg" height="59.16mm" width="46.21mm" version="1.1" viewBox="0 0 163.7275 209.63837">
 <path d="m133.9 72.9s22.73-21.94 27.43-33.69c4.701-11.75 1.565-16.85-0.784-17.24-2.351-0.392-8.225 12.54-16.06 21.94-7.833 9.404-27.43 21.55-27.43 21.55s-20.37-1.177-26.25-1.569c-5.877-0.3907-13.71-5.484-13.71-5.484s7.835-5.093 8.227-12.54c0.3907-7.444 2.352-12.93 2.352-12.93s6.267 19.2 9.011 16.46c2.744-2.741 4.311-27.82 5.093-32.91 0.7827-5.093-9.011-9.403-14.1-10.58-5.095-1.176-15.28-1.176-15.28-1.176s-9.795-4.309-20.37-4.701c-10.58-0.3907-18.81 3.917-18.81 3.917s-1.175-4.308-9.403-0.7827c-8.228 3.527-19.98 8.228-23.11 12.93-3.135 4.701 5.877 17.63 9.403 23.11 3.527 5.485 6.66 6.66 8.619 3.525 1.96-3.133 3.135-7.443 3.135-7.443s-0.392 13.32 3.917 18.81c4.311 5.485 6.663 10.58 6.663 10.58s-5.879 8.228-7.445 19.98c-1.567 11.75-3.916 12.54-3.135 22.72 0.784 10.19 1.568 12.93 1.176 21.16-0.392 8.227 0 15.67 1.567 21.16 1.567 5.485 1.567 25.07 0 32.91-1.567 7.836-8.62 7.052-11.36 14.1-2.741 7.053 3.527 7.837 3.527 7.837s4.311 1.567 7.836 1.567c3.527 0 7.836 0 12.15-2.351 4.311-2.351 5.485-10.58 5.485-10.58s0.001-28.21 1.96-34.48c1.959-6.271 1.959-26.25 1.959-26.25s4.701 9.404 12.54 9.404h22.33s5.093 10.18 2.741 17.63c-2.351 7.445-7.052 13.71-7.052 13.71s-6.268 0.7827-9.011 4.701c-2.744 3.917 2.743 8.228 4.701 8.228 1.959 0 7.444-0.392 7.444-0.392l4.311-0.784s-0.001 9.012-3.135 12.54c-3.135 3.527-1.568 9.012 2.351 10.58 3.917 1.567 9.012-0.3933 9.012-0.3933s0 1.96 4.309 1.96c4.308 0 5.093-2.351 5.093-2.351s6.269-0.392 6.269-5.093c0-4.703-4.7-5.877-3.135-16.06 1.567-10.19 3.528-29.78 5.093-36.83 1.568-7.052 0.3933-15.28 0.3933-15.28s8.228-2.349 11.36-5.093c3.132-2.743 5.484-3.135 5.484-3.135s5.487 10.58 10.97 14.11c5.485 3.527 5.095 8.228 6.269 13.71 1.176 5.484 3.135 18.02 2.351 21.94s-5.093 7.839-5.487 13.32c-0.3907 5.485 7.052 6.269 7.052 6.269s2.745 1.567 6.271-0.392c0 0 5.877-2.352 6.659-7.444 0.7867-5.095-1.957-12.15-1.175-18.41 0.784-6.269 0.784-22.33-2.741-27.82-3.527-5.485-1.959-19.2-3.92-24.29-1.957-5.092-5.484-7.052-7.052-11.75-1.567-4.703-8.224-28.6-12.54-32.13"/>
</svg>
