<svg xmlns:rdf="http://www.w3.org/1999/02/22-rdf-syntax-ns#" xmlns="http://www.w3.org/2000/svg" height="57.9mm" width="93.7mm" version="1.1" xmlns:cc="http://creativecommons.org/ns#" xmlns:dc="http://purl.org/dc/elements/1.1/" viewBox="0 0 331.91335 205.08482">
 <path d="m62.4 109s-14-14.5-30.7-23.2c-16.6-8.75-30.7-19.1-30.7-19.1s-4.18-6.51 4.27-2.29 18.5 9.82 29.3 15.1c10.9 5.26 32.8 14.6 36.8 17.9s5.24 4.4 5.24 4.4 18.7-11 40.9-8.76c22.1 2.27 42.9 1.69 52.5 0.27s56.6-5.53 62.1-7.31c5.48-1.77 11.1-11.2 9.81-13.5-1.3-2.27-12-9.89-13.1-13.1-1.06-3.17 4.97-21.1 8.85-25.2 3.88-4.03 3.37-7.82 4.57-12.6 1.2-4.76 18-18.3 29.6-20.7 11.6-2.41 13.4 3.94 17.9 6.03 4.52 2.09 17.7 1.06 25.5-0.558l7.83-1.61s6.72-5.66 8.17-0.752-0.951 9.15-0.852 10.9c0.0993 1.76 3.85 5.95-4.66 11.1-8.51 5.17-21.9 7.98-26.7 11.2-4.81 3.21-5.62 4.43-5.1 8.5 0.524 4.08 7.35 10.7 4.29 13.6-3.07 2.81-4.57 2.31-7.18 2.75-2.62 0.442-2.82 1.92-2.63 5.43 0.196 3.51 1.51 26.9-0.0409 35.8-1.55 8.89 1.11 19.6-3.54 25.7-4.64 6.13-18.7 17.2-18.7 17.2s-2.37 10.1 0.446 13.2c2.81 3.07 8 6.59 9.47 11.8 1.47 5.2 6.93 13.7 8.75 14.8 1.82 1.07 9.65-0.543 9.07 4.77-0.582 5.32-4.74 9.66-9.42 9.92-4.68 0.263-9.57 2.01-20.8-15s-25.3-21.5-25.3-21.5-0.724 7.96 0.79 14c1.52 6.08 8.77 9.78 10.2 14.1 1.42 4.32-2.24 7.17-8.46 6.05s-12 0.672-14.3-8.59c-2.28-9.26-10.9-27-10.9-27s-24.1 4.58-42.5 0.923-43.5-6.65-55.3-6.87-24.6 0.506-27.2 1.53c-2.58 1.03 2.56 8.95 4.15 11.2 1.59 2.26 10.6 5.28 13.5 10.7 2.94 5.41 0.788 8.76-1.54 9.18-2.33 0.423-13 3.96-15.5-3.82-2.49-7.78-6.16-10.5-9.21-12.4-3.04-1.88-11.5-5.81-11.5-5.81s-4.64 11.4-10.9 9.71c-6.26-1.7-18.1-3.38-18.1-3.38s0.821 9.34 2.22 13.4c1.4 4.03 12.1 6.95 13.3 12.5 1.19 5.51-8.38 7.52-14.1 4.32-5.76-3.2-9.64-4.45-10.7-7.9-1.07-3.46 1.61-13-2.43-17.2-4.05-4.17-6.75-10.5-6.71-14.9 0.0471-4.4 2.87-6.32 5.23-6.16s13 0.737 14.8-3.18c1.83-3.92-5.52-30.2 18.9-45.7"/>
</svg>
