<svg xmlns:rdf="http://www.w3.org/1999/02/22-rdf-syntax-ns#" xmlns="http://www.w3.org/2000/svg" version="1.1" xmlns:cc="http://creativecommons.org/ns#" xmlns:dc="http://purl.org/dc/elements/1.1/" viewBox="0 0 420.97688 289.57739">
 <g transform="translate(-137.8 -273.1)">
  <g class="c4" transform="matrix(1 0 -.3541 1 0 0)">
   <path d="m289.7 325.8 7.978-27.68-5.767-18.36h-5.479v-1.826h29.8v1.826h-5.671l14.32 45.46 11.53-45.46h-9.708v-1.826h19.22v1.826h-6.344l-17.69 66.42h-8.554l-14.22-43.44-12.5 43.44h-8.362l-24.22-66.42h-4.518v-1.826h31.24v1.826h-6.728l15.67 46.04z"/>
   <path d="m347.5 273.1h23.16v35.18q1.538-4.421 4.71-7.113 3.172-2.691 9.612-2.691 14.9 0 14.9 16.05v28.93h5.383v1.73h-27.2v-1.73h3.941v-31.24q0-5.767-0.7689-7.401-0.7689-1.73-2.787-1.73-3.076 0-5.479 4.037-2.307 4.037-2.307 9.804v26.53h4.133v1.73h-27.3v-1.73h5.286v-68.63h-5.286v-1.73z"/>
   <path d="m429.7 322.6h2.787v-7.401q0-9.131-1.057-12.21-0.9612-3.172-3.845-3.172-1.73 0-3.172 0.9612-1.346 0.865-1.346 2.499 0 1.538 0.5767 3.172h2.403q0.7689 2.018 0.7689 4.902 0 2.787-2.403 4.902-2.403 2.018-6.055 2.018-8.266 0-8.266-7.978 0-11.82 20.09-11.82 11.44 0 15.76 3.941 4.421 3.845 4.421 14.22v19.51q0 4.998 2.787 4.998 3.268 0 3.845-9.9l1.442 0.0961q-0.3845 8.458-3.172 11.63-2.787 3.172-9.131 3.172-11.53 0-13.26-7.113-1.25 3.652-3.749 5.383-2.499 1.73-7.305 1.73-14.22 0-14.22-11.63 0-6.824 5.383-9.323 5.479-2.595 16.72-2.595zm-3.845 11.82q0 4.998 0.4806 6.44 0.5767 1.442 2.018 1.442 1.538 0 2.787-2.403 1.346-2.499 1.346-6.824v-8.939h-0.6728q-5.959 0-5.959 8.747v1.538z"/>
   <path d="m462.7 331.5v-30.28h-5.286v-1.73h5.286v-12.4l17.88-4.421v16.82h12.5v1.73h-12.5v32.39q0 4.518 0.865 6.632 0.9612 2.115 3.845 2.115t4.998-2.884q2.211-2.884 2.884-7.882l1.634 0.1922q-0.7689 6.632-4.229 10.57-3.46 3.845-11.44 3.845-7.978 0-12.21-3.172-4.229-3.172-4.229-11.53z"/>
   <path d="m512.6 301.2v-1.73h27.87v1.73h-5.19l10.48 31.91 11.15-31.91h-6.44v-1.73h13.55v1.73h-4.806l-17.97 51.81q-3.172 9.035-7.113 12.59-3.941 3.652-9.612 3.652t-8.939-2.595-3.268-6.632 2.115-6.152 5.575-2.115q7.978 0 7.978 6.632 0 1.442-0.5767 3.46h-3.364q-0.7689 2.211-0.1922 3.652 0.5767 1.442 2.595 1.442 3.941 0 7.016-3.941 3.076-3.845 5.863-11.82l2.115-5.959h-8.458l-16.44-44.02h-3.941z"/>
   <path d="m592.7 326.3v-8.17q0-9.323-1.057-13.55-0.9612-4.325-4.614-4.325-2.115 0-3.46 1.25-1.25 1.153-1.826 3.941-0.8651 4.325-0.8651 13.17v7.497q0 10.48 0.5767 12.59 0.6728 2.115 1.346 3.46 1.057 2.307 4.133 2.307 3.749 0 4.902-4.325 0.865-3.076 0.865-13.84zm-5.959 19.9q-12.02 0-18.17-6.152-6.152-6.152-6.152-17.59 0-11.53 6.536-17.69 6.632-6.248 18.55-6.248t17.78 5.767q5.863 5.671 5.863 17.4 0 24.51-24.41 24.51z"/>
   <path d="m670.1 345.2h-21.92l-1.057-7.016q-1.538 3.845-4.614 5.959-2.98 2.018-8.939 2.018-14.9 0-14.9-16.05v-28.93h-5.383v-1.73h23.26v32.97q0 5.767 0.7689 7.593 0.865 1.826 3.268 1.826 2.499 0 4.421-2.98t1.922-8.266v-29.41h-4.421v-1.73h22.3v44.02h5.286v1.73z"/>
  </g>
  <g class="c3" transform="matrix(1 0 -.3487 1 0 0)">
   <path d="m423.4 383.9 6.436-3.908q1.379-7.126-5.517-7.126-9.884 0-9.884 15.17 0 5.977 1.609 13.79 17.47 11.72 17.47 30.11 0 18.16-12.64 28.27t-34.25 10.11q-8.965 0-18.62-1.839-10.11 6.436-10.11 9.654t14.71 3.218h23.45q52.18 0 52.18 37.47 0 20.23-15.86 31.95-15.63 11.95-48.96 11.95-56.78 0-56.78-24.6 0-13.33 17.7-18.39l13.79 6.206q-1.839 6.666-1.839 12.64 0 19.77 29.42 19.77 17.93 0 27.58-6.666 9.654-6.666 9.654-16.55t-5.977-13.33q-5.747-3.218-23.22-3.218h-22.3q-18.62 0-26.66-6.206-8.045-6.206-8.045-15.17 0-9.195 5.747-15.17 5.747-6.206 20.46-15.17-26.66-7.586-26.66-34.94 0-17.24 12.41-27.81t37.24-10.57q14.94 0 25.52 5.747-1.379-6.206-1.379-11.26 0-12.87 6.896-18.62 6.896-5.747 15.4-5.747 8.505 0 13.56 4.597 5.287 4.368 5.287 12.18 0 7.816-4.138 11.72-4.138 3.678-10.11 3.678-5.747 0-9.654-2.988-3.678-3.218-3.908-8.965zm-48.73 42.99v12.41q0 15.4 2.529 20.92 2.758 5.517 8.045 5.517 5.517 0 7.816-5.287 2.529-5.517 2.529-22.3v-11.26q0-17.93-2.299-23.45-2.299-5.747-7.816-5.747-5.287 0-8.045 5.977-2.758 5.747-2.758 23.22z"/>
   <path d="m504.8 507.5q-29.65 0-44.6-15.17-14.71-15.4-14.71-42.53 0-27.36 16.55-41.84 16.78-14.48 42.53-14.48 52.18 0 50.11 52.41h-64.82v8.965q0 22.53 5.747 34.02t20 11.49q26.66 0 34.94-28.5l4.138 0.6896q-4.368 16.55-15.86 25.74-11.26 9.195-34.02 9.195zm-14.71-66.2h23.68v-11.26q0-18.62-2.299-25.29-2.069-6.896-8.735-6.896-6.436 0-9.654 7.356-2.988 7.126-2.988 24.83v11.26z"/>
   <path d="m574.3 472.4v-72.41h-12.64v-4.138h12.64v-29.65l42.76-10.57v40.23h29.88v4.138h-29.88v77.47q0 10.8 2.069 15.86 2.299 5.057 9.195 5.057t11.95-6.896q5.287-6.896 6.896-18.85l3.908 0.4597q-1.839 15.86-10.11 25.29-8.275 9.195-27.36 9.195t-29.19-7.586-10.11-27.58z"/>
  </g>
 </g>
</svg>
