<svg xmlns:rdf="http://www.w3.org/1999/02/22-rdf-syntax-ns#" xmlns="http://www.w3.org/2000/svg" xmlns:osb="http://www.openswatchbook.org/uri/2009/osb" height="20.65mm" width="149.1mm" version="1.1" xmlns:cc="http://creativecommons.org/ns#" viewBox="0 0 528.19195 73.175588" xmlns:dc="http://purl.org/dc/elements/1.1/">
 <g class="c2" transform="translate(-.000003287)">
  <g transform="matrix(1 0 -.3565 1 -124.1 -273.1)" >
   <path d="m247.2 277.9h29.37v1.829h-5.296v63.74h5.296v1.829h-29.37v-1.829h5.296v-63.74h-5.296v-1.829z"/>
   <path d="m280.2 299.5h23.2v8.858q1.541-4.429 4.718-7.125t9.628-2.696q14.92 0 14.92 16.08v28.98h5.392v1.733h-27.25v-1.733h3.948v-31.29q0-5.777-0.7703-7.414-0.7703-1.733-2.792-1.733-3.081 0-5.488 4.044-2.311 4.044-2.311 9.821v26.57h4.14v1.733h-27.34v-1.733h5.296v-42.36h-5.296v-1.733z"/>
   <path d="m343.5 331.6v-30.33h-5.296v-1.733h5.296v-12.42l17.91-4.429v16.85h12.52v1.733h-12.52v32.45q0 4.525 0.8666 6.644 0.9628 2.118 3.851 2.118 2.889 0 5.007-2.889 2.215-2.889 2.889-7.895l1.637 0.1926q-0.7703 6.644-4.236 10.59-3.466 3.851-11.46 3.851-7.992 0-12.23-3.177-4.236-3.177-4.236-11.55z"/>
   <path d="m402 346.3q-12.42 0-18.68-6.355-6.162-6.451-6.162-17.81 0-11.46 6.932-17.52 7.029-6.066 17.81-6.066 21.86 0 20.99 21.95h-27.15v3.755q0 9.436 2.407 14.25t8.377 4.814q11.17 0 14.64-11.94l1.733 0.2888q-1.829 6.932-6.644 10.78-4.718 3.851-14.25 3.851zm-6.162-27.73h9.917v-4.718q0-7.799-0.9628-10.59-0.8666-2.889-3.659-2.889-2.696 0-4.044 3.081-1.252 2.985-1.252 10.4v4.718z"/>
   <path d="m458.5 302.2q-3.562 0-6.258 4.622t-2.696 10.98v25.8h6.836v1.733h-30.04v-1.733h5.296v-42.36h-5.296v-1.733h23.2v9.243q1.252-4.91 4.814-7.51 3.562-2.696 8.088-2.696 4.525 0 7.318 2.6 2.889 2.503 2.889 7.221 0 4.622-2.118 7.125t-6.547 2.503q-4.333 0-6.451-2.889-2.022-2.889-0.4814-7.992h3.466q2.407-4.91-2.022-4.91z"/>
   <path d="m498.7 346.3q-12.42 0-18.68-6.355-6.162-6.451-6.162-17.81 0-11.46 6.932-17.52 7.029-6.066 17.81-6.066 21.86 0 20.99 21.95h-27.15v3.755q0 9.436 2.407 14.25t8.377 4.814q11.17 0 14.64-11.94l1.733 0.2888q-1.829 6.932-6.644 10.78-4.718 3.851-14.25 3.851zm-6.162-27.73h9.917v-4.718q0-7.799-0.9628-10.59-0.8666-2.889-3.659-2.889-2.696 0-4.044 3.081-1.252 2.985-1.252 10.4v4.718z"/>
   <path d="m524.3 346.3v-17.23h1.155q2.503 8.377 6.74 11.75 4.236 3.37 10.59 3.37 9.821 0 9.821-6.258 0-2.696-2.407-4.044-3.755-2.118-9.628-3.274-6.547-1.733-10.98-4.622-5.296-3.466-5.296-10.98 0-7.51 4.622-11.94 4.622-4.525 12.32-4.525 4.718 0 9.725 2.215 1.829 0.7703 2.792 0.7703 0.9628 0 1.637-0.674 0.674-0.674 1.637-2.503h1.059v14.73h-1.155q-4.91-12.52-15.21-12.52-4.525 0-6.74 1.637-2.215 1.541-2.215 3.948 0 1.444 0.674 2.311 0.674 0.7703 1.059 1.155 0.3851 0.3851 1.252 0.8666 0.8666 0.3851 1.444 0.674 0.5777 0.1926 1.733 0.5777 1.252 0.3851 1.829 0.4814 6.547 1.637 9.436 2.889 2.889 1.155 5.488 2.889 5.296 3.659 5.296 11.84 0 8.088-4.814 12.32-4.814 4.14-13.19 4.14-5.97 0-11.55-2.792-1.155-0.7703-1.829-0.7703-2.118 0-4.14 3.562h-1.155z"/>
   <path d="m567.7 331.6v-30.33h-5.296v-1.733h5.296v-12.42l17.91-4.429v16.85h12.52v1.733h-12.52v32.45q0 4.525 0.8666 6.644 0.9628 2.118 3.851 2.118 2.889 0 5.007-2.889 2.215-2.889 2.889-7.895l1.637 0.1926q-0.7703 6.644-4.236 10.59-3.466 3.851-11.46 3.851-7.992 0-12.23-3.177-4.236-3.177-4.236-11.55z"/>
   <path d="m626.2 346.3q-12.42 0-18.68-6.355-6.162-6.451-6.162-17.81 0-11.46 6.932-17.52 7.029-6.066 17.81-6.066 21.86 0 20.99 21.95h-27.15v3.755q0 9.436 2.407 14.25t8.377 4.814q11.17 0 14.64-11.94l1.733 0.2888q-1.829 6.932-6.644 10.78-4.718 3.851-14.25 3.851zm-6.162-27.73h9.917v-4.718q0-7.799-0.9628-10.59-0.8666-2.889-3.659-2.889-2.696 0-4.044 3.081-1.252 2.985-1.252 10.4v4.718z"/>
   <path d="m670 325.4q0 10.11 1.059 13.48 1.059 3.274 3.851 3.274 2.889 0 4.91-2.503 2.118-2.503 2.118-7.414v-20.99q0-4.14-1.637-7.029t-4.814-2.889-4.333 4.236q-1.155 4.236-1.155 14.83v5.007zm13.19 19.93-1.059-6.74q-3.274 7.703-13.29 7.703-8.28 0-12.9-5.97-4.525-5.97-4.525-17.81 0-23.97 19.06-23.97 8.473 0 11.17 4.718v-28.4h-5.873v-1.733h24.07v70.48h4.718v1.733h-21.37z"/>
   <path d="m711.7 291.6q0-6.258 5.681-10.49 5.681-4.236 16.18-4.236 10.59 0 16.27 4.044 5.777 4.044 5.777 11.94 0 5.199-2.6 9.243-2.503 3.948-7.029 8.088l-14.54 12.9v5.584h-2.407v-20.22q0-1.637 1.059-2.696l5.97-6.066q2.792-2.792 3.851-5.199 1.059-2.503 1.059-6.451 0-9.34-8.666-9.34-4.14 0-6.066 2.215t-1.926 4.236q0 2.022 0.5777 3.562h3.081q0.7703 2.022 0.7703 4.91 0 2.792-2.407 4.91-2.407 2.022-6.355 2.022t-6.162-2.503q-2.118-2.6-2.118-6.451zm18.29 54.69q-3.562 0-5.392-2.022-1.733-2.118-1.733-5.199 0-3.177 1.926-5.199 1.926-2.118 5.296-2.118t5.392 1.829q2.022 1.733 2.022 5.199t-1.926 5.488-5.584 2.022z"/>
  </g>
 </g>
</svg>
