<svg data-name="Layer 1" xmlns="http://www.w3.org/2000/svg" viewBox="0 0 459.73 98.2"><path fill="#aaaaaa" d="M0 78.82h65.9v18.94H0zm0-20.35h65.9V39.55H0zm444.37-24.59v28.48h15.36v2H442V33.88zM420.1 51.83l-6.69-14.33-6.67 14.33zm-6-18.17l14.35 30.66h-2.52L421 53.79h-15.17l-4.89 10.53h-2.52l14.35-30.66zm-19.75.22v2H382.7v28.44h-2.42V35.84h-11.65v-2zm-41.78 0H355v30.44h-2.4zm-29.46 2v12.25h5.78a9.35 9.35 0 0 0 5.91-1.61 5.5 5.5 0 0 0 2-4.56 5.53 5.53 0 0 0-2-4.46 8.6 8.6 0 0 0-5.67-1.66zm-2.4-2h8.56q4.9 0 7.52 2.16a7.23 7.23 0 0 1 2.61 5.88 7.37 7.37 0 0 1-2.64 6q-2.62 2.2-7.71 2.2h-5.95v14.2h-2.4zm-21.84 17.95l-6.69-14.33-6.67 14.33zm-6-18.17l14.35 30.66h-2.52l-4.91-10.53H284.6l-4.89 10.53h-2.52l14.35-30.66zm-39.52-.17a26.5 26.5 0 0 1 10.9 2.51v2.57a23.83 23.83 0 0 0-11.06-2.94 13.17 13.17 0 0 0-9.67 3.85 13 13 0 0 0-3.89 9.63 12.74 12.74 0 0 0 3.91 9.61 13.82 13.82 0 0 0 10 3.77 24.08 24.08 0 0 0 11-3.12v2.45a23.75 23.75 0 0 1-11 2.85 16.55 16.55 0 0 1-11.81-4.46A14.63 14.63 0 0 1 237 49.15 14.64 14.64 0 0 1 241.85 38a16.32 16.32 0 0 1 11.49-4.49M227.87 98l-33.5-44.89-11.74 15.61 21.86 29.15-.09.08zM154.81.32V.24H0v18.92h93.37v78.6h18.94v-78.6h33.16l18.72 25L176 28.41 154.94.22z"/><path fill="#eeeeee" d="M227.87 0l-75.26 98.2-.17-.13v.12h-18.52V58.36h18.52v10.27L205.24 0h22.63z"/></svg>