<?xml version="1.0" encoding="UTF-8"?>
<svg version="1.1" id="Layer_1" xmlns:x="http://ns.adobe.com/Extensibility/1.0/" xmlns:i="http://ns.adobe.com/AdobeIllustrator/10.0/" xmlns:graph="http://ns.adobe.com/Graphs/1.0/" xmlns="http://www.w3.org/2000/svg" xmlns:xlink="http://www.w3.org/1999/xlink" x="0px" y="0px" viewBox="0 0 477 136" style="enable-background:new 0 0 477 136;" xml:space="preserve">
<style type="text/css">
	.st0{fill:#cccccc;}
</style>
<switch>
	<g i:extraneous="self">
		<g id="Page-1">
			<g id="logoNoUnderline-_x28_1_x29_">
				
					<g id="g10" transform="translate(239.000000, 67.980000) scale(-1, 1) rotate(-180.000000) translate(-239.000000, -67.980000) translate(0.000000, 0.480000)">
					<g id="g12" transform="translate(0.266667, 0.000000)">
						<g id="g14">
							<g id="g16-Clipped">
								<g id="g16" transform="translate(0.000000, 0.066664)">
									<path id="path22" class="st0" d="M89.2,43.3c0,32.4-16.7,43.4-33.4,43.4c-10.9,0-20.2-6-23.3-16.7H32V110           c0,8.3,0.6,19.2,0.6,22.9c0,1.2-0.6,1.5-1.4,1.5H0v-1c1.7-0.2,5.4-1,7.4-2.3c2.3-1.4,4.1-3.3,4.3-7c0.4-1.5,0.4-3.9,0.4-6           V18.3c0-4.8-0.2-11.2-0.6-16.9h0.8L26,12.3h0.4C31.2,4.1,41.5,0.1,50.8,0.1C69,0.1,89.2,11.7,89.2,43.3L89.2,43.3z            M51,82.9c10.5,0,16.3-13.4,16.3-40.1c0-22.5-5.4-40.5-17.8-40.5c-4.3,0-9.9,2.3-13,7.4C33.7,14.2,32,21.4,32,31.1v20.7           c0,11.8,2.3,19.2,5.8,24.2C41.3,81.3,46.9,82.9,51,82.9L51,82.9z M139,1.8v1c-1.4,0.2-2.9,0.2-4.5,0.8           c-3.5,1.5-5.2,2.5-6.4,7.6c-1,3.9-0.8,10.5-0.8,16.1v93.7c0,5.2,0.2,9.3,0.2,12.2c0,1-0.4,1.4-1.2,1.4H96.8v-1           c1.7-0.2,4.5-0.2,6.4-1.7c1.7-1.4,2.9-2.7,3.5-6.4c0.4-3.1,0.6-11.8,0.6-15.3V27.2c0-5.6-0.2-12.2-1-16.1           c-1.4-5-2.9-6-6.4-7.6C98.3,3,97,3,95.6,2.8v-1H139z M227.8,43.5c0,27-21.3,43.2-41.3,43.2s-40.9-16.3-40.9-43.2           c0-27,20.9-43.4,40.9-43.4C206.7,0.1,227.8,16.6,227.8,43.5L227.8,43.5z M205.9,43.5c0-16.3-2.9-30.6-7.9-36.6           c-3.5-4.1-7.4-5-11.4-5c-3.9,0-7.9,1-11.4,5.2c-5,6-8,20.2-8,36.5c0,16.1,2.7,30.6,8.1,36.5c3.1,3.5,7.4,4.8,11.2,4.8           c4.1,0,8.1-1,11.4-5C203.2,73.8,205.9,59.6,205.9,43.5L205.9,43.5z M352.5,84.2V85h-25v-0.8c1.5-0.2,3.7-0.4,5.4-1.6           c1.9-1.2,3.5-3.1,3.5-6.2c0-4.1-0.8-7.6-3.1-14.3l-13-38h-0.2l-11.4,38.8c-1.9,6.6-3.1,10.1-3.1,13.6c0,3.1,0.8,5,2.5,6.2           c1.7,1,5,1.4,6.8,1.6V85h-43v-0.8c1.7-0.2,3.7-0.4,5.4-1.7c2.1-1.7,4.3-4.3,6-8.3c0.8-2.1,2.5-6.8,3.9-11.4           c-0.6-2.7-12.2-36.1-12.8-38.6h-0.2l-12.6,41.7c-1.7,5.6-2.3,8.1-2.3,11.2c0,2.1,0.6,4.1,2.1,5.2c1.6,1.4,3.7,1.7,6.8,1.9           V85h-43v-0.8c0.4-0.2,1.4-0.2,1.7-0.4c1.7-0.6,3.5-1,5-2.9c5.4-3.9,7.8-13.8,10.5-22.1l19-57.8h7.6l19.6,57.6l19-57.6h7.6           l21.3,62c2.7,7.8,4.5,12.2,6.2,14.7c1.4,2.5,2.7,3.7,4.5,4.7C348.8,83.7,350.8,84,352.5,84.2L352.5,84.2z"/>
									<path id="path24" class="st0" d="M393.1,53.3h-0.4c-1-2.9-3.1-7.6-6-10.7c-1.6-1.9-3.8-3.4-7.4-3.4h-1.9           c-1.5,0-3.4,0.3-4.6,1.1c-0.9,0.6-1.6,1.7-2.1,3.1c-0.4,1.5-0.7,4-0.7,8v16.9c0,5.1,0.3,10.1,1.1,12.7           c0.6,1.7,1.8,2.6,3.3,3.1c0.7,0.2,1.6,0.4,2.1,0.4V85H355v-0.4c0.7-0.1,1.5-0.2,2.1-0.4c1.5-0.5,2.7-1.4,3.3-3.1           c0.9-2.6,1.1-7.6,1.1-12.7V54.7c0-5.1-0.2-10.1-1.1-12.7c-0.6-1.6-1.7-2.6-3.2-3.1c-0.7-0.2-1.6-0.3-2.3-0.4v-0.4h37           L393.1,53.3z M429.7,70.8L427.5,85h-37.7l-2.1-14.2h0.5c0.9,2.3,3,6.7,6,9.5c2.4,2.5,4.7,3.6,7.8,3.6h2.5V53.2           c0-4.4-0.2-8.7-1-11.1c-0.6-1.9-1.8-2.9-3.3-3.3c-0.7-0.2-1.6-0.3-2.1-0.4v-0.4h21.3v0.4c-0.6,0.1-1.5,0.1-2.1,0.4           c-1.5,0.4-2.7,1.4-3.4,3.3c-0.7,2.4-0.9,6.6-0.9,11.1v30.7h2.5c3.1,0,5.5-1.2,7.8-3.6c2.9-2.7,5.1-7.1,6.1-9.4H429.7z            M454.7,85h-24.5v-0.4c0.6-0.1,1.5-0.1,2.2-0.4c1.5-0.4,2.6-1.4,3.3-3.2c0.7-2.4,1-6.7,1-11.2V53.2c0-4.4-0.3-8.8-1-11.2           c-0.6-1.9-1.8-2.8-3.3-3.2c-0.7-0.2-1.6-0.3-2.2-0.4v-0.4H455c4.1,0,7.6,1.2,10.6,2.8c6.4,3.5,10.7,10.7,10.7,20.7           c0,10-4.4,17.1-10.7,20.7C462.5,83.9,459,85,454.7,85L454.7,85z M453.6,83.9c2.9,0,5.8-1.1,8.1-3.6           c3.3-3.5,5.5-9.2,5.5-18.7c0-9.5-2.2-15.2-5.5-18.8c-2.4-2.6-5.4-3.6-8.2-3.6h-1.4c-1.6,0-3.5,0.4-4.6,1.4           c-2.7,2.1-2.4,6.9-2.4,9.9V73c0,3-0.3,7.7,2.4,9.6c1.1,1,2.9,1.3,4.4,1.3H453.6L453.6,83.9z"/>
									<path id="path26" class="st0" d="M413.4,0.6c7.4,0,13.3,6,13.3,13.3c0,7.4-6,13.3-13.3,13.3c-7.4,0-13.3-6-13.3-13.3           C400.1,6.6,406,0.6,413.4,0.6"/>
								</g>
							</g>
						</g>
					</g>
				</g>
			</g>
		</g>
	</g>
</switch>
</svg>
