<?xml version="1.0" encoding="UTF-8" standalone="no"?>
<svg
   viewBox="0 0 4321.2471 1023.776"
   version="1.1"
   width="4321.2471"
   height="1023.776"
   xmlns="http://www.w3.org/2000/svg"
   xmlns:svg="http://www.w3.org/2000/svg">
  <path
     d="m 903.21,497.375 c -22.05,8.094 -178.352,36.284 -190.074,36.284 -11.722,0 -22.052,-48.844 -1.675,-57.497 16.747,-6.978 155.185,-36.843 167.466,-36.843 12.281,0.279 46.332,50.24 24.28,58.055 z m -59.732,203.192 c -39.634,-9.49 -123.646,-43.541 -132.577,-52.194 -8.931,-8.653 -13.679,-60.846 14.232,-54.706 12.56,2.791 131.182,56.939 145.696,64.754 14.793,7.538 12.281,51.638 -27.353,42.148 z m -216.034,113.6 h -19.538 c 0,0 -19.259,0 -27.632,-20.096 C 544.267,708.663 485.653,566.038 475.605,561.851 464.72,557.385 392.151,548.175 345.819,542.313 v 197.331 h 70.613 V 787.93 H 182.27 v -41.867 c 14.232,-1.954 24.28,-4.745 30.421,-8.094 6.14,-3.628 11.164,-9.49 14.793,-18.142 2.51,-5.582 4.466,-13.956 5.301,-25.399 1.116,-10.885 1.675,-49.123 1.675,-49.123 V 255.109 c 95.456,-34.889 265.992,-55.822 270.179,-29.027 5.303,34.61 4.466,117.505 -57.218,117.505 -22.052,0 -37.959,-21.771 -47.449,-54.706 -9.213,3.349 -54.429,18.98 -54.429,18.98 v 174.444 c 38.517,-4.187 87.641,-9.49 104.387,-17.863 44.937,-21.212 125.041,-175.56 158.814,-255.107 h 18.98 l -0.281,604.832 z m 83.733,-476.444 c 10.327,-10.327 86.524,-89.874 116.389,-108.574 30.144,-18.98 52.191,19.817 45.216,26.795 -6.98,6.699 -128.114,111.086 -136.206,116.389 -15.353,10.048 -35.726,-24.28 -25.401,-34.61 z M 525.288,0 h -1.677 C 146.533,2.791 5.303,168.024 0,511.888 c 5.303,344.143 146.533,509.097 523.611,511.888 h 1.672 C 904.315,1020.985 1045.266,855.752 1050.569,511.888 1045.545,167.745 904.315,2.512 525.283,0 Z m 737.036,380.836 h 178.631 v 49.123 h -124.202 v 52.752 h 121.134 v 48.565 h -121.134 v 95.456 h -54.429 z m 399.61,117.38 c 29.586,0 42.706,-7.257 42.706,-35.168 0,-28.469 -12.56,-35.726 -43.541,-35.726 h -63.36 v 70.894 z m -8.931,46.891 h -54.983 v 81.5 h -53.031 V 380.99 h 118.622 c 77.316,0 95.737,33.214 95.737,80.384 0,33.772 -10.885,65.033 -51.635,77.872 l 48.847,87.641 h -58.055 c 0,-0.281 -45.495,-81.782 -45.495,-81.782 z m 350.848,-3.787 -38.517,-97.689 -38.517,97.689 z m -64.753,-162.163 h 55.264 l 99.084,247.292 h -56.38 l -15.909,-40.471 h -111.365 l -15.909,40.471 h -53.031 c 0,0.279 98.247,-247.292 98.247,-247.292 z m 249.841,1.679 h 70.894 l 66.705,167.745 66.707,-167.745 h 70.613 v 245.617 h -53.031 V 462.336 l -65.87,164.117 h -41.029 l -65.87,-163 v 163 h -49.123 V 380.836 Z m 390.679,0 h 184.771 v 49.123 h -130.345 v 47.728 h 126.997 v 47.449 h -126.995 v 54.427 h 131.463 v 47.17 H 2579.622 V 380.837 Z m 272.947,217.186 27.074,-39.075 c 26.236,17.584 56.662,26.236 88.199,26.236 48.007,0 56.939,-9.211 56.939,-29.865 0,-20.096 -20.654,-24.283 -58.332,-29.586 -65.591,-9.211 -99.922,-21.212 -99.922,-74.522 0,-54.706 33.214,-74.243 102.433,-74.243 49.963,0 80.665,11.723 99.363,24.283 l -29.027,42.146 c -15.63,-10.327 -44.376,-18.98 -70.894,-18.98 -38.517,0 -47.726,7.536 -47.726,25.399 0,19.817 20.096,23.445 59.451,29.307 58.895,8.652 98.528,18.142 98.528,73.685 0,49.682 -27.074,77.593 -109.132,77.593 -48.565,0 -89.034,-11.723 -116.945,-32.377 z m 384.02,-168.11 h -85.126 v -49.123 h 224.684 v 49.123 h -84.85 v 196.494 h -54.706 V 429.912 Z m 419.191,74.601 c 0,-48.007 -18.98,-77.872 -75.36,-77.872 -56.38,0 -75.36,29.863 -75.36,77.87 0,48.007 18.98,78.151 75.36,78.151 56.38,0 75.36,-29.865 75.36,-78.151 z m -205.146,-0.839 c 0,-92.106 51.635,-126.716 130.065,-126.716 78.151,0 130.345,34.61 130.345,126.716 0,92.383 -52.194,126.993 -130.345,126.993 -78.43,0 -130.065,-34.61 -130.065,-126.995 z m 479.431,-5.458 c 29.586,0 42.704,-7.257 42.704,-35.168 0,-28.469 -12.562,-35.726 -43.541,-35.726 h -63.36 v 70.894 h 64.195 z m -8.932,46.891 h -54.985 v 81.5 h -53.031 V 380.99 h 118.62 c 77.314,0 95.735,33.214 95.735,80.384 0,33.772 -10.888,65.033 -51.638,77.872 l 48.844,87.641 h -58.055 c 0,-0.281 -45.497,-81.782 -45.497,-81.782 z m 214.227,-164.271 h 184.771 v 49.123 h -130.345 v 47.728 h 126.997 v 47.449 h -126.995 v 54.427 h 131.463 v 47.17 H 4135.36 V 380.837 Z"
     fill="#ccc"
     id="path2" />
</svg>
