<?xml version="1.0" encoding="UTF-8" standalone="no"?>
<svg
   xmlns:dc="http://purl.org/dc/elements/1.1/"
   xmlns:cc="http://creativecommons.org/ns#"
   xmlns:rdf="http://www.w3.org/1999/02/22-rdf-syntax-ns#"
   xmlns:svg="http://www.w3.org/2000/svg"
   xmlns="http://www.w3.org/2000/svg"
   version="1.1"
   width="401.15048"
   viewBox="0 0 401.15049 113.60559"
   height="113.60559">
  <defs
     id="defs8" />
  <g
     transform="translate(-26.141821,35.234628)"
     style="display:inline;opacity:1">
    <path
       fill="#ccc"
       d="m 315.46997,33.859048 -15.01952,21.979781 15.01952,21.796616 h 11.53938 L 311.25717,55.838829 327.00935,33.859048 Z m -29.30638,0 h 9.8909 v 43.776397 h -9.8909 z M 256.67405,48.32907 c 0,-4.212791 -1.28215,-7.692923 -3.66329,-10.074066 -2.93064,-2.930637 -7.14343,-4.395956 -12.63838,-4.395956 h -20.3313 v 43.776397 h 9.89091 V 42.101466 h 9.70773 c 4.94545,0 7.87609,2.381143 7.87609,6.593934 v 0.183165 c 0,4.029626 -2.93064,6.960264 -7.69292,6.960264 h -5.67811 l 15.20268,21.796616 h 11.53938 L 248.43163,60.967444 c 4.57913,-2.564307 8.24242,-6.960264 8.24242,-12.638374 M 110.5085,64.813906 110.32533,64.630741 100.25127,33.859048 H 92.558348 L 82.301117,64.813906 V 64.630741 L 72.95971,34.042213 H 63.435138 L 78.27149,77.635445 h 7.692924 L 96.404809,47.962741 106.66204,77.635445 h 7.69292 l 14.83635,-43.593232 h -9.15824 z m 73.63227,-9.158242 c 0,8.242418 -6.04444,14.470023 -13.92052,14.470023 -7.87609,0 -14.1037,-6.41077 -14.1037,-14.470023 v -0.183165 c 0,-8.242418 6.04444,-14.470022 13.92053,-14.470022 7.87609,0 14.10369,6.227604 14.10369,14.653187 z m -13.92052,-23.07877 c -13.18787,0 -23.62827,10.074066 -23.62827,22.895605 v 0.183165 c 0,13.004704 10.07407,22.71244 23.4451,22.71244 13.18787,0 23.62827,-10.074066 23.62827,-22.895605 v -0.183165 c 0,-12.821539 -10.07407,-22.71244 -23.4451,-22.71244 m 198.18436,0 h 0.36632 z m 4.02962,19.049144 c -7.50976,-2.014814 -9.8909,-3.296968 -9.8909,-6.593935 0,-2.564308 2.19798,-4.212791 5.86128,-4.212791 0.91582,0 6.77709,0 14.28685,2.381143 v -8.242418 c -6.96026,-2.197978 -12.63837,-2.381143 -14.10369,-2.381143 -9.15824,0.183165 -15.20268,5.31178 -15.20268,13.187869 v 0.183164 c 0.54949,7.876089 6.2276,10.623561 14.65319,13.187869 7.32659,1.831648 9.3414,3.480132 9.3414,6.410769 v 0.183165 c 0,2.747473 -2.56431,4.579121 -6.7771,4.579121 h -1.83165 c -1.28215,0 -6.96026,-0.183164 -14.28685,-2.381143 v 8.059253 c 8.24242,2.564308 14.47002,2.381143 14.47002,2.381143 h -0.36633 1.64848 c 9.89091,0 16.11851,-5.31178 16.11851,-13.737363 v -0.183165 c 0.18316,-7.876088 -5.67811,-10.257231 -13.92053,-12.821538 m -3.6633,18.499649 h 0.18317 z m -0.36632,-37.548793 c 0,0 -0.18317,0 0,0 z"
       style="stroke-width:1.83165" />
  </g>
  <g
     transform="translate(-26.141821,35.234628)"
     style="display:inline">
    <path
       fill="#ccc"
       d="m 26.141821,-34.127497 h 9.779657 v 44.469764 h -9.779657 z m 97.981099,44.469764 h 9.04157 V -7.0027865 H 154.3845 V -16.4134 h -21.22001 v -8.488005 h 24.17236 v -9.226092 h -33.21393 z m 62.18386,-44.469764 h 9.77965 v 44.469764 h -9.77965 z m 97.79657,0 h 9.77966 v 44.469764 h -9.77966 z m 39.11863,9.410614 h 13.28557 v 35.05915 h 9.77966 v -35.05915 h 13.10105 v -9.410614 h -36.16628 z m 82.11222,8.488004 -10.70227,-17.898618 h -11.44035 l 17.16053,26.9401886 V 10.342267 h 9.77966 V -7.3718302 L 427.2923,-34.127497 H 416.03647 Z M 62.308102,-35.234628 v 13.101051 L 100.13508,11.449398 V -1.6516532 Z m 158.873298,0 v 13.101051 l 37.82698,33.582975 V -1.6516532 Z"
       style="stroke-width:1.84522" />
  </g>
</svg>
