<svg width="63.874" height="64" version="1.1" viewBox="0 0 63.874 64" xmlns="http://www.w3.org/2000/svg">
    <path d="m0 64h63.874v-64h-63.874z" fill="#ccc" />
    <g clip-rule="evenodd" fill="#000" fill-rule="evenodd">
        <path d="m57.518 0.0019531-11.948 18.331 0.0109-0.0081 18.282-18.323z" />
        <path d="m25.81 43.88c0 0.5652 0.4693 0.8475 1.6021 0.8475 1.1292 0 1.5997-0.2823 1.5997-0.8475v-16.092c0-4.1999 1.6469-5.9449 6.2173-5.9449h0.8481c0.6593 0 0.8928-0.5674 0.8928-1.4655 0-1.0837-0.6116-1.32-2.4014-1.32-5.0874 0-8.7586 2.2641-8.7586 8.4458zm14.364 0c0 0.5652 0.4705 0.8475 1.6015 0.8475 1.1287 0 1.5998-0.2823 1.5998-0.8475v-23.972c0-0.5669-0.4711-0.8497-1.5998-0.8497-1.131 0-1.6015 0.2828-1.6015 0.8497zm8.9945-12.884 9.0897-10.051c0.3306-0.3766 0.5635-0.6612 0.5635-0.9434 0-0.5675-1.2233-1.1384-2.0232-1.1384-0.5658 0-1.0363 0.4306-1.4604 0.9015l-9.939 11.043c-0.4676 0.5186-0.564 0.8015-0.564 1.0861 0 0.2823 0.0964 0.5652 0.564 1.0838l9.939 11.042c0.4241 0.4715 0.8946 0.9021 1.4604 0.9021 0.7999 0 2.0232-0.5709 2.0232-1.1389 0-0.2817-0.2329-0.564-0.5635-0.9406l-9.0897-10.053c-0.4235-0.4708-0.6587-0.7077-0.6587-0.8957 0-0.1903 0.2352-0.4249 0.6587-0.8975z" />
        <path d="m22.275 42.161v-9.1967c0-0.5738-0.47-0.8601-1.5998-0.8601-1.1316 0-1.6021 0.2863-1.6021 0.8601v7.6719c0 1.1907-0.5176 1.6668-2.9196 1.6668-4.8515 0-7.8652-3.7164-7.8652-10.054 0-6.6272 3.7194-10.391 10.079-10.391h1.8356c0.6605 0 0.8963-0.5715 0.8963-1.4753 0-1.097-0.6117-1.3356-2.402-1.3356h-0.7539c-7.393 0-13.092 4.0976-13.092 13.25 0 8.7683 4.991 12.677 11.254 12.677 4.9939 0 6.1697-1.3838 6.1697-2.8131z" />
        <path d="m31.936 30.249c0.9669 0 1.7524 0.7842 1.7524 1.7553 0 0.9693-0.7855 1.7564-1.7524 1.7564-0.9668 0-1.7524-0.7871-1.7524-1.7564 0-0.9711 0.7856-1.7553 1.7524-1.7553z" />
    </g>
</svg>
