<?xml version="1.0" encoding="UTF-8"?>
<!-- Generator: Adobe Illustrator 22.1.0, SVG Export Plug-In . SVG Version: 6.00 Build 0)  -->
<svg version="1.1" id="Layer_1" xmlns="http://www.w3.org/2000/svg" xmlns:xlink="http://www.w3.org/1999/xlink" x="0px" y="0px" viewBox="0 0 755 183.2" style="enable-background:new 0 0 755 183.2;" xml:space="preserve">
<style type="text/css">
	.st0{fill:none;}
	.st1{fill:#cccccc;}
</style>
<g class="st1">
		<path d="M469.9,111.8c-6.8,11.3-19.2,18.8-33.3,18.8c-19.2,0-35.1-13.9-38.4-32.2h76.8c0,0,0,0,0,0h13.5c0.3-2.2,0.5-4.5,0.5-6.9    c0-28.9-23.4-52.3-52.3-52.3c-28.9,0-52.3,23.4-52.3,52.3c0,28.9,23.4,52.3,52.3,52.3c21.7,0,40.4-13.3,48.3-32.2H469.9z     M436.5,52.6c19.3,0,35.4,14.1,38.4,32.5h-76.9C401.2,66.7,417.2,52.6,436.5,52.6z"/>
		<path d="M605.2,91.4c-0.1-28.8-23.5-52.1-52.3-52.1c-28.9,0-52.3,23.4-52.3,52.3c0,28.9,23.4,52.3,52.3,52.3    c15.5,0,29.4-6.8,39-17.5v56.9h13.3L605.2,91.4L605.2,91.4z M552.9,130.6c-21.5,0-39-17.5-39-39c0-21.5,17.5-39,39-39    s39,17.5,39,39C591.9,113.2,574.4,130.6,552.9,130.6z"/>
		<path d="M754.7,91.4c-0.1-28.8-23.5-52.1-52.3-52.1c-28.9,0-52.3,23.4-52.3,52.3c0,0.1,0,0.2,0,0.3v52.1h13.3V91.6    c0-21.5,17.5-39,39-39c21.5,0,39,17.5,39,39c0,0,0,0.1,0,0.1v34.8c0,0,0,0,0,0V144h13.3L754.7,91.4L754.7,91.4z"/>
		<path d="M384.1,39.3c-28.9,0-52.3,23.4-52.3,52.3c0,0,0,0,0,0h0v52.4h13.3V91.6h0c0-21.5,17.5-39,39-39c0.1,0,0.1,0,0.2,0V39.3    C384.3,39.3,384.2,39.3,384.1,39.3z"/>
			<rect x="621.1" y="39.5" width="13.3" height="104.5"/>
	<rect x="621.1" y="11.6" width="13.3" height="13.3"/>
<path class="st1" d="M266.5,39.3c-28.9,0-52.3,23.4-52.3,52.3c0,0.8,0,1.5,0.1,2.2v89.5h13.3v-56.8c9.6,10.7,23.5,17.4,38.9,17.4  c28.9,0,52.3-23.4,52.3-52.3C318.8,62.7,295.4,39.3,266.5,39.3z M266.5,130.6c-21.5,0-39-17.5-39-39c0-21.5,17.5-39,39-39  c21.5,0,39,17.5,39,39C305.5,113.2,288,130.6,266.5,130.6z"/>
	<path class="st0" d="M92.4,52.5c-21.5,0-38.9,17.4-38.9,38.9c0,21.5,17.4,38.9,38.9,38.9h36.1h2.8v-8V92.1c0-0.2,0-0.4,0-0.6   C131.3,70,113.9,52.5,92.4,52.5z"/>
	<path class="st0" d="M144.7,92v30.5v8h25.9V91.6c0-43.2-35-78.2-78.2-78.2c-43.2,0-78.2,35-78.2,78.2s35,78.2,78.2,78.2h38.9v-26   h-2.8H92.4c-28.9,0-52.3-23.4-52.3-52.3s23.4-52.3,52.3-52.3c28.9,0,52.3,23.4,52.3,52.3C144.7,91.7,144.7,91.8,144.7,92z"/>
	<path fill="#666666" d="M144.7,143.8h25.9H184V91.9h0c0-0.1,0-0.2,0-0.3C184,41,143,0,92.4,0C41.8,0,0.8,41,0.8,91.6   c0,50.6,41,91.6,91.6,91.6c0.1,0,0.2,0,0.3,0v0h52v-13.4V143.8z M131.3,92.1v30.4v8h-2.8H92.4c-21.5,0-38.9-17.4-38.9-38.9   c0-21.5,17.4-38.9,38.9-38.9c21.5,0,38.9,17.4,38.9,38.9C131.3,91.7,131.3,91.9,131.3,92.1z M92.4,39.2   c-28.9,0-52.3,23.4-52.3,52.3s23.4,52.3,52.3,52.3h36.1h2.8v26H92.4c-43.2,0-78.2-35-78.2-78.2s35-78.2,78.2-78.2   c43.2,0,78.2,35,78.2,78.2v38.8h-25.9v-8V92c0-0.2,0-0.3,0-0.5C144.7,62.6,121.3,39.2,92.4,39.2z"/>
	</g>
</svg>