<svg xmlns="http://www.w3.org/2000/svg" width="520.55" height="143.27" viewBox="0 0 520.55 143.27"><defs><style>.a{fill:#cccccc;}</style></defs><path class="a" d="M118.108,27.93s4.075-10.4,7.652-8.908c4.313,1.818,13.162,4.892,17.51,8V7a7,7,0,0,0-7-7H94.755A46.842,46.842,0,0,1,118.108,27.93Z"/><path class="a" d="M64.162,80.167c30.694,9.162,58.2-29.96,31.416-50.811C53.761-3.208,23.894,67.7,63.918,80.061l-3.966-1.187C60.242,78.965,63.911,80.085,64.162,80.167Z"/><path class="a" d="M25.65,134.491C11.592,126.858,3.959,118.264,0,110.321V136.27a7,7,0,0,0,7,7H48.709A91.294,91.294,0,0,1,25.65,134.491Z"/><path class="a" d="M21.783,95.123c2.387,7.743.5,16.15,22.538,23.348C67.385,126,79.459,107.487,79.8,103.013s-13.519,3.953-36.867-6.793C21.513,86.353,7.1,57.773,27.479,22.4,33.783,11.453,40.687,4.388,47.647,0H7A7,7,0,0,0,0,7V83.283C4.941,84.243,20.685,91.582,21.783,95.123Z"/><path class="a" d="M116.213,90.949c-12.753,23.5-23.91,45.556-41.178,52.321H136.27a7,7,0,0,0,7-7V36.046C138.931,45.561,128.528,68.245,116.213,90.949Z"/><path class="a" d="M222.236,45.114c0,8.24-1.6,13.761-6.48,17.921-3.84,3.2-8.96,4.72-15.44,4.72-11.681,0-19.121-4.56-22-13.441h11.76c2.161,2.561,5.36,3.68,9.84,3.68,3.921,0,7.12-1.039,9.041-2.8,2.56-2.4,2.64-5.28,2.64-9.28a17.115,17.115,0,0,1-12.88,5.28c-11.441,0-20.4-9.12-20.4-21.841,0-13.119,9.04-21.759,19.84-21.759,5.281,0,9.441,2,13.441,5.759V8.714h10.64Zm-33.2-15.681c0,7.042,5.04,12,11.681,12,6.56,0,11.439-4.719,11.439-11.92,0-6.88-4.559-12.161-11.6-12.161S189.035,22.874,189.035,29.433Z"/><path class="a" d="M264.4,46.715c-3.76,3.679-7.76,5.6-13.12,5.6-10.8,0-20.241-9.28-20.241-22.32,0-13.28,8.96-22.4,20-22.4A18.251,18.251,0,0,1,264.4,13.353V8.714h10.64v42.48H264.4Zm-22.641-16.8c0,7.28,4.8,12.641,11.441,12.641,6.56,0,11.68-4.961,11.68-12.721,0-7.44-4.96-12.481-11.68-12.481C246.154,17.353,241.754,22.954,241.754,29.914Z"/><path class="a" d="M323.674,51.194H313.033V30.634c0-8.24-1.6-13.281-7.519-13.281-5.28,0-9.12,4.321-9.12,13.041v20.8H285.753V8.714h10.641v4.88a17.769,17.769,0,0,1,13.28-6,13.346,13.346,0,0,1,12.4,7.6c3.92-4.96,7.84-7.6,14.241-7.6,4.719,0,8.96,1.92,11.36,4.96,2.8,3.52,3.12,8.16,3.12,13.76v24.88H340.154V27.754c0-6.96-2.48-10.4-7.28-10.4-5.36,0-9.2,4.161-9.2,12.881Z"/><path class="a" d="M400.793,42.954c-4.56,6.48-10.56,9.36-19.52,9.36-13.521,0-22.241-9.92-22.241-22.4,0-11.6,8.4-22.32,22.081-22.32,13.44,0,22.56,9.6,22.56,23.04,0,.96-.08,1.44-.08,2.4H369.352c1.04,6.32,5.841,9.841,11.921,9.841a13.754,13.754,0,0,0,10.56-4.16Zm-7.84-18.32c-1.44-4.96-6-8-11.68-8-5.281,0-9.361,2.639-11.441,8Z"/><path class="a" d="M420.632,32.794c-6.8-3.441-10.24-7.6-10.24-12.96,0-6.641,5.6-12.24,13.761-12.24a17.281,17.281,0,0,1,14,7.04l-6.561,6.639c-2.4-2.4-4.8-3.92-7.359-3.92-2.161,0-3.841.881-3.841,2.561,0,1.6,1.52,2.32,3.841,3.519l3.92,2c7.04,3.6,10.8,7.281,10.8,13.6,0,7.6-6,13.28-15.28,13.28a17.947,17.947,0,0,1-14.88-7.28l6.56-7.2c2.48,2.881,6.08,4.961,8.881,4.961,2.639,0,4.719-1.521,4.719-3.441,0-1.84-1.759-3.2-4.719-4.719Z"/><path class="a" d="M442.711,8.714h10.88l11.041,26.64,12.24-26.64h10.96l-26.72,58H450.151l8.72-18.721Z"/><path class="a" d="M502.23,32.794c-6.8-3.441-10.24-7.6-10.24-12.96,0-6.641,5.6-12.24,13.76-12.24a17.279,17.279,0,0,1,14,7.04l-6.559,6.639c-2.4-2.4-4.8-3.92-7.361-3.92-2.16,0-3.84.881-3.84,2.561,0,1.6,1.52,2.32,3.84,3.519l3.92,2c7.04,3.6,10.8,7.281,10.8,13.6,0,7.6-6,13.28-15.28,13.28a17.947,17.947,0,0,1-14.88-7.28l6.56-7.2c2.48,2.881,6.08,4.961,8.88,4.961,2.64,0,4.72-1.521,4.72-3.441,0-1.84-1.76-3.2-4.72-4.719Z"/><path class="a" d="M210.373,116.635c0,6.179-1.2,10.319-4.859,13.439-2.88,2.4-6.72,3.54-11.58,3.54-8.759,0-14.339-3.42-16.5-10.08h8.819c1.62,1.92,4.021,2.761,7.38,2.761,2.94,0,5.34-.78,6.78-2.1,1.92-1.8,1.98-3.96,1.98-6.96a12.835,12.835,0,0,1-9.66,3.96c-8.58,0-15.3-6.839-15.3-16.379,0-9.84,6.78-16.319,14.879-16.319,3.96,0,7.08,1.5,10.08,4.319V89.336h7.979Zm-24.9-11.76a8.608,8.608,0,0,0,8.759,9c4.92,0,8.58-3.54,8.58-8.94,0-5.16-3.42-9.12-8.7-9.12S185.475,99.955,185.475,104.875Z"/><path class="a" d="M223.454,93.355c1.5-3.3,4.079-4.859,6.72-4.859a7.507,7.507,0,0,1,3.48.84l-2.46,6.84a5.608,5.608,0,0,0-2.34-.66c-2.281,0-4.08,2.639-4.26,7.32-.06,1.739-.06,3.719-.06,5.459v12.9h-7.98V89.336h6.9Z"/><path class="a" d="M268.453,105.235A16.71,16.71,0,1,1,251.533,88.5,16.6,16.6,0,0,1,268.453,105.235Zm-25.379,0c0,5.4,3.42,9.24,8.58,9.24,4.919,0,8.759-3.6,8.759-9.18,0-5.4-3.54-9.239-8.759-9.239C246.674,96.056,243.074,99.955,243.074,105.235Z"/><path class="a" d="M274.994,89.336h7.98v16.619c0,5.7,1.8,8.7,6,8.7,4.26,0,6-2.939,6-8.339V89.336h7.98v14.7c0,5.88-.36,10.2-3.72,13.92-2.52,2.819-5.82,4.02-10.259,4.02-7.68,0-12.42-3.9-13.68-11.34a35.8,35.8,0,0,1-.3-6.72Z"/><path class="a" d="M318.913,92.815a13.683,13.683,0,0,1,10.02-4.319c8.22,0,15.059,6.84,15.059,16.8,0,9.779-7.139,16.74-15.239,16.74a13.338,13.338,0,0,1-9.84-4.2v15h-7.979v-43.5h7.979Zm-.36,12.361c0,5.759,3.84,9.539,8.76,9.539,4.98,0,8.639-4.02,8.639-9.48,0-5.219-3.359-9.42-8.639-9.42C322.213,95.815,318.553,99.6,318.553,105.176Z"/></svg>