<?xml version="1.0" encoding="UTF-8" standalone="no"?>
<svg
   viewBox="0 0 92.310997 26.382"
   version="1.1"
   id="svg2183"
   sodipodi:docname="logoCTM.svg"
   width="92.310997"
   height="26.382"
   inkscape:version="1.1.2 (b8e25be833, 2022-02-05)"
   xmlns:inkscape="http://www.inkscape.org/namespaces/inkscape"
   xmlns:sodipodi="http://sodipodi.sourceforge.net/DTD/sodipodi-0.dtd"
   xmlns="http://www.w3.org/2000/svg"
   xmlns:svg="http://www.w3.org/2000/svg">
  <sodipodi:namedview
     id="namedview2185"
     pagecolor="#505050"
     bordercolor="#eeeeee"
     borderopacity="1"
     inkscape:pageshadow="0"
     inkscape:pageopacity="0"
     inkscape:pagecheckerboard="0"
     showgrid="false"
     fit-margin-top="0"
     fit-margin-left="0"
     fit-margin-right="0"
     fit-margin-bottom="0"
     inkscape:zoom="7.3266667"
     inkscape:cx="78.685168"
     inkscape:cy="17.879891"
     inkscape:window-width="1920"
     inkscape:window-height="1010"
     inkscape:window-x="-6"
     inkscape:window-y="-6"
     inkscape:window-maximized="1"
     inkscape:current-layer="g2181" />
  <defs
     id="defs2141">
    <linearGradient
       x1="5.3368158"
       y1="15.811487"
       x2="19.798023"
       y2="6.6169429"
       id="a"
       gradientTransform="scale(1.0886417,0.91857584)"
       gradientUnits="userSpaceOnUse">
      <stop
         stop-color="#39261D"
         offset="0%"
         id="stop1984" />
      <stop
         stop-color="#E0B585"
         offset="65.93%"
         id="stop1986" />
      <stop
         stop-color="#DDB283"
         offset="75.107%"
         id="stop1988" />
      <stop
         stop-color="#D3A87B"
         offset="82.519%"
         id="stop1990" />
      <stop
         stop-color="#C2986F"
         offset="89.314%"
         id="stop1992" />
      <stop
         stop-color="#AA815D"
         offset="95.701%"
         id="stop1994" />
      <stop
         stop-color="#966D4E"
         offset="99.903%"
         id="stop1996" />
    </linearGradient>
    <linearGradient
       x1="9.9405069"
       y1="5.7693801"
       x2="16.038715"
       y2="5.7693801"
       id="b"
       gradientTransform="scale(1.0563865,0.94662319)"
       gradientUnits="userSpaceOnUse">
      <stop
         stop-color="#FFF"
         offset="0%"
         id="stop1999" />
      <stop
         stop-color="#FEFDFD"
         offset=".33%"
         id="stop2001" />
      <stop
         stop-color="#D8CEC9"
         offset="11.029%"
         id="stop2003" />
      <stop
         stop-color="#B6A59C"
         offset="22.061%"
         id="stop2005" />
      <stop
         stop-color="#9A8175"
         offset="33.456%"
         id="stop2007" />
      <stop
         stop-color="#836556"
         offset="45.171%"
         id="stop2009" />
      <stop
         stop-color="#714E3D"
         offset="57.293%"
         id="stop2011" />
      <stop
         stop-color="#643E2C"
         offset="69.996%"
         id="stop2013" />
      <stop
         stop-color="#5C3521"
         offset="83.657%"
         id="stop2015" />
      <stop
         stop-color="#5A321E"
         offset="100%"
         id="stop2017" />
    </linearGradient>
    <linearGradient
       x1="8.0511703"
       y1="6.9474397"
       x2="10.212664"
       y2="7.5025096"
       id="c"
       gradientTransform="scale(0.77789953,1.2855131)"
       gradientUnits="userSpaceOnUse">
      <stop
         stop-color="#200D05"
         stop-opacity=".8"
         offset="9.623%"
         id="stop2020" />
      <stop
         stop-color="#200D05"
         stop-opacity=".488"
         offset="36.512%"
         id="stop2022" />
      <stop
         stop-color="#200D05"
         stop-opacity="0"
         offset="88.651%"
         id="stop2024" />
    </linearGradient>
    <linearGradient
       x1="10.484869"
       y1="7.0421314"
       x2="12.7858"
       y2="7.0421314"
       id="e"
       gradientTransform="scale(1.2024948,0.83160443)"
       gradientUnits="userSpaceOnUse">
      <stop
         stop-color="#5A321E"
         stop-opacity="0"
         offset=".07%"
         id="stop2027" />
      <stop
         stop-color="#58301D"
         stop-opacity=".042"
         offset="3.17%"
         id="stop2029" />
      <stop
         stop-color="#30160B"
         stop-opacity=".742"
         offset="62.951%"
         id="stop2031" />
      <stop
         stop-color="#220C05"
         offset="100%"
         id="stop2033" />
    </linearGradient>
    <linearGradient
       x1="10.877553"
       y1="7.6188359"
       x2="12.056306"
       y2="7.6188359"
       id="f"
       gradientTransform="scale(1.2449491,0.8032457)"
       gradientUnits="userSpaceOnUse">
      <stop
         stop-color="#25130E"
         stop-opacity="0"
         offset=".211%"
         id="stop2036" />
      <stop
         stop-color="#25130E"
         stop-opacity=".247"
         offset="10.337%"
         id="stop2038" />
      <stop
         stop-color="#25130E"
         stop-opacity=".671"
         offset="34.316%"
         id="stop2040" />
      <stop
         stop-color="#25130E"
         stop-opacity=".922"
         offset="61.737%"
         id="stop2042" />
      <stop
         stop-color="#25130E"
         offset="99.93%"
         id="stop2044" />
    </linearGradient>
    <linearGradient
       x1="7.2750425"
       y1="40.433701"
       x2="7.275053"
       y2="40.433701"
       id="g"
       gradientTransform="scale(2.236068,0.4472136)"
       gradientUnits="userSpaceOnUse">
      <stop
         stop-color="#FFB503"
         offset=".421%"
         id="stop2047" />
      <stop
         stop-color="#FFD719"
         offset="86.807%"
         id="stop2049" />
    </linearGradient>
    <linearGradient
       x1="31.114265"
       y1="4.8722334"
       x2="31.114342"
       y2="4.8722444"
       id="h"
       gradientTransform="scale(0.22086305,4.5276926)"
       gradientUnits="userSpaceOnUse">
      <stop
         stop-color="#641724"
         offset="0%"
         id="stop2052" />
      <stop
         stop-color="#711825"
         offset="10.055%"
         id="stop2054" />
      <stop
         stop-color="#941B26"
         offset="28.639%"
         id="stop2056" />
      <stop
         stop-color="#B31E28"
         offset="43.254%"
         id="stop2058" />
      <stop
         stop-color="#B31E28"
         offset="100%"
         id="stop2060" />
    </linearGradient>
    <linearGradient
       x1="4.4190559"
       y1="30.550613"
       x2="19.003103"
       y2="31.744781"
       id="i"
       gradientTransform="scale(1.3429207,0.74464562)"
       gradientUnits="userSpaceOnUse">
      <stop
         stop-color="#641724"
         offset=".421%"
         id="stop2063" />
      <stop
         stop-color="#711825"
         offset="10.395%"
         id="stop2065" />
      <stop
         stop-color="#941B26"
         offset="28.828%"
         id="stop2067" />
      <stop
         stop-color="#B31E28"
         offset="43.324%"
         id="stop2069" />
    </linearGradient>
    <linearGradient
       x1="5.1243958"
       y1="30.504965"
       x2="17.5807"
       y2="30.504965"
       id="j"
       gradientTransform="scale(1.3412313,0.74558355)"
       gradientUnits="userSpaceOnUse">
      <stop
         stop-color="#5B0D14"
         offset="0%"
         id="stop2072" />
      <stop
         stop-color="#94171F"
         offset="46.076%"
         id="stop2074" />
      <stop
         stop-color="#AD1B24"
         offset="70.485%"
         id="stop2076" />
    </linearGradient>
    <linearGradient
       x1="12.693756"
       y1="13.958871"
       x2="4.9644098"
       y2="18.567137"
       id="k"
       gradientTransform="scale(1.2100614,0.82640437)"
       gradientUnits="userSpaceOnUse">
      <stop
         stop-color="#E0B58B"
         stop-opacity="0"
         offset="0%"
         id="stop2079" />
      <stop
         stop-color="#CDA57E"
         stop-opacity=".14"
         offset="7.483%"
         id="stop2081" />
      <stop
         stop-color="#7B5D45"
         stop-opacity=".759"
         offset="43.013%"
         id="stop2083" />
      <stop
         stop-color="#5B412F"
         offset="60.157%"
         id="stop2085" />
      <stop
         stop-color="#573D2D"
         offset="62.327%"
         id="stop2087" />
      <stop
         stop-color="#38241B"
         offset="80.215%"
         id="stop2089" />
      <stop
         stop-color="#2C1A14"
         offset="90.209%"
         id="stop2091" />
      <stop
         stop-color="#20100C"
         offset="94.555%"
         id="stop2093" />
      <stop
         stop-color="#170906"
         offset="99.435%"
         id="stop2095" />
    </linearGradient>
    <linearGradient
       x1="19.717121"
       y1="6.600832"
       x2="21.80291"
       y2="5.4999156"
       id="l"
       gradientTransform="scale(1.0268352,0.97386607)"
       gradientUnits="userSpaceOnUse">
      <stop
         stop-color="#502414"
         stop-opacity="0"
         offset="13.834%"
         id="stop2098" />
      <stop
         stop-color="#502414"
         stop-opacity=".425"
         offset="44.789%"
         id="stop2100" />
      <stop
         stop-color="#502414"
         stop-opacity=".842"
         offset="80.396%"
         id="stop2102" />
      <stop
         stop-color="#502414"
         offset="99.857%"
         id="stop2104" />
    </linearGradient>
    <linearGradient
       x1="11.96732"
       y1="23.067764"
       x2="20.680225"
       y2="23.067764"
       id="m"
       gradientTransform="scale(1.0679918,0.93633676)"
       gradientUnits="userSpaceOnUse">
      <stop
         stop-color="#FFB503"
         offset=".069%"
         id="stop2107" />
      <stop
         stop-color="#FFD719"
         offset="86.807%"
         id="stop2109" />
    </linearGradient>
    <linearGradient
       x1="5.478651"
       y1="25.423176"
       x2="11.379331"
       y2="25.423176"
       id="n"
       gradientTransform="scale(1.2886522,0.77600455)"
       gradientUnits="userSpaceOnUse">
      <stop
         stop-color="#FFB503"
         offset=".421%"
         id="stop2112" />
      <stop
         stop-color="#FFD719"
         offset="86.807%"
         id="stop2114" />
    </linearGradient>
    <radialGradient
       cx="15.316657"
       cy="6.6716933"
       fx="15.316657"
       fy="6.6716933"
       r="5.1416607"
       gradientTransform="scale(1.0563865,0.94662319)"
       id="d"
       gradientUnits="userSpaceOnUse">
      <stop
         stop-color="#623C29"
         offset="0%"
         id="stop2117" />
      <stop
         stop-color="#623C29"
         stop-opacity=".776"
         offset="20.04%"
         id="stop2119" />
      <stop
         stop-color="#623C29"
         stop-opacity=".217"
         offset="73.879%"
         id="stop2121" />
      <stop
         stop-color="#623C29"
         stop-opacity="0"
         offset="100%"
         id="stop2123" />
    </radialGradient>
    <radialGradient
       cx="15.859519"
       cy="8.9518557"
       fx="15.859519"
       fy="8.9518557"
       r="10.550807"
       gradientTransform="scale(1.3181167,0.75865817)"
       id="o"
       gradientUnits="userSpaceOnUse">
      <stop
         stop-color="#5B3622"
         offset="20.789%"
         id="stop2126" />
      <stop
         stop-color="#5E3925"
         stop-opacity=".974"
         offset="48.126%"
         id="stop2128" />
      <stop
         stop-color="#6A452E"
         stop-opacity=".887"
         offset="62.767%"
         id="stop2130" />
      <stop
         stop-color="#7F583E"
         stop-opacity=".738"
         offset="74.401%"
         id="stop2132" />
      <stop
         stop-color="#9B7455"
         stop-opacity=".526"
         offset="84.454%"
         id="stop2134" />
      <stop
         stop-color="#C09772"
         stop-opacity=".255"
         offset="93.394%"
         id="stop2136" />
      <stop
         stop-color="#E3B88D"
         stop-opacity="0"
         offset="99.866%"
         id="stop2138" />
    </radialGradient>
  </defs>
  <g
     fill="none"
     fill-rule="evenodd"
     id="g2181"
     transform="translate(0,-1.997)">
    <g
       transform="translate(0,1.997)"
       id="g2175">
      <circle
         fill="#cccccc"
         fill-rule="nonzero"
         cx="13.191"
         cy="13.191"
         r="13.191"
         id="circle2143" />
      <path
         d="m 21.947,7.662 c -0.414,0.515 -0.643,0.494 -0.643,0.494 -0.16,0.422 -0.384,0.817 -0.665,1.17 -0.214,0.258 -0.521,0.603 -0.825,0.927 -0.318,0.34 -0.633,0.659 -0.835,0.833 a 10.294,10.294 0 0 0 -2.215,3.301 0.279,0.279 0 0 0 0.071,0.25 0.308,0.308 0 0 0 0.204,0.086 2.852,2.852 0 0 0 -1.054,2.543 c 0.12,0.733 0.282,0.816 0.282,0.816 a 5.54,5.54 0 0 0 -3.485,0.532 H 12.781 A 17.976,17.976 0 0 0 7.061,17.439 3.928,3.928 0 0 0 5.617,15.172 5.7,5.7 0 0 1 3.939,8.956 8.286,8.286 0 0 1 8.989,4.306 c 1.484,-0.502 3.205,-0.745 3.8,-0.98 l 0.15,-0.058 h 10e-4 l 0.002,-10e-4 c 0.233,-0.092 0.667,-0.266 0.807,-0.348 0.195,-0.114 0.317,-0.04 0.388,0.178 a 4.359,4.359 0 0 0 2.545,1.989 h 0.008 a 16.17,16.17 0 0 0 3.547,-0.172 c 0.609,-0.108 1.231,0.089 1.667,0.526 0.49,0.655 0.506,1.55 0.042,2.222 z"
         fill="url(#a)"
         fill-rule="nonzero"
         id="path2145"
         style="fill:url(#a)" />
      <path
         d="m 16.689,5.087 c -0.768,2.116 -4.89,0.753 -5.408,2.97 A 1.292,1.292 0 0 1 11.212,8.03 2.365,2.365 0 0 1 10.908,7.178 3.07,3.07 0 0 1 11.341,5.314 0.033,0.033 0 0 0 11.305,5.267 2.014,2.014 0 0 1 10.977,5.291 4.72,4.72 0 0 1 12.939,3.268 h 10e-4 l 0.002,-10e-4 c 0.233,-0.092 0.667,-0.266 0.807,-0.348 0.195,-0.114 0.317,-0.04 0.388,0.178 a 4.359,4.359 0 0 0 2.545,1.989 h 0.007 z"
         fill="url(#b)"
         fill-rule="nonzero"
         opacity="0.83"
         style="mix-blend-mode:multiply;fill:url(#b)"
         id="path2147" />
      <path
         d="M 7.552,10.234 A 1.713,1.713 0 0 1 7.182,9.029 C 7.045,9.104 6.912,9.186 6.772,9.258 A 0.032,0.032 0 0 1 6.723,9.23 C 6.797,8.838 6.923,8.457 7.099,8.098 6.915,8.128 6.734,8.168 6.556,8.219 A 0.032,0.032 0 0 1 6.519,8.172 3.697,3.697 0 0 1 8.432,6.823 0.515,0.515 0 0 0 8.498,6.538 L 8.496,6.528 C 8.288,5.714 6.586,6.406 5.788,7.354 a 3.604,3.604 0 0 0 -0.725,3.09 2.29,2.29 0 0 0 1.92,1.95 c 0.22,0.02 0.443,0.007 0.659,-0.04 C 7.806,12.306 7.967,12.248 8.124,12.178 8.612,11.92 8.852,11.355 8.699,10.824 8.282,10.67 7.845,10.622 7.552,10.234 Z"
         fill="url(#c)"
         fill-rule="nonzero"
         id="path2149"
         style="fill:url(#c)" />
      <path
         d="m 16.689,5.087 c -0.768,2.116 -4.89,0.753 -5.408,2.97 A 1.292,1.292 0 0 1 11.212,8.03 2.365,2.365 0 0 1 10.908,7.178 3.07,3.07 0 0 1 11.341,5.314 0.033,0.033 0 0 0 11.305,5.267 2.014,2.014 0 0 1 10.977,5.291 4.72,4.72 0 0 1 12.939,3.268 h 10e-4 l 0.002,-10e-4 c 0.233,-0.092 0.667,-0.266 0.807,-0.348 0.195,-0.114 0.317,-0.04 0.388,0.178 a 4.359,4.359 0 0 0 2.545,1.989 h 0.007 z"
         fill="url(#d)"
         fill-rule="nonzero"
         id="path2151"
         style="fill:url(#d)" />
      <path
         d="M 14.182,4.909 C 13.404,4.997 13.077,6.495 12.608,6.813 13.446,6.545 14.513,6.497 15.362,6.216 15.472,5.221 14.859,4.832 14.182,4.909 Z"
         fill="url(#e)"
         fill-rule="nonzero"
         id="path2153"
         style="fill:url(#e)" />
      <path
         d="M 14.407,5.646 C 14.005,5.67 13.789,6.406 13.542,6.595 14.03,6.507 14.537,6.435 15.003,6.319 V 6.318 A 0.54,0.54 0 0 0 14.407,5.646 Z"
         fill="url(#f)"
         fill-rule="nonzero"
         id="path2155"
         style="fill:url(#f)" />
      <path
         d="m 16.27,18.083 -0.005,-10e-4 h 0.004 z"
         fill="url(#g)"
         fill-rule="nonzero"
         id="path2157"
         style="fill:url(#g)" />
      <path
         stroke="url(#h)"
         stroke-width="0.041"
         d="M 6.871,22.06 H 6.873"
         id="path2159"
         style="stroke:url(#h)" />
      <path
         d="m 18.663,25.2 v 0.002 c -0.765,0.348 -1.56,0.622 -2.376,0.819 a 13.258,13.258 0 0 1 -2.88,0.363 h -0.051 l -0.165,0.002 A 13.135,13.135 0 0 1 6.185,24.374 c 0.277,-0.757 0.507,-1.53 0.688,-2.314 0.009,-0.041 0.016,-0.081 0.023,-0.121 0.157,-0.816 0.255,-1.642 0.295,-2.472 h 0.01 a 16.78,16.78 0 0 1 7.464,2.55 20.688,20.688 0 0 1 3.993,3.18 l 0.005,0.004 z"
         fill="url(#i)"
         fill-rule="nonzero"
         id="path2161"
         style="fill:url(#i)" />
      <path
         d="m 18.663,25.2 v 0.002 c -0.765,0.348 -1.56,0.622 -2.376,0.819 A 15.614,15.614 0 0 0 6.873,22.06 c 0.009,-0.041 0.016,-0.081 0.023,-0.12 0.157,-0.817 0.255,-1.643 0.295,-2.473 h 0.01 a 16.78,16.78 0 0 1 7.464,2.55 20.688,20.688 0 0 1 3.993,3.18 l 0.005,0.004 z"
         fill="url(#j)"
         fill-rule="nonzero"
         id="path2163"
         style="fill:url(#j)" />
      <path
         d="m 16.835,14.637 a 0.308,0.308 0 0 0 0.204,0.086 2.852,2.852 0 0 0 -1.054,2.543 c 0.12,0.733 0.282,0.816 0.282,0.816 a 5.54,5.54 0 0 0 -3.485,0.532 H 12.781 A 17.976,17.976 0 0 0 7.061,17.439 3.928,3.928 0 0 0 5.617,15.172 5.702,5.702 0 0 1 3.927,8.992 c -0.389,4.47 2.478,5.276 5.389,4.988 -0.19,0.183 -0.393,0.353 -0.607,0.509 -0.02,0.014 -0.022,0.053 0.008,0.059 a 4.136,4.136 0 0 0 2.32,-0.533 c -0.152,0.21 -0.323,0.405 -0.51,0.583 a 0.032,0.032 0 0 0 0.022,0.055 5.02,5.02 0 0 0 2.802,-1.3 l -0.124,0.374 a 0.031,0.031 0 0 0 0.039,0.04 4.003,4.003 0 0 0 1.862,-1.345 1.379,1.379 0 0 1 1.134,-0.592 c 0.328,0.007 0.644,0.124 0.897,0.333 l 0.55,0.461 a 5.702,5.702 0 0 0 -0.945,1.763 0.279,0.279 0 0 0 0.07,0.25 z"
         fill="url(#k)"
         fill-rule="nonzero"
         id="path2165"
         style="fill:url(#k)" />
      <path
         d="M 22.248,6.962 C 22.354,6.199 21.399,6.094 20.726,5.872 A 0.622,0.622 0 0 1 20.68,5.779 1.486,1.486 0 0 0 20.585,5.546 0.375,0.375 0 0 0 20.362,5.343 0.8,0.8 0 0 1 20.098,5.188 0.886,0.886 0 0 1 20.203,4.918 L 20.286,4.91 c 0.594,-0.098 1.198,0.1 1.619,0.53 0.329,0.434 0.454,0.989 0.343,1.522 z"
         fill="url(#l)"
         fill-rule="nonzero"
         id="path2167"
         style="fill:url(#l)" />
      <path
         d="m 20.99,23.829 c -0.728,0.535 -1.51,0.993 -2.332,1.368 a 20.688,20.688 0 0 0 -3.994,-3.18 4.937,4.937 0 0 1 -0.29,-1.143 3.196,3.196 0 0 0 -0.462,-1.445 3.182,3.182 0 0 0 -1.131,-0.815 5.54,5.54 0 0 1 3.485,-0.532 4.232,4.232 0 0 1 2.66,1.645 10.443,10.443 0 0 1 2.064,4.102 z"
         fill="url(#m)"
         fill-rule="nonzero"
         id="path2169"
         style="fill:url(#m)" />
      <path
         d="M 14.664,22.018 A 16.78,16.78 0 0 0 7.2,19.467 H 7.194 A 10.431,10.431 0 0 0 7.06,17.439 c 1.958,0.077 3.89,0.474 5.72,1.175 0.434,0.185 0.82,0.463 1.132,0.815 0.267,0.438 0.426,0.933 0.461,1.445 0.051,0.391 0.149,0.776 0.291,1.144 z"
         fill="url(#n)"
         fill-rule="nonzero"
         id="path2171"
         style="fill:url(#n)" />
      <path
         d="m 21.304,8.156 c -0.159,0.42 -0.382,0.81 -0.662,1.161 a 20.024,20.024 0 0 1 -1.66,1.76 11.736,11.736 0 0 0 -1.3,1.581 c -4.05,1.624 -5.048,-1.383 -5.032,-1.616 a 8.692,8.692 0 0 1 1.479,-1.626 c 0.353,-0.34 0.816,-0.544 1.306,-0.575 0.657,-0.025 1.314,0.003 1.966,0.086 0.423,0.035 1.115,0.036 1.115,0.036 0.987,0 1.954,-0.28 2.788,-0.807 z"
         fill="url(#o)"
         fill-rule="nonzero"
         id="path2173"
         style="fill:url(#o)" />
    </g>
    <path
       d="m 35.743,12.544 c -0.342836,0.141297 -0.702472,0.23776 -1.07,0.287 -0.355709,0.04289 -0.713715,0.06394 -1.072,0.063 -0.746978,0.02868 -1.488289,-0.140344 -2.149,-0.49 -0.549,-0.31 -0.989,-0.781 -1.26,-1.35 -0.282659,-0.607095 -0.423871,-1.2704163 -0.413,-1.94 -0.01,-0.66 0.124,-1.314 0.392,-1.918 0.25,-0.556 0.653,-1.03 1.162,-1.365 0.569655,-0.3559578 1.232689,-0.5335562 1.904,-0.51 0.739,-0.046 1.465,0.2 2.023,0.685 0.498,0.5 0.76,1.186 0.721,1.89 -0.286,0.056 -0.577,0.08 -0.868,0.07 C 34.826933,7.9652111 34.541377,7.9418049 34.259,7.896 34.237937,7.6365164 34.137762,7.389744 33.972,7.189 33.771421,6.998603 33.498347,6.9041756 33.223,6.93 c -0.426073,-0.011784 -0.826166,0.2042671 -1.05,0.567 -0.280544,0.490781 -0.411904,1.0527117 -0.378,1.617 -0.053,0.6 0.138,1.196 0.532,1.652 0.406,0.364 0.94,0.551 1.484,0.518 0.253,0.004 0.506,-0.012 0.756,-0.049 0.267,-0.052 0.529,-0.124 0.784,-0.217 0.12,0.205 0.214,0.424 0.28,0.651 0.08,0.285 0.118,0.58 0.112,0.875 z M 43.215,7.206 C 42.9759,6.6473862 42.576357,6.1723205 42.067,5.841 c -1.212832,-0.671883 -2.686168,-0.671883 -3.899,0 -0.512,0.33 -0.914,0.805 -1.154,1.365 -0.259893,0.6132357 -0.388649,1.2740505 -0.378,1.94 -0.01,0.658 0.118,1.312 0.378,1.917 0.24,0.556 0.643,1.027 1.154,1.351 1.21546,0.663029 2.68454,0.663029 3.9,0 0.508198,-0.325785 0.907581,-0.795853 1.147,-1.35 0.26,-0.606 0.389,-1.26 0.379,-1.919 0.01022,-0.6656872 -0.118873,-1.3261558 -0.379,-1.939 z m -1.98,3.612 c -0.235597,0.391072 -0.671832,0.615577 -1.127,0.58 -0.450935,0.03321 -0.881889,-0.191371 -1.113,-0.58 -0.258085,-0.518277 -0.376321,-1.0949782 -0.343,-1.673 -0.03328,-0.5780184 0.08496,-1.1547074 0.343,-1.673 0.23,-0.389 0.661,-0.614 1.113,-0.58 0.455,-0.036 0.891,0.189 1.127,0.58 0.258,0.519 0.376,1.095 0.342,1.673 0.03349,0.5779234 -0.08439,1.154584 -0.342,1.673 z m 5.355,1.908 c -0.657939,0.111946 -1.330061,0.111946 -1.988,0 V 5.488 c 0.271467,-0.057903 0.548434,-0.08607 0.826,-0.084 0.14,0 0.28,0.006 0.42,0.021 0.121,0.014 0.247,0.035 0.378,0.063 0.074,0.15 0.12,0.31 0.14,0.476 0.037,0.224 0.065,0.402 0.084,0.532 0.182,-0.316 0.43,-0.588 0.728,-0.798 1.193877,-0.7579724 2.780362,-0.3387791 3.444,0.91 0.195,-0.355 0.465,-0.663 0.791,-0.903 0.377241,-0.2679544 0.832643,-0.4033443 1.295,-0.385 0.675767,-0.05696 1.341373,0.1926882 1.813,0.68 0.437,0.616 0.643,1.367 0.581,2.12 v 4.606 c -0.657939,0.111946 -1.330061,0.111946 -1.988,0 V 8.638 C 53.132973,8.2417105 53.068586,7.8458492 52.925,7.476 52.780728,7.194293 52.476245,7.0322748 52.162,7.07 51.952,7.071 51.744,7.117 51.553,7.203 51.33213,7.3115516 51.154495,7.4916536 51.049,7.714 50.894483,8.0613208 50.824897,8.440445 50.846,8.82 v 3.906 c -0.657939,0.111946 -1.330061,0.111946 -1.988,0 V 8.638 C 48.877032,8.2417071 48.812643,7.8458336 48.669,7.476 48.524728,7.194293 48.220245,7.0322748 47.906,7.07 c -0.215,0 -0.428,0.048 -0.623,0.14 -0.223259,0.11694 -0.398945,0.3078261 -0.497,0.54 -0.15,0.375 -0.218,0.778 -0.196,1.182 z M 62.562,6.93 C 62.347657,6.432879 61.989236,6.0114117 61.533,5.72 61.092932,5.4519447 60.586237,5.3133142 60.071,5.32 59.611,5.301 59.159,5.434 58.782,5.698 58.476,5.918 58.218,6.199 58.026,6.524 57.995612,6.2743689 57.951209,6.0266444 57.893,5.782 57.871128,5.6799334 57.836172,5.581117 57.789,5.488 57.526389,5.431808 57.258555,5.4036503 56.99,5.404 c -0.159,0 -0.3,0.005 -0.427,0.014 -0.129,0.01 -0.258,0.029 -0.384,0.056 v 9.836 c 0.177,0.028 0.347,0.046 0.51,0.056 0.321756,0.01772 0.644244,0.01772 0.966,0 0.164,-0.01 0.334,-0.029 0.511,-0.056 v -2.486 c 0.282,0.051 0.568,0.074 0.855,0.07 1.064659,0.06242 2.107848,-0.317516 2.883,-1.05 0.718283,-0.772155 1.092184,-1.802911 1.036,-2.856 C 62.96416,8.2827478 62.835196,7.5806368 62.562,6.93 Z m -2.198,3.808 c -0.331681,0.383949 -0.823577,0.591063 -1.33,0.56 -0.293064,0.002 -0.585054,-0.03563 -0.868,-0.112 V 8.722 c -0.012,-0.418 0.09,-0.832 0.295,-1.197 0.21,-0.34 0.595,-0.532 0.994,-0.497 0.437,-0.036 0.854,0.189 1.063,0.574 0.22,0.448 0.326,0.944 0.308,1.442 0.046,0.601 -0.117,1.2 -0.462,1.694 z M 68.788,6.02 c -0.648881,-0.5004795 -1.457007,-0.7491337 -2.275,-0.7 -0.80993,0.00731 -1.613454,0.1443781 -2.38,0.406 -0.005,0.26 0.028,0.52 0.098,0.77 0.075,0.238 0.174,0.468 0.294,0.686 0.517092,-0.1849584 1.06091,-0.2842642 1.61,-0.294 0.383744,-0.015887 0.766243,0.05344 1.12,0.203 0.304,0.18 0.47,0.525 0.42,0.875 V 8.134 C 67.377074,8.107149 67.078131,8.093136 66.779,8.092 c -0.376,0 -0.752,0.04 -1.12,0.12 -0.36,0.073 -0.705,0.206 -1.022,0.391 -0.66315,0.376201 -1.058307,1.0934375 -1.022,1.855 -0.026,0.508 0.116,1.01 0.406,1.428 0.29,0.368 0.686,0.637 1.134,0.77 0.544,0.167 1.111,0.248 1.68,0.238 0.53,0.005 1.06,-0.042 1.582,-0.14 0.401551,-0.07705 0.798767,-0.175185 1.19,-0.294 V 8.26 C 69.682409,7.4284674 69.381982,6.6067868 68.788,6.02 Z m -1.113,5.236 c -0.103,0.019 -0.224,0.04 -0.364,0.063 -0.139,0.023 -0.28,0.035 -0.42,0.035 -0.194267,-0.0022 -0.388114,-0.0186 -0.58,-0.049 -0.213224,-0.0298 -0.414368,-0.116898 -0.582,-0.252 -0.184297,-0.175307 -0.277302,-0.425903 -0.252,-0.679 -0.02333,-0.316858 0.130137,-0.6207189 0.399,-0.79 0.332,-0.18 0.708,-0.265 1.085,-0.246 0.24,0.002 0.479,0.025 0.714,0.07 z m 5.15,1.484 c -0.167183,0.02788 -0.33577,0.04658 -0.505,0.056 -0.324096,0.01756 -0.648904,0.01756 -0.973,0 -0.170819,-0.01025 -0.341027,-0.02894 -0.51,-0.056 V 5.488 c 0.266811,-0.057418 0.539085,-0.085584 0.812,-0.084 0.137,0 0.275,0.01 0.412,0.028 0.135,0.02 0.268,0.042 0.4,0.07 0.073,0.152 0.12,0.316 0.14,0.483 0.036,0.23 0.064,0.409 0.083,0.54 0.207622,-0.2921737 0.457714,-0.5517028 0.742,-0.77 0.3,-0.234 0.67,-0.358 1.05,-0.35 0.13,0 0.252,0.004 0.364,0.013 0.103,0.009 0.206,0.023 0.308,0.042 0.02,0.107 0.034,0.214 0.042,0.322 0.01,0.122 0.014,0.248 0.014,0.378 0,0.16 -0.007,0.332 -0.02,0.518 C 75.17076,6.8569713 75.1447,7.0347615 75.106,7.21 74.992729,7.190472 74.877939,7.181101 74.763,7.182 h -0.23 C 74.353,7.184 74.175,7.203 74,7.238 73.797,7.278 73.605,7.365 73.44,7.49 73.239188,7.6535847 73.087016,7.869046 73,8.113 72.867,8.493 72.808,8.894 72.824,9.296 v 3.444 z m 8.419,-1.778 c -0.594559,0.227725 -1.225333,0.346291 -1.862,0.35 -0.462588,0.02005 -0.921366,-0.09161 -1.323,-0.322 -0.353893,-0.235299 -0.586746,-0.614004 -0.637,-1.036 0.464,0.067 0.932,0.1 1.4,0.098 0.547571,0.0062 1.09287,-0.071381 1.617,-0.23 C 80.893306,9.6903737 81.301042,9.4327655 81.615,9.079 81.92,8.708 82.077,8.236 82.056,7.756 82.081326,7.0767213 81.792077,6.4236992 81.272,5.986 80.656772,5.5120206 79.891364,5.2755817 79.116,5.32 78.409321,5.2973985 77.710589,5.4745077 77.1,5.831 c -0.54385,0.3330772 -0.979172,0.8170386 -1.253,1.393 -0.294,0.631 -0.44,1.32 -0.427,2.016 -0.01,0.645 0.124,1.283 0.392,1.87 0.261829,0.555438 0.69321,1.01343 1.232,1.308 0.68,0.345 1.437,0.509 2.198,0.476 0.413,0 0.825,-0.035 1.232,-0.105 0.396773,-0.06643 0.786001,-0.17194 1.162,-0.315 -0.01314,-0.527371 -0.147258,-1.044674 -0.392,-1.512 z M 77.96,7.273 c 0.304692,-0.286794 0.708589,-0.4444823 1.127,-0.44 0.292,-0.018 0.58,0.072 0.812,0.251 0.193563,0.1627605 0.301898,0.4052247 0.294,0.658 0.01196,0.2209515 -0.0693,0.4367897 -0.224,0.595 -0.16,0.151 -0.359,0.258 -0.574,0.308 -0.237801,0.061212 -0.482448,0.091793 -0.728,0.091 -0.425729,0.00404 -0.851276,-0.019347 -1.274,-0.07 0.0067,-0.5191978 0.209196,-1.0167195 0.567,-1.393 z m 14.351,10.383 c -61.540667,-10.4393333 -30.770333,-5.219667 0,0 z M 51.44,24.894 c -0.657937,0.111965 -1.330063,0.111965 -1.988,0 v -7.238 c 0.271462,-0.05794 0.548432,-0.0861 0.826,-0.084 0.14,0 0.28,0.006 0.42,0.021 0.121,0.014 0.247,0.035 0.378,0.063 0.073,0.15 0.12,0.31 0.14,0.476 0.037,0.224 0.065,0.402 0.084,0.532 0.181,-0.316 0.43,-0.588 0.728,-0.798 1.193877,-0.757972 2.780362,-0.338779 3.444,0.91 0.195,-0.355 0.465,-0.663 0.79,-0.903 0.377515,-0.268167 0.833305,-0.403567 1.296,-0.385 0.675767,-0.05696 1.341373,0.192688 1.813,0.68 0.437,0.616 0.642,1.367 0.58,2.12 v 4.606 c -0.657611,0.111851 -1.329389,0.111851 -1.987,0 v -4.088 c 0.01871,-0.396364 -0.04602,-0.792239 -0.19,-1.162 -0.14414,-0.281332 -0.448099,-0.443284 -0.762,-0.406 -0.21,0.001 -0.418,0.047 -0.61,0.133 -0.220497,0.108733 -0.397759,0.288815 -0.503,0.511 -0.154591,0.347298 -0.224181,0.72644 -0.203,1.106 v 3.906 c -0.657937,0.111965 -1.330063,0.111965 -1.988,0 v -4.088 c 0.01871,-0.396364 -0.04602,-0.792239 -0.19,-1.162 -0.14414,-0.281332 -0.448099,-0.443284 -0.762,-0.406 -0.216,0 -0.428,0.048 -0.623,0.14 -0.223259,0.11694 -0.398945,0.307826 -0.497,0.54 -0.15,0.375 -0.218,0.778 -0.196,1.182 z m 14.758,-6.706 c -0.648966,-0.500316 -1.457029,-0.748951 -2.275,-0.7 -0.809923,0.0074 -1.613437,0.144445 -2.38,0.406 -0.005,0.26 0.028,0.52 0.098,0.77 0.075,0.238 0.174,0.468 0.294,0.686 0.517074,-0.185028 1.060903,-0.284336 1.61,-0.294 0.384,-0.016 0.767,0.054 1.12,0.203 0.305,0.18 0.47,0.525 0.42,0.875 v 0.168 c -0.297927,-0.02683 -0.596869,-0.04085 -0.896,-0.042 -0.376,0 -0.752,0.04 -1.12,0.12 -0.36,0.074 -0.705,0.206 -1.022,0.391 -0.303584,0.177764 -0.558486,0.427857 -0.742,0.728 -0.196857,0.342103 -0.293861,0.732544 -0.28,1.127 -0.026,0.508 0.116,1.01 0.406,1.428 0.29,0.368 0.686,0.637 1.134,0.77 0.544,0.167 1.111,0.248 1.68,0.238 0.53,0.005 1.06,-0.042 1.582,-0.14 0.402,-0.077 0.8,-0.175 1.19,-0.294 v -4.2 c 0.07527,-0.831514 -0.22514,-1.653135 -0.819,-2.24 z m -1.113,5.236 c -0.103,0.019 -0.224,0.04 -0.364,0.063 -0.139,0.023 -0.28,0.035 -0.42,0.035 -0.194268,-0.0022 -0.388116,-0.01858 -0.58,-0.049 -0.213224,-0.0298 -0.414368,-0.116898 -0.582,-0.252 -0.184297,-0.175307 -0.277302,-0.425903 -0.252,-0.679 -0.02335,-0.317108 0.130584,-0.621128 0.4,-0.79 0.332,-0.18 0.707,-0.265 1.084,-0.246 0.24,0.002 0.48,0.025 0.714,0.07 z m 5.1,1.484 c -0.166851,0.02786 -0.335103,0.04655 -0.504,0.056 -0.324097,0.01751 -0.648903,0.01751 -0.973,0 -0.171155,-0.0102 -0.341698,-0.02889 -0.511,-0.056 v -7.252 c 0.266813,-0.0574 0.539086,-0.08557 0.812,-0.084 0.138,0 0.276,0.01 0.413,0.028 0.135,0.02 0.268,0.043 0.399,0.07 0.074,0.152 0.121,0.316 0.14,0.483 0.037,0.23 0.065,0.409 0.084,0.54 0.208,-0.293 0.458,-0.552 0.742,-0.77 0.3,-0.234 0.67,-0.358 1.05,-0.35 0.13,0 0.252,0.004 0.364,0.013 0.103,0.009 0.206,0.023 0.308,0.042 0.02,0.107 0.034,0.214 0.042,0.322 0.01,0.122 0.014,0.248 0.014,0.378 0,0.16 -0.007,0.332 -0.021,0.518 -0.01297,0.17894 -0.0387,0.356726 -0.077,0.532 -0.113269,-0.01954 -0.22806,-0.02892 -0.343,-0.028 h -0.231 c -0.179,0.002 -0.357,0.021 -0.532,0.056 -0.20333,0.04054 -0.394807,0.126708 -0.56,0.252 -0.201179,0.163456 -0.353706,0.378929 -0.441,0.623 -0.132,0.38 -0.192,0.781 -0.175,1.183 z m 3.26,-0.014 v -9.31 c 0.653156,-0.112915 1.320844,-0.112915 1.974,0 v 5.446 l 2.058,-3.374 c 0.555752,-0.08513 1.119433,-0.106272 1.68,-0.063 0.196,0.014 0.378,0.035 0.546,0.063 l -2.24,3.374 2.548,3.864 c -0.389675,0.05432 -0.78256,0.08239 -1.176,0.084 -0.351626,-0.0013 -0.702644,-0.02935 -1.05,-0.084 L 75.419,21.17 v 3.724 c -0.653158,0.112895 -1.320842,0.112895 -1.974,0 z M 85.667,23.13 c -0.594571,0.227683 -1.225337,0.346248 -1.862,0.35 -0.462577,0.01994 -0.921325,-0.09171 -1.323,-0.322 -0.353893,-0.235299 -0.586746,-0.614004 -0.637,-1.036 0.464,0.067 0.932,0.1 1.4,0.098 0.547572,0.0062 1.092873,-0.07137 1.617,-0.23 0.454397,-0.131425 0.862185,-0.389066 1.176,-0.743 0.305,-0.371 0.462,-0.842 0.442,-1.323 0.02508,-0.679446 -0.26455,-1.332498 -0.785,-1.77 -0.615228,-0.473979 -1.380636,-0.710418 -2.156,-0.666 -0.706348,-0.02247 -1.404722,0.15464 -2.015,0.511 -0.544,0.333 -0.98,0.817 -1.254,1.393 -0.294,0.631 -0.44,1.32 -0.427,2.016 -0.01,0.645 0.124,1.283 0.392,1.87 0.261975,0.555667 0.693752,1.013708 1.233,1.308 0.679377,0.344499 1.43596,0.50842 2.197,0.476 0.413,0 0.825,-0.035 1.232,-0.105 0.396773,-0.06643 0.786001,-0.17194 1.162,-0.315 -0.01371,-0.527291 -0.147791,-1.044468 -0.392,-1.512 z m -3.283,-3.689 c 0.304748,-0.286704 0.708608,-0.444378 1.127,-0.44 0.293,-0.018 0.581,0.072 0.813,0.251 0.193191,0.162956 0.301144,0.405391 0.293,0.658 0.01196,0.220952 -0.0693,0.43679 -0.224,0.595 -0.16083,0.150938 -0.358383,0.257128 -0.573,0.308 -0.238127,0.06129 -0.483114,0.09187 -0.729,0.091 -0.425729,0.0041 -0.851278,-0.01932 -1.274,-0.07 0.0067,-0.519198 0.209196,-1.016719 0.567,-1.393 z m 4.517,-0.273 -0.07,-0.28 2.618,-3.346 h 0.322 v 2.114 h 1.694 c 0.0493,0.239466 0.07276,0.483529 0.07,0.728 0.0036,0.26304 -0.0199,0.52575 -0.07,0.784 H 89.77 v 2.842 c -0.05,0.394 0.047,0.793 0.273,1.12 0.218,0.19 0.502,0.286 0.79,0.266 0.14,0 0.277,-0.011 0.414,-0.035 l 0.357,-0.063 c 0.065,0.18 0.112,0.365 0.14,0.553 0.03938,0.254656 0.05111,0.512822 0.035,0.77 -0.005,0.07 -0.012,0.138 -0.021,0.203 -0.215241,0.04692 -0.432454,0.08429 -0.651,0.112 -0.225548,0.02839 -0.452672,0.04242 -0.68,0.042 -0.699491,0.04802 -1.392092,-0.163854 -1.945,-0.595 -0.49437,-0.518432 -0.739533,-1.225829 -0.672,-1.939 V 19.168 H 86.9 Z m -54.91,-0.747 v 4.736 c -0.017,0.243 0.037,0.486 0.157,0.698 0.095,0.146 0.24,0.252 0.406,0.3 0.165,0.047 0.336,0.071 0.507,0.071 0.295,0.008 0.59,-0.036 0.87,-0.128 0.039,0.126 0.07,0.255 0.093,0.385 0.024,0.137 0.04,0.275 0.05,0.414 -0.39,0.108 -0.794,0.16 -1.198,0.157 -0.478582,0.02148 -0.948367,-0.13369 -1.32,-0.436 -0.371026,-0.374796 -0.556405,-0.895032 -0.506,-1.42 v -4.777 h -1.241 c -0.0113,-0.06144 -0.01832,-0.123588 -0.021,-0.186 -0.0099,-0.147167 -0.0099,-0.294833 0,-0.442 0.003,-0.058 0.01,-0.115 0.02,-0.17 h 1.242 v -1.37 l 0.885,-0.87 h 0.056 v 2.24 h 1.968 c 0.011,0.055 0.018,0.113 0.022,0.17 0.01337,0.209547 0.006,0.419903 -0.022,0.628 H 31.99 Z m 4.287,6.498 c -0.156074,0.01762 -0.312943,0.0273 -0.47,0.029 -0.157372,-0.0022 -0.314551,-0.01184 -0.471,-0.029 v -9.522 c 0.078,-0.011 0.156,-0.018 0.235,-0.021 0.1,-0.004 0.178,-0.008 0.236,-0.008 0.047,0 0.123,0.003 0.228,0.008 0.08,0.003 0.161,0.01 0.242,0.021 v 3.546 c 0.144,-0.253 0.322,-0.485 0.528,-0.692 0.232,-0.233 0.505,-0.421 0.805,-0.556 0.338759,-0.151992 0.706751,-0.227775 1.078,-0.222 0.7,-0.057 1.385,0.22 1.847,0.75 0.429153,0.614412 0.637799,1.355951 0.592,2.104 v 4.592 c -0.156077,0.01759 -0.312944,0.02727 -0.47,0.029 -0.157708,-0.0021 -0.315223,-0.01176 -0.472,-0.029 v -4.307 c 0.05072,-0.607475 -0.08909,-1.215661 -0.4,-1.74 -0.274143,-0.355987 -0.706418,-0.553598 -1.155,-0.528 -0.639218,-0.01163 -1.251545,0.256906 -1.676,0.735 -0.493152,0.613004 -0.735129,1.390402 -0.677,2.175 z m 9.497,-0.698 c -1.505401,0.17657 -2.785416,-1.089792 -2.625,-2.597 0.305,0.038 0.619,0.074 0.942,0.108 0.337,0.033 0.674,0.05 1.013,0.05 0.794908,0.03762 1.584721,-0.145469 2.282,-0.529 0.575075,-0.358633 0.904533,-1.006002 0.856,-1.682 0.03175,-0.606809 -0.23158,-1.191581 -0.707,-1.57 -0.548321,-0.395115 -1.215071,-0.59126 -1.89,-0.556 -0.626593,-0.0098 -1.244474,0.14759 -1.79,0.456 -0.535372,0.31324 -0.966645,0.777206 -1.24,1.334 -0.318087,0.669872 -0.472329,1.405779 -0.45,2.147 -0.06278,0.992964 0.270561,1.970332 0.927,2.718 0.711069,0.677275 1.673097,1.026114 2.653,0.962 0.373187,-0.0012 0.745572,-0.03468 1.113,-0.1 0.334,-0.053 0.66,-0.149 0.97,-0.285 -0.01187,-0.27393 -0.06933,-0.543964 -0.17,-0.799 -0.604363,0.219022 -1.241224,0.334968 -1.884,0.343 z M 43.92,18.95 c 0.458333,-0.452638 1.082134,-0.697677 1.726,-0.678 0.447,-0.036 0.892,0.097 1.248,0.371 0.27,0.248 0.42,0.603 0.406,0.97 0.018,0.304 -0.088,0.602 -0.292,0.828 -0.21888,0.212203 -0.493542,0.357858 -0.792,0.42 -0.37,0.085 -0.748,0.126 -1.127,0.121 -0.342,0 -0.684,-0.014 -1.027,-0.042 -0.300606,-0.02426 -0.60041,-0.05761 -0.899,-0.1 0.0045,-0.703019 0.274922,-1.378281 0.757,-1.89 z"
       fill="#cccccc"
       fill-rule="nonzero"
       id="path2177"
       sodipodi:nodetypes="cccccccccccccccccccccccccccccccccccccccccccccccccccccccccccccccccccccccccccccccccccccccccccccccccccccccccccccccccccccccccccccccccccccccccccccccccccscccccccccccccccccccccccccccccccccccccccccccccccccccccccccccccccccccccccccccccccccccccccccccccccccccccccccccccccccccccsccccccccccccccccccccccccccccccccccccccccccccccccccccccccccccccccccccccccccccccccccccccccccccccccccccccccccscccccccccccccccccccccccccccccccccccccccccccc" />
    <path
       d="M 0,0 H 150 V 30 H 0 Z"
       id="path2179" />
  </g>
</svg>
