<svg width="520.55" height="143.27" version="1.1" viewBox="0 0 520.55 143.27" xmlns="http://www.w3.org/2000/svg">
 <defs>
  <style>.a{fill:#cccccc;}</style>
 </defs>
 <path class="a" d="M118.108,27.93s4.075-10.4,7.652-8.908c4.313,1.818,13.162,4.892,17.51,8V7a7,7,0,0,0-7-7H94.755A46.842,46.842,0,0,1,118.108,27.93Z"/>
 <path class="a" d="m64.162 80.167c30.694 9.162 58.2-29.96 31.416-50.811-41.817-32.564-71.684 38.344-31.66 50.705l-3.966-1.187c0.29 0.091 3.959 1.211 4.21 1.293z"/>
 <path class="a" d="m25.65 134.49c-14.058-7.633-21.691-16.227-25.65-24.17v25.949a7 7 0 0 0 7 7h41.709a91.294 91.294 0 0 1-23.059-8.779z"/>
 <path class="a" d="M21.783,95.123c2.387,7.743.5,16.15,22.538,23.348C67.385,126,79.459,107.487,79.8,103.013s-13.519,3.953-36.867-6.793C21.513,86.353,7.1,57.773,27.479,22.4,33.783,11.453,40.687,4.388,47.647,0H7A7,7,0,0,0,0,7V83.283C4.941,84.243,20.685,91.582,21.783,95.123Z"/>
 <path class="a" d="m116.21 90.949c-12.753 23.5-23.91 45.556-41.178 52.321h61.235a7 7 0 0 0 7-7v-100.22c-4.339 9.515-14.742 32.199-27.057 54.903z"/>
 <path class="a" d="m222.24 79.114c0 8.24-1.6 13.761-6.48 17.921-3.84 3.2-8.96 4.72-15.44 4.72-11.681 0-19.121-4.56-22-13.441h11.76c2.161 2.561 5.36 3.68 9.84 3.68 3.921 0 7.12-1.039 9.041-2.8 2.56-2.4 2.64-5.28 2.64-9.28a17.115 17.115 0 0 1-12.88 5.28c-11.441 0-20.4-9.12-20.4-21.841 0-13.119 9.04-21.759 19.84-21.759 5.281 0 9.441 2 13.441 5.759v-4.639h10.64zm-33.2-15.681c0 7.042 5.04 12 11.681 12 6.56 0 11.439-4.719 11.439-11.92 0-6.88-4.559-12.161-11.6-12.161s-11.521 5.522-11.521 12.081z"/>
 <path class="a" d="m264.4 80.715c-3.76 3.679-7.76 5.6-13.12 5.6-10.8 0-20.241-9.28-20.241-22.32 0-13.28 8.96-22.4 20-22.4a18.251 18.251 0 0 1 13.361 5.758v-4.639h10.64v42.48h-10.64zm-22.641-16.8c0 7.28 4.8 12.641 11.441 12.641 6.56 0 11.68-4.961 11.68-12.721 0-7.44-4.96-12.481-11.68-12.481-7.046-1e-3 -11.446 5.6-11.446 12.56z"/>
 <path class="a" d="m323.67 85.194h-10.641v-20.56c0-8.24-1.6-13.281-7.519-13.281-5.28 0-9.12 4.321-9.12 13.041v20.8h-10.641v-42.48h10.641v4.88a17.769 17.769 0 0 1 13.28-6 13.346 13.346 0 0 1 12.4 7.6c3.92-4.96 7.84-7.6 14.241-7.6 4.719 0 8.96 1.92 11.36 4.96 2.8 3.52 3.12 8.16 3.12 13.76v24.88h-10.641v-23.44c0-6.96-2.48-10.4-7.28-10.4-5.36 0-9.2 4.161-9.2 12.881z"/>
 <path class="a" d="m400.79 76.954c-4.56 6.48-10.56 9.36-19.52 9.36-13.521 0-22.241-9.92-22.241-22.4 0-11.6 8.4-22.32 22.081-22.32 13.44 0 22.56 9.6 22.56 23.04 0 0.96-0.08 1.44-0.08 2.4h-34.241c1.04 6.32 5.841 9.841 11.921 9.841a13.754 13.754 0 0 0 10.56-4.16zm-7.84-18.32c-1.44-4.96-6-8-11.68-8-5.281 0-9.361 2.639-11.441 8z"/>
 <path class="a" d="m420.63 66.794c-6.8-3.441-10.24-7.6-10.24-12.96 0-6.641 5.6-12.24 13.761-12.24a17.281 17.281 0 0 1 14 7.04l-6.561 6.639c-2.4-2.4-4.8-3.92-7.359-3.92-2.161 0-3.841 0.881-3.841 2.561 0 1.6 1.52 2.32 3.841 3.519l3.92 2c7.04 3.6 10.8 7.281 10.8 13.6 0 7.6-6 13.28-15.28 13.28a17.947 17.947 0 0 1-14.88-7.28l6.56-7.2c2.48 2.881 6.08 4.961 8.881 4.961 2.639 0 4.719-1.521 4.719-3.441 0-1.84-1.759-3.2-4.719-4.719z"/>
 <path class="a" d="m442.71 42.714h10.88l11.041 26.64 12.24-26.64h10.96l-26.72 58h-10.961l8.72-18.721z"/>
 <path class="a" d="m502.23 66.794c-6.8-3.441-10.24-7.6-10.24-12.96 0-6.641 5.6-12.24 13.76-12.24a17.279 17.279 0 0 1 14 7.04l-6.559 6.639c-2.4-2.4-4.8-3.92-7.361-3.92-2.16 0-3.84 0.881-3.84 2.561 0 1.6 1.52 2.32 3.84 3.519l3.92 2c7.04 3.6 10.8 7.281 10.8 13.6 0 7.6-6 13.28-15.28 13.28a17.947 17.947 0 0 1-14.88-7.28l6.56-7.2c2.48 2.881 6.08 4.961 8.88 4.961 2.64 0 4.72-1.521 4.72-3.441 0-1.84-1.76-3.2-4.72-4.719z"/>
</svg>
