<svg id="logo-secondary-transparentOnWhite" xmlns="http://www.w3.org/2000/svg" viewBox="0 0 100 50"><style>.st0{fill:#999;}</style><g id="zopa_1_"><path class="st0" d="M40.9 24.8c.1-1.7-1.2-3-2.9-3.1h-.1c-1.7.1-3 1.6-2.9 3.3-.1 1.7 1.3 3.2 3 3.3h.1c1.7-.1 3-1.6 2.8-3.3v-.2zM62.9 22.8c-.1-.8-.8-1.4-1.6-1.3h-1.7v3.3h2c.8-.1 1.4-.8 1.3-1.7v-.3zM81.7 26.7h2.9l-1.4-4.1z"/><path class="st0" d="M0 0v50h100V0H0zm21.4 18.7c0 4.3-6.2 8.2-6.2 9.8h5.9V32H8.6v-.7c0-4.3 6.2-8.2 6.2-9.8H8.9V18h12.5v.7zM38 32.2c-4.5 0-7.7-3.1-7.7-7.2s3.2-7.1 7.7-7.1c4.4 0 7.6 2.9 7.7 7.1 0 4.1-3.2 7.2-7.7 7.2zm23.6-3.8h-1.9V32h-4.4V18h6.3c3.6 0 5.7 1.8 5.7 5.1s-2.1 5.3-5.7 5.3zM86.4 32l-.7-2h-5.2l-.7 2H75l5.9-14h4.8l5.6 14h-4.9z"/></g></svg>
