<svg width="60px" height="60px" viewBox="0 0 60 60" version="1.1" xmlns="http://www.w3.org/2000/svg" xmlns:xlink="http://www.w3.org/1999/xlink">
    <g stroke="none" stroke-width="1" fill="none" fill-rule="evenodd">
        <g id="Navbar-/-Main-/-Logged-Out-/-Desktop">
            <g id="Logo/Figurative-GfK-+-Shine">
                <g id="Colours/Brand/GfK-orange" fill="#cccccc">
                    <rect id="Base" x="0" y="0" width="60" height="60"></rect>
                </g>
                <path d="M31.8527629,28.9889167 C31.0820302,28.9889167 30.4945716,29.596751 30.4945716,30.3472831 C30.4945716,31.0978152 31.0820302,31.7055331 31.8527629,31.7055331 C32.6234956,31.7055331 33.211188,31.0978152 33.211188,30.3472831 C33.211188,29.596751 32.6234956,28.9889167 31.8527629,28.9889167" id="Fill-2" fill="#000"></path>
                <path d="M33.5138753,20.8390674 C29.5518161,20.8390674 26.6913086,22.5648774 26.6913086,27.2753949 L26.6913086,39.7517705 C26.6913086,40.1830224 27.0574414,40.3987056 27.9380288,40.3987056 C28.8184994,40.3987056 29.184749,40.1830224 29.184749,39.7517705 L29.184749,27.4909635 C29.184749,24.2910313 30.4691919,22.9608127 34.0272788,22.9608127 L34.6879529,22.9608127 C35.2012395,22.9608127 35.3844811,22.5287582 35.3844811,21.8460479 C35.3844811,21.0190901 34.9078661,20.8390674 33.5138753,20.8390674" id="Fill-4" fill="#000"></path>
                <path d="M22.7768179,30.6909025 C21.9308164,30.6909025 21.5789437,30.9067803 21.5789437,31.3384223 L21.5789437,37.1272835 C21.5789437,38.0258662 21.1908603,38.3856624 19.3935991,38.3856624 C15.7626411,38.3856624 13.5075742,35.5808405 13.5075742,30.7991819 C13.5075742,25.8009646 16.2914061,22.960844 21.0502911,22.960844 L22.4240455,22.960844 C22.9173871,22.960844 23.0941669,22.528748 23.0941669,21.8461565 C23.0941669,21.0190791 22.6362487,20.8390674 21.2970181,20.8390674 L20.7329421,20.8390674 C15.1996897,20.8390674 10.9349334,23.931159 10.9349334,30.835275 C10.9349334,37.4506461 14.6709247,40.3987056 19.3581756,40.3987056 C23.0941669,40.3987056 23.9746922,39.3563179 23.9746922,38.2777236 L23.9746922,31.3384223 C23.9746922,30.9067803 23.6228194,30.6909025 22.7768179,30.6909025" id="Fill-6" fill="#000"></path>
                <path d="M38.6448781,20.8390674 C37.8776362,20.8390674 37.5577743,21.0551415 37.5577743,21.4862575 L37.5577743,39.7519743 C37.5577743,40.1830903 37.8776362,40.3987056 38.6448781,40.3987056 C39.4112055,40.3987056 39.7310674,40.1830903 39.7310674,39.7519743 L39.7310674,21.4862575 C39.7310674,21.0551415 39.4112055,20.8390674 38.6448781,20.8390674" id="Fill-8" fill="#000"></path>
                <path d="M51.5768843,9.66488045 C51.5768843,9.66488045 51.1491888,9.22039284 50.6184056,9.28471394 L50.1882248,9.7686689 L40.8247423,20.4123711 L40.8312258,20.406611 L51.4779027,10.864901 L51.9587629,10.4285202 C51.9326127,10.0427003 51.8427081,9.91768478 51.5768843,9.66488045" id="Fill-12" fill="#000"></path>
                <path d="M41.6143676,31.4530891 C41.2830373,31.0955899 40.9423573,30.8074663 40.9423573,30.6047628 C40.9423573,30.4103076 41.4457222,29.9609478 41.7770525,29.6033356 L48.5929905,22.3182149 C48.8506918,22.0322381 48.9634727,21.8932609 48.9634727,21.6790325 C48.9634727,21.2502368 48.0355141,20.8390674 47.4096679,20.8390674 C46.9682448,20.8390674 46.6434593,21.0955539 46.2839629,21.4928255 L38.5424038,29.7864918 C38.1750771,30.1795828 38.1010975,30.3938111 38.1010975,30.6083785 C38.1010975,30.8231718 38.1750771,31.0371742 38.5424038,31.4301522 L46.2409543,39.7043842 C46.5725183,40.0618835 46.9386763,40.3987056 47.4307048,40.3987056 C48.0565509,40.3987056 48.9675632,39.9430184 48.9675632,39.5141097 C48.9675632,39.3734375 48.8506918,39.1840669 48.5929905,38.898542 L41.6143676,31.4530891 Z" id="Fill-10" fill="#000"></path>
            </g>
        </g>
    </g>
</svg>
