<svg width="221" height="66" viewBox="0 0 221 66" fill="none" xmlns="http://www.w3.org/2000/svg">
<path fill-rule="evenodd" clip-rule="evenodd" d="M135.488 35.3696C135.488 44.0826 128.611 50.9795 119.952 50.9795C111.294 50.9795 104.417 44.0826 104.417 35.3696C104.417 26.5952 111.294 19.7597 119.952 19.7597C128.611 19.7597 135.488 26.5952 135.488 35.3696ZM127.997 35.3696C127.997 30.735 124.929 26.7834 119.952 26.7834C114.98 26.7834 111.907 30.735 111.907 35.3696C111.907 40.0105 114.98 43.96 119.952 43.96C124.929 43.96 127.997 40.0105 127.997 35.3696Z" fill="#cccccc"/>
<path fill-rule="evenodd" clip-rule="evenodd" d="M138.699 2.83318H146.068V46.5655C146.068 48.5889 144.463 50.2296 142.48 50.2296H138.699V2.83318Z" fill="#cccccc"/>
<path fill-rule="evenodd" clip-rule="evenodd" d="M152.093 2.83318H159.461V46.4661C159.461 48.5445 157.812 50.2296 155.776 50.2296H152.093V2.83318Z" fill="#cccccc"/>
<path fill-rule="evenodd" clip-rule="evenodd" d="M191.961 35.2467C191.961 35.8092 191.961 36.9361 191.898 38.0651H170.156C170.71 40.6995 173.721 44.0824 178.326 44.0824C183.426 44.0824 186.31 41.0759 186.31 41.0759L189.995 46.7169C189.995 46.7169 185.39 50.9793 178.326 50.9793C169.482 50.9793 162.667 44.0824 162.667 35.3694C162.667 26.6563 168.869 19.7595 177.286 19.7595C185.267 19.7595 191.961 26.0939 191.961 35.2467ZM184.593 32.6123C184.466 30.0413 182.134 26.595 177.286 26.595C172.552 26.595 170.406 29.98 170.156 32.6123H184.593Z" fill="#cccccc"/>
<path fill-rule="evenodd" clip-rule="evenodd" d="M220.595 30.9841V50.2285H213.227V32.8637C213.227 28.6013 210.643 26.783 207.453 26.783C203.645 26.783 201.679 30.6077 201.679 30.6077V50.2285H194.308V20.5141H201.188V24.8378C201.188 24.8378 203.768 19.7592 209.91 19.7592C215.559 19.7592 220.595 23.8399 220.595 30.9841Z" fill="#cccccc"/>
<path fill-rule="evenodd" clip-rule="evenodd" d="M86.4752 19.7601C83.5977 19.7601 80.9209 20.5191 78.6248 21.849V19.7601H70.9604V65.4545H73.9437C76.5295 65.4545 78.6248 63.3169 78.6248 60.6783V48.8318C80.9209 50.1702 83.5977 50.9355 86.4752 50.9355C95.1227 50.9355 101.992 44.0471 101.992 35.3468C101.992 26.5851 95.1227 19.7601 86.4752 19.7601ZM86.4752 43.9245C82.2022 43.9245 79.3416 41.0046 78.6248 37.2391V33.4566C79.3416 29.6931 82.2022 26.7711 86.4752 26.7711C91.4438 26.7711 94.5096 30.7164 94.5096 35.3468C94.5096 39.9792 91.4438 43.9245 86.4752 43.9245Z" fill="#cccccc"/>
<path fill-rule="evenodd" clip-rule="evenodd" d="M28.5982 0.000427246C14.6691 0.000427246 3.38086 11.6397 3.38086 26.0022C3.38086 40.3646 14.6691 52.006 28.5982 52.006C42.5251 52.006 53.8155 40.3646 53.8155 26.0022C53.8155 11.6397 42.5251 0.000427246 28.5982 0.000427246ZM28.5982 40.6522C20.7499 40.6522 14.39 34.0936 14.39 26.0022C14.39 17.9107 20.7499 11.3521 28.5982 11.3521C36.4444 11.3521 42.8042 17.9107 42.8042 26.0022C42.8042 34.0936 36.4444 40.6522 28.5982 40.6522Z" fill="#cccccc"/>
<mask id="mask0" mask-type="alpha" maskUnits="userSpaceOnUse" x="0" y="51" width="15" height="15">
<path fill-rule="evenodd" clip-rule="evenodd" d="M0.709473 51.1021H14.7157V65.5429H0.709473V51.1021Z" fill="#cccccc"/>
</mask>
<g mask="url(#mask0)">
<path fill-rule="evenodd" clip-rule="evenodd" d="M14.7158 58.3225C14.7158 62.3101 11.5803 65.5429 7.71108 65.5429C3.84401 65.5429 0.708496 62.3101 0.708496 58.3225C0.708496 54.3349 3.84401 51.1021 7.71108 51.1021C11.5803 51.1021 14.7158 54.3349 14.7158 58.3225Z" fill="#cccccc"/>
</g>
</svg>