<svg xmlns="http://www.w3.org/2000/svg" width="327" height="80" viewBox="0 0 327 80" fill="none">
  <path d="M113.472 47.3817V23.5309C113.472 21.7454 114.511 20.7061 116.35 20.7061H141.266C143.025 20.7061 144.038 21.6388 144.304 23.3177L144.571 24.9966C144.837 26.9686 143.851 28.0346 141.906 28.0346H122.079V35.9759H137.616C139.454 35.9759 140.494 37.0153 140.494 38.8007V40.2131C140.494 41.9986 139.454 43.0379 137.616 43.0379H122.106V46.5289C122.106 49.8067 123.811 51.4323 127.596 51.4323H142.492C144.438 51.4323 145.424 52.5249 145.157 54.4703L144.891 56.1492C144.624 57.828 143.612 58.7608 141.853 58.7608H125.357C117.629 58.8141 113.472 55.1632 113.472 47.3817Z" fill="#ccc"></path>
  <path d="M158.828 51.2458L149.687 23.904C149.021 21.8787 149.954 20.6795 152.059 20.6795H155.603C157.255 20.6795 158.321 21.399 158.828 23.0246L166.902 49.0072C167.462 50.7927 168.741 51.4056 170.18 51.4056C171.619 51.4056 172.898 50.8194 173.458 49.0072L181.533 23.0246C182.039 21.399 183.078 20.6795 184.73 20.6795H188.115C190.22 20.6795 191.153 21.8787 190.487 23.904L181.346 51.2458C179.188 57.7747 174.924 59.427 170.154 59.427C165.41 59.4003 160.986 57.7747 158.828 51.2458Z" fill="#ccc"></path>
  <path d="M227.955 39.7601C227.955 31.3657 224.464 27.7948 215.937 27.7948C207.409 27.7948 203.865 31.3924 203.865 39.7601C203.865 48.1279 207.409 51.7521 215.937 51.7521C224.464 51.7521 227.955 48.1279 227.955 39.7601ZM195.017 39.7601C195.017 26.409 201.706 20.1465 215.937 20.1465C230.114 20.1465 236.803 26.409 236.803 39.7601C236.803 53.1112 230.114 59.3737 215.937 59.3737C201.733 59.3471 195.017 53.0846 195.017 39.7601Z" fill="#ccc"></path>
  <path d="M277.016 55.323C278.562 57.1618 277.789 58.8141 275.364 58.8141H271.313C269.821 58.8141 268.835 58.3344 267.822 57.1352L259.961 47.435C259.135 46.449 258.575 44.9833 258.575 43.7308V42.7981C258.575 41.3857 259.401 40.7195 260.893 40.7195H261.506C267.982 40.7195 270.407 38.5875 270.407 34.4037C270.407 30.2198 267.982 28.0346 261.506 28.0346H253.192V55.9626C253.192 57.7481 252.153 58.7874 250.314 58.7874H247.436C245.624 58.7874 244.558 57.7481 244.558 55.9626V23.5309C244.558 21.7454 245.597 20.7061 247.436 20.7061H262.039C273.605 20.7061 279.255 26.0892 279.255 34.4303C279.255 40.3197 276.163 44.5569 270.514 46.7954L269.954 47.0086L277.016 55.323Z" fill="#ccc"></path>
  <path d="M312.326 42.4783L308.328 30.5662C307.769 28.8873 306.49 28.1678 305.051 28.1678C303.611 28.1678 302.332 28.8873 301.773 30.5662L297.775 42.4783H312.326ZM323.785 58.8141H320.294C318.641 58.8141 317.522 58.0412 317.016 56.469L314.804 49.8334H295.324L293.112 56.469C292.605 58.0412 291.513 58.8141 289.834 58.8141H286.503C284.398 58.8141 283.465 57.5616 284.184 55.5362L293.858 28.3011C296.176 21.7721 300.28 20.1199 305.051 20.1199C309.821 20.1199 314.085 21.7454 316.403 28.3011L326.103 55.5362C326.823 57.5616 325.89 58.8141 323.785 58.8141Z" fill="#ccc"></path>
  <path d="M73.3646 25.8761C72.5651 25.2099 71.7124 24.5969 70.8329 24.0906C64.6237 20.4664 59.4805 15.3231 55.8562 9.11392C55.3499 8.23451 54.7636 7.38175 54.0708 6.58228C50.4465 2.23851 45.2499 0 40.0001 0C34.7502 0 29.5537 2.23851 25.9028 6.60893C25.2366 7.40839 24.6236 8.26116 24.1173 9.14057C20.4931 15.3498 15.3498 20.493 9.1406 24.1173C8.26118 24.6236 7.40841 25.2099 6.60894 25.9027C2.23851 29.5536 0 34.7502 0 40C0 45.2498 2.23851 50.4464 6.60894 54.0973C7.40841 54.7635 8.26118 55.3764 9.1406 55.8827C15.3498 59.507 20.4931 64.6502 24.1173 70.8594C24.6236 71.7388 25.2099 72.5916 25.9028 73.3911C29.5537 77.7615 34.7502 80 40.0001 80C45.2499 80 50.4465 77.7615 54.0974 73.3911C54.7636 72.5916 55.3766 71.7388 55.8829 70.8594C59.5071 64.6502 64.6504 59.507 70.8596 55.8827C71.739 55.3764 72.5918 54.7901 73.3913 54.0973C77.7617 50.4464 80.0002 45.2498 80.0002 40C79.9735 34.7235 77.7084 29.527 73.3646 25.8761ZM40.16 66.3291C25.6363 66.3291 13.8575 54.5503 13.8575 40.0266C13.8575 25.503 25.6363 13.7242 40.16 13.7242C54.6837 13.7242 66.4625 25.503 66.4625 40.0266C66.4625 54.5503 54.6837 66.3291 40.16 66.3291Z" fill="#ccc"></path>
</svg>