<svg width="247" height="68" viewBox="0 0 247 68" fill="none" xmlns="http://www.w3.org/2000/svg">
<path fill="#cccccc" fill-rule="evenodd" clip-rule="evenodd" d="M170.391 6.35496H161.116L155.928 43.5403C154.02 57.0868 154.111 61.5428 154.838 65.9982H164.11C163.111 61.458 163.201 56.9954 165.111 43.7217L170.391 6.35496ZM124.923 58.4515C119.011 58.4515 115.194 54.2683 115.194 46.1768C115.194 35.7991 121.648 28.0836 129.376 28.0836C135.103 28.0836 138.742 32.903 138.742 40.4497C138.742 50.088 133.015 58.4515 124.923 58.4515ZM150.741 20.5406H141.106L140.286 25.7294C137.649 21.6398 133.476 19.1847 128.014 19.1847C115.829 19.1847 105.465 31.3688 105.465 46.6405C105.465 59.2888 112.648 67.3701 123.104 67.3701C128.74 67.3701 133.482 65.0058 136.922 60.3719C137.055 62.2684 137.328 64.1524 137.74 66.0083H147.365C146.094 62.642 145.637 57.5534 146.366 52.1897L150.741 20.5406ZM47.2777 36.9145C38.5507 35.4584 33.6566 28.1845 33.6566 19.4574C33.6566 13.4576 36.021 9.81856 39.6565 9.81856C44.6573 9.81856 48.2958 16.5482 48.2958 27.3669C48.3005 30.5769 47.9592 33.7779 47.2777 36.9145ZM106.1 20.5406H96.193L95.7353 23.7219C93.7379 37.8126 84.9166 58.4516 74.1886 58.4516C72.4634 58.4516 72.5673 57.9073 72.7355 56.6326L77.7364 20.5567H68.1888L68.0432 21.5783C66.1849 28.6285 62.6986 33.3441 57.915 35.5557C58.3948 32.702 58.6389 29.8136 58.6448 26.9193C58.6448 10.8271 51.7338 0.18985 39.7311 0.18985C29.0026 0.18985 23.2754 8.64475 23.2754 20.466C23.2754 34.9201 31.821 44.0106 43.733 46.2842C39.5497 53.6488 32.823 57.9234 25.3671 57.9234C15.9102 57.9234 10.3651 51.2851 10.3651 39.1135C10.3651 29.2061 13.8222 20.3037 20.639 14.5664L14.4577 6.92907C4.72813 15.2962 0 26.4783 0 38.8408C0 56.3892 9.27545 67.3797 25.0043 67.3797C38.6414 67.3797 49.3694 59.0161 54.8405 46.4686C58.4891 45.8808 61.9748 44.5387 65.0755 42.5282L63.37 54.359C62.6431 59.7233 61.187 67.3606 72.7355 67.3606C97.1013 67.3606 104.557 33.0845 105.738 23.4492L106.1 20.5406Z" />
<path fill="#cccccc" fill-rule="evenodd" clip-rule="evenodd" d="M207.371 17.9256L200.117 6.35503H185.839L199.114 27.5275L207.371 17.9256Z" />
<path fill="#cccccc" fill-rule="evenodd" clip-rule="evenodd" d="M213.709 50.8104L223.229 65.9985H237.506L221.966 41.2079L213.709 50.8104Z" />
<path fill="#666666" fill-rule="evenodd" clip-rule="evenodd" d="M246.697 1.56161L191.287 65.9986H179.052C178.119 60.2787 177.988 54.5623 180.306 37.748C180.367 37.3123 180.427 36.8648 180.494 36.4166L180.851 33.8201H192.992L192.593 36.6529C192.387 38.0929 192.132 39.8909 191.957 41.1805L184.495 55.4151L230.803 1.56161H246.697Z"/>
</svg>