<?xml version="1.0" encoding="UTF-8" standalone="no"?>
<!-- Created with Inkscape (http://www.inkscape.org/) -->

<svg
   xmlns:dc="http://purl.org/dc/elements/1.1/"
   xmlns:cc="http://creativecommons.org/ns#"
   xmlns:rdf="http://www.w3.org/1999/02/22-rdf-syntax-ns#"
   xmlns:svg="http://www.w3.org/2000/svg"
   xmlns="http://www.w3.org/2000/svg"
   xmlns:sodipodi="http://sodipodi.sourceforge.net/DTD/sodipodi-0.dtd"
   xmlns:inkscape="http://www.inkscape.org/namespaces/inkscape"
   width="57.939869mm"
   height="11.99515mm"
   viewBox="0 0 57.939869 11.99515"
   version="1.1"
   id="svg857"
   inkscape:version="0.92.3 (2405546, 2018-03-11)"
   sodipodi:docname="logoInforma.svg">
  <defs
     id="defs851" />
  <sodipodi:namedview
     id="base"
     pagecolor="#ffffff"
     bordercolor="#666666"
     borderopacity="1.0"
     inkscape:pageopacity="0.0"
     inkscape:pageshadow="2"
     inkscape:zoom="11.2"
     inkscape:cx="-42.399848"
     inkscape:cy="27.464198"
     inkscape:document-units="mm"
     inkscape:current-layer="svg857"
     showgrid="false"
     fit-margin-top="0"
     fit-margin-left="0"
     fit-margin-right="0"
     fit-margin-bottom="0"
     inkscape:window-width="3840"
     inkscape:window-height="2035"
     inkscape:window-x="-13"
     inkscape:window-y="-13"
     inkscape:window-maximized="1" />
  <metadata
     id="metadata854">
    <rdf:RDF>
      <cc:Work
         rdf:about="">
        <dc:format>image/svg+xml</dc:format>
        <dc:type
           rdf:resource="http://purl.org/dc/dcmitype/StillImage" />
        <dc:title></dc:title>
      </cc:Work>
    </rdf:RDF>
  </metadata>
  <g
     inkscape:label="Layer 1"
     inkscape:groupmode="layer"
     id="layer1"
     transform="translate(-83.66697,-156.4429)">
    <path
       inkscape:connector-curvature="0"
       id="path16"
       style="fill:#bbbbbb;fill-opacity:1;fill-rule:evenodd;stroke:none;stroke-width:0.03527778"
       d="m 84.849869,158.77511 c -0.649746,0 -1.182899,-0.51646 -1.182899,-1.16593 0,-0.64946 0.533153,-1.16628 1.182899,-1.16628 0.649605,0 1.182758,0.51682 1.182758,1.16628 0,0.64947 -0.533153,1.16593 -1.182758,1.16593 z m -1.116224,9.44591 v -8.37946 h 2.215621 v 8.37946 h -2.215621 v 0" />
    <path
       inkscape:connector-curvature="0"
       id="path18"
       style="fill:#bbbbbb;fill-opacity:1;fill-rule:evenodd;stroke:none;stroke-width:0.03527778"
       d="m 93.495535,168.22102 v -5.0643 c 0,-0.91638 -0.09948,-1.89893 -1.249186,-1.89893 -0.632918,0 -1.465686,0.26624 -2.032317,0.58321 v 6.38002 h -2.215198 v -8.37946 h 2.215198 v 0.83326 c 0.766304,-0.55033 1.982434,-1.09961 2.932183,-1.09961 1.782092,0 2.565223,1.29964 2.565223,2.94831 v 5.6975 h -2.215903" />
    <path
       inkscape:connector-curvature="0"
       id="path20"
       style="fill:#bbbbbb;fill-opacity:1;fill-rule:evenodd;stroke:none;stroke-width:0.03527778"
       d="m 101.82511,158.05897 c -1.23296,0 -1.48237,0.71614 -1.48237,1.78259 h 2.33232 v 1.31586 h -2.31563 v 7.0636 h -2.232452 l -0.01651,-7.0636 h -1.36592 v -1.31586 h 1.36592 c 0,-1.79917 0.816469,-3.13196 2.781832,-3.13196 0.66657,0 1.31589,0.19967 1.89935,0.51647 v 0.91616 c -0.31669,-0.0501 -0.64988,-0.0833 -0.96654,-0.0833" />
    <path
       inkscape:connector-curvature="0"
       id="path22"
       style="fill:#bbbbbb;fill-opacity:1;fill-rule:evenodd;stroke:none;stroke-width:0.03527778"
       d="m 107.58915,168.43805 c -2.83171,0 -4.34771,-1.71549 -4.34771,-4.49831 0,-2.81548 1.516,-4.36453 4.34771,-4.36453 2.7492,0 4.34813,1.63231 4.34813,4.36453 0,2.79894 -1.49931,4.49831 -4.34813,4.49831 z m 0,-7.36353 c -1.61576,0 -2.14877,1.53236 -2.14877,2.89884 0,1.36592 0.48313,3.0649 2.14877,3.0649 1.68271,0 2.16574,-1.68247 2.16574,-3.0649 0,-1.36648 -0.54998,-2.89884 -2.16574,-2.89884 v 0" />
    <path
       inkscape:connector-curvature="0"
       id="path24"
       style="fill:#bbbbbb;fill-opacity:1;fill-rule:evenodd;stroke:none;stroke-width:0.03527778"
       d="m 117.58479,161.32421 c -0.68368,0.0165 -1.51659,0.43339 -1.96638,0.93335 v 5.96346 h -2.21531 v -8.37946 h 2.21531 l 0.0169,1.09926 c 0.3997,-0.7994 1.7653,-1.38254 2.59856,-1.38254 0.0998,0 0.20038,0 0.30021,0.0169 v 1.98191 c -0.25012,-0.16634 -0.66675,-0.23291 -0.94932,-0.23291" />
    <path
       inkscape:connector-curvature="0"
       id="path26"
       style="fill:#bbbbbb;fill-opacity:1;fill-rule:evenodd;stroke:none;stroke-width:0.03527778"
       d="m 130.32889,168.22102 v -5.0643 c 0,-0.93292 -0.20003,-1.89893 -1.33315,-1.89893 -0.58314,0 -1.23296,0.26624 -1.73249,0.58321 0.0497,0.21632 0.067,0.44894 0.067,0.68252 v 5.6975 h -2.21579 v -5.0643 c 0,-0.91638 -0.11712,-1.89893 -1.26718,-1.89893 -0.56586,0 -1.26436,0.26624 -1.73143,0.58321 v 6.38002 h -2.21686 v -8.37946 h 2.21686 v 0.83326 c 0.6992,-0.55033 1.84855,-1.09961 2.73191,-1.09961 0.94932,0 1.69898,0.38277 2.13254,1.24919 0.79975,-0.53305 2.03165,-1.24919 2.99861,-1.24919 1.79881,0 2.56505,1.29964 2.56505,2.94831 v 5.6975 h -2.21509" />
    <path
       inkscape:connector-curvature="0"
       id="path28"
       style="fill:#bbbbbb;fill-opacity:1;fill-rule:evenodd;stroke:none;stroke-width:0.03527778"
       d="m 139.97454,168.32163 c -0.83327,0 -0.78423,-0.73381 -0.88336,-1.33311 -0.59972,0.81566 -1.71662,1.44953 -2.73191,1.44953 -1.38289,0 -2.56611,-0.91694 -2.56611,-2.3665 0,-2.73195 3.03248,-3.0485 5.14774,-3.13115 v -0.50024 c 0,-0.94919 -0.78352,-1.43232 -1.68275,-1.43232 -0.83221,0 -1.73214,0.11642 -2.53189,0.38294 v -0.93292 c 0.89958,-0.54962 1.91594,-0.88265 2.98203,-0.88265 1.66511,0 3.38173,0.71614 3.38173,2.63204 v 3.19804 c 0,0.2836 -0.067,1.81596 0.18309,2.01648 0.0836,0.0659 0.23283,0.05 0.33373,0.05 v 0.74923 c -0.5334,0.0174 -1.08338,0.10061 -1.6323,0.10061 z m -4.03155,-2.56646 c 0,0.75004 0.48295,1.28309 1.2319,1.28309 0.9338,0 1.76601,-0.78313 1.76601,-1.73288 v -1.19905 c -0.98319,0.05 -2.99791,0.39966 -2.99791,1.64884 v 0" />
  </g>
</svg>
