<svg xmlns:rdf="http://www.w3.org/1999/02/22-rdf-syntax-ns#" xmlns="http://www.w3.org/2000/svg" height="222.2mm" width="137.2mm" version="1.1" xmlns:cc="http://creativecommons.org/ns#" xmlns:dc="http://purl.org/dc/elements/1.1/" viewBox="0 0 486.08749 787.23118">
 <path d="m22.97 161.2c-2.231-0.3912-4.188-0.735-5.918-1.039-0.33-1.705-0.85-2.882-0.7287-4.008 2.311-21.25-3.261-42.1-4.162-63.17-0.1813-4.222 4.098-9.635 2.222-12.5-2.791-4.266-0.905-8.405-2.534-12.11-7.465-16.98-17.23-36.76-8.257-53.23 2.83-5.184 10.11-7.45 17.35-12.79 6.115-0.5775 15.49-1.466 24.87-2.352 10.6 0.0738 17.88 5.502 20.76 15.36-4.65 2.891-9.79 2.48-15.32-4.29v22.82c1.505 1.298 3.524 3.04 5.139 4.431 7.081-4.675 12.59-15.32 21.92-14.47 3.714 0.34 8.18 3.834 7.846 7.546-0.7412 8.254-12.72 8.454-18.48 12.28 0.155 8.735 0.6575 16.96-5.531 24.32-2.176 2.588-2.764 6.589-2.868 9.97-0.3412 11.06-0.1287 22.12-0.1287 34.2 5.325 5.378 10.97 11.33 16.94 17.02 4.306 4.108 8.828 8.092 13.66 11.74 4.241 3.201 5.991 7.78 11.16 11.05 5.047 3.192 4.86 12.54 7.467 20.75 6.924 1.982 15.68 3.358 23.02 6.904 7.711 3.725 14.08 9.526 19 13 7.284 2.2 12.29 3.715 17.3 5.23 0.9712-0.75 2.456-1.349 2.839-2.284 4.409-10.75 8.344-21.66 13.01-32.33 7.459-17.04 24.66-22.01 43.2-24.39 7.655-0.9825 15.62-0.1625 23-0.1625 23.75 12.06 27.57 12.75 40.66 7.364 4.138 1.681 8.32 3.378 13.11 5.324 0 2.134 1.176 5.519-0.2125 6.745-5.176 4.574-3.911 9.98-4.134 17.02 4.749 1.698 10.16 3.635 16.63 5.952v7.006c4.795 4.139 8.838 7.625 13.63 11.76v19.05c12.43 3.749 25.72-2.882 37.23 4.572 1.829-2.488 5.205-4.952 5.2-7.412-0.0388-17.26 7.71-32.92 12.17-49.28 3.632-13.32 2.231-27.39-6.271-39.64-4.894-7.044-5.98-14.2-5.76-22.04 0.1638-5.832 1.604-11.87-3.904-17.16-1.57-1.504-5.125-9.241 0.535-11.67 6.841-2.935 10.04 6.918 11.78 10.12 2.502 4.6 2.468 10.2 4.785 14.91 1.64 3.335 5.375 5.906 8.976 9.65 8.3-12.74 14.3-24.12 11.7-38.15h-11.65c-0.29-3.429-0.5362-6.3-0.7712-9.048 13.4-12.66 27.9-1.448 41.29-1.994 5.135 9.61 19.24 11.45 22.73 20.29-8.896 18.1-17.4 35.39-24.87 50.59 4.594 14.17 8.74 26.23 12.36 38.41 2.169 7.295 1.14 16.29 5.845 21.79 6.062 7.085-2.559 16.45 6.982 21.7-1.862 12.38 2.436 24.66-3.476 37.48-5.154 11.17-4.341 24.39-6.168 36.73 3.935 1.239 8.324 0.2688 8.878 2.794 0.995 4.544-6.929 6.271-10.4 9.412-1.104-0.7975-2.561-1.85-4.278-3.092l-3.308 7.395h-108.2c-5.999 17.44 4.895 31.03 11.36 45.47 10.04 1.595 9.639 10.4 12.12 15.68 3.964 8.461 4.54 18.42 4.836 27.78 0.6388 20.3 0.195 40.62 0.195 58.49 18.09 34.22 41.81 63.84 48.66 99.72 1.931 0.4362 3.864 0.8738 5.8 1.306 0.43 1.081 1.272 2.18 1.209 3.241-0.8525 14.36 2.408 27.92 7.402 41.7 4.024 11.09 4.924 23.29 5.295 35.04 0.7625 24.01 0.4225 48.05 0.125 72.08-0.11 8.622 1.079 16.34 8.548 22.92 4.714 4.15 9.655 8.862 11.95 14.14 5.095 11.7 16.61 7.601 29.47 13.44 3.081 1.398 8.314 4.868 8.378 10.06 0.0412 3.349-5.309 6.721-8.89 11.26-3.432 1.111-7.888 2.282-12.06 3.981-3.496 1.424-6.095 6.166-11.01 5.779-4.001-0.3138-6.11-4.03-8.136-6.242-11.39-12.43-25.51-22.06-40.29-31.31-7.48-4.678-14.86-7.038-23.86-8.7-12.78-2.359-24.83-7.686-38.76-12.26-0.1825-0.4475-0.8562-2.674-1.978-4.71-0.5762-1.05-1.942-1.775-2.039-1.852 1.621-4.864 3.068-9.201 4.469-13.41 1.935-0.4388 3.869-0.8738 6.471-1.46v-31.28c-1.85-0.5588-4.335-1.314-7.365-2.229v-42.21c2.236-0.6888 4.719-1.45 7.724-2.375 0.135-2.188 0.2788-4.559 0.3638-5.955-24.73-21.14-52.29-37.85-83.2-52.27-2.266 4.995-6.631 10.12-6.516 15.17 0.4075 18.03-6.935 34.41-13.66 50.73-3.418 8.285-4.178 16.23-3.652 24.47 0.325 5.088 2.99 10.03 3.989 15.13 1.009 5.151-2.28 11.16 4.379 15.09 0.5238 14.9-0.3475 29.48-7.39 43.57-3.405 6.819-4.404 14.54-7.255 24.5-1.384 0.815-5.505 3.239-12.51 7.358-2.216 0.4275-8.704 1.685-17.47 3.379-16.3-6.958-38.5 1.791-57.43-13.41-4.459-3.58-3.474-11.73 0-15.2 3.321-3.321 8.865 0 11.73 0 6.254-5.41 11.64-10.07 17.47-15.12-4.979-18.94-10.3-38.64-8.469-59.01 0.6238-6.936 2.951-13.75 4.12-20.66 3.269-19.36-6.336-37.2-9.18-55.85-6.05-3.522-3.394-8.891-3.549-13.49-0.705-20.89 2.084-41.19 7.546-61.81 4.058-15.33 8.636-31.85 5.066-48.17-2.494-11.41-3.385-23.01-7.255-34.31-3.421-10-4.16-20.68-6.136-31.36-2.101-0.3838-4.055-0.7375-6.082-1.104-8.402-27.53-14.41-55.64-29.67-81.73-7.738-13.23-12.37-28.14-23.87-39.37-9.596-9.368-14.67-20.41-21.36-30.98-8.578-13.57-19.15-26.21-25.52-40.82-11.72-3.791-10.82-14.34-15.88-21.71-1.705-2.488 0.355-8.179-6.982-7.305-0.5675 0.0662-1.764-6.055-3.288-9.064-1.591-3.141-3.935-5.994-5.748-8.676" />
</svg>
