<svg xmlns:rdf="http://www.w3.org/1999/02/22-rdf-syntax-ns#" xmlns="http://www.w3.org/2000/svg" height="73.536mm" width="117.74mm" version="1.1" xmlns:cc="http://creativecommons.org/ns#" xmlns:dc="http://purl.org/dc/elements/1.1/" viewBox="0 0 417.20521 260.56129">
 <g transform="translate(-53.656 -143.36)">
  <g class="c4" transform="matrix(1 0 -.33006 1 0 0)">
   <path d="m230.17 196.42 8.0356-27.883-5.8089-18.492h-5.5184v-1.8395h30.012v1.8395h-5.712l14.425 45.793 11.618-45.793h-9.7782v-1.8395h19.363v1.8395h-6.3898l-17.814 66.899h-8.6165l-14.329-43.76-12.586 43.76h-8.4228l-24.397-66.899h-4.5503v-1.8395h31.465v1.8395h-6.777l15.781 46.374z"/>
   <path d="m288.42 143.36h23.332v35.434q1.549-4.4535 4.7439-7.1643t9.6814-2.7108q15.006 0 15.006 16.168v29.141h5.4216v1.7427h-27.398v-1.7427h3.9694v-31.465q0-5.8089-0.77452-7.4547-0.77451-1.7427-2.8076-1.7427-3.0981 0-5.5184 4.0662-2.3236 4.0662-2.3236 9.8751v26.721h4.163v1.7427h-27.495v-1.7427h5.3248v-69.125h-5.3248v-1.7427z"/>
   <path d="m379.25 196.9v-8.2292q0-9.391-1.065-13.651-0.96814-4.3566-4.6471-4.3566-2.1299 0-3.4853 1.2586-1.2586 1.1618-1.8395 3.9694-0.87133 4.3566-0.87133 13.264v7.5515q0 10.553 0.58088 12.683 0.6777 2.1299 1.3554 3.4853 1.065 2.3236 4.163 2.3236 3.7758 0 4.9375-4.3566 0.87133-3.0981 0.87133-13.941zm-6.0025 20.041q-12.102 0-18.298-6.1961-6.1961-6.1961-6.1961-17.717 0-11.618 6.5834-17.814 6.6802-6.2929 18.685-6.2929t17.911 5.8089q5.9057 5.712 5.9057 17.523 0 24.688-24.591 24.688z"/>
  </g>
  <g class="c3" transform="matrix(1 0 -.32607 1 0 0)">
   <path d="m177.35 231.71v-4.1788h67.326v4.1788h-12.537l25.305 77.077 26.93-77.077h-15.555v-4.1788h32.734v4.1788h-11.608l-43.414 125.13q-7.6612 21.823-17.18 30.413-9.5185 8.822-23.216 8.822-13.697 0-21.591-6.2683-7.8934-6.2683-7.8934-16.019t5.1075-14.858q5.1075-5.1075 13.465-5.1075 19.269 0 19.269 16.019 0 3.4824-1.393 8.3577h-8.1255q-1.8573 5.3396-0.46432 8.822t6.2683 3.4824q9.5185 0 16.948-9.5185 7.4291-9.2863 14.162-28.555l5.1075-14.394h-20.43l-39.699-106.33h-9.5185z"/>
   <path d="m370.94 292.3v-19.733q0-22.519-2.5537-32.734-2.3216-10.447-11.144-10.447-5.1075 0-8.3577 3.0181-3.0181 2.7859-4.411 9.5185-2.0894 10.447-2.0894 31.806v18.108q0 25.305 1.393 30.413 1.6251 5.1075 3.2502 8.3577 2.5537 5.5718 9.9828 5.5718 9.0542 0 11.84-10.447 2.0894-7.4291 2.0894-33.431zm-14.394 48.057q-29.02 0-43.878-14.858t-14.858-42.485q0-27.859 15.787-42.717 16.019-15.09 44.807-15.09t42.949 13.93q14.162 13.697 14.162 42.021 0 59.2-58.968 59.2z"/>
   <path d="m557.82 338.04h-52.932l-2.5537-16.948q-3.7145 9.2863-11.144 14.394-7.1969 4.8753-21.591 4.8753-35.985 0-35.985-38.77v-69.88h-13.001v-4.1788h56.182v79.63q0 13.93 1.8573 18.341 2.0894 4.411 7.8934 4.411 6.0361 0 10.679-7.1969 4.6432-7.1969 4.6432-19.966v-71.04h-10.679v-4.1788h53.861v106.33h12.769v4.1789z"/>
  </g>
  <g class="c4" transform="matrix(1 0 -.33032 1 0 0)">
   <path d="m287.43 380.42h2.7815v-7.3853q0-9.1117-1.055-12.181-0.95913-3.1651-3.8365-3.1651-1.7264 0-3.1651 0.95913-1.3428 0.86321-1.3428 2.4937 0 1.5346 0.57548 3.1651h2.3978q0.7673 2.0142 0.7673 4.8916 0 2.7815-2.3978 4.8916-2.3978 2.0142-6.0425 2.0142-8.2485 0-8.2485-7.9608 0-11.797 20.046-11.797 11.414 0 15.73 3.9324 4.412 3.8365 4.412 14.195v19.47q0 4.9875 2.7815 4.9875 3.261 0 3.8365-9.879l1.4387 0.0959q-0.38365 8.4403-3.1651 11.605-2.7815 3.1651-9.1117 3.1651-11.51 0-13.236-7.0975-1.2469 3.6447-3.7406 5.3711t-7.2894 1.7264q-14.195 0-14.195-11.605 0-6.8098 5.3711-9.3035 5.467-2.5896 16.689-2.5896zm-3.8365 11.797q0 4.9874 0.47957 6.4261 0.57547 1.4387 2.0142 1.4387 1.5346 0 2.7815-2.3978 1.3428-2.4937 1.3428-6.8098v-8.9199h-0.67139q-5.9466 0-5.9466 8.728v1.5346z"/>
   <path d="m349.08 360q-3.5488 0-6.2343 4.6038-2.6856 4.6038-2.6856 10.934v25.705h6.8098v1.7264h-29.925v-1.7264h5.2752v-42.202h-5.2752v-1.7264h23.115v9.2076q1.2469-4.8916 4.7956-7.4812 3.5488-2.6856 8.0567-2.6856t7.2894 2.5896q2.8774 2.4937 2.8774 7.1935 0 4.6038-2.1101 7.0975t-6.5221 2.4937q-4.3161 0-6.4262-2.8774-2.0142-2.8774-0.47956-7.9608h3.4528q2.3978-4.8916-2.0142-4.8916z"/>
   <path d="m389.11 403.92q-12.373 0-18.607-6.3302-6.1384-6.4262-6.1384-17.744 0-11.414 6.9057-17.456 7.0016-6.0425 17.744-6.0425 21.772 0 20.909 21.868h-27.047v3.7406q0 9.3994 2.3978 14.195t8.3444 4.7956q11.126 0 14.579-11.893l1.7264 0.28773q-1.8223 6.9057-6.618 10.742-4.6997 3.8365-14.195 3.8365zm-6.1384-27.623h9.879v-4.6997q0-7.7689-0.95913-10.55-0.86322-2.8774-3.6447-2.8774-2.6856 0-4.0283 3.0692-1.2469 2.9733-1.2469 10.359v4.6997z"/>
  </g>
 </g>
</svg>
