<svg xmlns:rdf="http://www.w3.org/1999/02/22-rdf-syntax-ns#" xmlns="http://www.w3.org/2000/svg" height="98.89mm" width="94.9mm" version="1.1" xmlns:cc="http://creativecommons.org/ns#" xmlns:dc="http://purl.org/dc/elements/1.1/" viewBox="0 0 336.24595 350.40093">
 <defs>
  <radialGradient id="a" gradientUnits="userSpaceOnUse" cy="173.7" cx="168.2" gradientTransform="matrix(1 0 0 .7040 0 51.44)" r="133.6">
   <stop stop-color="#4d4d4d" offset="0"/>
   <stop stop-color="#1a1a1a" offset="1"/>
  </radialGradient>
 </defs>
 <g transform="translate(140.4 31.06)" fill="#999">
  <g transform="translate(-129.4 -328.2)">
   <path d="m284 574.8c-1.612-5.174-4.908-9.592-8.278-14.04 0.0562 0.0716-0.1022-0.1368-0.0179-0.0703-0.0498-0.0907 0.1329 0.1048 0.0665 0.0371 4.149 3.934 8.289 7.812 13.73 10.5 1.977 0.9778 4.475 1.69 5.856 3.327 3.783 4.487-5.101 10.17-9.135 5.924-1.49-1.562-1.635-3.797-2.226-5.681"/>
   <path d="m278.5 590c-1.049 1.429-3.193 1.83-4.523 0.3272-1.636-1.839-0.1138-4.202 0.2173-6.143 0.3962-2.295 0.7055-4.508 0.455-6.834-3.995 1.747-4.541-2.241-4.439-4.643 0.092-2.102 0.0677-4.16 0.1099-6.247 0.0805-4.077-0.2914-8.122-1.419-12.09 0.4179 0.8934 0.8103 1.803 1.14 2.742 0.6927 2.033 1.398 3.948 1.768 6.049 0.4703 2.676 1.028 5.369 1.26 8.05 0.069 0.8589 0.0486 1.7 0.0486 2.551 0 0.4026 0 0.8103 0.0204 1.226-0.0524-1.281 0.3349-2.641 0.3873-3.928 0.0588-1.338 0.0422-2.681-0.0396-4.011-0.1252-2.15-0.4691-4.261-0.8563-6.385-0.0946-0.5023-0.1419-1.03-0.2569-1.527 0.7912 2.04 1.617 3.971 2.297 6.048 0.6429 1.964 1.305 4.049 1.811 6.005 0.9535 3.657 1.148 7.269 0.8001 11.01-0.2071 2.256-0.5189 4.654-1.218 6.844 1.929-2.834 2.308-6.044 2.832-9.22 0.1994-1.194 0.3068-2.483 0.3208-3.742 0.7873 2.287 1.401 4.624 1.722 7.033 0.4895 3.671 0.5764 7.52-0.671 11.1-0.8551 2.462-2.684 4.787-5.303 6.112 0.4652-0.4882 1.016-0.988 1.356-1.55 1.516-2.462 2.335-6.005 2.18-8.768"/>
   <path d="m292.3 567.7c1.431 0.3182 2.928 0.5764 4.325 0.7272 3.741 0.4077 7.483 0.9484 11.21 0.115-2.67-0.005-5.475-0.3809-8.089-0.8116-4.328-0.7017-8.369-1.814-12.27-3.571-2.081-0.9343-4.269-2.021-6.324-3.075-2.179-1.106-4.15-2.293-6.256-3.479 0.5368 0.2224 1.12 0.4026 1.665 0.6071 2.316 0.887 4.609 1.719 7.018 2.4 1.494 0.4205 3.005 0.7886 4.533 1.092 1.474 0.294 3.129 0.34 4.559 0.7132-0.4614-0.1176-0.9279-0.2275-1.389-0.3323-0.965-0.2173-1.917-0.4269-2.877-0.7145-2.982-0.8947-5.884-2.071-8.787-3.165-2.288-0.8576-4.271-1.945-6.394-3.06-0.9803-0.51-1.904-1.074-2.809-1.655 4.208 1.977 8.695 3.355 13.34 4.365 2.368 0.5202 4.706 1.086 7.113 1.566 2.747 0.5521 7.131 2.059 4.086 4.871 2.574 0.818 5.162 1.155 7.872 1.435 2.281 0.2428 5.369-0.3809 7.024 1.447 1.351 1.495 0.3285 3.143-1.573 3.622 3.09 0.8576 7.325 1.12 10.52 0.5381 0.7349-0.1355 1.453-0.4537 2.124-0.7004-2.197 1.793-5.323 2.673-8.335 2.725-4.389 0.078-8.724-1.011-12.76-2.388-2.648-0.9036-5.133-2.022-7.518-3.272"/>
   <path d="m30.7 574.8c1.612-5.174 4.909-9.592 8.277-14.04-0.05752 0.0716 0.1048-0.1368 0.01789-0.0703 0.04985-0.0907-0.1342 0.1048-0.06518 0.0371-4.151 3.934-8.291 7.812-13.73 10.5-1.984 0.9778-4.482 1.69-5.863 3.327-3.787 4.487 5.102 10.17 9.135 5.924 1.494-1.562 1.637-3.797 2.228-5.681"/>
   <path d="m36.13 590c1.048 1.429 3.189 1.83 4.523 0.3272 1.632-1.839 0.1138-4.202-0.2211-6.143-0.3949-2.295-0.7042-4.508-0.4525-6.834 3.99 1.747 4.542-2.241 4.438-4.643-0.09075-2.102-0.06646-4.16-0.1099-6.247-0.08052-4.077 0.294-8.122 1.417-12.09-0.4179 0.8934-0.8078 1.803-1.139 2.742-0.694 2.033-1.4 3.948-1.769 6.049-0.4678 2.676-1.03 5.369-1.258 8.05-0.07158 0.8589-0.04985 1.7-0.04985 2.551 0 0.4026 0 0.8103-0.01789 1.226 0.04857-1.281-0.3349-2.641-0.3898-3.928-0.05752-1.338-0.04346-2.681 0.03834-4.011 0.1265-2.15 0.4691-4.261 0.8563-6.385 0.09586-0.5023 0.1431-1.03 0.2569-1.527-0.7912 2.04-1.614 3.971-2.294 6.048-0.6467 1.964-1.302 4.049-1.814 6.005-0.9522 3.657-1.148 7.269-0.7988 11.01 0.2058 2.256 0.5189 4.654 1.217 6.844-1.926-2.834-2.304-6.044-2.828-9.22-0.1994-1.194-0.308-2.483-0.3259-3.742-0.7848 2.287-1.398 4.624-1.719 7.033-0.487 3.671-0.5764 7.52 0.671 11.1 0.8563 2.462 2.683 4.787 5.304 6.112-0.464-0.4882-1.016-0.988-1.357-1.55-1.512-2.462-2.333-6.005-2.178-8.768"/>
   <path d="m22.41 567.7c-1.431 0.3182-2.928 0.5764-4.324 0.7272-3.742 0.4077-7.482 0.9484-11.21 0.115 2.67-0.005 5.474-0.3809 8.088-0.8116 4.329-0.7017 8.37-1.814 12.27-3.571 2.078-0.9343 4.269-2.021 6.32-3.075 2.18-1.106 4.15-2.293 6.258-3.479-0.5343 0.2224-1.12 0.4026-1.667 0.6071-2.312 0.887-4.606 1.719-7.018 2.4-1.489 0.4205-3.005 0.7886-4.532 1.092-1.479 0.294-3.126 0.34-4.556 0.7132 0.4576-0.1176 0.9254-0.2275 1.385-0.3323 0.9637-0.2173 1.918-0.4269 2.874-0.7145 2.984-0.8947 5.888-2.071 8.791-3.165 2.288-0.8576 4.27-1.945 6.393-3.06 0.9803-0.51 1.907-1.074 2.811-1.655-4.205 1.977-8.695 3.355-13.34 4.365-2.37 0.5202-4.707 1.086-7.111 1.566-2.747 0.5521-7.134 2.059-4.089 4.871-2.573 0.818-5.162 1.155-7.869 1.435-2.281 0.2428-5.372-0.3809-7.027 1.447-1.348 1.495-0.3259 3.143 1.575 3.622-3.092 0.8576-7.326 1.12-10.51 0.5381-0.7362-0.1355-1.454-0.4537-2.123-0.7004 2.193 1.793 5.322 2.673 8.336 2.725 4.385 0.078 8.722-1.011 12.76-2.388 2.647-0.9036 5.13-2.022 7.515-3.272"/>
   <path d="m284 368.3c-1.612 5.176-4.908 9.595-8.278 14.04 0.0562-0.0729-0.1022 0.1316-0.0179 0.069-0.0498 0.0907 0.1329-0.0997 0.0665-0.0371 4.149-3.933 8.289-7.813 13.73-10.51 1.977-0.9752 4.475-1.69 5.856-3.327 3.783-4.49-5.101-10.17-9.135-5.923-1.49 1.561-1.635 3.8-2.226 5.681"/>
   <path d="m278.5 353c-1.049-1.43-3.193-1.834-4.523-0.331-1.636 1.844-0.1138 4.208 0.2173 6.145 0.3962 2.293 0.7055 4.505 0.455 6.834-3.995-1.748-4.541 2.239-4.439 4.638 0.092 2.102 0.0677 4.163 0.1099 6.247 0.0805 4.077-0.2914 8.122-1.419 12.09 0.4179-0.8947 0.8103-1.805 1.14-2.739 0.6927-2.036 1.398-3.952 1.768-6.056 0.4703-2.674 1.028-5.366 1.26-8.047 0.069-0.8589 0.0486-1.696 0.0486-2.551 0-0.4052 0-0.8103 0.0204-1.223-0.0524 1.282 0.3349 2.642 0.3873 3.925 0.0588 1.339 0.0422 2.679-0.0396 4.012-0.1252 2.151-0.4691 4.264-0.8563 6.389-0.0946 0.4972-0.1419 1.028-0.2569 1.524 0.7912-2.039 1.617-3.972 2.297-6.049 0.6429-1.962 1.305-4.052 1.811-5.998 0.9535-3.663 1.148-7.276 0.8001-11.01-0.2071-2.257-0.5189-4.652-1.218-6.842 1.929 2.834 2.308 6.044 2.832 9.22 0.1994 1.194 0.3068 2.481 0.3208 3.74 0.7873-2.287 1.401-4.62 1.722-7.033 0.4895-3.669 0.5764-7.519-0.671-11.09-0.8551-2.459-2.684-4.785-5.303-6.12 0.4652 0.4908 1.016 0.9918 1.356 1.561 1.516 2.457 2.335 6.001 2.18 8.765"/>
   <path d="m292.3 375.4c1.431-0.3195 2.928-0.5713 4.325-0.7221 3.741-0.4128 7.483-0.9535 11.21-0.1227-2.67 0.005-5.475 0.386-8.089 0.8129-4.328 0.703-8.369 1.819-12.27 3.572-2.081 0.9343-4.269 2.018-6.324 3.074-2.179 1.108-4.15 2.299-6.256 3.478 0.5368-0.2198 1.12-0.4013 1.665-0.6071 2.316-0.8832 4.609-1.718 7.018-2.398 1.494-0.4218 3.005-0.7886 4.533-1.092 1.474-0.2952 3.129-0.34 4.559-0.7132-0.4614 0.1202-0.9279 0.2301-1.389 0.3323-0.965 0.2198-1.917 0.4282-2.877 0.7158-2.982 0.8985-5.884 2.071-8.787 3.166-2.288 0.8576-4.271 1.944-6.394 3.055-0.9803 0.51-1.904 1.074-2.809 1.655 4.208-1.977 8.695-3.352 13.34-4.365 2.368-0.5151 4.706-1.084 7.113-1.563 2.747-0.547 7.131-2.059 4.086-4.871 2.574-0.8193 5.162-1.154 7.872-1.438 2.281-0.2403 5.369 0.3847 7.024-1.442 1.351-1.495 0.3285-3.143-1.573-3.623 3.09-0.8602 7.325-1.121 10.52-0.5394 0.7349 0.1355 1.453 0.4537 2.124 0.7004-2.197-1.792-5.323-2.671-8.335-2.726-4.389-0.0767-8.724 1.015-12.76 2.393-2.648 0.8998-5.133 2.021-7.518 3.268"/>
   <path d="m30.7 368.3c1.612 5.176 4.909 9.595 8.277 14.04-0.05752-0.0729 0.1048 0.1316 0.01789 0.069 0.04985 0.0907-0.1342-0.0997-0.06518-0.0371-4.151-3.933-8.291-7.813-13.73-10.51-1.984-0.9752-4.482-1.69-5.863-3.327-3.787-4.49 5.102-10.17 9.135-5.923 1.494 1.561 1.637 3.8 2.228 5.681"/>
   <path d="m36.13 353c1.048-1.43 3.189-1.834 4.523-0.331 1.632 1.844 0.1138 4.208-0.2211 6.145-0.3949 2.293-0.7042 4.505-0.4525 6.834 3.99-1.748 4.542 2.239 4.438 4.638-0.09075 2.102-0.06646 4.163-0.1099 6.247-0.08052 4.077 0.294 8.122 1.417 12.09-0.4179-0.8947-0.8078-1.805-1.139-2.739-0.694-2.036-1.4-3.952-1.769-6.056-0.4678-2.674-1.03-5.366-1.258-8.047-0.07158-0.8589-0.04985-1.696-0.04985-2.551 0-0.4052 0-0.8103-0.01789-1.223 0.04857 1.282-0.3349 2.642-0.3898 3.925-0.05752 1.339-0.04346 2.679 0.03834 4.012 0.1265 2.151 0.4691 4.264 0.8563 6.389 0.09586 0.4972 0.1431 1.028 0.2569 1.524-0.7912-2.039-1.614-3.972-2.294-6.049-0.6467-1.962-1.302-4.052-1.814-5.998-0.9522-3.663-1.148-7.276-0.7988-11.01 0.2058-2.257 0.5189-4.652 1.217-6.842-1.926 2.834-2.304 6.044-2.828 9.22-0.1994 1.194-0.308 2.481-0.3259 3.74-0.7848-2.287-1.398-4.62-1.719-7.033-0.487-3.669-0.5764-7.519 0.671-11.09 0.8563-2.459 2.683-4.785 5.304-6.12-0.464 0.4908-1.016 0.9918-1.357 1.561-1.512 2.457-2.333 6.001-2.178 8.765"/>
   <path d="m22.41 375.4c-1.431-0.3195-2.928-0.5713-4.324-0.7221-3.742-0.4128-7.482-0.9535-11.21-0.1227 2.67 0.005 5.474 0.386 8.088 0.8129 4.329 0.703 8.37 1.819 12.27 3.572 2.078 0.9343 4.269 2.018 6.32 3.074 2.18 1.108 4.15 2.299 6.258 3.478-0.5343-0.2198-1.12-0.4013-1.667-0.6071-2.312-0.8832-4.606-1.718-7.018-2.398-1.489-0.4218-3.005-0.7886-4.532-1.092-1.479-0.2952-3.126-0.34-4.556-0.7132 0.4576 0.1202 0.9254 0.2301 1.385 0.3323 0.9637 0.2198 1.918 0.4282 2.874 0.7158 2.984 0.8985 5.888 2.071 8.791 3.166 2.288 0.8576 4.27 1.944 6.393 3.055 0.9803 0.51 1.907 1.074 2.811 1.655-4.205-1.977-8.695-3.352-13.34-4.365-2.37-0.5151-4.707-1.084-7.111-1.563-2.747-0.547-7.134-2.059-4.089-4.871-2.573-0.8193-5.162-1.154-7.869-1.438-2.281-0.2403-5.372 0.3847-7.027-1.442-1.348-1.495-0.3259-3.143 1.575-3.623-3.092-0.8602-7.326-1.121-10.51-0.5394-0.7362 0.1355-1.454 0.4537-2.123 0.7004 2.193-1.792 5.322-2.671 8.336-2.726 4.385-0.0767 8.722 1.015 12.76 2.393 2.647 0.8998 5.13 2.021 7.515 3.268"/>
   <path d="m103.5 316c5.096-5.215 16.55-4.848 23.32-2.587-7.174-1.429-18.69-1.921-23.57 3.813-1.462 1.72-2.551 3.887-2.238 6.037 0.3413 2.344 3.103 4.004 5.753 4 3.074-0.005 5.892-2.249 6.401-4.758 0.3924-1.949-0.7502-4.099-3.113-4.613-2.405-0.524-4.732 1.121-5.257 3.039-0.1904 0.6889-0.2173 1.555 0.2186 2.191 1.085 1.577 4.335 0.9573 4.206-0.9637-0.0537-0.7247-0.6723-1.227-1.476-1.281 1.566 0.0486 2.345 1.045 1.664 2.298-0.4397 0.8014-1.153 1.316-2.189 1.401-1.778 0.1483-3.096-0.7451-3.562-2.151-0.2671-0.8206 0.0524-2.018 0.4537-2.772 1.497-2.843 6.516-4.342 9.039-1.515 1.371 1.54 1.337 3.594 0.533 5.334-1.759 3.827-7.687 6.563-11.76 3.487-3.989-3.01-1.215-8.107 1.581-10.96"/>
   <path d="m70.54 314.1c0-0.046 0.0064-0.0946 0-0.1444 0.0064 0.0498 0 0.0984 0 0.1444"/>
   <path d="m79.28 314.4c-3.326-2.041-6.723-5.877-11.31-3.952-3.943 1.645-1.797 6.242 2.155 6.228 1.495-0.003 2.534-1.178 2.269-2.403-0.1636-0.7451-1.028-1.311-1.803-1.567-0.9138-0.2978-2.432 0.225-2.253 1.205 0.1713 0.9113 2.076 1.111 2.201 0.1521-0.08436 1.163-1.863 1.255-2.441 0.2774-0.4422-0.7515 0.2556-1.723 0.9228-2.189 0.8678-0.6084 2.211-0.6621 3.17-0.1316 0.7145 0.3975 1.286 1.132 1.37 1.849 0.4269 3.837-5.257 5.015-7.842 2.228-0.9432-1.029-1.148-2.605-0.74-3.845 0.4064-1.278 1.401-2.215 2.738-2.864 1.319-0.6442 2.591-0.8014 3.809-0.6506 3.089 0.3988 5.85 2.816 8.268 4.42 3.869 2.578 8.276 3.23 13.04 3.442-4.723 0.1048-9.208 0.4512-13.55-2.2"/>
   <path d="m68.71 300.9c1.561 0.7221 3.498 1.741 4.625 2.926-1.365-0.8039-2.748-1.397-4.365-1.668-0.1355-0.0204-0.2748-0.0409-0.4077-0.0562-1.415-0.1956-2.814-0.1904-4.251-0.2441-1.4-0.0537-2.588-1.24-0.7758-1.784 1.728-0.5304 3.659 0.1304 5.174 0.8269zm2.509-1.232c-3.355-1.78-7.289-2.689-11.23-2.026-2.138 0.3604-4.13 1.246-5.777 2.453-1.61 1.181-3.386 2.601-3.668 4.481 1.108-1.401 3.102-1.952 4.85-2.579 0.9458-0.3387 1.917-0.6276 2.919-0.8282 0.4806-0.1048 0.9688-0.1828 1.461-0.2403 0.2313-0.0281 1.329 0.008 1.463-0.1099-2.653 2.4-2.68 6.506 0.1138 8.765-1.598-1.291 0.3732-4.145 1.458-5.161 1.587-1.499 4.242-2.221 6.511-1.543 3.299 0.9867 5.682 3.515 7.947 5.656 6.502 6.149 16.34 8.499 25.71 5.51-8.646 0.4052-16.54 0.1662-22.54-5.97-2.857-2.918-5.341-6.361-9.219-8.407"/>
   <path d="m86.61 307.1c1.423 0.5662 1.406 2.494 2.513 3.379 1.362 1.085 3.291 1.685 5.088 1.998-1.552-0.262-3.166-0.4358-4.608-1.022-1.408-0.5739-4.679-1.791-4.645-3.464 0.01917-0.8448 0.7311-1.256 1.651-0.8908zm-0.9778-9.959c-2.851 1.046-5.217 3.365-4.967 6.12 0.2543 2.766 2.189 5.363 4.847 6.944 3.442 2.051 7.522 2.853 11.69 2.678 4.237-0.1802 8.319-1.228 12.55-1.448 10.88-0.5662 22.27 0.8525 31.78 5.612 4.156 2.079 8.029 4.79 10.68 8.26 1.057 1.374 1.893 2.834 2.517 4.344-1.332-1.589-3.129-2.956-4.877-4.135-2.759-1.872-5.824-3.465-9.119-4.579-5.573-1.888-13.08-2.365-17.43 1.281 4.49-3.208 13.18-2.003 17.65-0.3272 3.057 1.14 5.948 2.641 8.542 4.444 2.485 1.733 5.105 3.804 6.19 6.439 0.1304 0.6327 0.225 1.27 0.2825 1.916-2.321-2.972-7.032-4.605-10.97-5.192-4.601-0.6812-10.99-0.1879-13.14 3.946 0.0549-0.0562 0.0895-0.0524 0.1444-0.1662 0.2198-0.5087 0.5713-0.9445 1.033-1.313 2.866-2.324 9.735-2.132 12.61-1.548 4.055 0.8295 11.13 3.303 10.97 7.739 0.2134-6.199-0.6506-10.96-5.072-16.27-3.698-4.445-8.689-8.074-14.36-10.58-2.699-1.196-5.482-2.17-8.462-2.726-3.131-0.5866-6.324-0.9011-9.499-1.277-5.197-0.625-11.05-1.709-15.18-4.654-0.9535-0.6736-1.719-1.389-2.322-2.307 3.455 5.271 8.627 6.617 15.53 7.495 6.29 0.8014 12.54 1.242 18.32 3.689 5.771 2.446 11.05 5.928 14.85 10.4 0.1764 0.2032 0.3451 0.4154 0.5164 0.625-2.797-2.805-6.313-5.064-10.12-6.792-6.817-3.099-14.63-4.775-22.32-5.179-7.113-0.3719-14.4 1.729-21.52 0.3988-2.758-0.5176-6.723-1.807-7.335-4.5-0.2403-1.071 0.0869-2.106 0.7579-3.005 0.4729-0.6352 1.374-1.717 2.422-1.66-1.449-0.0729-2.785 0.3413-4.078 0.8921-1.263 0.533-2.496 1.396-2.981 2.556 0.02045-0.0588-1.469-1.619-1.601-1.839-0.4013-0.6787-0.6685-1.414-0.7285-2.172-0.1125-1.439 0.6927-3.327 2.193-4.109"/>
   <path d="m211.1 316c-5.084-5.215-16.54-4.848-23.32-2.587 7.174-1.429 18.69-1.921 23.57 3.813 1.458 1.72 2.551 3.887 2.237 6.037-0.3425 2.344-3.108 4.004-5.748 4-3.076-0.005-5.897-2.249-6.41-4.758-0.3937-1.949 0.7541-4.099 3.113-4.613 2.407-0.524 4.737 1.121 5.261 3.039 0.1892 0.6889 0.2122 1.555-0.2198 2.191-1.085 1.577-4.34 0.9573-4.204-0.9637 0.0524-0.7247 0.6672-1.227 1.472-1.281-1.567 0.0486-2.348 1.045-1.662 2.298 0.4371 0.8014 1.15 1.316 2.191 1.401 1.773 0.1483 3.092-0.7451 3.554-2.151 0.2658-0.8206-0.0498-2.018-0.441-2.772-1.504-2.843-6.521-4.342-9.048-1.515-1.377 1.54-1.333 3.594-0.5368 5.334 1.766 3.827 7.698 6.563 11.77 3.487 3.985-3.01 1.208-8.107-1.584-10.96"/>
   <path d="m244.1 314.1c-0.005-0.046-0.0166-0.0946-0.005-0.1444-0.0115 0.0498 0 0.0984 0.005 0.1444"/>
   <path d="m235.3 314.4c3.331-2.041 6.727-5.877 11.32-3.952 3.94 1.645 1.798 6.242-2.152 6.228-1.499-0.003-2.54-1.178-2.274-2.403 0.1636-0.7451 1.03-1.311 1.807-1.567 0.9062-0.2978 2.436 0.225 2.252 1.205-0.1776 0.9113-2.083 1.111-2.2 0.1521 0.0767 1.163 1.86 1.255 2.44 0.2774 0.4384-0.7515-0.262-1.723-0.9254-2.189-0.8653-0.6084-2.212-0.6621-3.171-0.1316-0.7145 0.3975-1.287 1.132-1.365 1.849-0.423 3.837 5.248 5.015 7.841 2.228 0.9496-1.029 1.14-2.605 0.7375-3.845-0.4103-1.278-1.401-2.215-2.739-2.864-1.322-0.6442-2.591-0.8014-3.801-0.6506-3.094 0.3988-5.858 2.816-8.269 4.42-3.87 2.578-8.285 3.23-13.04 3.442 4.721 0.1048 9.208 0.4512 13.54-2.2"/>
   <path d="m251.1 300c1.815 0.5445 0.6288 1.731-0.7784 1.784-1.428 0.0537-2.83 0.0486-4.245 0.2441-0.1368 0.0153-0.2722 0.0358-0.4141 0.0562-1.613 0.271-2.992 0.864-4.361 1.668 1.127-1.185 3.067-2.203 4.629-2.926 1.518-0.6966 3.445-1.357 5.169-0.8269zm-16.9 8.002c-5.997 6.136-13.9 6.375-22.55 5.97 9.371 2.99 19.21 0.639 25.71-5.51 2.264-2.141 4.646-4.669 7.943-5.656 2.281-0.6787 4.932 0.0435 6.525 1.543 1.077 1.016 3.05 3.87 1.458 5.161 2.794-2.26 2.756-6.365 0.1035-8.765 0.1329 0.1176 1.233 0.0818 1.467 0.1099 0.4946 0.0575 0.9867 0.1355 1.458 0.2403 1.006 0.2007 1.976 0.4895 2.919 0.8282 1.746 0.6276 3.746 1.178 4.858 2.579-0.2876-1.88-2.06-3.3-3.671-4.481-1.644-1.207-3.65-2.092-5.783-2.453-3.939-0.6633-7.872 0.2454-11.23 2.026-3.87 2.046-6.36 5.489-9.209 8.407"/>
   <path d="m229.6 308c0.0345 1.673-3.239 2.89-4.646 3.464-1.435 0.5867-3.055 0.7605-4.595 1.022 1.793-0.3131 3.718-0.9126 5.084-1.998 1.099-0.8857 1.086-2.813 2.509-3.379 0.9228-0.3655 1.63 0.046 1.647 0.8908zm1.522-6.741c-0.0614 0.7579-0.331 1.493-0.7272 2.172-0.1291 0.2198-1.624 1.78-1.593 1.839-0.4895-1.161-1.731-2.023-2.995-2.556-1.283-0.5509-2.624-0.965-4.076-0.8921 1.053-0.0562 1.961 1.025 2.426 1.66 0.6723 0.8985 0.9931 1.934 0.7554 3.005-0.6084 2.693-4.574 3.983-7.338 4.5-7.113 1.331-14.4-0.7707-21.51-0.3988-7.696 0.4039-15.51 2.079-22.32 5.179-3.814 1.728-7.326 3.986-10.12 6.792 0.1738-0.2096 0.3412-0.4218 0.5189-0.625 3.802-4.468 9.066-7.95 14.84-10.4 5.785-2.446 12.03-2.887 18.32-3.689 6.897-0.8781 12.07-2.224 15.53-7.495-0.6033 0.9177-1.368 1.633-2.316 2.307-4.126 2.945-9.987 4.029-15.18 4.654-3.181 0.3758-6.374 0.6902-9.507 1.277-2.981 0.556-5.76 1.53-8.459 2.726-5.67 2.508-10.67 6.136-14.36 10.58-4.425 5.302-5.288 10.07-5.074 16.27-0.1508-4.436 6.92-6.909 10.97-7.739 2.868-0.5841 9.742-0.7758 12.62 1.548 0.4524 0.3681 0.8078 0.8039 1.021 1.313 0.0575 0.1138 0.0882 0.1099 0.1457 0.1662-2.147-4.133-8.537-4.627-13.15-3.946-3.928 0.5866-8.634 2.22-10.97 5.192 0.0614-0.6454 0.1534-1.283 0.2876-1.916 1.08-2.635 3.707-4.706 6.19-6.439 2.584-1.803 5.482-3.304 8.542-4.444 4.475-1.676 13.16-2.881 17.65 0.3272-4.349-3.645-11.85-3.168-17.44-1.281-3.286 1.115-6.352 2.707-9.116 4.579-1.742 1.178-3.544 2.546-4.872 4.135 0.6186-1.511 1.457-2.97 2.513-4.344 2.652-3.47 6.527-6.181 10.68-8.26 9.507-4.76 20.9-6.178 31.78-5.612 4.232 0.2198 8.319 1.268 12.55 1.448 4.181 0.1751 8.263-0.6263 11.69-2.678 2.656-1.581 4.591-4.178 4.843-6.944 0.2569-2.754-2.104-5.074-4.96-6.12 1.499 0.7822 2.31 2.67 2.193 4.109"/>
   <path d="m131.6 330.3c-2.017 1.867-3.678 4.418-3.585 7.035 0.1291 3.557 3.623 7.039 8.012 7.068 3.648 0.0243 6.525-1.728 7.228-4.781 0.409-1.774-0.1994-3.93-2.372-4.636-1.617-0.5253-4.1 0.0665-4.619 1.654-0.147 0.4435-0.147 0.9202 0.1035 1.337-0.1112-2.802 5-1.865 4.113 1.148-0.5483 1.86-3.719 2.464-5.505 1.553-2.708-1.389-3.703-4.765-0.8295-6.711 1.002-0.6812 2.195-1.145 3.465-1.342 5.152-0.8039 12.16 0.7681 15.11 4.697 7.79 10.34-10.06 17.2-19.11 19.88-9.424 2.785-19.34 3.691-29.3 3.62-12.45-0.0895-25.39-1.584-35.37-8.439-4.774-3.278-8.825-7.293-11.92-11.8-2.803-4.093-4.648-8.677-8.948-11.9-5.193-3.882-13.84-6.474-19.72-2.094-3.763 2.813-5.702 7.38-5.541 11.59 0.1547 4.055 2.532 8.713 8.016 8.87 5.746 0.161 10.71-5.112 8.503-9.908-1.132-2.459-4.449-3.903-7.463-3.179-1.41 0.4231-2.693 1.219-3.391 2.298-0.7835 1.195-1.362 2.52-0.7835 3.901 0.3067 0.7247 0.8985 1.12 1.771 1.314-0.1189-0.147-0.2122-0.294-0.2901-0.4346-1.908-3.502 5.318-3.767 4.794-0.4307-0.4448 2.813-4.873 3.447-6.697 1.189-2.327-2.874-0.4346-6.181 2.597-8.021 1.387-1.021 3.207-1.608 5.443-1.494 4.401 0.2262 8.501 2.363 10.98 5.429 2.647 3.245 4.312 6.952 7.076 10.14 2.743 3.177 5.8 6.002 9.687 8.18 6.677 3.565 14.77 5.576 22.48 6.748 8.035 1.222 16.26 1.559 24.39 0.9049 13-1.043 27.55-3.01 38.04-10.16 3.028-2.06 5.823-4.861 7.513-7.972-0.51 2.446-1.524 4.742-2.965 6.539-6.876 8.571-19.15 12.41-30.65 14.36-22.82 3.875-54.51 4.605-72.5-10.36 0.7541 0.6301 1.527 1.238 2.316 1.819 14.44 10.76 32.31 12.98 51.88 12 11.33-0.5688 23.29-2.007 33.67-6.13 10.38-4.133 19.72-11.65 20.02-22.01 0.0294-0.9611-0.0205-1.904-0.1483-2.821-0.1355-1.773-0.7413-3.549-1.993-5.263-4.614-6.394-16.97-9.458-23.52-3.39"/>
   <path d="m96.26 332.6c-2.166 1.534-3.241 4.479-2.295 6.715 1.893 4.512 3.441 8.415 8.793 10.55-4.852-1.935-6.573-3.397-8.986-7.432-0.7055-1.18-1.382-2.448-2.393-3.47-0.9279-0.9254-2.316-2.053-3.816-2.059-1.383-0.0102-2.641-0.055-3.956 0.441 1.187-0.4461 2.301-1.173 3.399-1.765 1.31-0.7094 2.504-2.71 1.449-3.925 0.4767 0.5483 0.7541 1.226 1.43 1.627 1.819 1.085 4.817 0.3911 6.375-0.6787zm-8.512-2.731c-0.2339-0.8806-0.5458-1.711-1.476-2.396-1.617-1.189-3.645-1.754-5.254-3.01 0.7605 1.38 0.6352 2.97 0.5253 4.452-0.1048 1.322-0.9484 3.14-0.5087 4.398 0.2569 0.7464 1.264 1.773 2.186 1.824-1.254-0.0665-2.912 1.293-3.675 2.023-1.042 1.01-1.733 2.298-1.733 3.658-0.0051 1.591 0.6915 3.327 1.959 4.505 1.127 1.038 3.631 1.798 5.178 1.053 1.231-0.5815 2.635-2.326 1.143-3.323-1.094-0.7272-2.165-0.2837-2.442 0.7272 0.2454-0.8934 1.494-0.5368 1.759 0.1546 0.3208 0.8372-0.9279 1.484-1.828 1.273-1.719-0.4052-1.331-2.912-0.6045-3.839 0.6659-0.8691 1.711-1.171 2.904-0.9458 1.821 0.3592 2.813 1.493 3.609 2.846 1.29 2.504 2.624 4.679 5.112 6.477 2.206 1.604 4.764 2.831 7.48 3.69 5.989 1.892 12.57 2.445 18.92 1.963 5.597-0.4128 11.26-1.552 16.28-3.75 5.806-2.554 8.648-5.987 11.31-10.98-2.598 4.866-8.193 7.657-14.19 8.675-6.019 1.016-12.31 1.03-18.37 0.2876-5.351-0.6557-11.76-1.87-15.64-5.304-1.163-1.03-2.159-2.232-2.605-3.62-0.6186-1.92-1.111-5.328 0.9573-6.705 1.222-0.818 5.463-1.644 5.615 0.6033 0.0588 0.864-1.581 2.077-2.605 1.584-0.9484-0.4614-0.0729-1.828 0.8691-1.42-0.5815-0.2518-1.139-0.2377-1.593 0.1777-0.7912 0.717-0.3029 1.904 0.6736 2.274 2.862 1.076 4.436-1.695 4.709-3.621 0.1917-1.394-0.3029-2.811-1.302-3.93-1.318-1.493-3.528-2.423-5.75-2.086-1.41 0.216-2.559 0.7311-3.614 1.541-0.294 0.2186-0.5636 0.4806-0.8103 0.7464 0.124-0.9867-0.2607-1.788-0.9318-2.671-1.247-1.65-2.494-4.416-1.986-6.424-0.5215 1.561-1.071 3.041-1.941 4.495-0.8832 1.478-1.939 2.945-2.318 4.592"/>
   <path d="m70.71 340.8c-2.063-4.067-2.95-8.616-5.213-12.58-2.831-4.973-8.591-7.951-14.56-9.565-6.31-1.704-12.82-1.587-18.93 0.74-3.309 1.262-6.585 4.585-7.524 7.657 0.1738-0.5688 0.5406-1.135 0.9317-1.632 0.2173-0.2658 0.4525-0.5228 0.6978-0.7682 1.719-1.709 4.089-3.033 6.539-3.868 0.5892-0.2045 1.192-0.3719 1.812-0.4972 3.174-0.6186 6.569-0.7579 9.646 0.3067 5.755 1.996 9.317 6.55 12.3 10.97 2.966 4.507 5.389 9.38 8.967 13.58 3.055 3.606 7.169 6.419 11.93 8.264 5.479 2.122 11.55 3.364 17.76 4.043 7.973 0.864 16.19 0.7975 23.75 0.4563-6.471 0.2927-13.31-0.7566-19.7-1.639-2.033-0.2825-4.064-0.6173-6.081-1.038-3.101-0.7886-6.074-1.814-9.105-3.684-5.32-3.283-8.983-8.212-10.56-13.6-2.586-8.855-2.371-16.39-13.23-20.32 9.634 3.489 10.24 17.32 13.22 24.17 1.403 3.225 3.7 6.554 6.713 9.095-4.452-2.366-7.308-6.006-9.375-10.09"/>
   <path d="m183 330.3c2.018 1.867 3.677 4.418 3.586 7.035-0.1329 3.557-3.627 7.039-8.019 7.068-3.652 0.0243-6.525-1.728-7.228-4.781-0.4039-1.774 0.202-3.93 2.376-4.636 1.621-0.5253 4.099 0.0665 4.618 1.654 0.1457 0.4435 0.1457 0.9202-0.1061 1.337 0.1138-2.802-5-1.865-4.109 1.148 0.5394 1.86 3.715 2.464 5.502 1.553 2.71-1.389 3.703-4.765 0.8282-6.711-1.001-0.6812-2.191-1.145-3.459-1.342-5.157-0.8039-12.16 0.7681-15.12 4.697-7.788 10.34 10.06 17.2 19.11 19.88 9.425 2.785 19.34 3.691 29.29 3.62 12.45-0.0895 25.39-1.584 35.37-8.439 4.764-3.278 8.825-7.293 11.92-11.8 2.811-4.093 4.648-8.677 8.951-11.9 5.201-3.882 13.84-6.474 19.72-2.094 3.767 2.813 5.704 7.38 5.542 11.59-0.1559 4.055-2.529 8.713-8.018 8.87-5.743 0.161-10.71-5.112-8.498-9.908 1.129-2.459 4.444-3.903 7.45-3.179 1.412 0.4231 2.698 1.219 3.398 2.298 0.7835 1.195 1.366 2.52 0.7835 3.901-0.3055 0.7247-0.8998 1.12-1.77 1.314 0.115-0.147 0.2134-0.294 0.2863-0.4346 1.911-3.502-5.322-3.767-4.788-0.4307 0.4422 2.813 4.872 3.447 6.693 1.189 2.325-2.874 0.441-6.181-2.596-8.021-1.392-1.021-3.207-1.608-5.445-1.494-4.403 0.2262-8.498 2.363-10.99 5.429-2.641 3.245-4.312 6.952-7.072 10.14-2.743 3.177-5.805 6.002-9.687 8.18-6.677 3.565-14.77 5.576-22.48 6.748-8.037 1.222-16.26 1.559-24.39 0.9049-13-1.043-27.55-3.01-38.05-10.16-3.021-2.06-5.821-4.861-7.509-7.972 0.5048 2.446 1.524 4.742 2.969 6.539 6.875 8.571 19.14 12.41 30.65 14.36 22.82 3.875 54.5 4.605 72.5-10.36-0.7579 0.6301-1.53 1.238-2.316 1.819-14.44 10.76-32.32 12.98-51.88 12-11.32-0.5688-23.29-2.007-33.66-6.13-10.39-4.133-19.73-11.65-20.02-22.01-0.0307-0.9611 0.0166-1.904 0.1508-2.821 0.1316-1.773 0.74-3.549 1.987-5.263 4.617-6.394 16.97-9.458 23.53-3.39"/>
   <path d="m224.7 333.3c0.6736-0.4013 0.9522-1.079 1.43-1.627-1.049 1.215 0.1342 3.216 1.451 3.925 1.1 0.5918 2.211 1.319 3.391 1.765-1.311-0.4959-2.566-0.4512-3.952-0.441-1.494 0.006-2.889 1.134-3.815 2.059-1.01 1.022-1.683 2.29-2.39 3.47-2.413 4.035-4.135 5.497-8.985 7.432 5.349-2.132 6.893-6.035 8.791-10.55 0.9445-2.237-0.1304-5.181-2.294-6.715 1.558 1.07 4.55 1.764 6.374 0.6787zm-0.1815-8.002c-0.8678-1.454-1.42-2.935-1.939-4.495 0.51 2.008-0.7426 4.774-1.99 6.424-0.6684 0.8832-1.054 1.685-0.9279 2.671-0.2467-0.2658-0.5266-0.5279-0.8129-0.7464-1.058-0.8103-2.202-1.325-3.612-1.541-2.23-0.3374-4.431 0.593-5.758 2.086-0.9905 1.12-1.489 2.536-1.296 3.93 0.2684 1.926 1.847 4.697 4.706 3.621 0.9765-0.3694 1.466-1.557 0.6748-2.274-0.4537-0.4154-1.014-0.4294-1.59-0.1777 0.9381-0.4077 1.815 0.9586 0.8653 1.42-1.022 0.4934-2.662-0.7196-2.607-1.584 0.1534-2.247 4.399-1.421 5.617-0.6033 2.071 1.377 1.575 4.785 0.9611 6.705-0.4499 1.388-1.449 2.589-2.606 3.62-3.875 3.434-10.29 4.648-15.64 5.304-6.063 0.7426-12.35 0.7285-18.37-0.2876-5.998-1.017-11.59-3.809-14.19-8.675 2.662 4.988 5.502 8.421 11.31 10.98 5.02 2.198 10.68 3.337 16.27 3.75 6.348 0.4818 12.93-0.0716 18.92-1.963 2.72-0.8589 5.277-2.086 7.483-3.69 2.485-1.798 3.82-3.974 5.11-6.477 0.7963-1.354 1.789-2.487 3.611-2.846 1.19-0.225 2.237 0.0767 2.904 0.9458 0.7234 0.9279 1.113 3.434-0.6007 3.839-0.8998 0.2109-2.156-0.4358-1.837-1.273 0.2671-0.6914 1.52-1.048 1.76-0.1546-0.2735-1.011-1.347-1.454-2.44-0.7272-1.494 0.9969-0.0882 2.742 1.141 3.323 1.549 0.7451 4.05-0.0153 5.171-1.053 1.274-1.178 1.976-2.914 1.966-4.505 0-1.36-0.6914-2.648-1.732-3.658-0.763-0.7298-2.416-2.09-3.671-2.023 0.9202-0.0511 1.924-1.077 2.179-1.824 0.4409-1.258-0.4013-3.076-0.5061-4.398-0.1086-1.481-0.2377-3.071 0.5279-4.452-1.609 1.256-3.636 1.821-5.256 3.01-0.933 0.6851-1.242 1.516-1.474 2.396-0.3834-1.647-1.431-3.115-2.322-4.592"/>
   <path d="m243.9 340.8c2.058-4.067 2.947-8.616 5.208-12.58 2.834-4.973 8.593-7.951 14.57-9.565 6.306-1.704 12.82-1.587 18.92 0.74 3.31 1.262 6.586 4.585 7.526 7.657-0.1687-0.5688-0.5406-1.135-0.9394-1.632-0.2083-0.2658-0.4486-0.5228-0.6915-0.7682-1.725-1.709-4.087-3.033-6.535-3.868-0.5867-0.2045-1.195-0.3719-1.814-0.4972-3.176-0.6186-6.577-0.7579-9.648 0.3067-5.753 1.996-9.317 6.55-12.3 10.97-2.973 4.507-5.389 9.38-8.962 13.58-3.065 3.606-7.177 6.419-11.94 8.264-5.477 2.122-11.55 3.364-17.76 4.043-7.973 0.864-16.19 0.7975-23.74 0.4563 6.47 0.2927 13.31-0.7566 19.69-1.639 2.031-0.2825 4.063-0.6173 6.081-1.038 3.099-0.7886 6.068-1.814 9.108-3.684 5.312-3.283 8.979-8.212 10.55-13.6 2.589-8.855 2.376-16.39 13.23-20.32-9.632 3.489-10.24 17.32-13.22 24.17-1.402 3.225-3.696 6.554-6.715 9.095 4.454-2.366 7.306-6.006 9.378-10.09"/>
   <path d="m103.5 628.7c5.096 5.213 16.55 4.839 23.32 2.588-7.174 1.425-18.69 1.913-23.57-3.813-1.462-1.724-2.551-3.888-2.238-6.038 0.3413-2.349 3.103-4.012 5.753-3.999 3.074 0 5.892 2.249 6.401 4.762 0.3924 1.95-0.7502 4.087-3.113 4.613-2.405 0.524-4.732-1.125-5.257-3.05-0.1904-0.6876-0.2173-1.55 0.2186-2.188 1.085-1.575 4.335-0.9624 4.206 0.9624-0.0537 0.7247-0.6723 1.226-1.476 1.276 1.566-0.0383 2.345-1.038 1.664-2.288-0.4397-0.8001-1.153-1.313-2.189-1.412-1.778-0.138-3.096 0.749-3.562 2.163-0.2671 0.8116 0.0524 2.013 0.4537 2.775 1.497 2.837 6.516 4.338 9.039 1.512 1.371-1.549 1.337-3.599 0.533-5.337-1.759-3.825-7.687-6.562-11.76-3.487-3.989 3.013-1.215 8.099 1.581 10.96"/>
   <path d="m70.54 630.7c0 0.0498 0.0064 0.0869 0 0.1368 0.0064-0.0498 0-0.0869 0-0.1368"/>
   <path d="m79.28 630.3c-3.326 2.037-6.723 5.875-11.31 3.949-3.943-1.65-1.797-6.237 2.155-6.224 1.495 0 2.534 1.175 2.269 2.399-0.1636 0.7503-1.028 1.313-1.803 1.563-0.9138 0.3004-2.432-0.225-2.253-1.2 0.1713-0.9126 2.076-1.112 2.201-0.1495-0.08436-1.163-1.863-1.263-2.441-0.2876-0.4422 0.749 0.2556 1.724 0.9228 2.187 0.8678 0.6135 2.211 0.6761 3.17 0.138 0.7145-0.4 1.286-1.138 1.37-1.849 0.4269-3.825-5.257-5.013-7.842-2.225-0.9432 1.025-1.148 2.6-0.74 3.837 0.4064 1.287 1.401 2.225 2.738 2.876 1.319 0.6365 2.591 0.7988 3.809 0.6493 3.089-0.4 5.85-2.825 8.268-4.425 3.869-2.575 8.276-3.225 13.04-3.437-4.723-0.101-9.208-0.4512-13.55 2.2"/>
   <path d="m63.54 644.7c-1.812-0.5496-0.6237-1.738 0.7758-1.788 1.437-0.0614 2.836-0.0498 4.251-0.2492 0.1329-0.0128 0.2722-0.0383 0.4077-0.0498 1.617-0.2761 3-0.8627 4.365-1.663-1.127 1.175-3.065 2.2-4.625 2.913-1.515 0.6991-3.446 1.362-5.174 0.8372zm16.9-8.012c5.994-6.125 13.89-6.375 22.54-5.962-9.367-2.987-19.21-0.6378-25.71 5.512-2.265 2.137-4.648 4.663-7.947 5.649-2.269 0.6761-4.923-0.0371-6.511-1.536-1.085-1.025-3.056-3.875-1.458-5.176-2.794 2.276-2.767 6.375-0.1138 8.776-0.1342-0.1253-1.232-0.0869-1.463-0.1125-0.4921-0.0498-0.9803-0.1368-1.461-0.2377-1.002-0.1994-1.973-0.487-2.919-0.8244-1.748-0.6378-3.742-1.187-4.85-2.588 0.2825 1.888 2.058 3.3 3.668 4.487 1.647 1.213 3.639 2.087 5.777 2.45 3.942 0.6633 7.876-0.2364 11.23-2.025 3.878-2.05 6.362-5.488 9.219-8.413"/>
   <path d="m84.96 636.7c-0.03451-1.662 3.236-2.887 4.645-3.462 1.442-0.5866 3.056-0.763 4.608-1.012-1.797 0.3131-3.726 0.8998-5.088 1.987-1.107 0.887-1.09 2.813-2.513 3.388-0.9202 0.3617-1.632-0.0511-1.651-0.9011zm-1.52 6.751c0.06007-0.763 0.3272-1.501 0.7285-2.175 0.1329-0.2122 1.622-1.775 1.601-1.838 0.4844 1.15 1.718 2.026 2.981 2.55 1.293 0.5509 2.629 0.9624 4.078 0.8883-1.048 0.0613-1.949-1.014-2.422-1.65-0.671-0.8998-0.9982-1.938-0.7579-3.013 0.6122-2.688 4.577-3.975 7.335-4.5 7.119-1.325 14.41 0.7745 21.52 0.4 7.697-0.4 15.51-2.076 22.32-5.175 3.805-1.737 7.321-3.988 10.12-6.788-0.1713 0.2007-0.34 0.4128-0.5164 0.625-3.799 4.463-9.076 7.95-14.85 10.39-5.78 2.45-12.03 2.887-18.32 3.687-6.901 0.887-12.07 2.225-15.53 7.499 0.6033-0.9113 1.369-1.636 2.322-2.311 4.124-2.938 9.978-4.026 15.18-4.651 3.175-0.3745 6.368-0.6876 9.499-1.274 2.981-0.5509 5.763-1.525 8.462-2.725 5.667-2.513 10.66-6.138 14.36-10.58 4.421-5.313 5.285-10.08 5.072-16.28 0.1572 4.438-6.913 6.912-10.97 7.75-2.873 0.5752-9.743 0.7618-12.61-1.563-0.4614-0.3617-0.8129-0.8001-1.033-1.3-0.055-0.1252-0.0895-0.1125-0.1444-0.1751 2.146 4.137 8.539 4.625 13.14 3.951 3.937-0.5879 8.648-2.225 10.97-5.201-0.0575 0.6506-0.1521 1.288-0.2825 1.925-1.085 2.625-3.705 4.701-6.19 6.438-2.593 1.8-5.484 3.3-8.542 4.45-4.47 1.662-13.16 2.874-17.65-0.3374 4.349 3.65 11.86 3.175 17.43 1.287 3.295-1.112 6.36-2.712 9.119-4.576 1.748-1.187 3.545-2.55 4.877-4.149-0.6237 1.512-1.46 2.974-2.517 4.349-2.653 3.475-6.526 6.175-10.68 8.262-9.509 4.764-20.9 6.176-31.78 5.613-4.236-0.225-8.318-1.263-12.55-1.449-4.172-0.1764-8.251 0.625-11.69 2.674-2.657 1.587-4.592 4.188-4.847 6.95-0.2505 2.75 2.115 5.063 4.967 6.112-1.501-0.7745-2.306-2.662-2.193-4.099"/>
   <path d="m211.1 628.7c-5.084 5.213-16.54 4.839-23.32 2.588 7.174 1.425 18.69 1.913 23.57-3.813 1.458-1.724 2.551-3.888 2.237-6.038-0.3425-2.349-3.108-4.012-5.748-3.999-3.076 0-5.897 2.249-6.41 4.762-0.3937 1.95 0.7541 4.087 3.113 4.613 2.407 0.524 4.737-1.125 5.261-3.05 0.1892-0.6876 0.2122-1.55-0.2198-2.188-1.085-1.575-4.34-0.9624-4.204 0.9624 0.0524 0.7247 0.6672 1.226 1.472 1.276-1.567-0.0383-2.348-1.038-1.662-2.288 0.4371-0.8001 1.15-1.313 2.191-1.412 1.773-0.138 3.092 0.749 3.554 2.163 0.2658 0.8116-0.0498 2.013-0.441 2.775-1.504 2.837-6.521 4.338-9.048 1.512-1.377-1.549-1.333-3.599-0.5368-5.337 1.766-3.825 7.698-6.562 11.77-3.487 3.985 3.013 1.208 8.099-1.584 10.96"/>
   <path d="m244.1 630.7c-0.005 0.0498-0.0166 0.0869-0.005 0.1368-0.0115-0.0498 0-0.0869 0.005-0.1368"/>
   <path d="m235.3 630.3c3.331 2.037 6.727 5.875 11.32 3.949 3.94-1.65 1.798-6.237-2.152-6.224-1.499 0-2.54 1.175-2.274 2.399 0.1636 0.7503 1.03 1.313 1.807 1.563 0.9062 0.3004 2.436-0.225 2.252-1.2-0.1776-0.9126-2.083-1.112-2.2-0.1495 0.0767-1.163 1.86-1.263 2.44-0.2876 0.4384 0.749-0.262 1.724-0.9254 2.187-0.8653 0.6135-2.212 0.6761-3.171 0.138-0.7145-0.4-1.287-1.138-1.365-1.849-0.423-3.825 5.248-5.013 7.841-2.225 0.9496 1.025 1.14 2.6 0.7375 3.837-0.4103 1.287-1.401 2.225-2.739 2.876-1.322 0.6365-2.591 0.7988-3.801 0.6493-3.094-0.4-5.858-2.825-8.269-4.425-3.87-2.575-8.285-3.225-13.04-3.437 4.721-0.101 9.208-0.4512 13.54 2.2"/>
   <path d="m245.9 643.9c-1.562-0.7132-3.502-1.738-4.629-2.913 1.369 0.8001 2.748 1.387 4.361 1.663 0.1419 0.0115 0.2774 0.0371 0.4141 0.0498 1.415 0.1994 2.817 0.1879 4.245 0.2492 1.407 0.0498 2.593 1.238 0.7784 1.788-1.724 0.5253-3.65-0.138-5.169-0.8372zm-2.519 1.237c3.361 1.788 7.294 2.688 11.23 2.025 2.133-0.363 4.14-1.237 5.783-2.45 1.61-1.187 3.383-2.6 3.671-4.487-1.112 1.401-3.112 1.95-4.858 2.588-0.9432 0.3374-1.913 0.625-2.919 0.8244-0.4716 0.101-0.9637 0.1879-1.458 0.2377-0.2339 0.0256-1.334-0.0128-1.467 0.1125 2.652-2.4 2.69-6.499-0.1035-8.776 1.591 1.301-0.3809 4.151-1.458 5.176-1.593 1.499-4.243 2.212-6.525 1.536-3.298-0.9867-5.68-3.512-7.943-5.649-6.499-6.15-16.34-8.499-25.71-5.512 8.648-0.4128 16.55-0.1623 22.55 5.962 2.849 2.924 5.339 6.362 9.209 8.413"/>
   <path d="m228 637.6c-1.423-0.5752-1.41-2.501-2.509-3.388-1.366-1.088-3.291-1.674-5.084-1.987 1.54 0.2492 3.16 0.4256 4.595 1.012 1.407 0.5752 4.68 1.801 4.646 3.462-0.0179 0.8499-0.7247 1.263-1.647 0.9011zm0.9765 9.949c2.857-1.049 5.217-3.361 4.96-6.112-0.2518-2.762-2.187-5.363-4.843-6.95-3.43-2.049-7.513-2.85-11.69-2.674-4.232 0.1866-8.319 1.224-12.55 1.449-10.88 0.5624-22.27-0.8499-31.78-5.613-4.155-2.087-8.03-4.787-10.68-8.262-1.056-1.375-1.894-2.837-2.513-4.349 1.328 1.599 3.13 2.961 4.872 4.149 2.763 1.863 5.829 3.464 9.116 4.576 5.585 1.888 13.09 2.363 17.44-1.287-4.489 3.212-13.17 1.999-17.65 0.3374-3.06-1.15-5.957-2.651-8.542-4.45-2.483-1.737-5.11-3.813-6.19-6.438-0.1342-0.6365-0.2262-1.274-0.2876-1.925 2.333 2.975 7.039 4.613 10.97 5.201 4.609 0.6748 11 0.1866 13.15-3.951-0.0575 0.0626-0.0882 0.0498-0.1457 0.1751-0.2134 0.4997-0.5688 0.9381-1.021 1.3-2.878 2.325-9.752 2.138-12.62 1.563-4.049-0.8384-11.12-3.313-10.97-7.75-0.2134 6.2 0.6493 10.96 5.074 16.28 3.692 4.438 8.689 8.062 14.36 10.58 2.698 1.2 5.478 2.174 8.459 2.725 3.133 0.5867 6.325 0.8998 9.507 1.274 5.189 0.625 11.05 1.713 15.18 4.651 0.9484 0.6748 1.713 1.4 2.316 2.311-3.457-5.273-8.629-6.612-15.53-7.499-6.291-0.8001-12.53-1.237-18.32-3.687-5.775-2.439-11.04-5.925-14.84-10.39-0.1777-0.2122-0.3451-0.4243-0.5189-0.625 2.791 2.8 6.304 5.051 10.12 6.788 6.817 3.099 14.63 4.775 22.32 5.175 7.11 0.3745 14.4-1.725 21.51-0.4 2.763 0.5253 6.729 1.812 7.338 4.5 0.2377 1.075-0.0831 2.113-0.7554 3.013-0.4652 0.6365-1.373 1.711-2.426 1.65 1.452 0.0741 2.793-0.3374 4.076-0.8883 1.264-0.524 2.505-1.4 2.995-2.55-0.0319 0.0626 1.463 1.626 1.593 1.838 0.3962 0.6748 0.6659 1.412 0.7272 2.175 0.1163 1.437-0.694 3.324-2.193 4.099"/>
   <path d="m131.6 614.4c-2.017-1.862-3.678-4.412-3.585-7.037 0.1291-3.549 3.623-7.037 8.012-7.062 3.648-0.0256 6.525 1.724 7.228 4.775 0.409 1.787-0.1994 3.937-2.372 4.637-1.617 0.5253-4.1-0.0626-4.619-1.65-0.147-0.4499-0.147-0.9254 0.1035-1.337-0.1112 2.799 5 1.862 4.113-1.15-0.5483-1.863-3.719-2.463-5.505-1.55-2.708 1.388-3.703 4.762-0.8295 6.713 1.002 0.6748 2.195 1.15 3.465 1.337 5.152 0.8001 12.16-0.7618 15.11-4.687 7.79-10.34-10.06-17.2-19.11-19.88-9.424-2.788-19.34-3.696-29.3-3.623-12.45 0.0908-25.39 1.582-35.37 8.441-4.774 3.278-8.825 7.292-11.92 11.8-2.803 4.087-4.648 8.676-8.948 11.89-5.193 3.888-13.84 6.475-19.72 2.087-3.763-2.799-5.702-7.375-5.541-11.57 0.1547-4.063 2.532-8.726 8.016-8.875 5.746-0.1623 10.71 5.112 8.503 9.913-1.132 2.449-4.449 3.9-7.463 3.175-1.41-0.4256-2.693-1.226-3.391-2.301-0.7835-1.2-1.362-2.524-0.7835-3.9 0.3067-0.7247 0.8985-1.113 1.771-1.313-0.1189 0.1495-0.2122 0.2876-0.2901 0.4256-1.908 3.499 5.318 3.774 4.794 0.4371-0.4448-2.813-4.873-3.45-6.697-1.187-2.327 2.874-0.4346 6.175 2.597 8.024 1.387 1.025 3.207 1.6 5.443 1.488 4.401-0.225 8.501-2.362 10.98-5.424 2.647-3.237 4.312-6.95 7.076-10.14 2.743-3.179 5.8-6.003 9.687-8.184 6.677-3.565 14.77-5.576 22.48-6.748 8.035-1.221 16.26-1.561 24.39-0.9075 13 1.046 27.55 3.015 38.04 10.16 3.028 2.063 5.823 4.863 7.513 7.964-0.51-2.437-1.524-4.737-2.965-6.526-6.876-8.576-19.15-12.41-30.65-14.36-22.82-3.879-54.51-4.606-72.5 10.36 0.7541-0.6276 1.527-1.236 2.316-1.815 14.44-10.76 32.31-12.99 51.88-12 11.33 0.5713 23.29 2.008 33.67 6.132 10.38 4.135 19.72 11.65 20.02 22 0.0294 0.9624-0.0205 1.901-0.1483 2.826-0.1355 1.774-0.7413 3.549-1.993 5.262-4.614 6.387-16.97 9.462-23.52 3.387"/>
   <path d="m89.89 611.4c-0.6761 0.4-0.9535 1.076-1.43 1.626 1.054-1.213-0.1393-3.213-1.449-3.925-1.098-0.5879-2.211-1.325-3.399-1.763 1.315 0.487 2.573 0.4499 3.956 0.4371 1.5 0 2.889-1.138 3.816-2.062 1.011-1.014 1.687-2.288 2.393-3.464 2.413-4.036 4.135-5.5 8.986-7.437-5.353 2.126-6.901 6.038-8.793 10.55-0.9458 2.237 0.1291 5.175 2.295 6.713-1.558-1.063-4.556-1.764-6.375-0.6761zm0.1815 8.001c0.8704 1.449 1.42 2.924 1.941 4.499-0.5074-2.012 0.7387-4.787 1.986-6.425 0.671-0.887 1.056-1.687 0.9318-2.674 0.2467 0.262 0.5164 0.524 0.8103 0.7375 1.056 0.8116 2.205 1.337 3.614 1.549 2.223 0.3374 4.433-0.5866 5.75-2.087 0.9995-1.125 1.494-2.537 1.302-3.937-0.2722-1.926-1.847-4.688-4.709-3.613-0.9765 0.363-1.465 1.549-0.6736 2.275 0.4537 0.4128 1.011 0.4243 1.593 0.1751-0.942 0.4116-1.817-0.9509-0.8691-1.425 1.024-0.4882 2.664 0.7247 2.605 1.587-0.1521 2.249-4.393 1.425-5.615 0.5994-2.068-1.375-1.576-4.775-0.9573-6.7 0.4461-1.388 1.442-2.587 2.605-3.612 3.878-3.45 10.29-4.65 15.64-5.313 6.063-0.7375 12.35-0.7247 18.37 0.2876 5.998 1.025 11.59 3.813 14.19 8.676-2.658-4.988-5.5-8.425-11.31-10.97-5.019-2.201-10.68-3.341-16.28-3.753-6.352-0.4831-12.93 0.069-18.92 1.966-2.716 0.8563-5.273 2.085-7.48 3.682-2.488 1.801-3.823 3.975-5.112 6.475-0.7963 1.362-1.788 2.487-3.609 2.85-1.192 0.225-2.238-0.0754-2.904-0.9369-0.726-0.9381-1.115-3.45 0.6045-3.851 0.8998-0.1994 2.149 0.4384 1.828 1.288-0.2646 0.6876-1.513 1.037-1.759 0.138 0.2774 1.012 1.348 1.462 2.442 0.7375 1.493-1.001 0.08819-2.738-1.143-3.326-1.547-0.7502-4.05 0.0128-5.178 1.049-1.268 1.187-1.964 2.913-1.959 4.513 0 1.35 0.6915 2.638 1.733 3.65 0.763 0.7375 2.421 2.087 3.675 2.025-0.9215 0.0498-1.929 1.075-2.186 1.825-0.4397 1.263 0.4039 3.075 0.5087 4.399 0.1099 1.489 0.2352 3.075-0.5253 4.45 1.609-1.25 3.638-1.825 5.254-3.013 0.9305-0.6863 1.242-1.512 1.476-2.388 0.3796 1.637 1.435 3.113 2.318 4.588"/>
   <path d="m70.71 603.9c-2.063 4.062-2.95 8.613-5.213 12.58-2.831 4.974-8.591 7.95-14.56 9.563-6.31 1.713-12.82 1.586-18.93-0.7388-3.309-1.261-6.585-4.587-7.524-7.65 0.1738 0.5624 0.5406 1.125 0.9317 1.626 0.2173 0.2748 0.4525 0.524 0.6978 0.7745 1.719 1.7 4.089 3.025 6.539 3.862 0.5892 0.1994 1.192 0.3758 1.812 0.4997 3.174 0.6122 6.569 0.763 9.646-0.3119 5.755-2 9.317-6.55 12.3-10.98 2.966-4.5 5.389-9.375 8.967-13.59 3.055-3.6 7.169-6.411 11.93-8.257 5.479-2.122 11.55-3.369 17.76-4.044 7.973-0.8653 16.19-0.7975 23.75-0.4576-6.471-0.2901-13.31 0.7554-19.7 1.639-2.033 0.285-4.064 0.6199-6.081 1.037-3.101 0.7924-6.074 1.817-9.105 3.686-5.32 3.285-8.983 8.209-10.56 13.6-2.586 8.862-2.371 16.4-13.23 20.33 9.634-3.488 10.24-17.32 13.22-24.16 1.403-3.225 3.7-6.55 6.713-9.103-4.452 2.364-7.308 6.015-9.375 10.1"/>
   <path d="m183 614.4c2.018-1.862 3.677-4.412 3.586-7.037-0.1329-3.549-3.627-7.037-8.019-7.062-3.652-0.0256-6.525 1.724-7.228 4.775-0.4039 1.787 0.202 3.937 2.376 4.637 1.621 0.5253 4.099-0.0626 4.618-1.65 0.1457-0.4499 0.1457-0.9254-0.1061-1.337 0.1138 2.799-5 1.862-4.109-1.15 0.5394-1.863 3.715-2.463 5.502-1.55 2.71 1.388 3.703 4.762 0.8282 6.713-1.001 0.6748-2.191 1.15-3.459 1.337-5.157 0.8001-12.16-0.7618-15.12-4.687-7.788-10.34 10.06-17.2 19.11-19.88 9.425-2.788 19.34-3.696 29.29-3.623 12.45 0.0908 25.39 1.582 35.37 8.441 4.764 3.278 8.825 7.292 11.92 11.8 2.811 4.087 4.648 8.676 8.951 11.89 5.201 3.888 13.84 6.475 19.72 2.087 3.767-2.799 5.704-7.375 5.542-11.57-0.1559-4.063-2.529-8.726-8.018-8.875-5.743-0.1623-10.71 5.112-8.498 9.913 1.129 2.449 4.444 3.9 7.45 3.175 1.412-0.4256 2.698-1.226 3.398-2.301 0.7835-1.2 1.366-2.524 0.7835-3.9-0.3055-0.7247-0.8998-1.113-1.77-1.313 0.115 0.1495 0.2134 0.2876 0.2863 0.4256 1.911 3.499-5.322 3.774-4.788 0.4371 0.4422-2.813 4.872-3.45 6.693-1.187 2.325 2.874 0.441 6.175-2.596 8.024-1.392 1.025-3.207 1.6-5.445 1.488-4.403-0.225-8.498-2.362-10.99-5.424-2.641-3.237-4.312-6.95-7.072-10.14-2.743-3.179-5.805-6.003-9.687-8.184-6.677-3.565-14.77-5.576-22.48-6.748-8.037-1.221-16.26-1.561-24.39-0.9075-13 1.046-27.55 3.015-38.05 10.16-3.021 2.063-5.821 4.863-7.509 7.964 0.5048-2.437 1.524-4.737 2.969-6.526 6.875-8.576 19.14-12.41 30.65-14.36 22.82-3.879 54.5-4.606 72.5 10.36-0.7579-0.6276-1.53-1.236-2.316-1.815-14.44-10.76-32.32-12.99-51.88-12-11.32 0.5713-23.29 2.008-33.66 6.132-10.39 4.135-19.73 11.65-20.02 22-0.0307 0.9624 0.0166 1.901 0.1508 2.826 0.1316 1.774 0.74 3.549 1.987 5.262 4.617 6.387 16.97 9.462 23.53 3.387"/>
   <path d="m218.3 612.1c2.164-1.538 3.239-4.476 2.294-6.713-1.898-4.513-3.442-8.425-8.791-10.55 4.85 1.938 6.572 3.401 8.985 7.437 0.7068 1.176 1.38 2.45 2.39 3.464 0.9266 0.9241 2.321 2.062 3.815 2.062 1.385 0.0128 2.641 0.0498 3.952-0.4371-1.18 0.4371-2.29 1.175-3.391 1.763-1.316 0.7119-2.5 2.712-1.451 3.925-0.478-0.5496-0.7566-1.226-1.43-1.626-1.824-1.088-4.816-0.3873-6.374 0.6761zm8.515 2.736c0.2313 0.8755 0.5406 1.701 1.474 2.388 1.619 1.187 3.646 1.763 5.256 3.013-0.7656-1.375-0.6365-2.961-0.5279-4.45 0.1048-1.324 0.9471-3.136 0.5061-4.399-0.2556-0.7502-1.259-1.775-2.179-1.825 1.255 0.0626 2.908-1.287 3.671-2.025 1.04-1.012 1.732-2.301 1.732-3.65 0.0102-1.6-0.6914-3.326-1.966-4.513-1.121-1.037-3.622-1.8-5.171-1.049-1.23 0.5879-2.635 2.325-1.141 3.326 1.093 0.7247 2.166 0.2748 2.44-0.7375-0.2403 0.8985-1.493 0.5496-1.76-0.138-0.3195-0.85 0.9368-1.488 1.837-1.288 1.714 0.4013 1.324 2.913 0.6007 3.851-0.6672 0.8614-1.714 1.162-2.904 0.9369-1.821-0.363-2.814-1.488-3.611-2.85-1.29-2.5-2.625-4.674-5.11-6.475-2.206-1.598-4.764-2.826-7.483-3.682-5.991-1.897-12.57-2.449-18.92-1.966-5.593 0.4116-11.25 1.552-16.27 3.753-5.804 2.546-8.644 5.983-11.31 10.97 2.598-4.863 8.194-7.651 14.19-8.676 6.019-1.012 12.31-1.025 18.37-0.2876 5.343 0.6633 11.76 1.863 15.64 5.313 1.157 1.025 2.156 2.224 2.606 3.612 0.6135 1.925 1.109 5.325-0.9611 6.7-1.218 0.8257-5.464 1.65-5.617-0.5994-0.055-0.8627 1.585-2.076 2.607-1.587 0.9496 0.4742 0.0728 1.837-0.8653 1.425 0.5764 0.2492 1.136 0.2377 1.59-0.1751 0.7912-0.726 0.3016-1.912-0.6748-2.275-2.859-1.075-4.438 1.687-4.706 3.613-0.193 1.4 0.3055 2.812 1.296 3.937 1.327 1.501 3.528 2.425 5.758 2.087 1.41-0.2122 2.554-0.7375 3.612-1.549 0.2863-0.2134 0.5662-0.4755 0.8129-0.7375-0.1265 0.9867 0.2595 1.787 0.9279 2.674 1.247 1.639 2.5 4.413 1.99 6.425 0.5189-1.575 1.071-3.05 1.939-4.499 0.8908-1.475 1.939-2.951 2.322-4.588"/>
   <path d="m243.9 603.9c2.058 4.062 2.947 8.613 5.208 12.58 2.834 4.974 8.593 7.95 14.57 9.563 6.306 1.713 12.82 1.586 18.92-0.7388 3.31-1.261 6.586-4.587 7.526-7.65-0.1687 0.5624-0.5406 1.125-0.9394 1.626-0.2083 0.2748-0.4486 0.524-0.6915 0.7745-1.725 1.7-4.087 3.025-6.535 3.862-0.5867 0.1994-1.195 0.3758-1.814 0.4997-3.176 0.6122-6.577 0.763-9.648-0.3119-5.753-2-9.317-6.55-12.3-10.98-2.973-4.5-5.389-9.375-8.962-13.59-3.065-3.6-7.177-6.411-11.94-8.257-5.477-2.122-11.55-3.369-17.76-4.044-7.973-0.8653-16.19-0.7975-23.74-0.4576 6.47-0.2901 13.31 0.7554 19.69 1.639 2.031 0.285 4.063 0.6199 6.081 1.037 3.099 0.7924 6.068 1.817 9.108 3.686 5.312 3.285 8.979 8.209 10.55 13.6 2.589 8.862 2.376 16.4 13.23 20.33-9.632-3.488-10.24-17.32-13.22-24.16-1.402-3.225-3.696-6.55-6.715-9.103 4.454 2.364 7.306 6.015 9.378 10.1"/>
   <path d="m-10.01 476.3c-0.547 0.9266-0.7809 1.985-0.8333 3.071-0.01023 0.0703-0.03195 0.1457-0.0409 0.2198-0.5279 3.459 1.148 6.773 3.327 9.595 1.253 1.621 2.648 3.139 4.059 4.647 4.48 5.304 9.697 11.39 8.958 18.08-0.4346 3.924-4.397 7.735-9.09 5.456-3.203-1.553-3.901-5.984-0.1777-7.363 1.789-0.657 3.35 0.4371 4.07 1.704 1.635 2.747-3.634 3.747-3.548 1.499 0.0409-1.12 1.417-1.696 2.357-0.7835-1.623-2.244-4.407 0.9138-1.849 2.577 2.517 1.64 4.425-1.12 3.857-3.113-0.671-2.368-3.227-3.591-5.879-2.612-3.087 1.14-2.592 4.742-1.378 6.768 1.281 2.147 4.071 3.35 6.828 2.984 3.773-0.5061 5.323-4.683 5.624-7.413 0.2301-2.072-0.1534-4.128-0.9279-6.135 2.173 3.976 3.738 8.211 4.407 12.54 0.74 4.797 0.4192 11.14-4.496 14.32-2.359 1.526-4.361 2.371-7.413 2.551-1.308 0.0767-2.503-0.1291-3.691-0.5905-1.178-0.4614-4.462-1.677-4.004 0.7502 0.1521 0.7912 1.285 1.383 2.018 1.745 7.007 3.452 14.99-2.892 17.15-8.303 2.857-7.169 0.2007-15.4-3.102-22.1-1.75-3.558-3.998-7.008-6.622-10.15-0.4499-0.533-0.9228-1.061-1.408-1.582 9.902 8.731 19.09 21.16 18.49 33.65-0.2837 5.8-3.807 12.36-10.46 14.55-2.857 0.9407-6.567 0.9675-9.473 0.2761-1.8-0.4269-3.253-1.135-4.862-1.881-2.822-1.322-2.992 1.411-1.093 2.635 1.784 1.158 4.145 1.821 6.347 2.049 3.868 0.3949 9.652-0.6046 12.34-3.266-2.06 2.036-4.456 3.813-7.039 5.519-3.74 2.468-7.624 4.476-9.04 8.522-1.924 5.492 3.443 12.58 10.56 9.536 5.36-2.287 3.873-9.462-1.517-10.87-2.465-0.6454-4.793 1.824-4.333 3.764 0.648 2.725 4.209 3.313 5.169 0.579-1.111 2.758-6.186-0.1342-3.446-2.637 1.04-0.9522 2.491-0.8896 3.755-0.3694 3.436 1.425 3.799 5.46 1.43 7.665-1.347 1.255-3.459 1.711-5.382 1.626-3.68-0.1662-5.506-3.438-5.835-6.168-0.6787-5.666 6.199-8.761 10.62-11.74 4.049-2.72 7.414-5.842 9.686-9.815 0.01917-0.0345 0.02812-0.0818 0.03068-0.1278 4.843-6.76 3.56-15.6 0.5598-22.75-3.956-9.403-11.62-17.1-19.43-24.31-3.837-3.538-6.949-8.946-4.843-13.82 1.001-2.31 3.889-2.894 6.405-2.239 2.735 0.7132 4.002 3.422 3.648 5.654-0.1738 1.089-0.7745 1.985-2.119 2.237-0.8257 0.1534-2.724-0.1329-2.923-1.067 0.4179 1.95 3.478 2.218 4.797 0.8448 4.243-4.401-2.808-11.81-8.384-8.289-0.03451 0.0205-0.05879 0.0435-0.09458 0.0652 1.371-1.874 3.281-3.373 5.589-4.032 2.258-0.6442 4.602-0.1444 6.577 0.9202 2.505 1.354 4.112 3.93 4.426 6.4 0.2722 2.143-1.134 5.661-3.88 6.324 2.67-0.648 4.485-2.343 4.914-4.725 1.123-6.209-5.04-11.41-12.35-9.905-3.653 0.7502-5.872 3.763-7.033 6.829"/>
   <path d="m3.272 559.7c0.04729-0.1112 0.08308-0.2211 0.1099-0.3425-0.02684 0.1214-0.06774 0.2288-0.1099 0.3425"/>
   <path d="m-6.607 381.5c1.416 4.052 5.3 6.056 9.04 8.525 2.583 1.705 4.978 3.483 7.039 5.521-2.689-2.669-8.474-3.667-12.34-3.267-2.202 0.2275-4.563 0.8908-6.347 2.049-1.899 1.223-1.729 3.954 1.093 2.638 1.609-0.749 3.062-1.457 4.862-1.884 2.906-0.6966 6.617-0.6672 9.473 0.2761 6.651 2.195 10.18 8.753 10.46 14.55 0.6033 12.48-8.588 24.91-18.49 33.64 0.4857-0.5215 0.9586-1.044 1.408-1.582 2.624-3.142 4.872-6.591 6.622-10.15 3.303-6.704 5.959-14.93 3.102-22.1-2.156-5.412-10.14-11.76-17.15-8.304-0.7336 0.3604-1.866 0.9548-2.018 1.746-0.4576 2.431 2.826 1.21 4.004 0.7515 1.189-0.464 2.384-0.6685 3.691-0.5943 3.052 0.1815 5.054 1.029 7.413 2.555 4.916 3.184 5.236 9.527 4.496 14.32-0.6685 4.328-2.234 8.565-4.407 12.54 0.7745-2.008 1.158-4.061 0.9279-6.137-0.3004-2.727-1.851-6.903-5.624-7.408-2.757-0.3707-5.547 0.8346-6.828 2.979-1.214 2.033-1.709 5.629 1.378 6.77 2.652 0.9778 5.208-0.2454 5.879-2.614 0.5675-1.993-1.341-4.756-3.857-3.112-2.558 1.665 0.2262 4.82 1.849 2.573-0.9394 0.9164-2.316 0.3374-2.357-0.7784-0.08563-2.247 5.183-1.25 3.548 1.494-0.7196 1.269-2.28 2.361-4.07 1.704-3.723-1.38-3.025-5.805 0.1777-7.363 4.693-2.275 8.655 1.536 9.09 5.461 0.7387 6.697-4.479 12.78-8.958 18.08-1.411 1.511-2.807 3.03-4.059 4.648-2.179 2.822-3.855 6.137-3.327 9.601 0.0089 0.0665 0.03068 0.1419 0.0409 0.2147 0.0524 1.085 0.2863 2.143 0.8333 3.076 1.162 3.06 3.381 6.075 7.033 6.824 7.306 1.503 13.47-3.701 12.35-9.905-0.4294-2.385-2.244-4.076-4.914-4.729 2.747 0.6697 4.153 4.183 3.88 6.327-0.3144 2.471-1.921 5.046-4.426 6.401-1.975 1.067-4.319 1.566-6.577 0.9202-2.308-0.6608-4.218-2.16-5.589-4.03 0.03579 0.0192 0.06007 0.046 0.09458 0.0626 5.576 3.521 12.63-3.889 8.384-8.29-1.319-1.368-4.379-1.107-4.797 0.8436 0.1994-0.933 2.097-1.215 2.923-1.063 1.345 0.2492 1.945 1.148 2.119 2.233 0.354 2.237-0.9126 4.946-3.648 5.659-2.515 0.6544-5.404 0.0665-6.405-2.244-2.106-4.872 1.006-10.28 4.843-13.81 7.818-7.219 15.48-14.91 19.43-24.31 3-7.147 4.283-15.99-0.5598-22.75-0.0026-0.046-0.0115-0.0933-0.03068-0.1291-2.271-3.97-5.636-7.09-9.686-9.815-4.425-2.972-11.3-6.071-10.62-11.74 0.3285-2.734 2.155-6.002 5.835-6.171 1.924-0.0831 4.035 0.3706 5.382 1.63 2.368 2.205 2.005 6.241-1.43 7.661-1.264 0.5253-2.715 0.5815-3.755-0.3681-2.74-2.501 2.335-5.395 3.446-2.637-0.9599-2.733-4.521-2.146-5.169 0.5841-0.4601 1.936 1.867 4.404 4.333 3.758 5.39-1.408 6.878-8.581 1.517-10.87-7.117-3.037-12.48 4.045-10.56 9.537"/>
   <path d="m3.272 378.5c0.04218 0.1125 0.08308 0.2198 0.1099 0.3438-0.027-0.1-0.063-0.2-0.11-0.3"/>
   <path d="m324.3 475.1c0.547 0.919 0.7835 1.967 0.8346 3.039 0.0128 0.0703 0.0281 0.1495 0.0396 0.2198 0.5266 3.422-1.146 6.7-3.324 9.49-1.254 1.603-2.65 3.103-4.063 4.596-4.481 5.247-9.694 11.26-8.954 17.89 0.4346 3.883 4.392 7.653 9.087 5.403 3.206-1.539 3.905-5.92 0.1777-7.285-1.787-0.6531-3.347 0.4307-4.071 1.683-1.631 2.715 3.636 3.704 3.549 1.483-0.0422-1.108-1.416-1.679-2.358-0.7758 1.627-2.215 4.411 0.9024 1.853 2.554-2.517 1.618-4.426-1.112-3.86-3.084 0.6697-2.342 3.23-3.552 5.881-2.582 3.089 1.127 2.592 4.684 1.38 6.696-1.284 2.119-4.077 3.31-6.829 2.946-3.777-0.4997-5.325-4.632-5.622-7.329-0.2326-2.05 0.1521-4.084 0.9241-6.071-2.169 3.937-3.74 8.125-4.406 12.41-0.7375 4.741-0.4167 11.01 4.496 14.16 2.359 1.509 4.357 2.349 7.413 2.527 1.309 0.078 2.504-0.1291 3.687-0.5867 1.185-0.4537 4.463-1.66 4.008 0.7451-0.1521 0.7784-1.286 1.365-2.017 1.72-7.007 3.422-14.99-2.858-17.15-8.209-2.857-7.09-0.2007-15.24 3.102-21.87 1.75-3.512 3.995-6.926 6.619-10.03 0.4499-0.5291 0.9202-1.049 1.408-1.567-9.9 8.635-19.09 20.93-18.49 33.28 0.2812 5.737 3.807 12.23 10.46 14.4 2.855 0.9317 6.564 0.956 9.471 0.2735 1.794-0.4192 3.254-1.121 4.863-1.861 2.817-1.306 2.993 1.394 1.093 2.61-1.783 1.143-4.145 1.8-6.346 2.021-3.869 0.3949-9.654-0.5969-12.34-3.23 2.055 2.016 4.456 3.77 7.039 5.463 3.737 2.444 7.621 4.429 9.038 8.428 1.926 5.436-3.443 12.44-10.56 9.436-5.36-2.264-3.874-9.363 1.515-10.76 2.468-0.6378 4.794 1.803 4.333 3.721-0.6493 2.701-4.21 3.282-5.169 0.5803 1.115 2.722 6.186-0.138 3.446-2.611-1.04-0.9445-2.496-0.8806-3.753-0.3681-3.438 1.411-3.799 5.397-1.43 7.582 1.346 1.242 3.459 1.696 5.377 1.609 3.682-0.1662 5.511-3.4 5.84-6.098 0.6748-5.608-6.203-8.669-10.62-11.61-4.052-2.693-7.416-5.78-9.684-9.703-0.0204-0.0383-0.032-0.0818-0.032-0.1304-4.841-6.685-3.562-15.43-0.5598-22.5 3.956-9.302 11.62-16.91 19.44-24.04 3.837-3.498 6.949-8.85 4.841-13.67-0.9995-2.293-3.887-2.869-6.403-2.221-2.738 0.7042-4.002 3.388-3.648 5.594 0.1713 1.075 0.7733 1.967 2.113 2.21 0.832 0.1546 2.726-0.1291 2.928-1.052-0.4231 1.929-3.479 2.191-4.798 0.832-4.241-4.347 2.807-11.68 8.383-8.2 0.0358 0.0217 0.0626 0.0473 0.0971 0.0677-1.371-1.852-3.283-3.34-5.588-3.986-2.261-0.6391-4.602-0.1457-6.58 0.91-2.503 1.337-4.112 3.888-4.427 6.327-0.271 2.122 1.139 5.601 3.884 6.263-2.673-0.6454-4.486-2.322-4.918-4.678-1.121-6.139 5.041-11.28 12.35-9.797 3.654 0.7388 5.87 3.719 7.032 6.75"/>
   <path d="m311 557.7c-0.0422-0.1112-0.0818-0.2237-0.115-0.3425 0.0332 0.1189 0.0754 0.2262 0.115 0.3425"/>
   <path d="m320.9 381.4c-1.416 4.004-5.3 5.984-9.038 8.428-2.583 1.688-4.983 3.447-7.039 5.459 2.688-2.633 8.473-3.621 12.34-3.227 2.201 0.225 4.563 0.8832 6.346 2.026 1.901 1.212 1.724 3.914-1.093 2.612-1.609-0.7451-3.069-1.443-4.863-1.865-2.906-0.6889-6.616-0.657-9.471 0.2697-6.651 2.174-10.18 8.66-10.46 14.4-0.6046 12.35 8.586 24.64 18.49 33.28-0.4882-0.5125-0.9586-1.038-1.408-1.564-2.624-3.111-4.87-6.522-6.619-10.04-3.303-6.631-5.959-14.77-3.102-21.86 2.154-5.355 10.14-11.63 17.15-8.213 0.7311 0.3553 1.865 0.9445 2.017 1.725 0.455 2.405-2.823 1.199-4.008 0.7451-1.184-0.4614-2.379-0.6608-3.687-0.5866-3.056 0.1764-5.054 1.017-7.413 2.526-4.913 3.148-5.234 9.424-4.496 14.17 0.6659 4.28 2.237 8.469 4.406 12.4-0.772-1.987-1.157-4.016-0.9241-6.075 0.2978-2.692 1.846-6.829 5.622-7.326 2.752-0.363 5.544 0.8295 6.829 2.946 1.212 2.013 1.709 5.571-1.38 6.701-2.651 0.965-5.211-0.2454-5.881-2.587-0.5662-1.97 1.343-4.701 3.86-3.079 2.558 1.649-0.2262 4.769-1.853 2.549 0.942 0.9011 2.316 0.3323 2.358-0.7733 0.0869-2.224-5.18-1.235-3.549 1.483 0.7234 1.253 2.284 2.331 4.071 1.682 3.727-1.362 3.028-5.745-0.1777-7.283-4.696-2.253-8.653 1.516-9.087 5.4-0.74 6.626 4.473 12.64 8.954 17.89 1.414 1.492 2.809 2.993 4.063 4.597 2.178 2.793 3.851 6.071 3.324 9.494-0.0115 0.069-0.0268 0.1419-0.0396 0.2134-0.0511 1.076-0.2876 2.124-0.8346 3.041-1.162 3.03-3.378 6.012-7.032 6.752-7.307 1.49-13.47-3.658-12.35-9.795 0.432-2.361 2.246-4.036 4.918-4.68-2.745 0.6646-4.155 4.14-3.884 6.264 0.3157 2.441 1.925 4.987 4.427 6.329 1.977 1.054 4.319 1.547 6.58 0.9049 2.304-0.6493 4.216-2.134 5.588-3.986-0.0345 0.0204-0.0614 0.046-0.0971 0.0677-5.576 3.482-12.62-3.852-8.383-8.2 1.319-1.355 4.375-1.097 4.798 0.832-0.202-0.9215-2.096-1.201-2.928-1.054-1.339 0.248-1.941 1.136-2.113 2.212-0.354 2.211 0.91 4.89 3.648 5.594 2.517 0.6506 5.404 0.069 6.403-2.218 2.108-4.82-1.005-10.17-4.841-13.67-7.82-7.133-15.48-14.74-19.44-24.04-3.002-7.069-4.282-15.82 0.5598-22.5 0-0.046 0.0115-0.0895 0.032-0.1278 2.269-3.926 5.633-7.013 9.684-9.706 4.422-2.942 11.3-6.008 10.62-11.61-0.3285-2.706-2.157-5.938-5.84-6.104-1.918-0.0844-4.031 0.3694-5.377 1.609-2.368 2.182-2.008 6.169 1.43 7.58 1.256 0.5151 2.712 0.5752 3.753-0.3655 2.74-2.474-2.331-5.335-3.446-2.605 0.9586-2.708 4.519-2.131 5.169 0.57 0.4614 1.92-1.865 4.361-4.333 3.721-5.389-1.393-6.875-8.488-1.515-10.76 7.114-3.004 12.48 4.004 10.56 9.439"/>
   <path d="m311 378.4c-0.0396 0.1086-0.0818 0.2134-0.115 0.3362 0.0332-0.1227 0.0729-0.2339 0.115-0.3362"/>
  </g>
 </g>
 <path d="m306.5 182.6v38.76c-6.655 0.7017-27.73 4.99-28.83 31.09l-19 0.005-0.5023 1.357c-0.3004 0.8103-7.577 19.83-29.08 19.83h-121.6c-21.51 0-28.78-19.02-29.08-19.83l-0.5023-1.357-19-0.005c-1.1-26.2-22.17-30.5-28.83-31.2v-94.74c6.655-0.6978 27.72-4.986 28.82-31.09h19l0.5023-1.36c0.2991-0.8103 7.574-19.83 29.08-19.83h121.6c21.5 0 28.78 19.02 29.08 19.83l0.5023 1.36h19c1.098 26.11 22.17 30.39 28.83 31.09v55.98zm1.998-60.16c-1.097-0.003-26.87-0.4141-26.87-29.07v-2.159h-20.32c-2.283-4.885-11.46-21.19-32.2-21.19h-121.6c-20.75 0-29.93 16.31-32.2 21.19h-20.33v2.159c0 28.66-25.78 29.07-26.88 29.07h-1.998v103.1h1.998c1.1 0 26.88 0.409 26.88 29.07v2.163h20.33c2.276 4.888 11.46 21.19 32.2 21.19h121.6c20.74 0 29.92-16.3 32.2-21.19h20.32v-2.163c0-28.66 25.78-29.07 26.87-29.07h2.002v-103.1h-2.002" fill="#fff"/>
 <path d="m101.6 273.7c-9.468-1.606-17.64-7.794-22.42-16.98l-2.152-4.137h-18.99v-2.031c0-3.138-1.904-9.851-3.822-13.47-3.765-7.113-11.88-12.95-20.75-14.92l-3.987-0.8869v-94.84l4.023-0.9142c12.19-2.771 20.51-10.72 23.52-22.5 0.562-2.197 1.022-4.909 1.022-6.026v-2.031l9.653-0.02976 9.653-0.02976 1.7-3.541c3.968-8.265 11.85-14.75 20.37-16.76 5.059-1.193 133-1.185 137.7 0.0078 8.447 2.156 16 8.263 20.09 16.25l2.101 4.097 9.327 0.0023c9.224 0.0022 9.33 0.01536 9.646 1.192 0.1754 0.6546 0.3222 1.795 0.3262 2.534 0.0129 2.402 1.569 7.564 3.428 11.37 2.529 5.181 7.177 9.734 12.7 12.44 3.996 1.955 9.377 3.675 11.5 3.675 0.9027 0 0.9467 2.215 0.9467 47.59v47.59l-1.455 0.3298c-9.343 2.118-13.74 4.292-18.65 9.213-4.994 5.012-7.156 9.896-8.723 19.7l-0.3169 1.984h-18.8l-1.158 2.777c-3.275 7.852-10.91 14.71-19.66 17.66-2.765 0.9312-6.17 0.984-68.5 1.061-36.07 0.0448-66.81-0.1266-68.31-0.3809z"/>
 <path d="m301.7 183.1v33.55c-3.841 1.177-28.28 9.466-28.86 29.38h-17.34l-0.1534 0.4793c-0.078 0.2147-7.306 21.27-26.19 21.27h-121.6c-18.89 0-26.12-21.06-26.18-21.27l-0.161-0.4793h-17.34c-0.59-20-25.03-28.3-28.87-29.4v-85.41c3.843-1.181 28.28-9.467 28.86-29.39h17.34l0.161-0.4767c0.06902-0.2122 7.299-21.27 26.18-21.27h121.6c18.88 0 26.11 21.06 26.19 21.27l0.1534 0.4767h17.34c0.5803 19.92 25.02 28.21 28.86 29.39v51.87zm-27.54-81.98v-0.7183h-17.74c-1.233-3.235-9.071-21.75-27.26-21.75h-121.6c-18.2 0-26.04 18.51-27.26 21.75h-17.74v0.7183c0 20.93-28.09 28.78-28.38 28.86l-0.4985 0.138v87.64l0.4985 0.1368c0.2876 0.078 28.38 7.923 28.38 28.86v0.7183h17.74c1.227 3.232 9.068 21.75 27.26 21.75h121.6c18.19 0 26.03-18.52 27.26-21.75h17.74v-0.7183c0-20.94 28.09-28.78 28.37-28.86l0.5048-0.1368v-87.64l-0.5048-0.138c-0.2799-0.0767-28.37-7.926-28.37-28.86" fill="#fff"/>
 <path d="m101 267c-7.398-1.988-15.18-9.523-18.97-18.36l-1.03-2.403h-17.43v-1.485c0-2.309-1.515-6.921-3.315-10.09-3.565-6.279-12.32-13.04-21.33-16.46l-4.351-1.656 0.1348-42.63 0.1348-42.63 4.822-1.989c12.9-5.32 21.65-14.32 23.52-24.21l0.6171-3.247h17.03l1.827-3.821c4.839-10.12 12.49-16.5 21.31-17.77 4.914-0.7105 123.6-0.7004 128.5 0.01091 5.72 0.8233 9.793 3.014 14.51 7.806 3.21 3.258 4.526 5.101 6.361 8.909l2.313 4.801 8.554 0.0335 8.554 0.0335 0.304 1.449c1.037 4.943 1.548 6.513 3.025 9.285 1.976 3.709 6.408 8.336 10.92 11.4 3.422 2.324 10.78 5.976 13.31 6.604l1.449 0.3606v85.58l-4.084 1.674c-6.65 2.725-12.13 6.249-16.48 10.6-5.066 5.069-6.637 8.146-8.164 16l-0.2819 1.449h-17.27l-0.5969 1.713c-2.057 5.902-8.93 14.1-14.19 16.93-5.738 3.082-2.67 2.959-72.54 2.928-54.87-0.0242-64.72-0.142-67.18-0.8039z" fill="url(#a)"/>
 <g fill="#fff">
  <path d="m280.1 210-105.8-0.703c-7.083-2.998-13.7 0.0217-13.7 0.0217l-104.1 0.8v0.602l104.1 0.6684c7.023 3.305 13.7-0.0204 13.7-0.0204l105.8-0.6608v-0.7106"/>
  <path d="m258.9 112-84.61-0.5496c-7.083-2.997-13.7 0.0192-13.7 0.0192l-82.84 0.6v0.873l82.83 0.5483c7.023 3.305 13.7-0.023 13.7-0.023l84.6-0.5176v-1.005"/>
 </g>
 <g transform="translate(.2876)">
  <g fill="#fff">
   <path d="m110.8 235.1h-0.3252v-8.568h2.016q0.878 0 2.317-0.0975-0.008 0.2114-0.008 0.5528 0 0.1951 0.0244 0.7316 0.0244 0.5934 0.0244 0.6178v0.2114h-0.1707q-0.2276-1.463-1.382-1.463h-1.577q-0.2683 0-0.4796 0.0732-0.1057 0.6422-0.1057 1.715v1.683h1.423q0.9186 0 1.341-0.2276 0.4146-0.2195 0.5366-0.7886h0.1788q-0.0569 0.878-0.0569 1.211 0 0.2032 0.0244 0.691 0.0325 0.4634 0.0325 0.6666v0.2683h-0.1788q-0.0406-1.284-1.374-1.284h-1.927v1.886q0 1.837 1.122 2.073v0.1463q-1.154-0.0976-1.455-0.0976zm-0.9511-8.568v8.568q-0.7154 0-1.707 0.0976v-0.1463q0.5609-0.1707 0.8048-0.691 0.2439-0.5122 0.2439-1.675v-4.016q0-1.106-0.2927-1.545-0.3008-0.4309-0.756-0.5365v-0.1545q0.8698 0.0732 1.707 0.0975z"/>
   <path d="m126.5 230.5q0.5284-0.8373 0.5284-1.845 0-0.9186-0.6097-1.845 1.398 0.5934 1.398 1.87 0 1.293-1.317 1.821zm-4.951-3.992v8.568h-0.3496q-0.2032 0-0.6422 0.0488-0.374 0.0488-0.878 0.0488v-0.1463q0.5203-0.0569 0.8617-0.5122 0.3414-0.4552 0.3414-1.756v-4.179q0-1.772-1.203-2.024v-0.1463q0.5203 0.0569 1.87 0.0975zm1.268 2.236v1.764q0.4796 0.1219 1.041 0.1219 1.829 0 1.829-1.902 0-1.78-1.813-1.78-0.5853 0-0.9105 0.2358-0.1463 0.3252-0.1463 1.561zm-0.439 6.333h-0.2358v-8.568q0.4878 0 1.041-0.0406 0.6341-0.0569 1.032-0.0569 1.114 0 1.658 0.6829 0.5447 0.6748 0.5447 1.667 0 1.683-1.423 2.154 0.7073 0.0976 1.187 0.4227 0.5122 0.3496 1.553 1.398 1.585 1.61 2.585 1.61 0.2032 0 0.4146-0.1382l0.0325 0.1463q-0.3252 0.4227-0.9024 0.4227-0.6178 0-1.293-0.4634-0.6341-0.439-1.894-1.723-1.512-1.561-2.943-1.561 0.8861 0.2764 2.398 1.862 1.065 1.106 1.707 1.61 0.6504 0.504 1.244 0.504v0.0732q-0.2764 0.0976-0.5447 0.0976-0.7886 0-1.366-0.3984-0.3089-0.2195-0.7886-0.6666-0.4715-0.4552-1.138-1.171-0.9755-1.041-1.447-1.415-0.504-0.3821-0.9837-0.5365v1.927q0 1.943 1.171 2.114v0.1463q-0.9755-0.0976-1.61-0.0976z"/>
   <path d="m142.3 234.3q0.8861-1.203 0.8861-3.626 0-2.138-0.878-3.333 1.675 0.9999 1.675 3.422 0 2.39-1.683 3.536zm-6.552-6.967q-0.8942 1.382-0.8942 3.536 0 1.951 0.8536 3.382-1.642-1.081-1.642-3.463 0-2.447 1.683-3.455zm6.081 3.488q0-3.894-2.829-3.894-2.772 0-2.772 3.992 0 3.756 2.805 3.756 2.797 0 2.797-3.853zm0.7642-0.008q0 1.496-0.4552 2.528-0.4471 1.024-1.26 1.512-0.7967 0.4959-1.862 0.4959-1.691 0-2.618-1.211-0.9268-1.211-0.9268-3.333 0-2.203 0.943-3.382 0.943-1.163 2.585-1.163 1.667 0 2.634 1.163 0.9593 1.154 0.9593 3.39z"/>
   <path d="m158.3 233.7-8.446-7.203h0.9593l6.837 5.821v-3.374q0-0.8455-0.1138-1.301-0.1138-0.4309-0.4634-0.7235-0.3496-0.2845-0.8942-0.374v-0.1463q0.008 0 0.2845 0.0244 1.065 0.0732 1.447 0.0732 0.3496 0 1.667-0.0975v0.1463q-0.4227 0.0569-0.7398 0.3496-0.3089 0.2764-0.4227 0.6829-0.1138 0.4146-0.1138 1.163v4.959zm-9.365-7.203 9.365 7.999v0.6666h-0.1626l-7.365-6.268v3.78q0 1.236 0.317 1.715 0.317 0.4796 0.9999 0.626v0.1463q-1.228-0.0976-1.667-0.0976-0.4959 0-1.496 0.0976v-0.1463q0.6991-0.1626 0.9512-0.6585 0.252-0.4959 0.252-1.756l-0.008-4.244-0.5853-0.4959q-1.219-1.041-2.057-1.317v-0.1463l1.455 0.0975z"/>
   <path d="m169.7 235.1h-0.2114v-8.568h2.927q0.8048 0 1.585-0.0975 0 0.1545-0.0244 0.5609-0.0244 0.374-0.0244 0.9349 0 0.3577-0.0406 0.7235h-0.1951q-0.0163-0.6666-0.3333-1.106-0.3252-0.4471-1.374-0.4471h-1.845v5.821q0 0.9999 0.2845 1.504 0.2845 0.504 0.878 0.626v0.1463q-1.439-0.0976-1.626-0.0976zm-3.496-8.568h2.683v8.568h-0.2439q-0.5284 0-1.577 0.0976v-0.1463q0.6748-0.1707 0.9268-0.691 0.2439-0.5122 0.2439-1.707v-5.552h-2.073q-0.7886 0-1.114 0.3252-0.3252 0.3252-0.5447 1.228h-0.187q-0.008-0.1057-0.008-0.2276 0-0.1626 0.0325-0.4146 0.0975-0.8698 0.0975-1.577 0.4309 0.0569 1.073 0.0732l0.691 0.0244z"/>
   <path d="m178.9 233.2h-0.1951q0.2439-0.4715 0.4715-0.5934 0.2358-0.1219 0.7642-0.1219h1.268q0.7398 0 1.041-0.1707 0.3089-0.1707 0.5122-0.6422h0.252q-0.317 1.415-1.561 1.415h-1.894q-0.4715 0-0.6585 0.1138zm3.309-1.959h0.2032q-0.2601 0.4715-0.4796 0.5853-0.2276 0.1301-0.756 0.1301h-1.276q-0.7316 0-1.032 0.1626-0.3089 0.1707-0.5122 0.6422h-0.252q0.3089-1.406 1.561-1.406h1.894q0.4634 0 0.6504-0.1138z"/>
   <path d="m189.3 226.5h0.2683v8.568h-0.5366q-0.2845 0-1.203 0.0976v-0.1463q0.439-0.1138 0.6666-0.4146 0.2358-0.3089 0.317-0.7073 0.0894-0.4227 0.0894-1.788v-3.406q0-1.179-0.317-1.618t-0.756-0.5365v-0.1463q0.4959 0.0325 1.471 0.0975zm4.105 8.568h-3.252v-8.568h2.366q0.6666 0 2.52-0.0975-0.0163 0.2439-0.0163 0.3658 0 0.1626 0.0406 0.756 0.0244 0.3984 0.0244 0.4309v0.2032h-0.1382q-0.2927-0.6991-0.6666-0.9024-0.374-0.1951-1.406-0.1951h-1.293q-0.3089 0-0.5691 0.0406-0.1463 0.2764-0.1707 1.317l-0.0163 0.5528v1.325h1.756q0.9918 0 1.317-0.1707t0.5203-0.813h0.1788q-0.065 0.7316-0.065 1.268 0 0.3414 0.0488 0.8942 0.0163 0.1626 0.0406 0.6422h-0.1788q-0.0732-0.7154-0.4309-0.9837-0.3658-0.2683-1.146-0.2683h-2.04v1.772q0 1.024 0.1138 1.797 0.3414 0.0488 0.7316 0.0488h1.236q1.008 0 1.52-0.2276 0.5365-0.2358 1.057-1.049h0.1626q-0.0894 0.374-0.2683 0.8617-0.2195 0.6341-0.317 1.097-0.9268-0.0976-1.658-0.0976z"/>
   <path d="m211.2 233.7-8.446-7.203h0.9593l6.837 5.821v-3.374q0-0.8455-0.1138-1.301-0.1138-0.4309-0.4634-0.7235-0.3496-0.2845-0.8942-0.374v-0.1463q0.008 0 0.2845 0.0244 1.065 0.0732 1.447 0.0732 0.3496 0 1.667-0.0975v0.1463q-0.4227 0.0569-0.7398 0.3496-0.3089 0.2764-0.4227 0.6829-0.1138 0.4146-0.1138 1.163v4.959zm-9.365-7.203 9.365 7.999v0.6666h-0.1626l-7.365-6.268v3.78q0 1.236 0.317 1.715 0.317 0.4796 0.9999 0.626v0.1463q-1.228-0.0976-1.667-0.0976-0.4959 0-1.496 0.0976v-0.1463q0.6991-0.1626 0.9512-0.6585 0.252-0.4959 0.252-1.756l-0.008-4.244-0.5853-0.4959q-1.219-1.041-2.057-1.317v-0.1463l1.455 0.0975z"/>
   <path d="m225.3 234.5q1.349-1.032 1.349-3.577 0-2.488-1.106-3.512 0.9268 0.6097 1.398 1.488 0.4715 0.878 0.4715 2 0 2.341-2.114 3.601zm-6.113-7.934v8.568q-0.5772 0-1.813 0.0976v-0.1463q0.626-0.1707 0.8861-0.7316 0.252-0.5366 0.252-2.227v-3.357q0-1.032-0.252-1.504-0.252-0.4634-0.8861-0.6504v-0.1463q1.057 0.0813 1.813 0.0975zm1.382 0.756q-0.1301 0.3658-0.1301 2.561v1.984q0 1.78 0.2358 2.601 0.626 0.1951 1.431 0.1951 1.504 0 2.366-0.9512 0.8699-0.9593 0.8699-2.821 0-1.821-0.8617-2.829t-2.536-1.008q-0.8698 0-1.374 0.2683zm-0.3089 7.812h-0.4959v-8.568q1.122-0.0244 1.569-0.0569 0.6747-0.0406 0.9268-0.0406 1.219 0 2.081 0.5609 0.8536 0.5691 1.284 1.488 0.4227 0.9024 0.4227 2.293 0 2.114-1.016 3.268-1.024 1.154-2.772 1.154-0.8129 0-1.837-0.0894-0.0406-0.008-0.1626-0.008z"/>
   <path d="m115.9 251.1q1.349-1.032 1.349-3.577 0-2.488-1.106-3.512 0.9268 0.6097 1.398 1.488 0.4715 0.878 0.4715 2 0 2.341-2.114 3.601zm-6.113-7.934v8.568q-0.5772 0-1.813 0.0975v-0.1463q0.626-0.1707 0.8861-0.7316 0.252-0.5365 0.252-2.227v-3.357q0-1.032-0.252-1.504-0.252-0.4634-0.8861-0.6504v-0.1463q1.057 0.0813 1.813 0.0976zm1.382 0.756q-0.1301 0.3658-0.1301 2.561v1.984q0 1.78 0.2358 2.601 0.626 0.1951 1.431 0.1951 1.504 0 2.366-0.9511 0.8698-0.9593 0.8698-2.821 0-1.821-0.8617-2.829t-2.536-1.008q-0.8698 0-1.374 0.2683zm-0.3089 7.812h-0.4959v-8.568q1.122-0.0244 1.569-0.0569 0.6747-0.0406 0.9268-0.0406 1.219 0 2.081 0.5609 0.8536 0.5691 1.284 1.488 0.4227 0.9024 0.4227 2.292 0 2.114-1.016 3.268-1.024 1.154-2.772 1.154-0.813 0-1.837-0.0894-0.0406-0.008-0.1626-0.008z"/>
   <path d="m124.6 243.2h0.2683v8.568h-0.5365q-0.2845 0-1.203 0.0975v-0.1463q0.439-0.1138 0.6666-0.4146 0.2358-0.3089 0.317-0.7073 0.0894-0.4227 0.0894-1.788v-3.406q0-1.179-0.317-1.618t-0.756-0.5365v-0.1463q0.4959 0.0325 1.471 0.0976zm4.105 8.568h-3.252v-8.568h2.366q0.6666 0 2.52-0.0976-0.0163 0.2439-0.0163 0.3658 0 0.1626 0.0406 0.756 0.0244 0.3983 0.0244 0.4309v0.2032h-0.1382q-0.2927-0.6991-0.6666-0.9024-0.374-0.1951-1.406-0.1951h-1.293q-0.3089 0-0.5691 0.0406-0.1463 0.2764-0.1707 1.317l-0.0162 0.5528v1.325h1.756q0.9918 0 1.317-0.1707t0.5203-0.8129h0.1788q-0.065 0.7316-0.065 1.268 0 0.3414 0.0488 0.8942 0.0163 0.1626 0.0406 0.6422h-0.1788q-0.0732-0.7154-0.4309-0.9837-0.3658-0.2683-1.146-0.2683h-2.04v1.772q0 1.024 0.1138 1.797 0.3414 0.0488 0.7316 0.0488h1.236q1.008 0 1.52-0.2276 0.5366-0.2358 1.057-1.049h0.1626q-0.0894 0.374-0.2683 0.8617-0.2195 0.6341-0.317 1.097-0.9268-0.0975-1.658-0.0975z"/>
   <path d="m139.7 245.5 2.024 3.829 1.894-3.975q0.3983-0.8292 0.3983-1.244 0-0.6422-0.6341-0.8455v-0.1463q-0.0163 0 0.4552 0.0406 0.626 0.0569 0.9837 0.0569 0.2845 0 1.211-0.0976v0.1463q-0.5365 0.2276-0.8698 0.6097-0.3414 0.3902-0.8861 1.545l-2.553 5.317-3.918-7.52q0.7398 0 1.764-0.0976v0.1463q-0.4715 0.1301-0.4715 0.5853 0 0.4959 0.6016 1.65zm-2.553-2.284 4.276 8.162-0.2845 0.5853h-0.1301l-3.642-6.918q-0.813-1.561-1.748-1.78v-0.1463l1.528 0.0976z"/>
   <path d="m152.2 243.2h0.2683v8.568h-0.5365q-0.2845 0-1.203 0.0975v-0.1463q0.439-0.1138 0.6666-0.4146 0.2358-0.3089 0.317-0.7073 0.0894-0.4227 0.0894-1.788v-3.406q0-1.179-0.317-1.618t-0.756-0.5365v-0.1463q0.4959 0.0325 1.471 0.0976zm4.105 8.568h-3.252v-8.568h2.366q0.6666 0 2.52-0.0976-0.0162 0.2439-0.0162 0.3658 0 0.1626 0.0406 0.756 0.0244 0.3983 0.0244 0.4309v0.2032h-0.1382q-0.2927-0.6991-0.6666-0.9024-0.374-0.1951-1.406-0.1951h-1.293q-0.3089 0-0.5691 0.0406-0.1463 0.2764-0.1707 1.317l-0.0163 0.5528v1.325h1.756q0.9918 0 1.317-0.1707t0.5203-0.8129h0.1788q-0.065 0.7316-0.065 1.268 0 0.3414 0.0488 0.8942 0.0163 0.1626 0.0406 0.6422h-0.1788q-0.0732-0.7154-0.4309-0.9837-0.3658-0.2683-1.146-0.2683h-2.04v1.772q0 1.024 0.1138 1.797 0.3414 0.0488 0.7316 0.0488h1.236q1.008 0 1.52-0.2276 0.5365-0.2358 1.057-1.049h0.1626q-0.0894 0.374-0.2683 0.8617-0.2195 0.6341-0.317 1.097-0.9268-0.0975-1.658-0.0975z"/>
   <path d="m169.7 251.7h-3.764v-8.568q0.5528-0.0163 1.236-0.065 0.6341-0.0325 0.5853-0.0325v0.1463q-0.626 0.1626-0.8861 0.6422-0.2601 0.4959-0.2601 1.471v3.536q0 0.7967 0.0813 1.423 0.0732 0.6585 0.1707 0.756 0.0894 0.0975 0.4715 0.0975h1.707q0.9024 0 1.496-0.2845 0.5934-0.2845 1.041-1.122h0.1626q-0.0569 0.3902-0.3658 1.236-0.2032 0.5366-0.2601 0.8617-0.6585-0.0975-1.415-0.0975zm-6.065-8.666 1.715 0.0976v8.568h-0.504q-0.4634 0-1.211 0.0975v-0.1463q0.6016-0.2358 0.8211-0.756 0.2195-0.5284 0.2195-1.691v-3.886q0-1.244-0.3252-1.642-0.3333-0.4065-0.7154-0.4959v-0.1463z"/>
   <path d="m184.3 250.9q0.8861-1.203 0.8861-3.626 0-2.138-0.878-3.333 1.675 0.9999 1.675 3.422 0 2.39-1.683 3.536zm-6.552-6.967q-0.8942 1.382-0.8942 3.536 0 1.951 0.8536 3.382-1.642-1.081-1.642-3.463 0-2.447 1.683-3.455zm6.081 3.488q0-3.894-2.829-3.894-2.772 0-2.772 3.992 0 3.756 2.805 3.756 2.797 0 2.797-3.853zm0.7642-0.008q0 1.496-0.4552 2.528-0.4471 1.024-1.26 1.512-0.7967 0.4959-1.862 0.4959-1.691 0-2.618-1.211-0.9268-1.211-0.9268-3.333 0-2.203 0.943-3.382 0.943-1.163 2.585-1.163 1.667 0 2.634 1.163 0.9593 1.154 0.9593 3.39z"/>
   <path d="m197.7 248q0.8861-0.9105 0.8861-2.179 0-1.333-0.8861-2.317 1.634 0.6585 1.634 2.244 0 1.553-1.634 2.252zm-4.943-4.78v8.568h-0.2683q-0.5203 0-1.545 0.0975v-0.1463q0.4227-0.0488 0.7804-0.4796 0.3577-0.4309 0.3577-1.797v-3.959q0-1.13-0.252-1.602-0.252-0.4715-0.8861-0.6341v-0.1463q1.081 0.0813 1.813 0.0976zm1.252 2.512v1.772q0.5609 0.2358 1.203 0.2358 1.032 0 1.545-0.5691 0.5122-0.5772 0.5122-1.431 0-0.8861-0.5122-1.471-0.5122-0.5853-1.602-0.5853-0.6016 0-0.878 0.187-0.2683 0.1951-0.2683 1.862zm-0.065 6.056h-0.5934v-8.568q0.2032 0 0.317-0.008 0.4634-0.0163 0.8942-0.0569 0.2845-0.0325 0.626-0.0325 1.447 0 2.13 0.756 0.6748 0.7642 0.6748 1.902 0 1.163-0.7398 1.854-0.7398 0.7073-1.927 0.7073-0.6585 0-1.317-0.2276v1.447q0 1.065 0.3008 1.569 0.2927 0.5203 0.9674 0.6097v0.1463q-0.3414-0.0488-0.8455-0.0732l-0.4878-0.0244z"/>
   <path d="m205.9 243.2h0.2683v8.568h-0.5366q-0.2845 0-1.203 0.0975v-0.1463q0.439-0.1138 0.6666-0.4146 0.2358-0.3089 0.317-0.7073 0.0894-0.4227 0.0894-1.788v-3.406q0-1.179-0.317-1.618t-0.756-0.5365v-0.1463q0.4959 0.0325 1.471 0.0976zm4.105 8.568h-3.252v-8.568h2.366q0.6666 0 2.52-0.0976-0.0163 0.2439-0.0163 0.3658 0 0.1626 0.0406 0.756 0.0244 0.3983 0.0244 0.4309v0.2032h-0.1382q-0.2927-0.6991-0.6666-0.9024-0.374-0.1951-1.406-0.1951h-1.293q-0.3089 0-0.5691 0.0406-0.1463 0.2764-0.1707 1.317l-0.0163 0.5528v1.325h1.756q0.9918 0 1.317-0.1707t0.5203-0.8129h0.1788q-0.065 0.7316-0.065 1.268 0 0.3414 0.0488 0.8942 0.0163 0.1626 0.0406 0.6422h-0.1788q-0.0732-0.7154-0.4309-0.9837-0.3658-0.2683-1.146-0.2683h-2.04v1.772q0 1.024 0.1138 1.797 0.3414 0.0488 0.7316 0.0488h1.236q1.008 0 1.52-0.2276 0.5365-0.2358 1.057-1.049h0.1626q-0.0894 0.374-0.2683 0.8617-0.2195 0.6341-0.317 1.097-0.9268-0.0975-1.658-0.0975z"/>
   <path d="m223.9 247.2q0.5284-0.8373 0.5284-1.845 0-0.9186-0.6097-1.845 1.398 0.5934 1.398 1.87 0 1.293-1.317 1.821zm-4.951-3.992v8.568h-0.3496q-0.2032 0-0.6422 0.0488-0.374 0.0488-0.878 0.0488v-0.1463q0.5203-0.0569 0.8617-0.5122 0.3414-0.4552 0.3414-1.756v-4.179q0-1.772-1.203-2.024v-0.1463q0.5203 0.0569 1.87 0.0976zm1.268 2.236v1.764q0.4796 0.1219 1.041 0.1219 1.829 0 1.829-1.902 0-1.78-1.813-1.78-0.5853 0-0.9105 0.2358-0.1463 0.3252-0.1463 1.561zm-0.439 6.333h-0.2358v-8.568q0.4878 0 1.041-0.0406 0.6341-0.0569 1.032-0.0569 1.114 0 1.658 0.6829 0.5447 0.6747 0.5447 1.667 0 1.683-1.423 2.154 0.7073 0.0976 1.187 0.4227 0.5122 0.3496 1.553 1.398 1.585 1.61 2.585 1.61 0.2032 0 0.4146-0.1382l0.0325 0.1463q-0.3252 0.4227-0.9024 0.4227-0.6178 0-1.293-0.4634-0.6341-0.439-1.894-1.723-1.512-1.561-2.943-1.561 0.8861 0.2764 2.398 1.862 1.065 1.106 1.707 1.61 0.6504 0.504 1.244 0.504v0.0732q-0.2764 0.0975-0.5447 0.0975-0.7886 0-1.366-0.3983-0.3089-0.2195-0.7886-0.6666-0.4715-0.4552-1.138-1.171-0.9755-1.041-1.447-1.415-0.504-0.3821-0.9837-0.5365v1.927q0 1.943 1.171 2.114v0.1463q-0.9755-0.0975-1.61-0.0975z"/>
  </g>
 </g>
 <g transform="translate(-.4279)">
  <g transform="matrix(.6405 0 0 .5787 54.46 -114.2)" fill="#fff">
   <g transform="translate(-165.3,-336.5)">
    <path d="m238.9 804.6-5.84-17.28h-15.84l-6.16 17.28h6v1.52h-12.24v-1.52h3.76l20.4-54.96h6.56l20.16 54.96h3.68v1.52h-26.16v-1.52h5.68zm-13.44-40-7.52 20.96h14.48l-6.96-20.96z"/>
    <path d="m294.2 764v42.08h-8.652l-21.2-39.98v38.81h3.399v1.174h-8.466v-1.174h3.399v-40.91h-3.399v-1.174h17.06l16.19 31.02v-29.85h-3.399v-1.174h8.466v1.174h-3.399z"/>
    <path d="m336.4 762.8 0.618 15.51h-1.174q-2.719-8.219-4.82-11.19-2.101-3.028-6.056-3.028h-0.7416v40.66h5.253v1.298h-22.56v-1.298h5.253v-40.66h-0.8034q-3.955 0-6.118 3.152-2.163 3.09-4.758 11.06h-1.174l0.618-15.51h36.46z"/>
    <path d="m366.5 786.9v-4.573q0-11.31-1.112-14.28-1.236-3.399-3.522-4.202-1.298-0.4944-3.152-0.4944t-3.214 0.4944q-1.298 0.4944-2.163 1.73-0.8652 1.236-1.421 2.596-0.4944 1.36-0.8034 3.831-0.3708 3.584-0.3708 10.57v4.449q0 7.539 0.5562 10.75 0.618 3.152 1.483 4.511 1.916 3.028 5.933 3.028 4.882 0 6.303-4.079 1.483-4.14 1.483-14.34zm-7.91 19.71q-10.32 0-15.45-5.562-5.067-5.624-5.067-16.19 0-10.63 5.438-16.69 5.5-6.118 15.51-6.118t15.08 5.809q5.129 5.747 5.129 16.38t-5.191 16.5q-5.129 5.871-15.45 5.871z"/>
    <path d="m416.2 764v42.08h-8.652l-21.2-39.98v38.81h3.399v1.174h-8.466v-1.174h3.399v-40.91h-3.399v-1.174h17.06l16.19 31.02v-29.85h-3.399v-1.174h8.466v1.174h-3.399z"/>
    <path d="m420.7 762.8h18.85v1.174h-3.399v40.91h3.399v1.174h-18.85v-1.174h3.399v-40.91h-3.399v-1.174z"/>
    <path d="m470.1 786.9v-4.573q0-11.31-1.112-14.28-1.236-3.399-3.523-4.202-1.298-0.4944-3.152-0.4944t-3.214 0.4944q-1.298 0.4944-2.163 1.73-0.8652 1.236-1.421 2.596-0.4944 1.36-0.8034 3.831-0.3708 3.584-0.3708 10.57v4.449q0 7.539 0.5562 10.75 0.618 3.152 1.483 4.511 1.916 3.028 5.933 3.028 4.882 0 6.303-4.079 1.483-4.14 1.483-14.34zm-7.91 19.71q-10.32 0-15.45-5.562-5.067-5.624-5.067-16.19 0-10.63 5.438-16.69 5.5-6.118 15.51-6.118t15.08 5.809q5.129 5.747 5.129 16.38t-5.191 16.5q-5.129 5.871-15.45 5.871z"/>
   </g>
   <g transform="translate(-183.4,-200.1)">
    <path d="m232.2 702.2h-4.24v26.8h5.2v1.52h-26v-1.52h5.2v-52.96h-5.2v-1.52h24.16q10.4 0 14.72 1.12 4.4 1.04 6.16 2.56 3.84 3.12 3.84 9.92t-3.36 9.76q-3.36 2.88-10.24 3.44v0.24q6.48 0.88 9.04 3.84t2.56 9.92v4.24q0 4.16 0.4 5.6 0.48 1.44 1.92 1.44t2.24-1.28q0.88-1.36 1.6-5.6l1.36 0.16q-0.88 6.8-3.12 9.12-2.16 2.32-8.72 2.32t-9.36-3.04q-2.72-3.12-2.72-11.6v-5.84q0-4.48-1.2-6.56-1.12-2.08-4.24-2.08zm-4.24-26.16v24.64h2.56q4.56 0 6.72-2.8 2.24-2.8 2.24-9.12v-2.32q0-6.32-2.16-8.32-2.08-2.08-6.72-2.08h-2.64z"/>
    <path d="m264.7 688h32.14l0.618 12.24h-1.112q-2.596-6.242-5.438-8.528-2.843-2.348-8.343-2.348h-2.163v19.1h2.101q2.905 0 4.882-2.163 1.978-2.225 2.781-5.933h0.927v18.29h-1.051q-1.112-4.635-3.028-6.612-1.854-1.978-5.129-1.978h-1.483v19.84h2.348q5.685 0 9.641-3.399 4.017-3.399 5.5-8.714h1.236l-0.4944 13.47h-33.93v-1.36h3.646v-40.54h-3.646v-1.36z"/>
    <path d="m344 708.9q0 12.73-7.169 17.74-6.612 4.635-18.17 4.635h-17.49v-1.174h4.079v-40.91h-4.079v-1.174h19.1q11.87 0 17.8 4.882 5.933 4.82 5.933 16.01zm-26.7 21.2h2.348q6.242 0 8.899-4.388 2.719-4.449 2.719-14.83v-3.584q0-13.9-5.315-16.75-2.534-1.36-7.169-1.36h-1.483v40.91z"/>
    <path d="m375.6 712.2v-4.573q0-11.31-1.112-14.28-1.236-3.399-3.522-4.202-1.298-0.4944-3.152-0.4944t-3.214 0.4944q-1.298 0.4944-2.163 1.73-0.8652 1.236-1.421 2.596-0.4944 1.36-0.8034 3.831-0.3708 3.584-0.3708 10.57v4.449q0 7.539 0.5562 10.75 0.618 3.152 1.483 4.511 1.916 3.028 5.933 3.028 4.882 0 6.303-4.079 1.483-4.14 1.483-14.34zm-7.91 19.71q-10.32 0-15.45-5.562-5.067-5.624-5.067-16.19 0-10.63 5.438-16.69 5.5-6.118 15.51-6.118t15.08 5.809q5.129 5.747 5.129 16.38t-5.191 16.5q-5.129 5.871-15.45 5.871z"/>
    <path d="m425.3 689.2v42.08h-8.652l-21.2-39.98v38.81h3.399v1.174h-8.466v-1.174h3.399v-40.91h-3.399v-1.174h17.06l16.19 31.02v-29.85h-3.399v-1.174h8.466v1.174h-3.399z"/>
    <path d="m472.4 708.9q0 12.73-7.169 17.74-6.612 4.635-18.17 4.635h-17.49v-1.174h4.079v-40.91h-4.079v-1.174h19.1q11.87 0 17.8 4.882 5.933 4.82 5.933 16.01zm-26.7 21.2h2.348q6.242 0 8.899-4.388 2.719-4.449 2.719-14.83v-3.584q0-13.9-5.315-16.75-2.534-1.36-7.169-1.36h-1.483v40.91z"/>
    <path d="m503.9 712.2v-4.573q0-11.31-1.112-14.28-1.236-3.399-3.522-4.202-1.298-0.4944-3.152-0.4944t-3.214 0.4944q-1.298 0.4944-2.163 1.73-0.8652 1.236-1.421 2.596-0.4944 1.36-0.8034 3.831-0.3708 3.584-0.3708 10.57v4.449q0 7.539 0.5562 10.75 0.618 3.152 1.483 4.511 1.916 3.028 5.933 3.028 4.882 0 6.303-4.079 1.483-4.14 1.483-14.34zm-7.91 19.71q-10.32 0-15.45-5.562-5.067-5.624-5.067-16.19 0-10.63 5.438-16.69 5.5-6.118 15.51-6.118t15.08 5.809q5.129 5.747 5.129 16.38t-5.191 16.5q-5.129 5.871-15.45 5.871z"/>
   </g>
  </g>
 </g>
 <g fill="#fff">
  <path d="m124.3 97.02-0.1282 1.803h-4.738v-0.3033q0.1025-0.0085 0.2948-0.02991 0.1965-0.02136 0.2734-0.05554 0.1282-0.05554 0.1837-0.1624 0.0598-0.1068 0.0598-0.2734v-4.341q0-0.1453-0.0513-0.2564-0.047-0.1111-0.1923-0.1794-0.0983-0.05127-0.2777-0.09827-0.1752-0.05127-0.2905-0.05982v-0.3033h2.559v0.3033q-0.1196 0.0043-0.3119 0.04272-0.188 0.03845-0.2734 0.06836-0.1453 0.05127-0.2008 0.1752-0.0513 0.1239-0.0513 0.2649v4.072q0 0.282 0.0256 0.4401 0.0299 0.1538 0.1324 0.2393 0.0983 0.0769 0.2905 0.1025 0.1965 0.02136 0.5469 0.02136 0.1581 0 0.329-0.0085t0.3247-0.03418q0.1495-0.02563 0.2734-0.06836 0.1282-0.047 0.188-0.1154 0.1752-0.1965 0.4059-0.5939 0.235-0.4016 0.3247-0.6494h0.3034z"/>
  <path d="m141.6 93.47q0.4016 0.4187 0.6281 1.013 0.2264 0.5896 0.2264 1.307 0 0.7221-0.2307 1.312-0.2307 0.5896-0.6409 1.004-0.3973 0.4102-0.9229 0.6323-0.5255 0.2222-1.119 0.2222-0.6323 0-1.171-0.235-0.5341-0.2393-0.9186-0.6622-0.3845-0.4144-0.6067-1.004-0.2179-0.5939-0.2179-1.269 0-0.7391 0.2307-1.316 0.2307-0.5811 0.6366-1.004 0.4016-0.4187 0.9314-0.6409 0.5341-0.2222 1.115-0.2222 0.6024 0 1.136 0.2264 0.5341 0.2264 0.9229 0.6366zm-0.6366 4.298q0.2393-0.3888 0.3461-0.8801 0.1111-0.4913 0.1111-1.098 0-0.6238-0.1239-1.145-0.1196-0.5212-0.3546-0.8887-0.235-0.3632-0.5896-0.564-0.3546-0.2051-0.8118-0.2051-0.5127 0-0.8716 0.235t-0.5853 0.6281q-0.2136 0.376-0.3204 0.8801-0.1025 0.5042-0.1025 1.06 0 0.6152 0.1111 1.111 0.1111 0.4956 0.3503 0.8801 0.2307 0.376 0.5811 0.5896 0.3504 0.2094 0.8374 0.2094 0.4572 0 0.8246-0.2136t0.5982-0.5982z"/>
  <path d="m161.5 93.06q-0.1196 0.0043-0.3674 0.06836-0.2478 0.06409-0.3546 0.1324-0.1538 0.1068-0.2094 0.4102-0.0513 0.3033-0.0513 0.769v4.439h-0.3717l-3.674-4.96v3.127q0 0.5255 0.0641 0.8075 0.0684 0.282 0.2051 0.4016 0.0983 0.094 0.4059 0.1752 0.3076 0.08118 0.4059 0.08545v0.3033h-2.487v-0.3033q0.1154-0.0085 0.3888-0.08118 0.2734-0.0769 0.3418-0.1367 0.1495-0.1196 0.2051-0.3632 0.0555-0.2478 0.0555-0.8417v-2.986q0-0.1965-0.0684-0.3931-0.0684-0.1965-0.1837-0.3033-0.1538-0.141-0.4187-0.2393-0.2606-0.1025-0.423-0.1111v-0.3033h1.73l3.409 4.623v-2.884q0-0.5298-0.0684-0.8118-0.0684-0.2863-0.1965-0.3803-0.1196-0.08118-0.3931-0.1581-0.2692-0.0769-0.4102-0.08545v-0.3033h2.465v0.3033z"/>
  <path d="m179.8 95.82q0 0.7733-0.2905 1.342-0.2905 0.5682-0.7562 0.9314-0.47 0.3632-1.055 0.5426-0.5853 0.1794-1.209 0.1794h-2.512v-0.3033q0.1239 0 0.3204-0.02136 0.2008-0.02563 0.2649-0.05554 0.1282-0.05554 0.1837-0.1624 0.0598-0.1111 0.0598-0.2649v-4.375q0-0.1453-0.0513-0.2606-0.047-0.1154-0.1923-0.1837-0.1324-0.06409-0.2862-0.094t-0.2649-0.03845v-0.3033h2.649q0.5469 0 1.077 0.1709 0.5298 0.1666 0.9229 0.4529 0.5341 0.3803 0.8374 0.9955 0.3034 0.6152 0.3034 1.448zm-1.047-0.0043q0-0.611-0.1624-1.102-0.1624-0.4956-0.4742-0.863-0.2948-0.3503-0.7263-0.5512-0.4272-0.2008-0.9528-0.2008-0.1752 0-0.3973 0.0085-0.2179 0.0043-0.3247 0.0085v4.661q0 0.3888 0.2264 0.5383t0.6964 0.1495q0.5426 0 0.9485-0.1923t0.658-0.5341q0.2649-0.3589 0.3845-0.8289 0.1239-0.4742 0.1239-1.094z"/>
  <path d="m197.4 93.47q0.4016 0.4187 0.6281 1.013 0.2264 0.5896 0.2264 1.307 0 0.7221-0.2307 1.312-0.2307 0.5896-0.6409 1.004-0.3973 0.4102-0.9229 0.6323-0.5255 0.2222-1.119 0.2222-0.6323 0-1.171-0.235-0.5341-0.2393-0.9186-0.6622-0.3845-0.4144-0.6067-1.004-0.2179-0.5939-0.2179-1.269 0-0.7391 0.2307-1.316 0.2307-0.5811 0.6366-1.004 0.4016-0.4187 0.9314-0.6409 0.5341-0.2222 1.115-0.2222 0.6024 0 1.136 0.2264 0.5341 0.2264 0.9229 0.6366zm-0.6366 4.298q0.2393-0.3888 0.3461-0.8801 0.1111-0.4913 0.1111-1.098 0-0.6238-0.1239-1.145-0.1196-0.5212-0.3546-0.8887-0.235-0.3632-0.5896-0.564-0.3546-0.2051-0.8118-0.2051-0.5127 0-0.8716 0.235t-0.5853 0.6281q-0.2136 0.376-0.3204 0.8801-0.1025 0.5042-0.1025 1.06 0 0.6152 0.1111 1.111 0.1111 0.4956 0.3504 0.8801 0.2307 0.376 0.5811 0.5896 0.3503 0.2094 0.8374 0.2094 0.4572 0 0.8246-0.2136t0.5982-0.5982z"/>
  <path d="m217.3 93.06q-0.1196 0.0043-0.3674 0.06836-0.2478 0.06409-0.3546 0.1324-0.1538 0.1068-0.2094 0.4102-0.0513 0.3033-0.0513 0.769v4.439h-0.3717l-3.674-4.96v3.127q0 0.5255 0.0641 0.8075 0.0684 0.282 0.2051 0.4016 0.0983 0.094 0.4059 0.1752 0.3076 0.08118 0.4059 0.08545v0.3033h-2.487v-0.3033q0.1154-0.0085 0.3888-0.08118 0.2734-0.0769 0.3418-0.1367 0.1495-0.1196 0.2051-0.3632 0.0555-0.2478 0.0555-0.8417v-2.986q0-0.1965-0.0684-0.3931-0.0684-0.1965-0.1837-0.3033-0.1538-0.141-0.4187-0.2393-0.2606-0.1025-0.423-0.1111v-0.3033h1.73l3.409 4.623v-2.884q0-0.5298-0.0684-0.8118-0.0684-0.2863-0.1965-0.3803-0.1196-0.08118-0.3931-0.1581-0.2692-0.0769-0.4102-0.08545v-0.3033h2.465v0.3033z"/>
 </g>
</svg>
