<svg xmlns:rdf="http://www.w3.org/1999/02/22-rdf-syntax-ns#" xmlns="http://www.w3.org/2000/svg" height="490.7mm" width="314mm" version="1.1" xmlns:cc="http://creativecommons.org/ns#" xmlns:dc="http://purl.org/dc/elements/1.1/" viewBox="0 0 1112.77 1738.5464">
 <g fill="#fff" transform="matrix(0 1 -1 0 1435 226.4)">
  <path fill-opacity=".25" fill="#fff" d="m8.69 1432c-1.537-2.346-1.561-2.886-0.2347-5.25 1.071-1.908 2.285-2.635 4.402-2.635s3.331 0.7265 4.402 2.635c1.327 2.364 1.303 2.904-0.2347 5.25-1.077 1.644-2.625 2.615-4.167 2.615-1.543 0-3.09-0.971-4.167-2.615zm776-37c-1.537-2.346-1.561-2.886-0.2347-5.25 1.071-1.908 2.285-2.635 4.402-2.635s3.331 0.7265 4.402 2.635c1.327 2.364 1.302 2.904-0.2347 5.25-1.077 1.644-2.625 2.615-4.168 2.615s-3.09-0.971-4.168-2.615zm-210-78c-1.537-2.346-1.561-2.886-0.2347-5.25 1.071-1.908 2.285-2.635 4.402-2.635s3.331 0.7265 4.402 2.635c1.327 2.364 1.303 2.904-0.2347 5.25-1.077 1.644-2.625 2.615-4.167 2.615-1.543 0-3.09-0.971-4.167-2.615zm313-90c-1.537-2.346-1.561-2.886-0.2347-5.25 1.071-1.908 2.285-2.635 4.402-2.635s3.331 0.7266 4.402 2.635c1.327 2.364 1.302 2.904-0.2347 5.25-1.077 1.644-2.625 2.615-4.168 2.615s-3.09-0.9709-4.168-2.615zm554-41c-1.537-2.346-1.561-2.886-0.2347-5.25 1.071-1.908 2.285-2.635 4.402-2.635s3.331 0.7266 4.402 2.635c1.327 2.364 1.302 2.904-0.2347 5.25-1.077 1.644-2.625 2.615-4.168 2.615s-3.09-0.9709-4.168-2.615zm-72-22c-1.537-2.346-1.561-2.886-0.2347-5.25 1.071-1.908 2.285-2.635 4.402-2.635s3.331 0.7266 4.402 2.635c1.327 2.364 1.302 2.904-0.2347 5.25-1.077 1.644-2.625 2.615-4.168 2.615s-3.09-0.9709-4.168-2.615zm-647-33c-1.537-2.346-1.561-2.886-0.2347-5.25 1.071-1.908 2.285-2.635 4.402-2.635s3.331 0.7266 4.402 2.635c1.327 2.364 1.303 2.904-0.2347 5.25-1.077 1.644-2.625 2.615-4.167 2.615-1.543 0-3.09-0.9709-4.167-2.615zm68-18c-1.537-2.346-1.561-2.886-0.2347-5.25 1.071-1.908 2.285-2.635 4.402-2.635s3.331 0.7266 4.402 2.635c1.327 2.364 1.302 2.904-0.2347 5.25-1.077 1.644-2.625 2.615-4.168 2.615s-3.09-0.9709-4.168-2.615zm-1010-56c-1.537-2.346-1.561-2.886-0.2347-5.25 1.071-1.908 2.285-2.635 4.402-2.635s3.331 0.7266 4.402 2.635c1.327 2.364 1.303 2.904-0.2347 5.25-1.077 1.644-2.625 2.615-4.167 2.615-1.543 0-3.09-0.9709-4.167-2.615zm1722-227.3c-1.537-2.346-1.561-2.886-0.2347-5.25 1.071-1.908 2.285-2.635 4.402-2.635s3.331 0.7265 4.402 2.635c1.327 2.364 1.302 2.904-0.2347 5.25-1.077 1.644-2.625 2.615-4.168 2.615s-3.09-0.971-4.168-2.615zm-1505-30c-1.537-2.346-1.561-2.886-0.2347-5.25 1.071-1.908 2.285-2.635 4.402-2.635s3.331 0.7265 4.402 2.635c1.327 2.364 1.303 2.904-0.2347 5.25-1.077 1.644-2.625 2.615-4.167 2.615-1.543 0-3.09-0.971-4.167-2.615zm781-5c-1.537-2.346-1.561-2.886-0.2347-5.25 1.071-1.908 2.285-2.635 4.402-2.635s3.331 0.7265 4.402 2.635c1.327 2.364 1.302 2.904-0.2347 5.25-1.077 1.644-2.625 2.615-4.168 2.615s-3.09-0.971-4.168-2.615zm-1004-145c-1.537-2.346-1.561-2.886-0.2347-5.25 1.071-1.908 2.285-2.635 4.402-2.635s3.331 0.7265 4.402 2.635c1.327 2.364 1.303 2.904-0.2347 5.25-1.077 1.644-2.625 2.615-4.167 2.615-1.543 0-3.09-0.971-4.167-2.615zm1125-83.3c-0.9297-1.62-2.473-3.15-3.429-3.4-0.9565-0.2501-2.264-1.606-2.905-3.014-0.952-2.09-0.8605-3.025 0.499-5.1 2.348-3.583 6.22-3.397 8.402 0.4044 0.9297 1.62 2.473 3.15 3.429 3.4 0.9565 0.2501 2.264 1.606 2.905 3.014 0.952 2.09 0.8605 3.025-0.499 5.1-2.348 3.583-6.22 3.397-8.402-0.4044zm491.1-55.67c-1.537-2.346-1.561-2.886-0.2347-5.25 1.071-1.908 2.285-2.635 4.402-2.635s3.331 0.7265 4.402 2.635c1.327 2.364 1.302 2.904-0.2347 5.25-1.077 1.644-2.625 2.615-4.168 2.615s-3.09-0.971-4.168-2.615zm-1090-181c-1.537-2.346-1.561-2.886-0.2347-5.25 1.071-1.908 2.285-2.635 4.402-2.635s3.331 0.7265 4.402 2.635c1.327 2.364 1.303 2.904-0.2347 5.25-1.077 1.644-2.625 2.615-4.167 2.615-1.543 0-3.09-0.971-4.167-2.615z"/>
 </g>
</svg>
