<svg xmlns:rdf="http://www.w3.org/1999/02/22-rdf-syntax-ns#" xmlns="http://www.w3.org/2000/svg" height="436.7mm" width="250mm" version="1.1" xmlns:cc="http://creativecommons.org/ns#" xmlns:dc="http://purl.org/dc/elements/1.1/" viewBox="0 0 885.76141 1547.2969">
 <g transform="matrix(0 1 -1 0 1066 -744)">
  <path fill-opacity=".25" fill="#fff" d="m2279 1065c-0.825-0.825-1.5-2.962-1.5-4.75 0-4.147 2.122-6.25 6.306-6.25 3.552 0 7.444 3.381 7.444 6.467 0 4.719-8.805 7.977-12.25 4.533zm-1360-138.3c-0.825-0.825-1.5-2.962-1.5-4.75 0-4.194 2.129-6.25 6.471-6.25 2.323 0 4.148 1.033 5.519 3.125 1.897 2.895 1.897 3.355 0 6.25-2.231 3.405-7.841 4.274-10.49 1.625zm208.7 0c-0.825-0.825-1.5-2.962-1.5-4.75 0-4.194 2.129-6.25 6.471-6.25 2.323 0 4.148 1.033 5.519 3.125 1.897 2.895 1.897 3.355 0 6.25-2.231 3.405-7.841 4.274-10.49 1.625zm592.6-20.41c-3.899-3.899-4.322-4.938-3.664-8.995 1.164-7.176 5.818-10.97 13.45-10.97 5.563 0 6.763 0.4911 9.972 4.082 5.059 5.662 4.874 10.57-0.6026 16.04-3.484 3.484-5.196 4.25-9.5 4.25-4.341 0-6.013-0.7634-9.658-4.408zm136-88.4c-0.825-0.825-1.5-2.962-1.5-4.75 0-4.194 2.129-6.25 6.471-6.25 2.323 0 4.148 1.033 5.519 3.125 1.897 2.895 1.897 3.355 0 6.25-2.231 3.405-7.841 4.274-10.49 1.625zm-6.25-38.75c-0.825-0.825-1.5-2.962-1.5-4.75 0-4.194 2.129-6.25 6.471-6.25 2.323 0 4.148 1.033 5.519 3.125 1.897 2.895 1.897 3.355 0 6.25-2.231 3.405-7.841 4.274-10.49 1.625zm-1105-4.1c-3.321-4.001 1.557-10.15 5.888-7.42 4.328 2.726 2.786 9.235-2.188 9.235-1.207 0-2.872-0.8167-3.7-1.815zm686.3-127.5c-3.321-4.001 1.556-10.15 5.888-7.42 4.328 2.726 2.786 9.235-2.188 9.235-1.207 0-2.872-0.8167-3.7-1.815zm658-42.2c-0.825-0.825-1.5-2.962-1.5-4.75 0-4.194 2.129-6.25 6.471-6.25 2.323 0 4.148 1.033 5.519 3.125 1.897 2.895 1.897 3.355 0 6.25-2.231 3.405-7.841 4.274-10.49 1.625zm-510-96.25c-0.825-0.825-1.5-2.962-1.5-4.75 0-4.194 2.129-6.25 6.471-6.25 2.323 0 4.148 1.033 5.519 3.125 1.897 2.895 1.897 3.355 0 6.25-2.231 3.405-7.841 4.274-10.49 1.625zm-341.2-7.5c-0.825-0.825-1.5-2.962-1.5-4.75 0-4.194 2.129-6.25 6.471-6.25 2.323 0 4.148 1.033 5.519 3.125 1.897 2.895 1.897 3.355 0 6.25-2.231 3.405-7.841 4.274-10.49 1.625zm-313.4-15.3c-3.321-4.001 1.557-10.15 5.888-7.42 4.328 2.726 2.786 9.235-2.188 9.235-1.207 0-2.872-0.8167-3.7-1.815zm248.8-85c-3.321-4.001 1.556-10.15 5.888-7.42 4.328 2.726 2.786 9.235-2.188 9.235-1.207 0-2.872-0.8167-3.7-1.815zm205.3-77.59c-3.899-3.899-4.322-4.938-3.664-8.995 1.164-7.176 5.818-10.97 13.45-10.97 5.563 0 6.763 0.4911 9.972 4.082 5.059 5.662 4.874 10.57-0.6026 16.04-3.484 3.484-5.196 4.25-9.5 4.25-4.341 0-6.013-0.7634-9.658-4.408zm-32.79-27.41c-3.321-4.001 1.556-10.15 5.888-7.42 4.328 2.726 2.786 9.235-2.188 9.235-1.207 0-2.872-0.8167-3.7-1.815zm549-27.2c-0.825-0.825-1.5-2.962-1.5-4.75 0-4.194 2.129-6.25 6.471-6.25 2.323 0 4.148 1.033 5.519 3.125 1.897 2.895 1.897 3.355 0 6.25-2.231 3.405-7.841 4.274-10.49 1.625zm362.6-6.658c-3.899-3.899-4.322-4.938-3.664-8.995 1.164-7.176 5.818-10.97 13.45-10.97 5.563 0 6.763 0.4911 9.972 4.082 5.059 5.662 4.874 10.57-0.6025 16.04-3.484 3.484-5.196 4.25-9.5 4.25-4.341 0-6.013-0.7634-9.658-4.408zm-1495-70.8c-0.825-0.825-1.5-2.962-1.5-4.75 0-4.194 2.129-6.25 6.471-6.25 2.323 0 4.148 1.033 5.519 3.125 1.897 2.895 1.897 3.355 0 6.25-2.231 3.405-7.841 4.274-10.49 1.625z"/>
 </g>
</svg>
