<svg xmlns:rdf="http://www.w3.org/1999/02/22-rdf-syntax-ns#" xmlns="http://www.w3.org/2000/svg" height="59.71mm" width="76.38mm" version="1.1" xmlns:cc="http://creativecommons.org/ns#" xmlns:dc="http://purl.org/dc/elements/1.1/" viewBox="0 0 270.6513 211.55595">
 <path d="m31.43 115.7c3.873 2.249 3.499 3.999 3.249 7.372 0 0 5.687 6.307 9.436 14.8 3.696 8.377 5.448 8.981 16.52 14.51 2.985 6.941 5.844 14.11 5.975 16.98 0.2507 5.497-16.99 23.24-18.49 26.49-1.5 3.249-7.497 9.997-3.999 12.5 3.499 2.499 1.249 1.249 2.499 1.873 1.249 0.6253 3.248-0.3747 3.999-0.9987 0.7493-0.6253 1.749-0.7493 3.623-1.875 1.875-1.124 2.125-1.875 2.5-3.248 0.3747-1.375 0-5.124 2.375-7.748 2.373-2.624 12.87-11.87 16.62-15.49 2.193-2.121 5.84-8.991 8.489-14.67 1.543 2.828 3.44 7.036 5.255 12.55 3.124 9.496 4.623 18.74 4.623 20.68 0 1.936-0.8747 1.873-2.749 2.936-1.873 1.063-2.373 1.563-3.185 3.436-0.812 1.875-0.376 3.436 0.7493 4.624 1.124 1.187 2.875 0.6867 4.685 0.624 1.812-0.0627 2.936 1.187 7.06 0.0627 4.124-1.125 3.999-2.875 5.248-6.497 1.249-3.624 0.1253-5.748-0.3747-8.997-0.5-3.248 0-4.997 1-11.49 1-6.499-2.875-26.24-1.125-31.74 1.749-5.497 34.24-5.747 34.24-5.747s0.7493 5.748 6.497 14.24c5.748 8.497 10.5 13.25 10.75 20.99 0.2493 7.748-7.748 14.31-10.12 15.75-2.373 1.436-2.56 0.124-4.623 0.3747-2.061 0.2493-4.248 2.873-5.248 4.56s-0.1867 2.999 1.187 4.312c1.375 1.312 2.312 0.312 3.624 0.1867 1.312-0.124 7.872 1.625 10.43 0.7493 2.561-0.8747 2.124-1.061 3.061-3.623 0.9373-2.561 16.93-21.49 18.31-24.12 1.375-2.624-0.1253-8.497-0.3747-14.87-0.2493-6.373-0.8747-19.37 6.123-15.49 6.997 3.873 26.99 18.37 30.74 20.37 3.748 1.999 10.75 5.499 13.99 11.87 3.248 6.372 4.748 13.37 3.999 16.49-0.7507 3.124-2 3.249-2 6.248s5.748 3.373 10.75 1.875c4.997-1.5 4.997-5.248 3.748-11.37-1.249-6.123-7.372-21.87-10.12-28.37-2.749-6.496-6.747-11.49-11.5-16.99-4.748-5.497-2.248-10.75-7.996-24.49-5.748-13.75-8.497-17.74-8.497-17.74s21.74-5.999 37.74-14.74c15.99-8.747 21.74-16.87 26.74-24.62 4.997-7.748 4.997-19.49 0.4987-26.74-4.497-7.248-16.99-15.74-16.74-21.24 0.2493-5.499 8.121-14.87 7.871-17.62-0.2493-2.749-1.999-3.749-4.997-0.8747-2.999 2.873-17.37 17.99-13.12 25.99 4.248 7.996 21.49 14.74 17.99 26.99-3.499 12.25-13 24.74-33.74 28.74-20.74 3.999-41.23 4.249-41.23 4.249s-4.249-2.249-14.99-3.499c-10.75-1.251-30.74-4.499-54.48 0.7493s-39.73 9.372-44.48 8.997c-4.749-0.3747-9.997-4.873-14.25-8.747-4.248-3.873-11.93-7.685-12.87-8.06-0.9373-0.3747-1.687-5.06-4.311-8.621s-6.123-5.873-6.123-5.873-0.3747-0.0613-0.6253 1.312c-0.2493 1.375 0.6253 5.311 0.9373 5.936 0.3133 0.6253-5.747-7.185-6.591-7.747-0.844-0.5627-2.063 1.905-2.405 4.592-0.344 2.687 1.624 7.216 1 8.028-0.6253 0.812-8.935 2.999-10.37 4.311-1.436 1.312-2.249 2.312-3.185 4.124-0.9373 1.812-3.999 6.497-6.436 7.997-2.436 1.499-3.436 3.529-3.748 4.029s-0.4067 0.7493-0.4373 1.563c-0.032 0.812 0.5933 0.8747 0.9373 1.343 0.3427 0.4693 0 1.031 1.187 2.999s3.968 4.155 4.185 4.529c0.2187 0.376 0.844 1.844 3.593 3.124 2.748 1.281 10.53-0.7173 11.15-0.3427 0.624 0.3747 1.499 1.499 2.499 3.248s3.999 1.749 7.872 3.999" />
</svg>
