<svg xmlns:rdf="http://www.w3.org/1999/02/22-rdf-syntax-ns#" xmlns="http://www.w3.org/2000/svg" version="1.1" xmlns:cc="http://creativecommons.org/ns#" xmlns:xlink="http://www.w3.org/1999/xlink" viewBox="0 0 635.35633 528.16064" >
 <g transform="translate(-56.045 -151.94)">
  <g class="c4" transform="matrix(1 0 -.34167 1 0 0)">
   <path d="m312.41 156.82 0.9765 24.51h-1.8554q-4.2966-12.988-7.6168-17.675-3.3201-4.7849-9.5698-4.7849h-1.1718v64.254h8.3003v2.0507h-35.642v-2.0507h8.3003v-64.254h-1.2695q-6.2496 0-9.6674 4.9802-3.4178 4.8825-7.5191 17.479h-1.8554l0.97651-24.51h57.614z"/>
   <path d="m318.04 151.94h23.534v35.74q1.5624-4.4919 4.7849-7.2262 3.2225-2.7342 9.7651-2.7342 15.136 0 15.136 16.308v29.393h5.4684v1.7577h-27.635v-1.7577h4.0037v-31.736q0-5.859-0.78121-7.5191-0.7812-1.7577-2.8319-1.7577-3.1248 0-5.5661 4.1013-2.3436 4.1013-2.3436 9.9604v26.952h4.199v1.7577h-27.733v-1.7577h5.3708v-69.723h-5.3708v-1.7577z"/>
   <path d="m403.8 226.15q-12.597 0-18.944-6.4449-6.2496-6.5426-6.2496-18.065 0-11.62 7.0308-17.772 7.1285-6.152 18.065-6.152 22.167 0 21.288 22.264h-27.537v3.8084q0 9.5698 2.4413 14.452 2.4413 4.8825 8.4956 4.8825 11.327 0 14.843-12.109l1.7577 0.29295q-1.8554 7.0308-6.7379 10.937-4.7849 3.906-14.452 3.906zm-6.2496-28.123h10.058v-4.7849q0-7.9097-0.97651-10.742-0.87885-2.9295-3.7107-2.9295-2.7342 0-4.1013 3.1248-1.2695 3.0272-1.2695 10.546v4.7849z"/>
  </g>
  <g class="c3" transform="matrix(1 0 -.33485 1 0 0)">
   <path d="m256.43 349.94v-4.1681h10.652l-26.167-53.723-4.3997 1.1578v52.565h10.652v4.1681h-66.458v-4.1681h12.736v-165.34h-13.662v-4.1681h56.733v112.31l3.705-1.3894 52.102-43.302h-21.767v-4.1681h45.618v4.1681h-16.209l-27.556 23.388 40.06 78.5h8.3362v4.1681h-64.374z"/>
   <path d="m324.54 239.72h55.807v21.304q3.705-10.652 11.347-17.136 7.6416-6.4838 23.156-6.4838 35.892 0 35.892 38.671v69.7h12.968v4.1681h-65.532v-4.1681h9.4941v-75.258q0-13.894-1.8525-17.83-1.8525-4.1681-6.7153-4.1681-7.41 0-13.199 9.7256-5.5575 9.7256-5.5575 23.619v63.911h9.9572v4.1681h-65.764v-4.1681h12.736v-101.89h-12.736v-4.1681z"/>
   <path d="m541.34 304.32v-19.683q0-22.462-2.5472-32.65-2.3156-10.42-11.115-10.42-5.0944 0-8.3362 3.0103-3.0103 2.7788-4.3997 9.4941-2.0841 10.42-2.0841 31.724v18.062q0 25.24 1.3894 30.335 1.6209 5.0944 3.2419 8.3362 2.5472 5.5575 9.9572 5.5575 9.0309 0 11.81-10.42 2.0841-7.41 2.0841-33.345zm-14.357 47.933q-28.945 0-43.765-14.82t-14.82-42.376q0-27.788 15.746-42.608 15.978-15.052 44.692-15.052t42.839 13.894q14.125 13.662 14.125 41.913 0 59.048-58.817 59.048z"/>
   <path d="m664.69 243.88v-4.1681h59.743v4.1681h-9.4941l20.841 78.037 20.609-78.037h-15.978v-4.1681h31.261v4.1681h-9.7256l-27.788 106.06h-31.724l-20.146-71.09-21.767 71.09h-31.029l-34.271-106.06h-10.42v-4.1681h70.163v4.1681h-13.894l21.304 78.731 16.673-54.186-5.7891-24.546h-8.5678z"/>
  </g>
  <g transform="matrix(.99729 0 -.33792 1.0027 8 -6)">
   <path d="m231.89 323.46h56.807v169.73h12.984v4.1736h-68.864v-4.1736h12.753v-165.55h-13.68v-4.1736z"/>
   <path d="m367.16 499.68q-29.911 0-44.982-15.303-14.839-15.535-14.839-42.895 0-27.592 16.694-42.2 16.926-14.608 42.895-14.608 52.633 0 50.547 52.865h-65.386v9.0428q0 22.723 5.7966 34.316t20.172 11.593q26.896 0 35.244-28.751l4.1736 0.6956q-4.4054 16.694-15.999 25.969-11.361 9.2746-34.316 9.2746zm-14.839-66.777h23.882v-11.361q0-18.781-2.3186-25.505-2.0868-6.956-8.8109-6.956-6.4922 0-9.7384 7.4197-3.0142 7.1878-3.0142 25.041v11.361z"/>
   <path d="m472.81 449.37q0 24.346 2.5505 32.461 2.5505 7.8834 9.2746 7.8834 6.956 0 11.825-6.0285 5.101-6.0285 5.101-17.854v-50.547q0-9.9702-3.9417-16.926-3.9417-6.956-11.593-6.956-7.6516 0-10.434 10.202t-2.7824 35.707v12.057zm31.766 47.996-2.5505-16.231q-7.8834 18.549-31.997 18.549-19.94 0-31.07-14.376-10.898-14.376-10.898-42.895 0-57.734 45.909-57.734 20.404 0 26.896 11.361v-68.4h-14.144v-4.1736h57.966v169.73h11.361v4.1736h-51.474z"/>
   <path d="m655.03 374.94 6.4922-3.9417q1.3912-7.1878-5.5648-7.1878-9.9702 0-9.9702 15.303 0 6.0285 1.6231 13.912 17.622 11.825 17.622 30.374 0 18.317-12.753 28.519t-34.548 10.202q-9.0428 0-18.781-1.8549-10.202 6.4922-10.202 9.7384 0 3.2461 14.839 3.2461h23.65q52.633 0 52.633 37.794 0 20.404-15.999 32.229-15.767 12.057-49.387 12.057-57.271 0-57.271-24.81 0-13.448 17.854-18.549l13.912 6.2604q-1.8549 6.7241-1.8549 12.753 0 19.94 29.679 19.94 18.086 0 27.824-6.7241 9.7384-6.7241 9.7384-16.694 0-9.9702-6.0285-13.448-5.7966-3.2461-23.418-3.2461h-22.491q-18.781 0-26.896-6.2604-8.1153-6.2604-8.1153-15.303 0-9.2746 5.7966-15.303 5.7966-6.2604 20.636-15.303-26.896-7.6516-26.896-35.244 0-17.39 12.521-28.056t37.562-10.666q15.071 0 25.737 5.7966-1.3912-6.2604-1.3912-11.361 0-12.984 6.956-18.781 6.956-5.7966 15.535-5.7966t13.68 4.6373q5.3329 4.4054 5.3329 12.289 0 7.8834-4.1736 11.825-4.1736 3.7098-10.202 3.7098-5.7966 0-9.7384-3.0142-3.7098-3.2461-3.9417-9.0428zm-49.155 43.359v12.521q0 15.535 2.5505 21.1 2.7824 5.5648 8.1153 5.5648 5.5648 0 7.8834-5.3329 2.5505-5.5648 2.5505-22.491v-11.361q0-18.086-2.3187-23.65-2.3186-5.7966-7.8834-5.7966-5.3329 0-8.1153 6.0285-2.7824 5.7966-2.7824 23.418z"/>
   <path d="m737.15 499.68q-29.911 0-44.982-15.303-14.839-15.535-14.839-42.895 0-27.592 16.694-42.2 16.926-14.608 42.895-14.608 52.633 0 50.547 52.865h-65.386v9.0428q0 22.723 5.7966 34.316t20.172 11.593q26.896 0 35.244-28.751l4.1736 0.6956q-4.4054 16.694-15.999 25.969-11.361 9.2746-34.316 9.2746zm-14.839-66.777h23.882v-11.361q0-18.781-2.3186-25.505-2.0868-6.956-8.8109-6.956-6.4922 0-9.7384 7.4197-3.0142 7.1878-3.0142 25.041v11.361z"/>
  </g>
  <g class="c3" transform="matrix(.99729 0 -.33792 1.0027 0 0)">
   <path d="m231.89 323.46h56.807v169.73h12.984v4.1736h-68.864v-4.1736h12.753v-165.55h-13.68v-4.1736z"/>
   <path d="m367.16 499.68q-29.911 0-44.982-15.303-14.839-15.535-14.839-42.895 0-27.592 16.694-42.2 16.926-14.608 42.895-14.608 52.633 0 50.547 52.865h-65.386v9.0428q0 22.723 5.7966 34.316t20.172 11.593q26.896 0 35.244-28.751l4.1736 0.6956q-4.4054 16.694-15.999 25.969-11.361 9.2746-34.316 9.2746zm-14.839-66.777h23.882v-11.361q0-18.781-2.3186-25.505-2.0868-6.956-8.8109-6.956-6.4922 0-9.7384 7.4197-3.0142 7.1878-3.0142 25.041v11.361z"/>
   <path d="m472.81 449.37q0 24.346 2.5505 32.461 2.5505 7.8834 9.2746 7.8834 6.956 0 11.825-6.0285 5.101-6.0285 5.101-17.854v-50.547q0-9.9702-3.9417-16.926-3.9417-6.956-11.593-6.956-7.6516 0-10.434 10.202t-2.7824 35.707v12.057zm31.766 47.996-2.5505-16.231q-7.8834 18.549-31.997 18.549-19.94 0-31.07-14.376-10.898-14.376-10.898-42.895 0-57.734 45.909-57.734 20.404 0 26.896 11.361v-68.4h-14.144v-4.1736h57.966v169.73h11.361v4.1736h-51.474z"/>
   <path d="m655.03 374.94 6.4922-3.9417q1.3912-7.1878-5.5648-7.1878-9.9702 0-9.9702 15.303 0 6.0285 1.6231 13.912 17.622 11.825 17.622 30.374 0 18.317-12.753 28.519t-34.548 10.202q-9.0428 0-18.781-1.8549-10.202 6.4922-10.202 9.7384 0 3.2461 14.839 3.2461h23.65q52.633 0 52.633 37.794 0 20.404-15.999 32.229-15.767 12.057-49.387 12.057-57.271 0-57.271-24.81 0-13.448 17.854-18.549l13.912 6.2604q-1.8549 6.7241-1.8549 12.753 0 19.94 29.679 19.94 18.086 0 27.824-6.7241 9.7384-6.7241 9.7384-16.694 0-9.9702-6.0285-13.448-5.7966-3.2461-23.418-3.2461h-22.491q-18.781 0-26.896-6.2604-8.1153-6.2604-8.1153-15.303 0-9.2746 5.7966-15.303 5.7966-6.2604 20.636-15.303-26.896-7.6516-26.896-35.244 0-17.39 12.521-28.056t37.562-10.666q15.071 0 25.737 5.7966-1.3912-6.2604-1.3912-11.361 0-12.984 6.956-18.781 6.956-5.7966 15.535-5.7966t13.68 4.6373q5.3329 4.4054 5.3329 12.289 0 7.8834-4.1736 11.825-4.1736 3.7098-10.202 3.7098-5.7966 0-9.7384-3.0142-3.7098-3.2461-3.9417-9.0428zm-49.155 43.359v12.521q0 15.535 2.5505 21.1 2.7824 5.5648 8.1153 5.5648 5.5648 0 7.8834-5.3329 2.5505-5.5648 2.5505-22.491v-11.361q0-18.086-2.3187-23.65-2.3186-5.7966-7.8834-5.7966-5.3329 0-8.1153 6.0285-2.7824 5.7966-2.7824 23.418z"/>
   <path d="m737.15 499.68q-29.911 0-44.982-15.303-14.839-15.535-14.839-42.895 0-27.592 16.694-42.2 16.926-14.608 42.895-14.608 52.633 0 50.547 52.865h-65.386v9.0428q0 22.723 5.7966 34.316t20.172 11.593q26.896 0 35.244-28.751l4.1736 0.6956q-4.4054 16.694-15.999 25.969-11.361 9.2746-34.316 9.2746zm-14.839-66.777h23.882v-11.361q0-18.781-2.3186-25.505-2.0868-6.956-8.8109-6.956-6.4922 0-9.7384 7.4197-3.0142 7.1878-3.0142 25.041v11.361z"/>
  </g>
  <g class="c4" transform="matrix(1 0 -.36516 1 0 0)">
   <path d="m326.13 511.83h29.79v1.8558h-5.372v64.659h5.372v1.8558h-29.79v-1.8558h5.372v-64.659h-5.372v-1.8558z"/>
   <path d="m404.28 534.49q-4.2976 0-6.1533 4.6882-1.8558 4.6883-1.8558 15.53v5.0789q0 9.6695 2.1488 13.869 2.1488 4.1999 7.9114 4.1999t9.1812-3.9069q3.4185-3.9069 4.3952-8.8882l1.7581 0.19534q-1.8558 8.3998-6.837 12.111-5.0789 3.8092-13.967 3.8092-11.33 0-17.386-6.0557-6.0557-6.1533-6.0557-17.874 0-11.818 6.837-18.167 6.9347-6.3487 19.241-6.3487 8.6928 0 13.283 3.4185 4.5906 3.3208 4.5906 8.3998 0 5.0789-2.2464 7.4231-2.1488 2.3441-6.0557 2.3441-3.8092 0-6.1533-2.0511t-2.3441-6.0557q0-1.7581 0.48836-3.5162h3.2232q0.6837-1.9534 0.6837-3.5162 0-4.6882-4.6882-4.6882z"/>
   <path d="m447.49 557.24h2.8325v-7.5208q0-9.2788-1.0744-12.404-0.97672-3.2232-3.9069-3.2232-1.7581 0-3.2232 0.97672-1.3674 0.87905-1.3674 2.5395 0 1.5628 0.58603 3.2232h2.4418q0.78138 2.0511 0.78138 4.9813 0 2.8325-2.4418 4.9813-2.4418 2.0511-6.1533 2.0511-8.3998 0-8.3998-8.1068 0-12.014 20.413-12.014 11.623 0 16.018 4.0046 4.4929 3.9069 4.4929 14.455v19.827q0 5.0789 2.8325 5.0789 3.3208 0 3.9069-10.06l1.4651 0.0977q-0.39069 8.5951-3.2232 11.818-2.8325 3.2232-9.2788 3.2232-11.721 0-13.479-7.2277-1.2697 3.7115-3.8092 5.4696t-7.4231 1.7581q-14.455 0-14.455-11.818 0-6.9347 5.4696-9.4742 5.5673-2.6371 16.995-2.6371zm-3.9069 12.014q0 5.0789 0.48836 6.544 0.58603 1.4651 2.0511 1.4651 1.5628 0 2.8325-2.4418 1.3674-2.5395 1.3674-6.9347v-9.0835h-0.6837q-6.0557 0-6.0557 8.8882v1.5628z"/>
   <path d="m477.85 533.7h23.539v8.9858q1.5628-4.4929 4.7859-7.2277 3.2232-2.7348 9.7672-2.7348 15.139 0 15.139 16.311v29.399h5.4696v1.7581h-27.641v-1.7581h4.0046v-31.743q0-5.8603-0.78138-7.5207-0.78137-1.7581-2.8325-1.7581-3.1255 0-5.5673 4.1022-2.3441 4.1022-2.3441 9.9625v26.957h4.1999v1.7581h-27.739v-1.7581h5.372v-42.976h-5.372v-1.7581z"/>
  </g>
  <g class="c4" transform="matrix(1 0 -.31896 1 0 0)">
   <path d="m307.75 630.12q0-9.9185-0.96296-13.289-0.96295-3.4666-3.7555-3.4666t-5.0074 3.6592q-2.2148 3.563-2.2148 9.6296v17.622q0 4.1407 1.637 7.0296t4.8148 2.8889 4.3333-4.237q1.1556-4.237 1.1556-14.83v-5.0074zm-12.133-19.933v7.6074q3.7555-8.5703 13.289-8.5703 8.2814 0 12.807 5.9703 4.6222 5.9703 4.6222 18.104 0 12.133-5.0074 17.911-4.9111 5.7778-14.83 5.7778-4.6222 0-6.9333-1.1556t-3.7555-3.5629v24.941h12.422v1.7333h-35.629v-1.7333h5.2963v-65.289h-5.1037v-1.7333h22.822z"/>
   <path d="m361.37 612.88q-3.563 0-6.2592 4.6222-2.6963 4.6222-2.6963 10.978v25.807h6.837v1.7333h-30.044v-1.7333h5.2963v-42.37h-5.2963v-1.7333h23.207v9.2444q1.2518-4.9111 4.8148-7.5111 3.563-2.6963 8.0888-2.6963 4.5259 0 7.3185 2.6 2.8889 2.5037 2.8889 7.2222 0 4.6222-2.1185 7.1259t-6.5481 2.5037q-4.3333 0-6.4518-2.8889-2.0222-2.8889-0.48148-7.9926h3.4666q2.4074-4.9111-2.0222-4.9111z"/>
   <path d="m407.33 637.05v-8.1852q0-9.3407-1.0592-13.578-0.96296-4.3333-4.6222-4.3333-2.1185 0-3.4666 1.2518-1.2518 1.1556-1.8296 3.9481-0.86667 4.3333-0.86667 13.193v7.5111q0 10.496 0.57778 12.615 0.67407 2.1185 1.3481 3.4666 1.0592 2.3111 4.1407 2.3111 3.7555 0 4.9111-4.3333 0.86666-3.0815 0.86666-13.867zm-5.9703 19.933q-12.037 0-18.2-6.1629-6.1629-6.1629-6.1629-17.622 0-11.556 6.5481-17.718 6.6444-6.2592 18.585-6.2592t17.815 5.7778q5.874 5.6814 5.874 17.43 0 24.555-24.459 24.555z"/>
   <path d="m425.11 611.92v-1.7333h28.792v1.7333h-6.0666l11.556 31.97 10.4-31.97h-6.4518v-1.7333h13v1.7333h-4.237l-14.252 44.104h-10.978l-17.815-44.104h-3.9481z"/>
   <path d="m491.38 603.54q-5.1037 0-7.3185-2.6-2.1185-2.6-2.1185-6.4518t2.3111-6.3555q2.4074-2.5037 7.2222-2.5037t7.3185 2.3111q2.5037 2.2148 2.5037 6.4518 0 4.1407-2.4074 6.6444t-7.5111 2.5037zm-14.541 6.6444h23.592v44.103h5.3926v1.7333h-28.6v-1.7333h5.2963v-42.37h-5.6814v-1.7333z"/>
   <path d="m527.24 636.09q0 10.111 1.0592 13.481 1.0592 3.274 3.8518 3.274 2.8889 0 4.9111-2.5037 2.1185-2.5037 2.1185-7.4148v-20.992q0-4.1407-1.637-7.0296t-4.8148-2.8889-4.3333 4.237q-1.1556 4.237-1.1556 14.83v5.0074zm13.193 19.933-1.0593-6.7407q-3.2741 7.7037-13.289 7.7037-8.2814 0-12.904-5.9703-4.5259-5.9703-4.5259-17.815 0-23.978 19.067-23.978 8.474 0 11.17 4.7185v-28.407h-5.874v-1.7333h24.074v70.489h4.7185v1.7333h-21.378z"/>
   <path d="m589.63 656.99q-12.422 0-18.681-6.3555-6.1629-6.4518-6.1629-17.815 0-11.459 6.9333-17.526 7.0296-6.0666 17.815-6.0666 21.859 0 20.992 21.955h-27.155v3.7555q0 9.437 2.4074 14.252 2.4074 4.8148 8.3777 4.8148 11.17 0 14.637-11.941l1.7333 0.28889q-1.8296 6.9333-6.6444 10.785-4.7185 3.8518-14.252 3.8518zm-6.1629-27.733h9.9185v-4.7185q0-7.8-0.96296-10.593-0.86666-2.8889-3.6592-2.8889-2.6963 0-4.0444 3.0815-1.2518 2.9852-1.2518 10.4v4.7185z"/>
   <path d="m630.78 611.92v-1.7333h27.926v1.7333h-5.2l10.496 31.97 11.17-31.97h-6.4518v-1.7333h13.578v1.7333h-4.8148l-18.007 51.903q-3.1778 9.0518-7.1259 12.615-3.9481 3.6592-9.6296 3.6592-5.6814 0-8.9555-2.6t-3.2741-6.6444 2.1185-6.1629 5.5852-2.1185q7.9926 0 7.9926 6.6444 0 1.4444-0.57777 3.4666h-3.3704q-0.77036 2.2148-0.19259 3.6592 0.57778 1.4444 2.6 1.4444 3.9481 0 7.0296-3.9481 3.0815-3.8518 5.874-11.844l2.1185-5.9703h-8.474l-16.467-44.104h-3.9481z"/>
   <path d="m711.08 637.05v-8.1852q0-9.3407-1.0592-13.578-0.96296-4.3333-4.6222-4.3333-2.1185 0-3.4666 1.2518-1.2518 1.1556-1.8296 3.9481-0.86667 4.3333-0.86667 13.193v7.5111q0 10.496 0.57778 12.615 0.67407 2.1185 1.3481 3.4666 1.0593 2.3111 4.1407 2.3111 3.7555 0 4.9111-4.3333 0.86666-3.0815 0.86666-13.867zm-5.9703 19.933q-12.037 0-18.2-6.1629-6.1629-6.1629-6.1629-17.622 0-11.556 6.5481-17.718 6.6444-6.2592 18.585-6.2592t17.815 5.7778q5.874 5.6814 5.874 17.43 0 24.555-24.459 24.555z"/>
   <path d="m788.59 656.02h-21.955l-1.0593-7.0296q-1.5407 3.8518-4.6222 5.9703-2.9852 2.0222-8.9555 2.0222-14.926 0-14.926-16.081v-28.985h-5.3926v-1.7333h23.304v33.029q0 5.7778 0.77037 7.6074 0.86666 1.8296 3.274 1.8296 2.5037 0 4.4296-2.9852t1.9259-8.2814v-29.467h-4.4296v-1.7333h22.341v44.103h5.2963v1.7333z"/>
  </g>
 </g>
</svg>
