<svg xmlns:rdf="http://www.w3.org/1999/02/22-rdf-syntax-ns#" xmlns="http://www.w3.org/2000/svg" height="96.64mm" width="61.39mm" version="1.1" xmlns:cc="http://creativecommons.org/ns#" xmlns:dc="http://purl.org/dc/elements/1.1/" viewBox="0 0 217.51643 342.44047">
 <path d="m164.6 300.2c-9.512-4.036-28.63-6.31-34.56-12.24 7.342-20.69 12.68-52.74 12.68-60.08 0-7.344-8.01-42.72-8.01-56.74s6.008-12.01 23.94-35.38c0 0 12.77 12.68 8.1 32.14-4.674 19.46 0.6675 42.62 5.34 57.31s6.008 32.71 6.008 51.32c0 17.61-6.572 17.51-13.5 23.67m-64.6-34.94c1.208 4.662 1.784 8.556 1.984 11.99-4.334-5.168-10.02-10.14-12-20-3.338-16.69-3.338-31.37-3.338-56.74 7.342 17.36 18.69 19.36 18.69 29.37s-10.01 17.36-5.341 35.38m-41.39 48.73c-15.35-6.008-12.85-19.52-8.01-24.36 4.839-4.84 4.004-24.36 4.004-24.36s10.02 9.346 10.02 19.36-6.009 14.69-6.009 29.37m154.9-114.7c-4.675-41.39 4.006-67.42 4.006-103.5 0-36.05-21.46-34.04-21.46-34.04s2.484-3.431 5.469-12.02c4.212-12.11-8.266-14.76-14.72-14.76 0 0 7.342-21.96-26.7-31.97s-57.41 8.01-57.41 18.69c-13.35 0-17.36 12.02-17.36 27.37-5.34 0-24.43-4.404-36.71 7.88s-36.72 61.54-42.05 84.91c-5.341 23.36 4.673 68.76 8.678 81.44s-5.339 22.03-5.339 34.04-2.672 24.7 3.336 41.25c6.009 16.55-4.005 8.814-10.01 14.82-6.009 6.009-3.336 14.02 5.34 14.02 8.679 0 19.36-6.87 19.36-6.87s3.338-2.475 8.679 2.866c5.339 5.34 19.36-2.866 19.36-2.866s2.671 4.869-2.002 9.542c-4.674 4.672 1.335 12.42 9.345 12.42h18.02c10.01 0 15.35-3.08 15.35-9.756s-10.68-2.002-7.342-12.21c1.794-5.49 6.861-10.04 11.17-15.15 2.614 9.13 15.95 11.07 25.54 8.668 10.68-2.67 12.68 6.48 23.36 6.48 5.08 0 9.996-1.63 13.77-4.188 1.341 1.305 2.86 2.794 4.254 4.188 3.571 3.572 0.3325 6.538 5.339 11.54 5.008 5.006 23.36 6.006 29.37 0 6.008-6.008 0.001-15.35-4.005-37.38s20.03-54.07 15.35-95.46" />
</svg>
