<svg xmlns:rdf="http://www.w3.org/1999/02/22-rdf-syntax-ns#" xmlns="http://www.w3.org/2000/svg" height="92.91mm" width="119.6mm" version="1.1" xmlns:cc="http://creativecommons.org/ns#" xmlns:dc="http://purl.org/dc/elements/1.1/" viewBox="0 0 423.61916 329.21102">
 <path d="m228.9 173.6c0 11.36-6.439 64.76-6.439 73.85s-10.61 12.12-20.08 14.39c-9.466 2.272-20.07 10.23-26.51 7.575-6.438-2.651-9.089-13.26-3.788-13.26 5.302 0 15.15 2.271 15.15-3.03s-29.92-9.468-26.51-40.52c3.408-31.06 9.468-46.21 16.66-56.81 7.196-10.6 9.089-20.07 0-24.62-9.089-4.544-10.23-6.818-10.23-10.22 0-5.769 73.67 7.765 78.4 12.5 4.734 4.734-16.66 28.78-16.66 40.15m194.3 106.8c-4.545-4.544-4.168-18.56-10.6-35.98-6.438-17.42-42.8-46.58-42.8-50.75 0-4.166 9.469-18.18 15.91-41.28 6.439-23.1 7.954-40.52 6.06-63.25-1.894-22.72-1.705-30.49-21.21-50-19.5-19.5-83.32-9.848-109.1-13.26-25.76-3.409-69.31-21.97-93.55-25.38-24.24-3.408-50.75 10.98-62.49 10.98-10.61 0-21.59-2.651-34.47-2.651s-31.06 19.69-32.95 25.75c-1.894 6.058 0.7562 10.98-3.41 15.15-4.166 4.166-3.975 10.42-1.515 12.88s8.901 0.945 11.74 3.786c2.842 2.841 1.515 13.64 1.515 22.35 0 8.712 3.22 13.07 5.301 15.15 2.082 2.084 4.925 6.818 4.925 6.818s4.922 1.136 18.56-1.136 27.65-3.788 34.47-19.69c0 12.88-4.925 49.24-4.925 49.24s-3.788 7.955-10.23 18.18c-6.439 10.22-30.87 39.2-42.04 50.37s-32.95 49.62-34.84 59.84c-1.895 10.22-19.32 18.18-17.42 31.44 1.894 13.26 18.56 15.91 20.07 15.91 1.516 0 14.46-1.82 18.32-5.68s3.832-8.901 2.129-7.196c-1.705 1.704-3.786-3.409 0-7.196 3.785-3.788 4.925-15.53 4.925-22.35 0-6.819 23.86-31.81 29.16-40.53 5.302-8.712 55.68-42.8 55.68-42.8s2.272 4.165 2.272 12.5c0 8.334 1.892 29.16 4.924 36.36 3.029 7.196 6.439 21.97 9.469 25s0.3775 11.36-2.274 17.8c-2.651 6.439 7.576 15.91 10.98 19.32 3.408 3.408 14.2-0.1888 17.04-3.03 2.841-2.841-8.332-7.195-8.332-7.195s-0.7562-7.575 3.031-7.575c3.786 0 7.575-0.7575 7.575 3.03 0 3.786 6.439 0 15.9 0 9.469 0 63.63 0.3788 67.8-3.788 4.166-4.166 4.166-20.08 4.166-31.82s9.846-27.27 9.846-43.93-2.461-23.67 3.789-29.92 43.56-17.42 43.56-17.42 1.515 10.23 1.515 23.48c0 13.26 1.138 19.7 11.36 26.89 10.23 7.196 8.711 33.33 22.72 47.34s23.1 19.7 23.1 25c0 5.302-4.921 7.196-14.39 13.64-9.47 6.438-26.89 7.952-34.47 11.74-7.574 3.786 1.139 9.089 3.789 6.438 2.65-2.65 26.89-1.894 26.89-1.894s-7.006 6.629-10.98 10.6c-3.975 3.976 6.818 9.469 9.47 6.818 2.651-2.651 11.36-4.924 23.1-9.848 11.74-4.925 45.45-33.71 40.9-38.25" />
</svg>
