<svg xmlns:rdf="http://www.w3.org/1999/02/22-rdf-syntax-ns#" xmlns="http://www.w3.org/2000/svg" height="23.5mm" width="61.33mm" version="1.1" viewBox="0 0 217.31373 83.275245">
 <path d="m22.49 65.22c-0.3462-0.1825-0.7062-0.3562-1.045-0.5438 1.788 0.5875 3.462 0.9688 4.859 1.189 0.0288 0.0125 0.07 0.0237 0.1 0.0362-1.375-0.1662-2.679-0.395-3.914-0.6812m6.325 0.855c-0.7388-0.2662-1.709-0.5738-2.836-0.9425 3.65 0.6325 6.944-0.0562 9.541-1.228 1.104-0.3225 2.165-0.8112 3.09-1.51 0.11-0.07 0.2225-0.1312 0.3325-0.2075 1.309-0.71 1.946-1.835 2.108-3.051 0.1438-0.3788 0.2638-0.7812 0.3562-1.211 0.9562-4.875-0.7988-10.37-3.841-12.96 2.09 1.741 4.636 7.346 3.434 12.49-0.13-0.6612-0.3738-1.301-0.7062-1.879-0.3338-3.634-2.89-8.552-6.045-9.74l-0.7612-0.5588 1.322 1.04c2.192 0.6125 3.841 5.005 4.698 8.199-0.2688-0.2862-0.5588-0.53-0.8688-0.725 0.8375-2.7-2.969-6.296-4.949-7.444l-0.5538-0.3712 0.9438 0.7025c1.616 0.7988 4.315 5.274 4.439 7.051-0.12-0.0712-0.2388-0.1438-0.3612-0.1975-0.1125-0.0838-0.2175-0.1688-0.3275-0.2538 0.22-2.442-2.768-5.458-4.286-6.878l-0.4225-0.4375 0.705 0.8088c1.201 0.93 3.006 4.448 3.645 6.23-0.3238-0.2562-0.6412-0.5125-0.9488-0.7712-0.0512-1.859-2.125-4.072-3.386-4.9l-0.0125-0.01c-0.003-0.015-0.008-0.0263-0.01-0.0412-0.1812-1.641 0.2462-2.845 0.96-3.67l0.5612 0.0688c-0.1838-0.0312-0.3662-0.0538-0.555-0.0738 1.104-1.271 2.896-1.625 4.312-1.171 0.7125 0.2288 1.318 0.6562 1.696 1.269-0.2838-0.8388-0.9688-1.386-1.824-1.658-0.315-1.071 0.0512-2.146 0.8638-3.056 1.458 0.41 2.666 2.941 3.348 4.449l0.1638 0.37-0.2362-0.6788c0.07-1.02-2.002-5-3.225-4.201 0.6125-0.6662 1.461-1.235 2.444-1.648 1.658 0.6588 2.702 3.508 3.018 5.39l0.095 0.45-0.115-0.8062c0.3975-1.138-1.219-5.044-2.6-5.192 0.5462-0.2 1.13-0.3488 1.731-0.44 1.001 1.28 1.418 3.65 1.325 5.312l0.008 0.4425 0.0387-0.7838c0.5138-0.85 0.045-3.862-0.8762-5.035 0.2738-0.0238 0.5475-0.0338 0.8225-0.0338 0.1988 1.394 1.052 3.338 1.019 4.788l0.0412 0.3662-0.0225-0.6488c0.2425-0.7912-0.1038-3.499-0.6925-4.51 0.2412 0.01 0.4812 0.0375 0.7225 0.0663 0.2562 1.34 0.6662 3.352 0.6762 4.731l0.0175 0.3612 0.0263-0.6412c0.2075-0.7012 0.22-3.265-0.2788-4.378 0.1662 0.0312 0.3375 0.06 0.5038 0.1025-0.1175 1.306 0.5075 3.254 0.43 4.58l0.0137 0.3362 0.03-0.5975c0.1138-0.3888 0.175-1.378 0.1388-2.344 0.2075 1.128 0.4225 2.324 0.2 3.269l-0.0263 0.395 0.095-0.6838c0.4362-0.7925 0.3438-3.461-0.1075-4.66 0.2338 0.1175 0.4438 0.2662 0.64 0.435-0.008 1.342 0.5412 3.182 0.1112 4.565l-0.0437 0.3462 0.13-0.5925c0.1175-0.1562 0.2075-0.44 0.2762-0.77 0.06 0.7262 0.095 1.441-0.0275 2.031l-0.0237 0.3638 0.0975-0.6338c0.385-0.74 0.5338-3.621 0.1-4.61 0.1588 0.24 0.295 0.4962 0.4075 0.7712-0.1688 0.4788-0.0612 1.086 0.09 1.698-0.002 0.7662 0.0325 1.545 0.0275 2.231-0.0738 0.2388-0.1375 0.4788-0.24 0.705-0.3362 2.046-2.949 5.261-1.542 7.955l-0.2275 1.299c-0.4488 1.816-2.024 6.179-4.99 9.114-1.02 1.174-2.198 1.916-3.325 2.421 0.9075-0.5788 1.785-1.235 2.569-2.065 4.142-5.584 1.965-12.89-0.545-16.54l-0.9612-1.47c-0.0712-0.24-0.1638-0.4612-0.2888-0.6625 0.0312 0.0962 0.0387 0.21 0.0612 0.3112l-0.0812-0.1225 0.0812 0.1312c0.0263 0.13 0.0662 0.25 0.075 0.3888l0.2688 0.4662c-0.0163-0.1712-0.065-0.325-0.11-0.4812l1.87 2.979c1.3 2.488 3.536 11.11-2.236 15.69-3.832 2.822-8.234 3.179-11.07 3.056l-0.1325-0.0438zm6.931 0.0462c0.0888-0.0287 0.1762-0.0612 0.2662-0.09 0.3538 0.0312 0.7138 0.0187 1.07-0.02-0.02 0.005-0.04 0.007-0.0563 0.0125-0.4275 0.0312-0.8575 0.07-1.28 0.0975m2-0.2275c5.322-1.161 10.22-9.316 10.12-14.06l0.0213-0.175c0.2962 0.5338 0.735 1.054 1.404 1.535 4.94 0.6762 5.091-5.471 4.105-7.979-1.372-2.915-1.869-5.774 0.2188-7.708 0.5325-0.6862 1.14-1.11 1.772-1.366-0.0338 1.474 0.0462 2.939 0.3038 4.379 1.046 3.384-0.2038 12.38-5.204 18.41-2.949 3.422-6.681 5.222-9.655 6.176-0.215 0.015-0.555 0.0512-0.7062 0.215-0.9 0.2588-1.704 0.445-2.378 0.5712m4.608-0.5388c3.656-1.252 7.48-3.78 10.02-7.589 3.782-6.411 4.595-14.12 3.086-19.3l-0.0712-2.329c2.912-1.18 6.388 1.674 5.952 3.62l-0.003-0.1175-0.002 0.1225c-0.0562 0.2438-0.1925 0.4612-0.3812 0.6638 0.1562-0.1362 0.2788-0.2775 0.3762-0.43l-0.0312 1.588c0.2588 2.761-1.639 12.03-3.54 13.8 0.1975-0.1275 0.38-0.2738 0.5588-0.4325-0.535 0.5475-1.058 1.106-1.626 1.619-0.1288 0.135-0.2638 0.2638-0.3925 0.3938 2.368-3.919 3.295-11.09 4.099-15.12l0.235-1.12c0.1312-0.0937 0.2262-0.1962 0.3212-0.2988-0.1388 0.12-0.275 0.245-0.4662 0.3475l-0.48 0.2675c0.2462-0.0875 0.4438-0.1975 0.6225-0.315l-0.4712 2.018c-0.345 2.974-3.348 12.18-4.628 15-0.1538 0.1512-0.31 0.285-0.4688 0.4275 3.158-5.215 3.306-14.35 4.129-18.91l0.405-1.726-0.7588 3.054c-0.4912 2.328-0.9012 7.994-2.308 13.04-0.93 4.702-4.45 7.021-6 7.961 1.811-1.672 3.441-3.806 4.555-6.216 2.385-5.644 2.7-11.91 2.749-16.31l0.0175-2.209-0.0875 3.924c-0.1988 2.905-0.6525 10.16-3.926 15.89-1.982 3.516-4.885 5.806-7.188 7.108-1.224 0.5688-2.354 1.004-3.332 1.324-0.01 0-0.0312 0.009-0.0412 0.009 0.01 0 0.0187-0.005 0.0287-0.005-0.185 0.0612-0.3662 0.1175-0.5362 0.1712-0.14 0.025-0.2788 0.0538-0.4175 0.0762m6.548-1.724c0.0613-0.035 0.1262-0.0712 0.1875-0.105 0.4475-0.0838 0.8962-0.1975 1.35-0.335 0.0688-0.01 0.1325-0.003 0.2-0.0125-0.38 0.1475-1.059 0.2862-1.738 0.4525m1.596-0.2612c0.1688-0.095 0.325-0.1888 0.4612-0.2688 0.965-0.21 1.978-0.6562 2.904-1.181 0.42-0.1612 0.8488-0.345 1.289-0.55l-0.3025 0.1788c-1.255 0.6275-2.545 1.211-3.9 1.701-0.1488 0.0387-0.3 0.0812-0.4512 0.12m4.631-1.965 0.1325-0.0863c0.1662-0.075 0.3338-0.1562 0.505-0.2388-0.2125 0.11-0.425 0.2175-0.6375 0.325m14.23-17.25-1.006 2.498c-0.1725 3.476-6.115 9.089-10.35 12.26 6.491-5.264 12.19-13.8 12.93-20.38l0.5175-2.389-0.9712 4.226c-0.9262 3.13-4.221 10.37-9.571 15.39-3.281 3.474-7.244 5.476-9.982 6.648 0.74-0.4925 1.475-1.03 2.198-1.604 0.1175-0.0438 0.2412-0.0925 0.3788-0.1612-0.1012 0.0387-0.2062 0.0738-0.3088 0.1075 1.926-1.536 3.79-3.338 5.53-5.295-0.0362 0.08-0.095 0.17-0.0925 0.2288 1.568-0.8 4.06-3.396 4.902-5.208l0.2538-0.415-0.4975 0.7112c-0.3762 0.79-2.202 2.229-3.455 3.392 2.754-3.31 5.149-6.98 6.941-10.53 0.6438-0.865 1.238-2.192 1.574-3.47 0.5575-1.391 0.9988-2.734 1.311-4.004l0.0838-0.1638c0.1588-0.1688 0.3712-0.5275 0.5875-0.9638 0.245-0.3662 0.46-0.735 0.5062-1.021 0.4262-0.6512 0.805-1.404 1.179-1.88l0.1438-0.21-0.3 0.3375c-0.0762 0.0712-0.195 0.1788-0.3275 0.3025 0.0863-0.185 0.1638-0.3638 0.24-0.535 0.1975-0.2538 0.3438-0.495 0.415-0.7075l-0.0125 0.3388c-0.005 0.0837-0.01 0.1812-0.015 0.2638-0.2562 4.136-0.07 10.31-3.166 16.49-0.7938 1.516-1.795 3.002-2.969 4.429 0.3512-0.4612 0.6688-0.9275 0.96-1.396-0.9188 1.34-2.361 2.754-4.026 4.114 2.93-3.07 5.3-6.834 5.861-9.994l0.5375-1.418zm1.26-11.29c-0.0125 0.045-0.025 0.0937-0.0362 0.14-0.015-0.025-0.025-0.0438-0.0375-0.0663l0.0738-0.0738zm-0.3538 0.7212c-0.008 0.0163-0.02 0.0337-0.0275 0.0525-0.1262 0.1662-0.2562 0.345-0.385 0.5375-0.01-0.0613-0.0225-0.1025-0.0325-0.1638 0.0412-0.19 0.0838-0.3825 0.12-0.5538l0.005-0.0275c0.1-0.075 0.2025-0.1538 0.2975-0.2288-0.0512 0.1438-0.0588 0.2825 0.0225 0.3838m-0.3588-0.1225-0.1075 0.3388c0 0.01-0.01 0.0275-0.0125 0.0375-0.015-0.0812-0.0325-0.1712-0.0488-0.2425 0.0612-0.0438 0.1125-0.09 0.1688-0.1338m-0.7162 3.151c0.0175-0.065 0.0375-0.1312 0.0562-0.2 0.0538-0.0875 0.1075-0.1775 0.1762-0.2825 0.01 0.009 0.01 0.0187 0.0187 0.0288 0.01-0.008 0.01-0.0175 0.0175-0.0225-0.095 0.21-0.195 0.4225-0.285 0.6375 0.006-0.0537 0.0138-0.105 0.0163-0.1612m0.5012-2.978-0.002 0.0462c0.0262 0.2338-0.1075 0.6588-0.23 1.096-0.0388 0.095-0.0725 0.1825-0.115 0.285-0.06 0.125-0.1138 0.2438-0.1638 0.3612-0.0437-0.4225-0.1-0.8225-0.1512-1.12l-0.0187-0.22c0.2362-0.1462 0.4662-0.2975 0.6812-0.4488m-0.6838 0.4512-0.015 0.41c0.0412 0.4488-0.2412 1.47-0.3562 2.288-0.0788 0.1875-0.1488 0.3662-0.2225 0.55-0.0237-0.8188-0.095-1.639-0.0975-2.246l-0.005-0.3325-0.0462 0.5938c-0.0488 0.605-0.4075 2.402-0.4325 3.584-0.0675 0.2262-0.1162 0.4325-0.1438 0.6025-0.1 0.21-0.19 0.4175-0.2762 0.6225 0.045-0.3225 0.0912-0.6325 0.14-0.8938l0.065-0.3388-0.165 0.5912c-0.0225 0.0825-0.0638 0.2-0.105 0.315 0.2-1.458 0.0213-3.211-0.0588-4.3l-0.0225-0.4275-0.0125 0.76c0.0913 1.215-0.8562 5.264-0.5975 5.871 0.0237-0.0288 0.0362-0.0688 0.0612-0.0975-0.2812 0.83-0.5225 1.665-0.5075 2.16-0.4688 0.9138-0.9988 1.864-1.578 2.828 0.7962-3.03 0.395-7.19 0.2388-9.606l-0.0462-0.87 0.0275 1.541c0.3412 2.045-0.5275 8.022-1.255 10.6-0.6575 1.016-1.358 2.034-2.126 3.038 1.628-3.748 1.94-9.869 1.628-13.41l-0.0163-1.071-0.025 1.904c0.4812 2.628-1.406 10.54-2.319 13.48-0.6275 0.7788-1.285 1.542-1.978 2.285 2.726-3.155 2.546-10.28 2.592-13.78l-0.008-0.7538c0.4025-0.63 0.3562-1.372-0.0437-2.09 0.17-1.334 2.71-1.824 5.31-2.659 0.8738-0.2925 1.675-0.6962 2.395-1.142m-21.56 2.946c-0.015-0.0438-0.03-0.0825-0.0438-0.1188 0.0138 0.004 0.0288 0.0112 0.0438 0.0162 0 0.035-0.003 0.0638 0 0.1025m-14.31 10.33 0.2338 0.2362c0.9175 0.54 1.89 2.522 2.461 4.006-0.12-0.1062-0.2375-0.2138-0.35-0.3238 0.0788-0.9088-0.8462-2.049-1.501-2.381l-0.1588-0.1612 0.24 0.3225c0.3788 0.2838 0.5812 0.9238 0.7488 1.529-0.8638-0.9788-1.486-2.029-1.674-3.228m-5.212 16.84c-0.955-0.0725-1.934-0.205-2.95-0.4488-3.132-0.5412-5.864-1.58-8.195-2.751-0.3325-0.2688-0.6962-0.5562-1.096-0.8738 1.616 0.8 3.461 1.528 5.382 2.226 1.982 0.62 4.344 1.419 6.859 1.848m127.7 10.64c-0.2338-0.1812-0.4688-0.3612-0.6975-0.55 0.5538 0.21 1.091 0.3812 1.572 0.4962 2.702 1.15 5.275 1.778 7.292 2.092 0.0337 0.0138 0.07 0.0238 0.1025 0.0362-3.15-0.3762-5.965-1.076-8.27-2.075m10.68 2.249c-0.74-0.2662-1.709-0.5712-2.836-0.9425 3.65 0.6325 6.942-0.0562 9.541-1.226 1.102-0.325 2.165-0.81 3.09-1.509 0.11-0.0725 0.2225-0.1312 0.3325-0.2075 1.309-0.7125 1.945-1.838 2.109-3.054 0.14-0.3762 0.2612-0.7788 0.3525-1.211 0.9588-4.872-0.7962-10.37-3.839-12.96 2.09 1.748 4.636 7.351 3.432 12.49-0.1288-0.6638-0.3725-1.304-0.7075-1.882-0.3325-3.63-2.889-8.55-6.042-9.734l-0.7612-0.5612 1.322 1.04c2.192 0.61 3.84 5.002 4.695 8.196-0.2688-0.2812-0.5562-0.53-0.8662-0.7225 0.8375-2.704-2.971-6.3-4.949-7.449l-0.555-0.3688 0.9425 0.7025c1.619 0.7988 4.316 5.276 4.441 7.051-0.12-0.0712-0.2388-0.1425-0.3638-0.1938-0.11-0.0825-0.2175-0.17-0.3275-0.2538 0.2225-2.446-2.766-5.459-4.284-6.882l-0.4225-0.4362 0.705 0.81c1.201 0.93 3.002 4.446 3.645 6.229-0.325-0.2538-0.6425-0.5125-0.9525-0.7712-0.0488-1.859-2.121-4.07-3.386-4.898l-0.009-0.01c-0.002-0.0175-0.007-0.0275-0.01-0.0412-0.1812-1.639 0.2438-2.845 0.9588-3.67l0.5625 0.0687c-0.1838-0.0325-0.3688-0.0562-0.5575-0.0762 1.104-1.271 2.899-1.624 4.314-1.171 0.7138 0.2288 1.316 0.6562 1.698 1.269-0.2838-0.8375-0.9712-1.386-1.824-1.658-0.315-1.071 0.0487-2.144 0.8638-3.054 1.458 0.4075 2.666 2.939 3.35 4.448l0.1612 0.3712-0.24-0.6788c0.0738-1.02-1.999-5.002-3.222-4.204 0.6112-0.6638 1.462-1.23 2.444-1.648 1.656 0.6562 2.704 3.508 3.018 5.392l0.0962 0.4488-0.115-0.8075c0.3975-1.135-1.221-5.044-2.6-5.192 0.5462-0.2025 1.13-0.35 1.731-0.44 1 1.284 1.418 3.65 1.322 5.315l0.01 0.4425 0.0387-0.7838c0.5125-0.8525 0.0413-3.862-0.8762-5.035 0.2712-0.0263 0.5475-0.0362 0.8225-0.0362 0.1975 1.394 1.052 3.338 1.019 4.79l0.0413 0.3662-0.0225-0.65c0.24-0.7875-0.105-3.495-0.6925-4.509 0.2388 0.01 0.48 0.0337 0.72 0.0637 0.2588 1.34 0.6688 3.351 0.6788 4.731l0.0138 0.3638 0.0275-0.645c0.2125-0.7 0.22-3.261-0.2788-4.378 0.1688 0.03 0.34 0.0613 0.5062 0.1025-0.1175 1.306 0.505 3.255 0.4288 4.582l0.015 0.3375 0.03-0.5988c0.1138-0.39 0.175-1.379 0.1388-2.346 0.205 1.129 0.42 2.328 0.1975 3.27l-0.0238 0.395 0.095-0.6812c0.4362-0.7938 0.3438-3.461-0.1075-4.662 0.2312 0.1162 0.4438 0.2662 0.6388 0.4338-0.004 1.344 0.5425 3.186 0.1125 4.569l-0.0438 0.3462 0.13-0.5962c0.1162-0.1562 0.205-0.4388 0.275-0.7662 0.0613 0.7225 0.0962 1.441-0.0262 2.029l-0.025 0.3638 0.1-0.635c0.3862-0.7338 0.5325-3.618 0.0962-4.609 0.1612 0.2388 0.295 0.495 0.41 0.7738-0.1688 0.4812-0.0613 1.084 0.0925 1.695-0.005 0.7662 0.0288 1.548 0.0225 2.234-0.0712 0.2362-0.135 0.475-0.24 0.7025-0.3338 2.049-2.946 5.264-1.54 7.954l-0.23 1.301c-0.4462 1.818-2.021 6.18-4.988 9.111-1.022 1.178-2.198 1.918-3.325 2.422 0.9075-0.5762 1.784-1.232 2.565-2.062 4.149-5.586 1.969-12.89-0.5412-16.55l-0.9625-1.468c-0.07-0.2388-0.1638-0.4638-0.2875-0.6638 0.0312 0.095 0.0387 0.21 0.0613 0.3125l-0.0812-0.1212 0.0812 0.1312c0.0263 0.1275 0.065 0.2462 0.075 0.3862l0.2662 0.4688c-0.015-0.1738-0.0637-0.3275-0.1075-0.4812l1.87 2.979c1.299 2.485 3.535 11.11-2.236 15.69-3.832 2.82-8.235 3.179-11.07 3.055l-0.1322-0.0438zm6.931 0.0488c0.0888-0.0325 0.1762-0.0638 0.2662-0.0937 0.3538 0.0325 0.7125 0.02 1.068-0.0138-0.0175 0-0.0375 0.003-0.0538 0.008-0.4275 0.0337-0.8575 0.07-1.28 0.1m2-0.23c5.322-1.16 10.22-9.319 10.12-14.06l0.0213-0.1788c0.295 0.5375 0.735 1.055 1.404 1.539 4.939 0.6762 5.09-5.474 4.104-7.981-1.371-2.912-1.868-5.771 0.22-7.705 0.5325-0.6862 1.14-1.111 1.772-1.37-0.0362 1.475 0.0462 2.938 0.3025 4.38 1.045 3.384-0.2025 12.38-5.202 18.41-2.949 3.422-6.681 5.222-9.655 6.179-0.215 0.015-0.5575 0.0513-0.7062 0.2125-0.9012 0.2612-1.706 0.445-2.378 0.5712m4.606-0.54c3.658-1.248 7.481-3.779 10.02-7.59 3.781-6.406 4.595-14.12 3.086-19.29l-0.0712-2.335c2.912-1.179 6.386 1.678 5.952 3.619l-0.002-0.1125-0.005 0.12c-0.0538 0.2462-0.19 0.4638-0.3812 0.6638 0.1588-0.1312 0.2788-0.2762 0.3788-0.4275l-0.0312 1.585c0.2588 2.761-1.639 12.03-3.542 13.8 0.2-0.1325 0.3825-0.2738 0.5612-0.435-0.535 0.5475-1.058 1.106-1.626 1.619-0.13 0.1362-0.2638 0.2638-0.3925 0.395 2.365-3.918 3.292-11.09 4.099-15.12l0.2338-1.126c0.13-0.0875 0.2275-0.1925 0.32-0.2975-0.1362 0.1225-0.275 0.2438-0.4638 0.3488l-0.4844 0.2662c0.25-0.0875 0.445-0.1975 0.625-0.315l-0.4738 2.018c-0.3412 2.978-3.346 12.18-4.624 15-0.1538 0.1488-0.3125 0.2825-0.4688 0.4262 3.158-5.215 3.304-14.36 4.126-18.91l0.4075-1.728-0.7588 3.056c-0.4912 2.324-0.9038 7.992-2.308 13.03-0.93 4.704-4.45 7.024-6.001 7.964 1.812-1.672 3.442-3.804 4.556-6.216 2.385-5.64 2.7-11.91 2.746-16.31l0.02-2.209-0.0888 3.925c-0.1975 2.905-0.6512 10.16-3.925 15.89-1.982 3.514-4.885 5.806-7.19 7.108-1.221 0.5688-2.349 1.002-3.33 1.325-0.0125 0-0.0325 0.008-0.0413 0.008 0.009 0 0.0188-0.003 0.0288-0.003-0.185 0.0613-0.3662 0.12-0.5375 0.1688-0.1388 0.0237-0.2775 0.0538-0.4175 0.075m6.549-1.722c0.06-0.035 0.1238-0.0712 0.1875-0.105 0.4438-0.0837 0.8962-0.1988 1.352-0.335 0.0662-0.008 0.13-0.003 0.195-0.0125-0.3775 0.1488-1.056 0.2888-1.735 0.4525m1.596-0.2588c0.1662-0.0987 0.325-0.1888 0.4612-0.2712 0.965-0.2075 1.978-0.6575 2.902-1.182 0.42-0.16 0.85-0.3438 1.29-0.5462l-0.3038 0.1762c-1.254 0.6262-2.546 1.212-3.899 1.704-0.1488 0.0388-0.3025 0.08-0.4512 0.12m4.631-1.966 0.1325-0.0875c0.165-0.0762 0.3312-0.1562 0.5025-0.2375-0.21 0.1075-0.4225 0.215-0.635 0.325m14.23-17.25-1.009 2.498c-0.1725 3.478-6.118 9.09-10.35 12.26 6.491-5.259 12.19-13.8 12.93-20.37l0.5175-2.39-0.9725 4.226c-0.9225 3.132-4.219 10.37-9.568 15.39-3.281 3.478-7.244 5.474-9.982 6.646 0.74-0.4912 1.472-1.028 2.198-1.601 0.1162-0.045 0.2412-0.0962 0.3775-0.1612-0.1025 0.0362-0.205 0.07-0.3075 0.105 1.926-1.536 3.789-3.332 5.53-5.294-0.0363 0.0813-0.0975 0.1688-0.0925 0.23 1.568-0.8038 4.06-3.399 4.902-5.208l0.2538-0.4125-0.4988 0.705c-0.3775 0.7912-2.204 2.23-3.456 3.394 2.756-3.31 5.149-6.98 6.942-10.53 0.6425-0.8662 1.239-2.195 1.575-3.469 0.5575-1.394 0.9988-2.735 1.311-4.004l0.0825-0.1638c0.1588-0.1712 0.3712-0.5275 0.5862-0.965 0.2462-0.3662 0.4612-0.7362 0.5075-1.022 0.425-0.6538 0.8038-1.404 1.18-1.878l0.1438-0.21-0.3 0.3375c-0.0788 0.07-0.1975 0.1775-0.3275 0.3 0.0838-0.1862 0.1638-0.3612 0.24-0.535 0.195-0.2538 0.3438-0.495 0.4125-0.7075l-0.01 0.3412c-0.007 0.0812-0.01 0.1788-0.015 0.2638-0.2588 4.136-0.0738 10.3-3.169 16.49-0.7912 1.518-1.792 3.005-2.966 4.429 0.3512-0.46 0.6662-0.9262 0.9562-1.395-0.915 1.339-2.358 2.754-4.025 4.111 2.931-3.064 5.302-6.831 5.864-9.992l0.54-1.419zm1.255-11.28c-0.0125 0.0462-0.0225 0.09-0.0375 0.1362-0.0138-0.0238-0.0213-0.0438-0.0337-0.065 0.0275-0.025 0.0487-0.0462 0.0712-0.0712m-0.3525 0.72c-0.009 0.0175-0.0188 0.035-0.0263 0.0538-0.1275 0.1662-0.2588 0.3425-0.3862 0.5375-0.0113-0.0638-0.0213-0.105-0.0312-0.1638 0.0412-0.1925 0.0825-0.3862 0.1175-0.5538l0.008-0.0275c0.1-0.075 0.2025-0.1512 0.295-0.2312-0.0487 0.1462-0.0563 0.2825 0.0238 0.385m-0.3588-0.1212-0.1075 0.3362c-0.002 0.01-0.009 0.0275-0.0112 0.0388-0.0175-0.08-0.035-0.1725-0.0488-0.2412 0.0575-0.0438 0.1112-0.09 0.1675-0.1338m-0.715 3.149c0.0175-0.0662 0.0363-0.1288 0.0538-0.1975 0.0538-0.0875 0.11-0.1812 0.1788-0.2838 0.007 0.007 0.009 0.02 0.0188 0.0275 0.01-0.007 0.01-0.0175 0.0175-0.0225-0.095 0.2125-0.195 0.4225-0.2862 0.6375 0.005-0.0537 0.0125-0.105 0.0175-0.1612m0.5-2.979-0.001 0.0462c0.0238 0.235-0.11 0.6625-0.2325 1.096-0.0362 0.0987-0.0712 0.1862-0.1125 0.2862-0.0637 0.1262-0.1175 0.2462-0.1662 0.3638-0.0412-0.42-0.0975-0.8225-0.1512-1.119l0.3-0.23c0.2338-0.1488 0.4662-0.2962 0.68-0.4525m-0.6825 0.455-0.015 0.4075c0.0387 0.4488-0.2438 1.472-0.3588 2.29-0.0763 0.1825-0.1462 0.3638-0.22 0.5462-0.0263-0.8175-0.0925-1.638-0.0975-2.244l-0.005-0.3338-0.0462 0.5925c-0.0488 0.6088-0.41 2.405-0.4325 3.585-0.0687 0.2288-0.1175 0.4312-0.1438 0.605-0.1 0.21-0.19 0.4175-0.2788 0.6225 0.0462-0.325 0.0925-0.6325 0.1425-0.8938l0.065-0.3412-0.1662 0.5925c-0.0213 0.0813-0.0625 0.1988-0.105 0.3175 0.1988-1.458 0.02-3.212-0.0575-4.304l-0.0225-0.425-0.0125 0.7575c0.0912 1.218-0.8562 5.265-0.5975 5.871 0.0213-0.0275 0.0337-0.0688 0.0613-0.0975-0.2812 0.83-0.5225 1.668-0.5112 2.16-0.4688 0.9162-0.9975 1.862-1.574 2.828 0.795-3.028 0.395-7.188 0.2362-9.608l-0.0437-0.8662 0.0263 1.538c0.3425 2.046-0.5262 8.022-1.255 10.6-0.6562 1.015-1.356 2.034-2.126 3.04 1.626-3.75 1.941-9.869 1.629-13.4l-0.0175-1.076-0.0238 1.906c0.4812 2.628-1.406 10.54-2.32 13.47-0.63 0.7762-1.284 1.541-1.98 2.282 2.728-3.151 2.548-10.28 2.596-13.78l-0.01-0.7538c0.4025-0.6275 0.3562-1.372-0.0412-2.088 0.17-1.331 2.71-1.824 5.31-2.659 0.8738-0.2938 1.674-0.6962 2.395-1.142m-21.56 2.944c-0.015-0.0438-0.03-0.0825-0.0438-0.12 0.0138 0.005 0.0288 0.015 0.0438 0.0175 0 0.0338-0.003 0.0663 0 0.1025m-14.31 10.33 0.235 0.2388c0.9175 0.54 1.888 2.52 2.461 4.006-0.12-0.1075-0.235-0.215-0.35-0.3225 0.0787-0.9125-0.8462-2.052-1.501-2.382l-0.1588-0.1638 0.24 0.3225c0.375 0.2862 0.58 0.925 0.7488 1.529-0.8638-0.9775-1.486-2.029-1.675-3.228m-5.212 16.84c-0.9538-0.07-1.935-0.205-2.951-0.4488-3.13-0.54-5.864-1.575-8.196-2.751-0.3288-0.2662-0.6925-0.5575-1.095-0.8725 1.618 0.8012 3.461 1.524 5.382 2.225 1.985 0.62 4.346 1.419 6.86 1.848m47.9-47.59c-3.7-7.85-8.7-13.97-15.6-19-13.9-8.308-21.1-7.805-31.2-8.61-18.5 0.3875-32.2 8.071-42.9 16.57-11.8 9.03-18.8 19.21-28.39 29.77-9.944 9.765-21.65 22.1-47.96 24.38-7.258 0.4688-15.3-1.148-22.18-4.221 7.554 1.368 17.28 0.7762 26.17-2.136 8.752-3.14 15.7-9.385 18.79-16.15 2.846-6.731 2.188-12.88 2.17-16.93 0.0275-0.11 0.03-0.2075-0.005-0.29v-0.0512l-0.001 0.0412c-0.005-0.015 0-0.0412-0.01-0.0562-0.0588 0.0237-0.1 0.085-0.1538 0.12 0.07-0.1562 0.1312-0.315 0.165-0.46l-0.09 0.0987c-1.008 1.169-3.032 2.468-5.945 3.525-2.001 0.425-4.911 1.796-5.17 3.251-1.585-2.091-5.772-3.561-8.289-0.1138-2.32 2.142-1.39 5.915-0.215 8.469 0.9962 2.146-0.3838 7.321-2.656 6.396-3.988-3.625 5.881-13.24-2.359-16.14-5.315-1.276-10.52 2.746-9.262 5.952-2.588-0.7862-6.655 1.038-5.871 5.842 0.3788 5.505 12.2 8.056 5.845 13.49-5.189 3.705-12.09 1.62-16.86 0.2438-2.892-0.9375-5.579-1.865-7.621-3.02-0.6888-0.5562-1.36-1.035-1.974-1.409-0.4975-0.4562-0.93-0.945-1.22-1.485 0.1688 0.415 0.4125 0.8088 0.6988 1.185-0.11-0.0612-0.2075-0.105-0.3125-0.1588-2.451-2.41-4.867-5.35-6.332-8.6-3.43-6.629-4.141-14.37-1.978-20.8 4.282-13.84 17.72-16.47 22.21-13.31 5.006 3.194 5.456 8.135 5.151 13.25-0.3038 2.202-0.0813 5.699-0.1425 6.06 0.0225 0.11 0.045 0.22 0.0612 0.3325 0.01-0.525 0.115-3.694 0.6712-6.47 0.7862-5.302 0.76-10.16-4.02-13.94-3.658-3.839-18.39-3.362-24.48 11.24-2.686 6.506-2.881 15.06 0.3925 22.3 1.54 4.849 5.818 9.506 9.409 12.7 0.5788 0.625 1.229 1.265 2.015 1.882 1.152 1.315 2.829 2.409 4.858 3.295 7.964 5.13 18.85 8.048 28.38 7.449 28.33-2.458 40.78-14.84 51.44-23.87 10.01-9.808 16.99-18.46 28.05-27.1 10.67-8.625 24.12-16.96 41.99-17.53 4.352 0.1025 9.114-0.0325 13.67 1.22 4.246 0.9988 9.512 1.699 16.57 7.159 5.996 4.66 10.52 10.27 13.76 17.66 2.876 7.328 5.759 17.24 0.505 30.66-4.079 10.37-14.36 17.86-22.05 19.96-8.46 2.199-10.42 1.819-18.08 1.448-4.078-0.2838-10.14-2.056-15.43-5.518 7.841 2.844 20.18 2.788 31.21-0.825 8.755-3.142 15.7-9.385 18.8-16.15 2.846-6.734 2.185-12.88 2.168-16.93 0.03-0.1125 0.0325-0.21-0.002-0.2912v-0.0538l-0.002 0.045c-0.008-0.0175 0-0.045-0.0113-0.0562-0.0562 0.0238-0.0987 0.085-0.1525 0.1188 0.0688-0.1588 0.1325-0.315 0.1662-0.4562l-0.09 0.09c-1.009 1.175-3.032 2.474-5.945 3.529-2.001 0.4238-4.914 1.799-5.171 3.251-1.586-2.09-5.774-3.561-8.288-0.115-2.32 2.144-1.392 5.916-0.215 8.47 0.9938 2.149-0.3838 7.324-2.656 6.396-3.988-3.625 5.881-13.24-2.361-16.13-5.312-1.278-10.52 2.746-9.26 5.951-2.588-0.7838-6.658 1.04-5.871 5.842 0.375 5.504 12.2 8.055 5.844 13.48-5.188 3.706-12.09 1.621-16.86 0.245-2.89-0.9375-5.576-1.865-7.62-3.02-0.51-0.41-1-0.7625-1.474-1.078-0.025-0.0387-0.0513-0.07-0.0763-0.11-5.12-8.198-4.499-14.21-3.858-17.9 4.17-13.79 13.02-16.08 23.23-16.03 3.665 0.2588 5.945 1.729 7.3 2.69 0.6762 0.6175 1.124 1.106 1.24 0.9888 0.235-0.2362 0.0175-0.8438-0.8838-1.706-1.242-1.142-3.869-2.608-7.649-2.961-10.49 0.0462-19.46 2.359-24.2 15.75-0.7575 3.729-1.816 9.114 2.47 17.65 0.1425 0.3 0.315 0.59 0.4738 0.8862-0.1562-0.1275-0.3238-0.2612-0.4588-0.3812 0.19 0.2488 0.4375 0.5275 0.6888 0.81 0.0175 0.0325 0.0312 0.0688 0.0512 0.1-0.2638-0.2125-0.5225-0.415-0.74-0.5612 0.4425 0.8838 1.45 2.259 2.91 3.624 5.574 6.628 15.2 10.99 21.05 11.37 3.745 0.5862 7.202 0.64 9.902 0.4688 1.101-0.0263 3.43-0.3312 3.565-0.2338 1.911-0.3225 3.848-0.735 5.774-1.242 7.869-1.902 19.03-9.421 23.56-20.54 5.95-14.98 2.444-25.73-0.7588-33.54" fill="white" />
</svg>
