<svg xmlns:rdf="http://www.w3.org/1999/02/22-rdf-syntax-ns#" xmlns="http://www.w3.org/2000/svg" height="16.18mm" width="64.81mm" version="1.1" viewBox="0 0 229.62561 57.339935">
 <path d="m228 44.45-0.0113 0.23 0.006-0.2c0-0.01 0-0.02 0.005-0.03m-6.486 6.065c-2.085-0.4175-2.995-1.67-3.115-2.966 0.075 0.3812 0.22 0.71 0.4575 0.8225l0.1512 0.335-0.0563-0.21c-0.3375-0.6375-0.13-1.175 0.0263-1.729 0.0337-0.0588 0.0637-0.1125 0.1-0.1738 0.004 0.01 0 0.025 0.004 0.035l-0.0962 0.415 0.0925-0.2325c0.055-0.2975 0.17-0.5412 0.3112-0.7612 0.2312-0.1325 0.4362-0.2838 0.6075-0.4662 0.3775-0.1662 0.7888-0.2275 1.176-0.3375 0.195 0.125 0.4112 0.2125 0.6925 0.195 0.2175 0.4625 0.4475 0.9238 0.3375 1.241l0.004 0.3362 0.03-0.18c0.0813-0.14 0.1312-0.3425 0.1775-0.55 0.0187 0.0612 0.055 0.1375 0.0637 0.1812l0.015 0.08c-0.3012 0.745-0.8438 1.291-1.572 0.925l-0.4412-0.415c-0.05-0.3438 0.17-0.695 0.835-0.9812-3.72 1.235 3.426 5.118 5.219 0.5662 1.01-1.23 1.301-2.902 0.99-4.55 0.005-0.2125-0.004-0.4225-0.02-0.64 0.4325 0.8938 0.6575 1.79 0.4275 2.539l0.0588 1.121v-0.345l0.0513-0.3975c0.0513-0.2975 0.1312-0.7225 0.2025-1.189 0 0.0263 0.009 0.0638 0.004 0.0875l0.065 0.5562v-0.315c0.0762-0.5238 0.1212-1.294 0.065-2.058v-0.0638c0.2775 0.9525 0.4725 1.902 0.1325 2.398l-0.1925 0.6475 0.14-0.3512c0.2112-0.2738 0.3475-0.645 0.4388-1.05-0.145 4.132-3.819 7.815-7.381 7.48m-2.669-4.882c-0.03 0.0662-0.045 0.1212-0.065 0.185-0.055 0.0275-0.09 0.0863-0.13 0.13 0.06-0.1538 0.135-0.305 0.2162-0.45-0.006 0.045-0.015 0.0888-0.0212 0.135m2.692-1.548c-0.1938-0.04-0.43-0.02-0.6725 0.0387-0.025-0.0125-0.05-0.0275-0.08-0.0325 0.24-0.0388 0.4925-0.0438 0.7525-0.006m1.051 2.194c0.04-0.2362 0.09-0.5075 0.1112-0.7925 0.025-0.0638 0.0337-0.1375 0.0488-0.21 0 0.3238-0.06 0.6688-0.16 1.002m-10.78-9.404c-0.01 0.01-0.0213 0.0175-0.0238 0.0263-0.0463 0.0125-0.0925 0.0275-0.1375 0.0425 0.0513-0.0275 0.1062-0.0462 0.1612-0.0688m14.63 1.665c0.1912 0.125 0.3662 0.2562 0.5225 0.3925 0.1212 0.23 0.2512 0.5625 0.3825 0.95-0.2512-0.5-0.5575-0.9525-0.905-1.342m0.9712 0.19c-0.0513-0.105-0.1112-0.2125-0.1875-0.3175 0.1762 0.1938 0.3112 0.4088 0.4625 0.62-0.09-0.1038-0.1812-0.205-0.275-0.3025m-0.5088 0.105c0.015 0.03 0.03 0.0487 0.05 0.0788-0.055-0.0488-0.1112-0.1-0.1612-0.1512 0.0362 0.0263 0.0762 0.0487 0.1112 0.0725m-0.5288-1.174c-0.0188-0.025-0.035-0.0512-0.055-0.0712 0.0362 0.03 0.0712 0.0662 0.105 0.095-0.0125-0.009-0.0337-0.0163-0.05-0.0238m-5.722-1.716c0.2512-0.008 0.4825-0.003 0.6938 0.0163h0.0112c0.04 0.005 0.065 0.02 0.105 0.025-0.1425 0.01-0.2762 0.0263-0.4062 0.0487-0.1375-0.0287-0.2675-0.0637-0.4038-0.09m5.271 1.528c-0.075-0.0487-0.15-0.0925-0.2275-0.1388 0.1062 0.0275 0.2038 0.0612 0.3088 0.0925 0.05 0.0375 0.095 0.0788 0.145 0.115-0.075-0.0287-0.15-0.0462-0.2262-0.0688m-91.02 5.389 0.1125-0.1975c1.244-1.221 1.535-3.941 1.154-5.975 0.004-0.0488 0.006-0.0975 0.0113-0.1462 0.0312 0.0762 0.055 0.1512 0.0725 0.205l0.0737 0.3038c0.2712 1.689 0.6325 3.966 0.1738 4.916l-0.1 0.5425c-0.3875 0.705-0.7838 1.365-1.049 1.97 0.002-0.4962-0.1475-1.058-0.4488-1.619m10.29 3.445c-3.069-1.7-5.494-3.732-7.015-5.965 0.0237-0.1162 0.0712-0.2162 0.0925-0.3388 1.349 2.098 3.742 4.355 6.922 6.304m-7.77-7.22c-0.015-0.0263-0.0312-0.0538-0.0475-0.0825 0.0162 0.0288 0.0325 0.0588 0.0475 0.0875 0.0288 1.211-0.4288 2.318-0.975 3.324l0.0163-0.0562c0.5388-1.194 0.8912-3.358 0.6138-5.096 0.1475 0.4425 0.2738 0.9012 0.3475 1.39 0.02 0.1488-0.004 0.2875-0.003 0.4338m-8.682 4.244c-0.065 0.0975-0.15 0.1825-0.2225 0.2762 0.4825-1.101 0.6662-2.266 0.0975-2.83l-0.1638-0.7962c0.5838 0.9625 1.026 2.112 0.2888 3.35m-14.4 7.226c0.145 0.005 0.335-0.0137 0.5938-0.07-0.5862 0.3125-1.141 0.6275-1.658 0.94 0.3488-0.25 0.7125-0.535 1.064-0.87m-10.22 4.874c0.5975-0.2912 1.191-0.6062 1.761-0.9525 1.275-0.6712 2.494-1.48 3.455-2.346-1.282 1.389-2.885 2.492-4.381 3.091-0.2775 0.0725-0.5538 0.1438-0.835 0.2075m-7.181 0.52c0.1438-0.03 0.2975-0.0838 0.4425-0.12 0.0175 0.015 0.03 0.0263 0.0512 0.0362-0.18 0.0325-0.3325 0.0562-0.4938 0.0838m7.767-2.928c3.176-2.151 5.905-6.16 3.905-9.378-1.932-2.859-4.951-0.1388-4.81 1.462-0.1088-0.02-0.2112-0.0687-0.32-0.1-0.4475-1.148-0.05-3.214 2.846-3.785 3.704-0.1675 4.376 4.539 3.704 5.814l-0.6988 1.899 0.4262-1.056c1.036-1.77 1.35-6.331-2.536-7.249-2.795-0.6912-4.998 2.378-4.406 4.094-0.4625-0.2638-0.8838-0.6488-1.221-1.16-0.085-1.784 4.046-4.845 5.992-3.94l1.126 0.41-0.6225-0.2638c-1.394-1.36-5.889 0.3038-6.792 2.328 0.0125-0.1688-0.0162-0.3638-0.0625-0.5688 0.3362-1.462 3.67-3.519 5.269-3.338l0.965-0.0737-0.5462-0.003c-1.151-0.2825-4.091 0.3375-5.366 1.646 0.7388-1.482 3.258-3.699 4.956-2.554l0.9175 0.2562-0.5025-0.1812c-1.071-1.171-3.528-0.6788-4.896 0.52 0.5938-1.009 1.415-1.909 2.441-1.562l0.74-0.0512-0.4175-0.008c-0.94-0.5488-2.154-0.0412-3.004 0.8188 1.199-1.915 3.44-2.1 4.571-0.9525l0.1375 0.0688c-0.29-0.8575-1.341-1.282-2.504-1.201-0.3825-0.3425-0.6338-0.7425-0.7612-1.195 0.155-0.7362 0.275-1.884 0.6275-3.125 1.284-2.16 4.1-4.225 7.484-4.575 3.269-0.6025 4.649 2.845 3.929 4.992-0.8038 2.025-2.545 3.67-2.354 5.248-0.0275 0.0338-0.06 0.0638-0.0863 0.1025-0.1225-0.2862-0.2175-0.5788-0.2212-0.8962-0.0787 0.4175-0.0387 0.8225 0.0962 1.209-0.02 0.1262 0.025 0.2438 0.1612 0.3462 1.025 1.962 4.648 3.271 8.308 2.636l0.1438 0.3938c0.0925 0.1288 0.1288 0.2688 0.205 0.4025l-0.33-0.7975c0.7575-0.135 1.516-0.3425 2.254-0.655 0.7575-0.2825 1.355-0.635 1.852-1.018l0.0825 0.3212c0.335 1.456 0.7825 4.198 0.3 5.994-0.2112 0.32-0.3662 0.645-0.455 0.9825-0.025 0.0338-0.0588 0.055-0.0825 0.09 0.57-1.68 0.1975-3.352-0.065-4.416 0.3312 2.158-0.4975 4.65-2.051 5.898-0.3662 0.1538-0.735 0.3075-1.102 0.4662-0.1862 0.0712-0.3612 0.1475-0.545 0.22 0.245-0.2875 0.4738-0.6075 0.6438-1.01 0.9962-1.67 0.5138-3.568 0.0325-4.818 0.6025 2.42-0.6688 5.105-2.505 6.57-0.5925 0.2538-1.176 0.5075-1.735 0.7662 0.4588-0.3612 0.9088-0.7838 1.312-1.301 1.296-1.63 0.8538-3.438 0.2512-4.754 0.6862 3.181-2.276 6.659-4.971 7.494 1.724-1.656 3.142-4.295 1.109-7.752-2.754-3.195-4.848-7.099-4.659-9.834-0.4225 2.832 1.088 6.552 3.394 8.868 3.719 4.431 0.0738 8.706-2.629 10.51 3.206-3.484 2.028-8.532-0.3888-10.3 2.231 2.298 3.236 7.436-1.012 10.62 1.434-1.76 2.539-3.916 2.028-5.164l0.115-1.358-0.1025 0.765c0.2112 2.485-1.852 5.059-3.869 6.842 0.002-0.0125 0-0.0163 0.002-0.0263 2.002-1.76 3.701-4.172 3.375-5.981l0.2712-0.6138-0.2812 0.5788c-0.0362-0.1775-0.0713-0.3562-0.1488-0.5225l0.1088-1.691-0.1 0.9512c0.08 0.54 0.0588 1.08-0.0312 1.612l-0.025 0.0538c-0.0225 0.105-0.065 0.2025-0.0962 0.3075l0.0675-0.1562c-0.07 0.3488-0.195 0.6875-0.3288 1.028 0.008-0.0538 0.0175-0.1125 0.0213-0.1688-0.3525 0.8275-0.8925 1.585-1.565 2.269 0.9362-1.148 1.474-2.349 1.271-3.491l-0.1825-2.418 0.0688 1.362c0.0962 2.83-2.03 5.346-4.781 7.095-1.198 0.61-2.451 1.099-3.636 1.458 0.5838-0.2588 1.038-0.5762 1.211-0.94l0.69-0.535-0.4125 0.2738c-0.51 0.5662-1.251 0.8488-2.066 1.012 1.47-0.6638 2.776-1.476 3.178-2.139l0.9075-0.7562-0.5362 0.3975c-1.358 1.245-3.746 2.164-5.884 2.742-0.1912 0.009-0.3775 0.0238-0.5612 0.0338 1.912-0.5688 3.872-1.352 5.77-2.395m-0.6275-7.322c-0.1562-0.065-0.2888-0.18-0.4062-0.3488 0.0625-0.003 0.1262 0.007 0.1862 0 0.0425 0.1325 0.1175 0.2462 0.22 0.3488m-2.939-5.395c-0.004-0.0638-0.01-0.125-0.0125-0.1875 0.01 0.0412 0.0375 0.0825 0.05 0.1262-0.0125 0.02-0.0263 0.0388-0.0375 0.0613m0.0112 2.371c-0.0237-0.0612-0.0387-0.13-0.0587-0.1938 0.0275-0.0162 0.0587-0.0312 0.08-0.0537-0.0187 0.0838-0.0162 0.1638-0.0213 0.2475m12.14-6.585c0.0275 0.01 0.0575 0.005 0.0887 0.005-0.0287 0.0263-0.0525 0.0637-0.0812 0.0925-0.005-0.0338-0.007-0.0662-0.007-0.0975m-1.982-11c-2.575 0.1812-4.758 1.38-6.278 2.901 0.7788-1.145 1.942-2.16 3.744-2.759 2.434-0.8562 5.851-1.225 7.235 0.94 1.215 2.18 0.1888 4.495-0.105 5.604-0.2238 0.6388-0.5125 1.25-0.82 1.852 0.025-0.12 0.0375-0.225 0.0275-0.3025l0.1438-0.41-0.115 0.22c-0.34 1.002-1.63 1.768-1.848 2.79l0.0162-0.085-0.0425 0.0562c-0.0487 0.0462-0.18 0.165-0.3075 0.31 0.2388-1.388 1.696-2.684 2.846-4.761 1.339-2.29-0.4962-7.102-4.498-6.356m-8.776 9.911c-0.9-1.226-0.9788-7.3 4.479-10.52 4.582-3.578 9.031 0.0775 9.976 3.229-0.8662-3.435-4.33-6.76-8.862-4.544-2.442 0.9475-4.338 2.885-5.462 4.995 1.055-2.274 2.865-4.655 5.941-6.024 6.495-2.538 9.098 3.985 8.959 7.935 0.3862-4.24-1.448-9.532-7.342-9.018-6.051 1.059-9.082 7.088-9.08 11.19-0.14-1.096-0.002-2.361 0.3762-3.669 1.188-2.489 3.639-6.788 8.619-8.014 6.701-1.002 9.324 6.34 9.104 9.878 0.2888-4.191-1.761-9.729-7.351-10.5-1.901-0.1025-3.542 0.3662-4.95 1.16 0.0212-0.0325 0.0413-0.065 0.0687-0.1 0.7038-0.485 1.468-0.8988 2.282-1.248 1.866-0.5275 4.509-0.5338 7.09 1.23 3.821 2.558 4.599 7.668 4.37 10.24 0.5825-3.028-0.22-7.11-2.929-9.924-1.481-1.439-3.505-2.228-5.434-2.429 0.86-0.0862 1.689-0.0912 2.501-0.0575 1.449 0.3612 3.115 1.168 4.298 3.11 2.445 3.255 2.901 7.789 2.676 9.585l-0.6388 2.324 0.3988-1.299c0.0262-0.0512 0.04-0.1138 0.0613-0.1675l-0.0238 0.415c-0.0288 2.152-1.46 5.818-3.574 5.879 0.18 0.1825 0.3788 0.2638 0.5825 0.285-0.4912-0.005-0.9662-0.0287-1.429-0.0925 1.575-0.5738 3.702-3.811 3.296-5.046l0.1912-0.8938-0.145 0.4988c-0.4388 2.158-2.484 5.016-4.43 5.249 0.001 0.002 0.004 0.002 0.004 0.005-0.1025-0.0275-0.1925-0.0588-0.2925-0.0913 1.528-0.8438 3.389-3.828 3.024-4.748l0.2312-0.9088-0.16 0.505c-0.6362 1.764-2.462 5.076-4.301 4.702-0.2338-0.115-0.41-0.2638-0.6088-0.4 1.381 0.1825 3.87-2.418 3.28-3.716l0.1812-0.7738-0.14 0.4275c-0.435 1.931-2.288 4.309-4.065 3.408-0.005-0.005-0.007-0.009-0.0125-0.0113 0.2062-0.0375 0.3075-0.1225 0.3475-0.235 0.6025-0.0662 1.339-0.8562 1.834-1.66l0.7188-0.9738c0.5-0.6275 0.8875-1.526 1.132-2.561-0.1162 0.3588-0.2562 0.6738-0.4462 0.8812-0.3162 0.92-0.7925 1.745-1.335 2.529 0.3038-0.52 0.5-1.012 0.4425-1.255l0.2338-0.525-0.1662 0.2788c-0.6125 0.9062-1.478 2.38-2.421 2.779-0.0175-0.095-0.0262-0.1812-0.02-0.2588 0.57-0.2812 1.239-1.526 1.438-2.285l0.3488-0.6175c2.725-2.632 1.486-11.44-5.361-8.846-3.804 0.5088-5.851 3.291-6.699 6.048-0.57 1.168-0.755 2.33-0.4625 3.258 0.0113 0.305 0.0138 0.6225 0.0588 0.8888 0.0763-0.0688 0.1338-0.1988 0.1862-0.355 0.185 0.31 0.4562 0.57 0.7875 0.7838-0.36 0.0325-0.72 0.12-1.084 0.2612-0.0962-0.0625-0.205-0.11-0.2912-0.18m-1.208-1.9c0.0375-0.5275 0.1438-1.26 0.3475-2.104-0.2438 1.521-0.009 2.949 0.8488 3.999-0.575-0.4612-0.9675-1.114-1.196-1.895m5.311-11.83c0.1112-0.0813 0.2188-0.17 0.335-0.25-0.015 0.0312-0.04 0.055-0.0525 0.0862-0.0962 0.0525-0.1912 0.1088-0.2825 0.1638m22.49-3.074c-2.045 0.4225-4.55 1.618-4.276 3.116-0.0662-0.0437-0.1275-0.0888-0.1938-0.1312-0.7125-2.032 1.558-2.999 4.47-2.985m3.724 0.5725c-1.589-0.365-7.202 0.5875-7.279 3.042-0.1125-0.0813-0.2362-0.16-0.3512-0.2425 0.2562-1.331 3.074-3.028 4.851-3.335 1.028 0.075 2.095 0.2638 3.115 0.5612l-0.3362-0.0263zm-6.969 18.68c0.0713 0.1562 0.185 0.2362 0.3138 0.2638l0.2112 0.595c0.9675 1.485 0.76 3.472 0.0588 5.196 0.0288-0.2375 0.0337-0.4425-0.009-0.5625l0.06-0.4025-0.07 0.225c-0.0162 0.1125-0.0813 0.2175-0.1188 0.325 0.1338-1.844-0.165-3.862-0.765-4.324l-0.2488-0.7938c0.2125-0.1662 0.3962-0.3425 0.5675-0.5225m1.926 6.455c0.42-1.019 0.61-2.188 0.3088-2.622l0.007-0.6712-0.04 0.3762c-0.115 1.445-0.7438 3.422-1.829 4.178 1.258-1.602 2.281-4.729 1.402-5.816l-0.0212-0.1088c0.2362 0.2625 0.505 0.5075 0.8088 0.7362l0.0563 0.445c0.4262 1.166 0 2.419-0.6938 3.484m-1.385-6.184h0.0113c0.0687-0.1275 0.1262-0.235 0.1762-0.335 0.12 0.5812 0.4662 1.211 0.9712 1.79 0.1575 0.8075 0.0725 1.701-0.185 2.588 0.165-1.281-0.005-2.454-0.7575-2.991l-0.4412-1.059c0.0737 0.015 0.1512 0.0412 0.225 0.007m-65.36 9.998c-0.1175 0.7862-0.455 1.465-0.9012 2.08l0.1325-0.4425c0.44-1.052 0.7288-2.666 0.7638-4.255 0.0913 0.84 0.1262 1.706 0.005 2.618m46.59-1.458c-6.599 7.724-28.88 3.239-43.58-10.92-5.551-5.185-9.059-11.68-13.07-17.02 3.255 3.38 6.638 6.961 10.07 10.44-0.3325-0.4525-0.6762-0.8925-0.9925-1.36-5.494-7.63-12.11-15.04-18.95-19.74 4.735 2.592 9.691 6.157 14.05 10.95 10.7 13.68 25.07 26.44 33.66 27.63-10.86-3.048-21.51-13.79-30.16-24.5-6.042-7.692-14.06-13.65-21.81-16.95 4.045 1.374 9.12 3.686 13.77 7.539 8.419 6.235 14.48 16.07 18.86 19.13-3.952-3.738-7.786-8.988-12.29-13.94 2.255 1.971 4.464 3.814 6.788 5.301-0.0787 0.7438 1.525 2.404 1.962 2.701l0.295 0.3325-0.135-0.2075c-0.4588-0.59-0.7712-1.542-1.235-2.26 0.2588 0.1375 0.525 0.2662 0.7975 0.3875 0.0312 0.9138 2.024 2.894 2.489 3.545l0.3375 0.4675-0.1588-0.2862c-0.5138-0.9138-1.136-2.541-1.978-3.435 0.3975 0.1575 0.7975 0.3 1.212 0.4288 0.1662 0.8475 2.121 2.685 2.531 3.198l0.3375 0.435-0.1675-0.2738c-0.5675-0.9212-1.125-2.318-1.966-3.139 0.3938 0.1038 0.79 0.1962 1.186 0.275-0.2162 0.7175 1.341 2.472 1.661 3.035l0.2262 0.3962-0.0925-0.2412c-0.3512-0.8788-0.6662-2.498-1.52-3.145 0.4562 0.0813 0.9125 0.1425 1.364 0.1888-0.38 0.6925 1.379 2.25 1.906 2.605l0.3012 0.3012-0.1475-0.2012c-0.6388-0.7238-1.03-2.24-1.932-2.694 1.771 0.1612 3.468 0.0412 4.81-0.4138 0.0337 0.3875 0.6088 1.012 0.695 1.166l0.0825 0.1825-0.0125-0.1162c-0.0575-0.4788 0.1838-1.056-0.3462-1.402 0.085-0.0338 0.1738-0.0712 0.2562-0.1112-0.0188 0.4238 0.57 0.9225 0.6662 1.13l0.08 0.1788-0.0138-0.1175c-0.0437-0.3988 0.1112-1.156-0.295-1.42 1.204-0.7162 1.901-1.825 1.716-3.392 0.02-0.2662-0.2062-0.4162-0.3675-0.5712 3.385-0.085 2.43 6.47-1.245 9.245-4.648 1.351-9.215-0.7788-11.11-2.064l-0.0225-0.0125c-1.376-1.982-3.485-5.655-5.291-6.869-0.1325 1.045 4.009 5.338 5.048 6.636l0.1275 0.16-0.0437-0.0288c0.0212 0.025 0.0588 0.0538 0.0825 0.0763l0.4988 0.6288-0.3362-0.48c0.0325 0.03 0.0663 0.06 0.1 0.09 0.3988 0.4962 1.849 2.022 3.958 3.704 0.1738 0.41 0.5388 0.9625 0.9862 1.568-0.4112-0.395-0.8012-0.8075-1.24-1.176-0.1788-0.1025-0.3662-0.24-0.55-0.3688 0.5925 0.5612 1.191 1.064 1.794 1.55 1.145 1.552 2.851 3.465 3.386 4.265l0.5788 0.8088-0.2975-0.4762c-0.2912-0.4888-0.63-1.086-1.001-1.726 0.085 0.105 0.16 0.1925 0.2325 0.2788 0.5488 1.338 2.354 3.561 5.08 3.932 0.8338 1.905 11.16 6.38 14.29 6.152l2.026 0.23-1.14-0.1662c-4.561-0.3788-11.49-4.136-15-6.216 0.1688 0.0175 0.3512-0.003 0.5225 0 0.3775 0.1762 0.8262 0.3275 1.216 0.4512 0.1288 0.1662 0.415 0.2525 0.7412 0.2938 1.775 1.691 8.1 3.34 9.715 4.035l1.316 0.6225-0.7225-0.38c-0.7438-0.4812-1.684-0.9262-2.706-1.36-0.97-0.9275-2.588-2.075-4.249-2.879 2.679 0.965 5.924 3.135 9.705 5.01 4.751 1.724 10.6 2.16 12.82 0.0213-0.0425 0.12-0.1025 0.235-0.1525 0.3525m-68.54-38.07c-0.105-0.1062-0.2012-0.2175-0.3062-0.3225 0.1825 0.1225 0.3612 0.2588 0.5438 0.3838-0.085-0.0275-0.1612-0.0475-0.2375-0.0613m8.555 28.3c-0.7125 7.302-6.698 11.84-11.74 12.7-0.1562-0.0213-0.3025-0.0163-0.4588-0.0312 3.02-0.2612 8.826-3.66 9.146-6.081l0.8475-1.429-0.5125 0.7888c-0.94 1.985-3.268 3.811-5.72 4.982 1.926-1.145 3.688-2.608 4.025-3.686l0.9112-1.099-0.5425 0.5962c-0.1775 0.2662-0.4088 0.52-0.6388 0.7712 0.235-0.4125 0.3825-0.8225 0.395-1.211l0.7962-1.46-0.4825 0.8088c-0.6238 1.614-2.065 3.112-3.765 4.284-0.1862 0.115-0.3712 0.225-0.5625 0.3325 0.165-0.1538 0.315-0.31 0.4538-0.4688 1.698-1.348 3.219-3.008 3.35-4.111l0.6812-1.16-0.4162 0.635c-0.5575 1.255-1.686 2.451-2.984 3.501 0.0262-0.11 0.0675-0.215 0.075-0.3225l0.7575-1.25-0.46 0.6862c-0.1812 0.4025-0.425 0.7912-0.7175 1.16-0.6925 0.5338-1.414 1.022-2.13 1.452 0.4475-0.405 0.8375-0.8038 1.159-1.155-0.8188 0.7712-1.838 1.411-2.94 1.865 2.045-1.02 3.485-2.766 4.311-3.994-1.015 1.368-2.59 2.472-4.301 3.21 1.814-1.494 2.965-3.438 3.545-4.275l0.8838-1.511-0.53 0.8325c-0.7775 1.685-2.539 3.489-4.53 4.674 2.202-1.661 3.699-3.919 4.402-4.886l0.98-1.584-0.5812 0.8762c-1.692 2.991-7.019 7.512-10.46 6.281-0.0737-0.1212-0.1512-0.2388-0.2038-0.3688 1.622 0.4962 4.081 0.1225 5.859-1.371 2.761-1.746 4.575-4.368 4.702-6.229 0.5988-0.1075 1.079-0.3638 1.334-0.7225 1.042-0.3412 1.896-0.9025 1.99-1.645l0.5775-0.6788-0.3575 0.3612c-0.7862 1.33-2.461 1.736-4.024 1.755-0.2412-0.0588-0.4838-0.1562-0.7288-0.275 2.356-0.4962 5.241-2.315 5.169-3.931l0.59-1.135-0.365 0.6225c-0.9488 2.1-3.804 3.95-6.144 3.96-0.2525-0.205-0.5012-0.43-0.7375-0.7175-0.2625-0.2912-0.4338-0.5862-0.6125-0.88 0.3362 0.1325 0.7162 0.23 1.194 0.2275 2.314-0.2412 4.426-2.314 5.866-4.656 2.71-5.169 0.9262-11.38-0.57-13.26l-1.811-2.006c-1.694-3.681-4.365-7.176-7.571-9.625-3.225-2.445-6.955-3.662-10.58-3.969 4.488 0.2275 9.06 1.596 12.91 4.258 9.244 7.924 13.34 19.93 11.27 29.57m-10.58 12.84c-0.0188 0.0113-0.045 0.0163-0.0675 0.0288-0.0863-0.015-0.1712-0.0288-0.2575-0.0438 0.2962-0.0612 0.5925-0.1325 0.8912-0.2175l-0.5662 0.2325zm-1.821 0.5612c0.009-0.002 0.0212-0.002 0.0288-0.01l0.56-0.1075c0.08-0.003 0.1588-0.003 0.235-0.005-0.26 0.0762-0.5412 0.1-0.8238 0.1225m-6.575-3.158s0.002 0.002 0.002 0.005v0.002-0.002c0.0337 0.1612 0.4062 0.6888 1.029 1.214 0.045 0.1362 0.1388 0.2788 0.2838 0.43-0.19-0.12-0.3488-0.2475-0.52-0.3688-0.02-0.02-0.03-0.0438-0.0475-0.0638-0.03-0.0738-0.075-0.1388-0.0987-0.2125-0.009 0.02-0.007 0.0387-0.0175 0.0588-0.1075-0.1338-0.225-0.2688-0.3012-0.4-0.025 0.0412-0.0275 0.0875-0.045 0.1312-0.1275-0.31-0.2662-0.62-0.365-0.9425 0.0512 0.0638 0.0937 0.125 0.1562 0.1912-0.0213-0.02-0.055-0.025-0.0763-0.0425m6.114 3.042c-0.0175-0.007-0.0425-0.015-0.06-0.0225 0.2888 0.0175 0.5975 0.0225 0.9162 0.0225l-0.025 0.003c-0.2112 0.0775-0.4275 0.105-0.6425 0.125-0.0538-0.05-0.1075-0.0987-0.1888-0.1275m-5.162-2.956c-0.0438 0.075-0.0738 0.1512-0.0937 0.2288-0.3662-0.185-0.705-0.4488-1.014-0.7912-0.015-0.0575-0.0263-0.1188-0.0437-0.18 0.285 0.3225 0.6588 0.5812 1.151 0.7425m11.09-15.74 0.8562-0.5912c0.6438-0.7975 1.114-1.704 1.438-2.679-0.0325 0.0738-0.0538 0.1675-0.0875 0.2375-0.4362 1.226-1.222 2.141-2.149 2.93 1.468-2.434 2.08-6.23 0.92-9.602-0.9312-5.245-4.798-11.06-9.914-14.72-4.085-2.674-8.826-3.294-12.93-2.735 0.1425-0.0412 0.2638-0.07 0.35-0.0862l0.4712-0.0825-0.2725 0.01c-0.0537 0.003-0.1262-0.002-0.1825-0.002 0.2162-0.07 0.4062-0.1388 0.53-0.1962l0.5788-0.135-0.3375 0.0412c-0.0575 0.0125-0.1362 0.0112-0.1962 0.0213 0.0337-0.009 0.0687-0.0163 0.1-0.0213 0.9425-0.1212 1.848-0.2075 2.67-0.245 2.77 0.1138 5.758 0.7938 8.734 2.471 8.478 4.051 12.5 14.25 12.18 19.86 0.3038-2.876-0.4025-6.129-1.834-9.261l0.8088 0.9312c2.684 2.62 3.426 8.22 1.655 12.76-1.319 3.405-5.178 6.29-7.496 5.336-0.2988-0.7062-0.425-1.4-0.3962-2.018 1.721 0.6225 3.358-0.385 4.501-2.224m-18.18-26.53c-0.38-0.1138-0.75-0.1825-1.128-0.2638 2.478-0.0375 5.202 0.4062 7.969 1.808 6.65 3.189 11 10.26 12.14 14.86-0.1062-0.2675-0.2012-0.5338-0.3275-0.79-2.071-7.188-9.526-13.77-18.65-15.61m-15.61 4.04c0.1538-0.1738 0.3138-0.34 0.4788-0.505-0.002 0.0225-0.0162 0.0462-0.0162 0.07 0.0212-0.002 0.045-0.0263 0.065-0.03-0.1775 0.1562-0.3562 0.3075-0.5275 0.465m-5.972 11.18c-0.007 0.2062 0 0.3875 0.0238 0.5362-0.1875 0.7838-0.345 1.548-0.475 2.298 0.1062-0.8325 0.2562-1.794 0.4512-2.834m36.11-13.48c-0.0375-0.0338-0.0725-0.0713-0.1138-0.1025-1.098-0.76-2.256-1.394-3.44-1.956 1.439 0.5275 2.948 1.154 4.511 1.892 1.364 1.061 2.785 2.281 4.26 3.635-1.761-1.354-3.512-2.515-5.218-3.469m-25.56-0.9725c-0.1488 0.06-0.295 0.1225-0.4475 0.1888 0.1188-0.0688 0.2875-0.1438 0.495-0.2238-0.0175 0.0125-0.0312 0.025-0.0475 0.035m0.2438-0.3838c-0.2712 0.195-0.5625 0.3775-0.7812 0.6088-0.9312 0.4075-1.869 0.9088-2.234 1.566-0.085 0.06-0.1762 0.1188-0.2588 0.1812 0.1962-0.2112 0.3975-0.4375 0.6062-0.6725 0.8275-0.6288 1.709-1.199 2.668-1.684m-4.941 1.929c4.811-4.824 11.04-5.77 14.97-6.192 6.659-0.1688 14.56 1.595 21.68 6.345-3.251-1.732-6.466-2.984-9.439-3.594-2.496-1.375-4.714-1.902-6.566-1.255-0.3325-0.0413-0.6638-0.0875-0.9875-0.1175-8.391-1.329-16.97 1.421-21.07 7.386-0.4338 0.685-0.7725 1.371-1.14 2.057-0.0525 0.0712-0.1175 0.12-0.1612 0.195-0.0525 0.0913-0.0625 0.1812-0.0975 0.2725-0.3175 0.615-0.6025 1.225-0.8688 1.839-0.2612 0.3412-0.5275 0.7938-0.7788 1.321-0.009-0.1312-0.0287-0.2362-0.0475-0.3412 0.9338-2.622 2.321-5.381 4.509-7.916m62.72 22.98c0.0375 0.0213 0.0725 0.045 0.1125 0.0688-0.4875-0.155-0.9038-0.3138-1.202-0.4738-0.045-0.035-0.0962-0.07-0.1425-0.105l-0.345-0.3025 0.1362 0.1438c-0.19-0.1438-0.36-0.2788-0.535-0.415 0.5588 0.38 1.232 0.7462 1.976 1.084m4.52 5.154c-0.04-0.0538-0.0762-0.0975-0.1125-0.1488 0.0537 0.0538 0.1275 0.1262 0.1662 0.1725l0.0538 0.0612c-0.0375-0.0287-0.0725-0.0562-0.1075-0.085m0.3425 1.271c0.015 0.0175 0.0288 0.035 0.0475 0.0487l0.1338 0.1962-0.1325-0.1512c-0.015-0.0275-0.0337-0.0613-0.0488-0.0937m-1.7-5.498c0.0787 0.0588 0.1575 0.115 0.2588 0.1712-0.2325-0.0812-0.4538-0.1588-0.6712-0.23 0.135 0.025 0.2775 0.0388 0.4125 0.0588m8.23 3.115c2.666 0.9912 5.239-0.495 5.776-1.924 0.5475 0.9938 0.365 2.429-0.4788 3.781l-0.7238 0.335c-0.2425 0.1688-0.4962 0.295-0.75 0.42l1.458-0.735c-0.7988 1.268-2.138 2.441-4.004 3.03-0.4462 0.185-0.8725 0.2925-1.291 0.3738-0.1112-0.0375-0.2112-0.01-0.3112 0.0538-2.86 0.395-5.008-1.409-6.114-2.781-0.0125-0.02-0.0238-0.0438-0.0375-0.0663 0.0425 0.0462 0.0888 0.0937 0.1275 0.14l0.004 0.003v-0.003c0 0.003 0.002 0.005 0.005 0.008l-0.005-0.008-0.085-0.145c2.199 2.028 5.31 3.704 7.036 2.328l1.51-0.545-0.865 0.2712c-2.178 1.091-4.461 0.015-6.351-1.609 2.67 1.365 6.154 2.224 7.582 0.82-2.874 1.042-6.571-0.5888-9.074-2.419-0.1475-0.2012-0.3062-0.4325-0.4725-0.6762 0.085 0.0537 0.1788 0.105 0.2662 0.1588l0.1225 0.195-0.08-0.1712c3.52 2.126 8.391 3.868 10.49 1.826-3.015 1.401-6.756-0.185-9.855-2.149 4.11 1.678 8.798 1.56 10.55 0.5688 0.8862-0.4762 1.258-1.381 1.269-2.358-0.145 0.5-0.0987 1.094-0.4075 1.499-3.616 2.744-8.648 1.042-12.95-1.436-0.035-0.0675-0.0688-0.1362-0.105-0.205 3.148 1.441 7.864 2.976 9.729 2.259l1.74-0.1075-0.985 0.025c-3.256 0.7125-7.63-1.698-11-3.121 0.0275 0 0.0587 0.005 0.0862 0.002 1.67 0.6475 4.148 1.139 4.909 1.455l0.8288 0.345-0.4525-0.2275c-0.9088-0.53-2.202-1.091-3.486-1.584 0.3262 0.09 0.63 0.17 0.8738 0.2388 0.1362 0.0587 0.2538 0.11 0.3075 0.1488l0.1875 0.14-0.0875-0.1125c-0.015-0.0175-0.0288-0.0438-0.0412-0.0638 0.005 0.003 0.0175 0.005 0.0237 0.008l0.4438 0.175-0.2412-0.1338c-0.1-0.0563-0.2238-0.1412-0.3338-0.2125-0.0375-0.0562-0.075-0.1075-0.1138-0.1738 1.25 0.7275 3.062 1.719 5.379 2.359m2.239 7.09c-0.11-0.0588-0.2362-0.1512-0.3638-0.2438 0.1675 0.0488 0.3162 0.0975 0.41 0.1362l0.405 0.1762-0.2125-0.1325c2.012 0.7862 4.894 1.821 5.749 2.674l0.2 0.1512c-2.18-0.9175-4.678-1.788-6.471-2.779 0.0575 0.005 0.1162 0.01 0.1538 0.0225l0.2588 0.0637-0.1288-0.0687zm-53.22-3.968c0.105-0.0562 0.2112-0.085 0.3112-0.185 0-0.01-0.007-0.01-0.007-0.0175 0.0175 0 0.0362 0 0.055 0.003-0.1025 0.0588-0.1938 0.1538-0.2938 0.2275-0.0225-0.007-0.0387-0.0225-0.065-0.0275m-3.609 2.812c0.1325-0.2662 0.25-0.535 0.3275-0.7988 0.1412-0.2238 0.2875-0.4362 0.4462-0.6338 0.155-0.1075 0.3025-0.2175 0.4612-0.32-0.475 0.4538-0.9175 1.038-1.235 1.752m-1.305 1.094c0-0.002 0-0.002 0.002-0.005v0.005c-0.0125 0.0388-0.0325 0.0788-0.0437 0.1175 0.0137-0.0388 0.0263-0.0788 0.0412-0.1175m-1.319 1.658c0-0.2362 0.0238-0.4712 0.07-0.7075l0.0425-0.1325c0.0363-0.2462 0.13-0.4612 0.2475-0.6712 0.004-0.002 0.006-0.002 0.0113-0.009-0.1738 0.515-0.3138 1.04-0.3712 1.52m0.0775-2.468c0.0125 0.075-0.01 0.1588 0.0263 0.2288v0.005c-0.0775 0.1538-0.145 0.305-0.205 0.4562 0.06-0.2288 0.1062-0.4688 0.1788-0.69m5.954-4.195c-0.1588-0.0125-0.3362-0.002-0.5375 0.0375-0.8162-0.1738-1.999 0.4688-3.098 1.45-0.375 0.1612-0.765 0.4-1.135 0.7025-0.1738 0.1275-0.3312 0.2638-0.46 0.415-0.02 0.02-0.0375 0.0388-0.055 0.0638 1.255-2.354 3.302-3.694 5.285-2.669m-5.398 3.406c0.0263-0.007 0.0513-0.002 0.0813-0.015-0.1975 0.2862-0.3688 0.5762-0.5225 0.8625 0.0825-0.315 0.2325-0.5962 0.4412-0.8475m121.5-4.876 0.6488-0.47c0.1988-0.1038 0.4-0.1912 0.5988-0.3038-0.02 0.0425-0.0325 0.0913-0.0513 0.13 0.0438-0.0562 0.0913-0.1125 0.1275-0.1712 0.0387-0.0237 0.0775-0.0462 0.1175-0.0688-0.1638 0.2475-0.3538 0.4888-0.5725 0.7262 0.115-0.155 0.2325-0.3038 0.3275-0.4862-0.3512 0.4412-0.9662 0.7325-1.755 0.8962 0.1938-0.0662 0.3875-0.135 0.5588-0.2525m1.321-0.9588c-0.02 0.0487-0.0375 0.1-0.06 0.1462l-0.4138 0.2125c-0.01 0.005-0.0188 0.002-0.03 0.005l0.5038-0.3638zm-1.492 1.704c-0.2088 0.1488-0.415 0.2975-0.65 0.4325 0.0937-0.0788 0.1825-0.1712 0.2675-0.2638 0.1312-0.0512 0.2588-0.105 0.3825-0.1688m52.2-25.85c0.004-0.03 0.0187-0.0612 0.0187-0.0925 0.155 0.0888 0.3112 0.1638 0.4675 0.2588-0.1612-0.0575-0.3225-0.1125-0.4862-0.1662m-11.53-0.7025c0.08-0.0125 0.15-0.035 0.2325-0.0425 0 0.1188 0.007 0.2375-0.006 0.3512-0.03 0.0175-0.055 0.035-0.08 0.0525-0.04-0.095-0.085-0.2125-0.1462-0.3612m7.662-0.7788c0.195 0.0288 0.3962 0.0713 0.5925 0.115-0.1562 0.003-0.3125 0.005-0.4675 0.015-0.045-0.0425-0.065-0.0987-0.125-0.13m-6.969 1.481c1.009-0.6312 2.04-1.088 3.07-1.341-1.011 0.35-2.121 0.8362-3.07 1.341m5.728-1.608c-0.155 0.0175-0.3225 0.045-0.4875 0.075 0.05-0.0275 0.1-0.0538 0.145-0.0825 0.1162 0 0.2275 0.004 0.3425 0.008m-31.03 0.0312c-0.055-0.015-0.105-0.035-0.1662-0.0488-0.015-0.16-0.0412-0.315-0.0412-0.4925 0.3738 0.1338 0.795 0.2312 1.262 0.2938-0.3862 0.0662-0.7388 0.1488-1.055 0.2475m67.68 33.34c-1.548-6.355-9.909-7.481-15.88-5.776-6.321 2.124-11.63 6.732-17.5 10.52-2.05 1.528-4.141 2.826-6.261 3.94-1.15 0.4925-2.396 0.9812-3.724 1.448 0.72-0.2025 1.428-0.4225 2.121-0.6512-21.44 10.18-44.97 0.615-50.58-8.614 0.0662-0.1275 0.1288-0.2538 0.19-0.3838 0.5962 3.378 11.57 11.74 25.24 12.35 8.294 1.311 16.57-0.4225 23.02-2.702-17.15 4.864-40.9 1.962-48.21-9.772 0.1338-0.31 0.235-0.6525 0.32-1.009 8.164 12.73 44.42 19.95 67.19-3.948 9.476-13.67-5.3-35.8-18.41-27.8 0.3425-3.245-5.004-8.357-10.81-5.721-6.291 3.426-11.24 4.64-14.64 4.235 0.01 0.002 0.0212 0.002 0.0288 0.007-0.105 0.1162-0.185 0.2412-0.24 0.37-0.0238-0.03-0.06-0.0437-0.085-0.0762-0.005 0.035 0.01 0.0612 0.01 0.0937-0.015-0.002-0.03-0.008-0.045-0.0125 0-0.2012-0.005-0.4175 0.01-0.5938l0.01-0.1075c-0.8688 0.73-1.598 3.856 0.745 5.949 1.681 1.5 3.732 1.615 5.022 1.259-0.7738 0.8612-1.431 1.99-1.738 3.228-0.885 3.266-2.584 4.42-4.362 4.034 0.2062 0.275 0.5088 0.4225 0.84 0.51 0.155 0.1825 0.3312 0.3188 0.5275 0.4038 0.075 0.06 0.16 0.0925 0.2412 0.145-0.0363-0.0288-0.07-0.05-0.1012-0.08 2.664 0.8612 8.436-5.545 8.8-7.672l1.008-1.294-0.5975 0.7062c-1.828 2.456-4.99 6.949-8.21 7.63 0.875-0.3325 1.754-1.006 2.378-1.95 1.456-0.9038 3.388-3.19 3.692-4.072l0.4925-0.7162-0.3075 0.3825c-0.7675 1.045-2.09 2.22-3.315 3.216 0.075-0.2388 0.1712-0.4712 0.2112-0.73 0.0138-0.05 0.035-0.095 0.05-0.145 1.05-0.51 2.798-2.57 3.231-3.204l0.4412-0.4712-0.2762 0.2412c-0.7438 0.7412-2.06 1.525-3.005 2.37 0.1112-0.285 0.2262-0.5638 0.3425-0.8225 0.8088-0.4525 1.859-1.904 2.02-2.388l0.285-0.3762-0.19 0.1912c-0.3175 0.405-0.8188 0.7638-1.318 1.128 0.65-0.9575 1.389-1.55 2.282-1.639l0.125-0.0387c-0.84-0.47-2.01-0.0338-3.054 0.9112-0.8288-0.07-1.869-0.2562-2.951-0.7538 1.318 0.1362 2.795 0.1012 3.336-0.07l0.74-0.0175-0.4175-0.0287c-1.436 0.0712-3.398-0.5388-4.95-0.685-0.115-0.0862-0.23-0.135-0.3412-0.23-0.1-0.0937-0.1488-0.2012-0.2412-0.3 3.106 1.091 8.774 0.7 9.902-0.8212l1.559-0.8437-0.8838 0.4637c-2.684 1.33-9.034 2.311-11.41 0.07-0.4362-0.8425-0.6075-1.705-0.6325-2.461 0.015 0.0125 0.03 0.0225 0.045 0.035-0.1462 2.056 5.056 4.821 9.838 1.97 4.819-2.709 9.772-6.552 12.4-4.48 0.8938 0.6012 1.682 1.358 2.441 2.144l-1.286-1.325c-2.955-3.588-8.668 0.0575-12.44 2.551-3.396 1.605-8.31 2.392-10.01 0.3312 2.681 1.525 10.27-0.2288 11.62-2.119l1.598-0.7088-0.9138 0.365c-3.101 1.63-9 3.639-12.15 1.754 2.688 0.6925 8.34 0.035 9.756-1.261l1.376-0.5375-0.7888 0.2688c-0.7325 0.335-1.608 0.5988-2.541 0.8012 0.2262-0.095 0.4325-0.1938 0.5775-0.3l1.155-0.4512-0.6662 0.2188c-1.088 0.5075-2.549 0.6762-4.062 0.7162 0.0925-0.04 0.1975-0.0812 0.2575-0.12l0.6138-0.1738-0.3625 0.0663c-0.5838 0.1875-1.326 0.2025-2.08 0.2025 1.924-0.2312 3.98-0.5988 4.818-0.755l1.131-0.1438-0.6375 0.0438c-0.815 0.0812-1.824 0.1112-2.89 0.1388 2.629-0.5688 5.588-1.669 8.386-3.269 5.235-2.251 10.18 1.605 10.24 4.628-0.0825 0.002-0.1712 0.0112-0.2725 0.0237-0.3775-0.88-1.231-2.326-3.392-2.36-2.692 0.1412-5.31 2.299-7.516 4.606-3.832 4.728-7.124 10.34-10.04 11.68 3.588-1.431 6.401-6.494 9.36-10.03 3.181-4.179 9.341-7.792 11.54-3.894-2.086 0.2988-7.834 2.577-8.301 9.024-0.7288 4.641-0.895 9.485-1.321 12.83 1.632-8.24 1.566-20.58 9.672-21.76 0.0662 0.115 0.125 0.23 0.18 0.3588-0.155 0.105-0.3112 0.19-0.4675 0.305-11.71 8.584-4.461 22.78-9.465 28.5 5.371-5.236-1.266-19.04 8.858-27.27 0.185-0.12 0.3875-0.2338 0.6038-0.3412l-0.085 0.2312c0.18-0.1212 0.32-0.2688 0.45-0.4162 0.75-0.34 1.589-0.6262 2.434-0.8925-2.396 0.8775-4.402 2.18-4.774 3.68l-1.06 1.781 0.6288-0.985c1.788-3.32 7.049-5.149 11.15-5.012 0.185 0.0712 0.37 0.1388 0.5812 0.2275-3.265-0.37-7.139 0.3688-10.43 3.761-5.734 6.188-3.539 14.88-3.73 19.62 0.3938-5.366-0.7638-12.08 2.652-17.44 3.991-5.739 11.45-6.432 15.97-4.244 0.885 0.6888 1.73 1.48 2.502 2.365-3.391-2.149-8.994-3.785-14.57 0.0138-8.682 6.445-3.532 18.38-4.949 21.91-0.23 1.84-0.8238 3.559-1.728 5.172 0.4162-0.9375 0.9638-1.832 1.275-2.812 2.346-5.735-2.196-15.7 3.889-22.27 5.121-5.225 12.67-3.96 16.94-0.965 4.538 5.962 6.311 15.08 1.401 22.11-11.77 12.38-27.58 16.29-41.02 15.34 0.5075 0 1.006 0.0125 1.519-0.0112 11.26-0.2475 20.88-3.624 26.53-6.956 2.362-0.9712 5.26-2.536 7.804-4.862-0.0962 0.1512-0.2012 0.3125-0.2925 0.4562 0.0863-0.14 0.2712-0.3662 0.5125-0.6575 1.986-1.87 3.709-4.219 4.744-7.152 1.338-2.988 2.19-6.686 1.346-10.91-0.9088-4.846-6.185-8.818-10.63-7.031-2.849 0.9062-4.406 2.991-5.095 4.915 2.321-4.785 11.46-7.611 14.3-0.03 1.015 2.301 1.276 4.569 1.09 6.744 0.1462-6.1-5.542-11.76-10.61-9.439-5.1 2.136-4.074 8.458-1.11 9.106-2.818-1.04-3.245-6.734 1.378-8.491 4.542-1.824 9.461 3.061 9.411 8.906 0.2262 9.769-7.19 15.22-12.37 17.9-0.4612 0.2362-0.9638 0.4762-1.476 0.7175-0.6088 0.2788-1.17 0.525-1.649 0.7175l-0.4375 0.1862c0.03-0.01 0.0762-0.0225 0.1112-0.0325-5.862 2.474-14.1 4.795-23.58 4.99-12.88 0.4988-22.93-5.459-26.76-10.55 0.0575-0.4025 0.0962-0.825 0.07-1.286-0.115-0.7088-0.3262-1.34-0.5725-1.929 1.278 0.905 3.289 1.428 5.369 0.705 3.42-0.795 5.468-3.92 4.84-5.582l0.006-0.1325c-0.02 0.5688-0.2625 1.228-0.6912 1.875l-0.1038 0.0563c0.0288-0.0563 0.0488-0.115 0.0687-0.1762l0.1362-0.0975-0.1338 0.09c0.0487-0.1412 0.0975-0.285 0.1025-0.4488-0.0538 0.1925-0.1325 0.3462-0.2038 0.5175l-0.585 0.3938c-4.105 1.325-9.061-7.915-13.3-5.632 2.906-0.4812 9.698 6.176 12.61 6.015 0.0787-0.0263 0.1488-0.0725 0.2238-0.105-4.201 2.554-8.768-6.01-12.96-4.69 2.116-0.0637 7.574 5.2 11.09 5.381-3.196 0.215-7.855-1.074-9.051-2.966l-1.304-1.23 0.71 0.72c0.805 1.215 2.801 2.608 4.989 3.476-1.564-0.4712-2.999-1.125-3.649-1.849l-1.098-0.7512 0.5975 0.4562c0.97 0.9138 2.861 2.298 4.816 3.076-1.555-0.3-3.065-0.8662-3.61-1.826l-0.8288-0.7325 0.44 0.44c0.825 1.46 3.312 2.93 5.469 3.095-1.855 0.2712-3.44-0.2338-4.419-1.028-1.101-1.936-2.726-3.125-3.679-3.662l-0.1162-0.0825c0.495 0.5812 1.316 1.419 2.09 2.502-0.002 0.005-0.002 0.01-0.002 0.0175-0.05 0.1238-0.0787 0.2725-0.0925 0.4462-0.0125-0.02-0.0237-0.0537-0.0375-0.0737-0.4625 0.7375 1.054 6.148-0.3062 7.449l-0.2812 0.5712c-0.1988-0.3662-0.4412-0.73-0.7588-1.064 1.286-1.99 1.239-6.255 0.0575-7.92-0.4325 0.7612 1.06 6.281-0.0613 7.715l-0.0575 0.1512c-0.2838-0.2862-0.6175-0.54-0.985-0.7638 1.132-1.746 1.278-5.601 0.1388-7.102-0.4562 0.6988 0.825 5.559-0.11 6.855l-0.0813 0.215c-0.4212-0.2538-0.8988-0.4562-1.426-0.5925l0.1188-0.3375c1.114-2.254 1.159-7.072-0.1088-9.035-0.4 0.825 1.046 6.914 0.2062 8.559l-0.2325 0.8138c-0.115-0.0325-0.2175-0.0812-0.3375-0.105-0.365-0.0888-0.7025-0.1912-1.021-0.3062l0.1212-0.7788c0.9075-3.108 0.9612-9.572-1.634-11.73 0.47 0.985 2.6 8.669 1.664 11.09l-0.1512 1.42c-2.374-0.8488-3.519-2.38-3.466-3.808-0.1188 0.1975-0.1725 0.4288-0.1912 0.6712-0.0375-0.0275-0.0625-0.0738-0.1075-0.0862 1.914-3.184-1.068-7.664-2.442-8.145l-0.1488-0.1638c1.161 1.185 4.314 6.049 1.101 8.721 0.6025-1.399 0.8562-3.454 0.5725-4.06l0.007-0.7975-0.0425 0.4488c-0.2 1.448-0.5562 3.894-1.542 5.056-0.2662 0.1338-0.545 0.2688-0.8662 0.3838-0.0487 0.0213-0.0987 0.0238-0.1462 0.0463 1.276-1.782 2.259-5.018 1.469-6.14l-0.1625-1.109 0.0562 0.6325c0.4512 2.144-0.7675 5.295-2.332 6.909-0.2988 0.085-0.5925 0.1812-0.8938 0.2412 1.44-1.235 2.734-4.924 2.17-6.1l0.04-1.011-0.06 0.5662c-0.1175 2.32-1.402 5.896-3.402 6.719-0.3425 0.0325-0.675 0.0437-1.006 0.0437 1.619-0.1312 3.61-4.488 2.866-5.751l-0.008-0.85c1.609-3.622-0.8112-10.64-4.636-13.32 0.53 0.0875 1.04 0.1962 1.545 0.3238-0.265-0.0475-0.5412-0.0575-0.8412 0.0125 0.8488 0.1862 3.654 3.465 4.074 5.056l0.3575 0.7988-0.1688-0.4688c-0.4338-1.391-1.339-4.815-3.258-5.355 0.5275 0.14 1.04 0.3012 1.541 0.4812 0.725 1.124 2.654 3.458 2.871 4.61l0.2988 0.7275-0.1338-0.4225c-0.2438-1.161-0.8438-3.22-1.866-4.45 0.275 0.1212 0.5512 0.2312 0.815 0.3612 0.0875 0.8325 2.869 3.021 3.118 4.226l0.3188 0.6062-0.1462-0.3575c-0.2188-1.122-1.032-2.869-2.091-3.839 0.4638 0.2612 0.9125 0.535 1.349 0.82 0.2212 0.98 1.564 2.615 1.909 3.229l0.2638 0.4662-0.1138-0.2762c-0.245-0.6025-0.5225-1.585-0.9-2.436 0.0337 0.0412 0.0525 0.09 0.0975 0.13-0.0763-0.1038-0.1138-0.1962-0.1738-0.2938-0.015-0.0325-0.0275-0.0688-0.0425-0.1 0.1775 0.13 0.3562 0.2612 0.53 0.39 0.0162 0.1875 0.1075 0.325 0.25 0.4275 0.0787 0.4 0.4575 0.925 0.7712 1.338 0.3738 0.7912 0.855 1.608 0.9975 1.959l0.1912 0.4712-0.0725-0.28c-0.0987-0.3725-0.1862-0.8438-0.2812-1.331 0.3288 0.4975 0.6488 0.945 0.7725 1.184l0.2275 0.435-0.0925-0.2612c-0.205-0.5512-0.3925-1.372-0.6738-2.118-0.002-0.0338-0.0125-0.0688-0.0163-0.105 1.591 1.429 2.858 2.804 3.784 3.751l0.0813 0.0888c-0.0437 0.0688-0.1038 0.1125-0.1412 0.1962 0.0575-0.0638 0.12-0.0962 0.1788-0.1538l0.1612 0.175c-0.0462-0.0575-0.0975-0.1275-0.1462-0.1875 0.2912-0.285 0.5838-0.5025 0.8838-0.6638-0.385 0.0637-0.69 0.2662-0.9212 0.6125-0.455-0.5938-1.018-1.324-1.709-2.14 0.065-0.155 0.1425-0.2912 0.2238-0.4275-0.1212 0.1212-0.1988 0.26-0.2362 0.4125-0.1362-0.1612-0.2838-0.3262-0.4262-0.4912-0.1138-0.4712-0.1288-0.89-0.0113-1.238-0.2988 0.2112-0.4638 0.4475-0.4588 0.7062-0.1625-0.1788-0.3338-0.3612-0.5088-0.5438-0.0975-0.4888-0.105-0.9262 0.0262-1.278-0.3425 0.2162-0.5438 0.4625-0.5488 0.7412-0.1262-0.1275-0.2612-0.2562-0.3912-0.3838-0.0112-0.2125 0.0113-0.4075 0.06-0.5888-0.1438 0.1338-0.2138 0.2712-0.2438 0.41-0.22-0.2112-0.4575-0.4212-0.69-0.6312 0.7938-2.022 7.744-3.35 9.666-2.81l1.52 0.21-0.8438-0.1838c-2.165-0.4175-10.56-1.005-10.38 2.749-0.2675-0.2388-0.5412-0.475-0.8312-0.7075 1.015-1.591 6.411-3.845 7.815-3.052l1.325 0.54-0.7338-0.3362c-1.164-1.206-6.654-0.0362-8.322 1.642-0.09 0.0125-0.1862 0.02-0.3025 0.0275 1.345-1.425 4.608-2.806 5.988-2.612l0.9125 0.005c0.1938 0.0575 0.3938 0.115 0.585 0.18 3.63 1.868 9.42 3.094 10.46 0.6912 0.006 0.3412-0.0125 0.6962-0.0737 1.061l-0.26 0.1c-1.98 1.231-7.481 0.615-11.2 1.139 2.116-0.4525 4.311-0.7175 5.075-0.7162l1.43 0.1175-0.7962-0.1262c-2.265-0.0462-9.349-0.4188-10.1 2.304 0.42-0.395 1.294-0.7538 2.349-1.068-0.7162 0.2962-1.248 0.7025-1.469 1.299 2.416-1.539 12.11-1.664 13.84-2.558l1.126-0.4562c-0.0737 0.4412-0.225 0.8912-0.4412 1.332l-0.4138 0.0538c-0.0737 0.03-0.1712 0.0488-0.2538 0.0775l0.655-0.1062c-0.135 0.2762-0.3062 0.5462-0.5125 0.8075-2.674 2.966-10.24-0.38-12.39 3.28 1.528-1.582 9.321-0.8525 11.76-2.63-0.1225 0.1088-0.225 0.2225-0.365 0.325-2.292 1.676-4.861 2.22-6.188 2.538 1.324 0.23 4.181 0.0738 6.758-1.806 1.592-1.145 2.066-2.764 2.029-4.13l0.2538-0.1038-0.2538 0.0937c-0.0213-0.745-0.1812-1.411-0.4212-1.878-0.004-0.0737 0.006-0.1388-0.004-0.2162-0.002 0.06-0.035 0.09-0.0412 0.145-0.075-0.1312-0.1488-0.265-0.2312-0.3588l-0.045-0.11c0.0588 0.2638 0.1075 0.5875 0.145 0.9388-0.8425 2.658-5.918 0.9738-10.13-0.9162-4.388-1.781-11.38-0.3512-9.502 3.054-3.234-2.149-7.362-3.706-12.47-3.228-9.28 1.42-13.19 11.62-10.86 15.84 0.005 0.0225 0.008 0.0488 0.0113 0.0712-0.002-0.0125-0.002-0.0412-0.002-0.0562 0.315 0.5662 0.74 1.02 1.282 1.332 0.005 0.005 0.007 0.015 0.0125 0.02-0.005-0.005-0.008-0.015-0.01-0.02 0.0487 0.0275 0.1 0.0462 0.1512 0.0712-1.301 0.53-2.48 1.74-2.634 3.906-0.985 3.328 1.189 5.805 3.048 6.174 0.2238 0.22 0.5375 0.3812 0.95 0.4612 0.1175 0.1012 0.2588 0.1888 0.4488 0.245-0.3462-0.1712-0.5138-0.4175-0.57-0.6962 0.1988-0.0387 0.4012-0.0775 0.57-0.1875-0.1925 0.0288-0.3938 0.0138-0.5962-0.002 0.006-1.445 2.924-3.479 4.064-1.109 0.1588 0.2788 0.2488 0.5688 0.3262 0.8575-1.675 2.585-7.795 2.04-13.05 0.1612-4.405-2.215-8.824-4.949-11.94-4.891-0.2338-0.065-0.455-0.1025-0.6762-0.1362-0.1338-0.1025-0.2638-0.2075-0.4012-0.3025 0.085-0.03 0.1625-0.0325 0.2512-0.0687 4.416-1.269 5.936-6.162 4.202-7.805 0.045-0.1412 0.0937-0.2862 0.0937-0.425l0.0512-0.105c-0.0712 0.13-0.1675 0.2588-0.2688 0.3862-0.0213-0.02-0.0325-0.0488-0.0575-0.0663 0.0212 0.025 0.025 0.0588 0.0437 0.085-0.8975 1.134-2.835 2.112-5.435 1.248-2.371-0.6438-4.426-1.496-5.84-1.828-0.0725-0.1075-0.1588-0.1862-0.2438-0.2688 0.8375-0.0462 1.698-0.1538 2.6-0.4125 4.628-3.216 4.484-10.79 0.8362-10.08h0.005c2.082 4.969-7.544 5.75-12.9 2.665-6.011-3.386-11.29-10.29-18.96-14.87-11.12-8.894-24.94-9.556-33-6.524-2.53 0.8425-5.149 2.245-7.496 4.566-5.718 6.3-6.211 13.74-6.122 17.4-0.5312 3.666-0.4538 6.879-0.3188 9.311 0.3188-4.031 0.7312-10.08 3.557-16.5 2.379-6.611 9.78-12.54 18.57-10.03 17.22 2.031 24.58 25.6 14.05 26.86 0.0187-0.3438 0.0737-0.6638 0.1575-0.9488-0.2612 0.1188-0.5 0.3875-0.6888 0.7462-0.09-0.0512-0.1788-0.075-0.2662-0.1338l0.2488 0.1562c-0.1488 0.2925-0.2462 0.6612-0.3088 1.05-0.0875-0.1688-0.175-0.34-0.2438-0.5425 0.0375 0.0862 0.1038 0.345 0.2275 0.6612-0.1238 0.965 0.0887 2.112 0.8575 3.119 0.0788 0.17 0.1938 0.3075 0.335 0.4225 0.895 1.24 2.318 1.622 3.464 1.499-0.6175 1.66-2.358 3.762-4.948 5.412-2.565 1.891-5.619 2.278-6.701 0.8612-0.6888-3.366 0.1562-6.842 1.8-8.371 0.0388-0.008 0.0688-0.025 0.1088-0.0263-0.0125-0.015-0.0425-0.0125-0.0575-0.025 0.3188-0.2862 0.6562-0.525 1.028-0.6475-0.26 0.04-0.5112 0.145-0.7512 0.2638-0.0788-0.0925-0.195-0.1588-0.3562-0.2 0.0425-0.01 0.0975-0.0263 0.1375-0.0338-0.0425-0.0925-0.1138-0.1638-0.2-0.2175 0.0463-0.025 0.0975-0.0437 0.14-0.0712 0.1288 0.0937 0.2588 0.145 0.3875 0.2588-0.1112-0.1212-0.2312-0.18-0.345-0.2825 0.008-0.002 0.0175-0.005 0.0225-0.01-0.0525-0.1362-0.1838-0.21-0.3462-0.2538-5.139-3.74-12.36 10.28-2.796 16.42 8.805 5.866 18.41 2.199 22.07 0.0537l0.3675-0.1638c-3.852 1.584-13.37 5.029-21.86-0.6225-3.689-2.354-4.735-6.07-4.361-9.336 0.0238 0.2588 0.0788 0.505 0.2062 0.715l0.155 0.35c0.0263 0.2925 0.0863 0.5488 0.2138 0.7225l0.1738 0.805-0.0625-0.4662c-0.045-0.1538-0.0475-0.3175-0.065-0.4738l0.1375 0.3075-0.1462-0.3725c-0.0425-0.5425 0.0538-1.114 0.2425-1.69 0.005 0.02 0 0.0412 0.005 0.0587-0.1762 0.9662-0.0863 1.821 0.4175 2.346l0.1125 0.5975-0.0675-0.4788 0.4038 1.15-0.2188-0.7225c-0.1225-0.2538-0.1712-0.5338-0.2338-0.8075-0.1438-0.7688-0.0925-1.639 0.1225-2.515 0-0.01 0.002-0.0175 0.005-0.0238 0.0538-0.2175 0.1462-0.43 0.2175-0.645-0.4338 1.716-0.1262 3.42 0.2288 4.726-0.19-1.486 0.003-3.164 0.4862-4.67 0.185-0.4075 0.4062-0.835 0.6262-1.275-0.3225 0.7725-0.5025 1.678-0.4225 2.715-0.3038 2.602 0.9325 4.805 2.13 6.329-2.278-3.988-2.034-10.72 1.701-11.69-3.69 3.352-3.699 16.05 7.755 16.99 5.04 0.1175 10.33-0.3712 13.4-3.558 0.0375-0.0387 0.0613-0.085 0.0975-0.1238-0.115 0.6412-0.155 1.35-0.0362 2.124 0.6812 2.444 2.429 3.784 3.382 4.294l0.075 0.0562c-0.6225-0.9788-1.932-2.375-2.55-4.541-0.19-1.312-0.0175-2.439 0.2038-3.398 1.739-2.808 1.856-5.776 1.995-7.725l0.0375-0.4175c-0.3562 1.665-0.5412 4.165-1.749 6.601-0.2762 0.3425-0.6 0.8325-0.8812 1.455-0.2338 0.33-0.4775 0.6625-0.7638 0.9812-2.881 2.991-8.132 3.435-13.12 3.329-2.089-0.15-3.754-0.74-5.092-1.592 3.054 1.219 8.031 1.821 9.68 0.8275l1.652-0.2738-0.9375 0.1175c-2.97 0.6838-7.549 0.0512-10.64-1.371 3.814 1.235 9.965 1.284 11.5-0.2275-3.264 1.191-8.9 0.9425-12.1-0.7225 0.1212 0.0287 0.2488 0.0588 0.3775 0.085 0.7338 0.2462 1.482 0.3838 2.122 0.3662 1.972 0.2612 4.036 0.3375 4.925-0.007l1.216-0.1675-0.6912 0.0575c-1.161 0.2688-2.622 0.0812-4.118-0.2138 0.3912-0.0838 0.72-0.2325 0.9712-0.4525 0.9112-0.0238 1.761-0.075 2.159-0.0612l0.695 0.03-0.3912-0.0538c-0.5125-0.0688-1.149-0.1888-1.808-0.31l0.5962-0.2812c4.558-1.306 9.405-5.334 10.5-11.58 2.36-9.198-0.78-20.95-9.051-29.3 0.1075 0.0325 0.2138 0.0788 0.3212 0.1188 0.9388 0.6625 1.885 1.381 2.832 2.159 2.832 2.952 6.309 8.48 7.48 15.4 2.921 9.099-0.4338 19.03-4.548 22.3 9.004-6.768 6.821-25.76 0.05-35.06 0.0312 0.0288 0.0613 0.055 0.0913 0.0825 0.8912 0.7662 1.721 1.625 2.522 2.535 2.77 5.325 5.529 15.22 5.598 22.14 0.4762-5.361-0.5512-11.68-2.578-16.89 0.4425 0.96 0.9688 1.956 1.582 2.978-1.186-2.194-1.92-3.854-2.24-4.548 0.009 0.025 0.0213 0.05 0.0288 0.0738-0.3362-0.7512-0.695-1.47-1.075-2.154 4.396 5.578 7.989 12.87 14.22 18.72 14.83 14.18 37.09 18.52 44.06 10.6-0.5588 1.142-1.372 2.136-2.475 2.788-17.62 9.569-43.63-10.62-52.52-25.48 2.719 5.036 7.855 12.92 16.11 18.6 11.43 8.429 27.09 11.34 33.13 8.438 2.346-0.6825 4.889-2.05 5.865-4.442 0.009-0.015 0.0262-0.025 0.04-0.04l0.4725-0.725c-0.1138 0.1588-0.2725 0.2838-0.3988 0.4325 0.0337-0.1 0.0763-0.1925 0.105-0.295 0.2538-0.2462 0.47-0.5175 0.62-0.835 0.5375 2.508-1.611 5.339-4.249 7.188-3.628 1.992-7.54 3.189-10.81 3.55-1.005-0.0838-2.018-0.1788-3.032-0.2862-0.9812-0.0975-1.941-0.2312-2.888-0.385l-0.2475-0.1325c0.0512 0.0462 0.1375 0.0762 0.1962 0.1225-13.28-2.188-22.75-9.575-26.81-14.41-1.08-2.109-2.471-3.694-3.162-4.739l-0.1312-0.1825c0.2975 0.7712 0.9175 1.794 1.571 3.005-0.1362 0.2538-0.0788 0.6662 0.07 1.138 0.05 1.514 0.9088 7.779-0.5338 9.451l-0.535 1.158 0.335-0.635c0.6162-0.7812 1.072-1.968 1.366-3.265-0.009 0.885-0.0125 1.672-0.0425 2.095l-0.06 0.8738 0.07-0.49c0.1912-1.289 0.6588-3.269 0.7962-4.971 0.1862 1.834 0.3825 3.906 0.0137 4.766l-0.2088 0.9025c-1.735 2.361-5.276 3.644-6.029 5.325l-0.2375-0.6125c-0.2988-2.659 2.358-5.586 3.184-9.109 0.6488-3.562-0.6288-7.334-2.638-8.686 0.25 0.795 2.578 3.608 2.14 7.616-0.2262 3.716-2.876 7.366-2.819 9.205-0.2025 0.5325 0.1 1.076 0.3612 1.609-0.2762 0.6375-0.1688 1.332 0.6188 2.172-0.5462-0.745-0.65-1.311-0.4625-1.799 0.035 0.085 0.08 0.1725 0.1025 0.2588l-0.1-0.2612c0.7612-1.988 6.441-2.576 7.698-7.615 0.3588-2.854-0.3625-5.23-1.348-7.168 3.908 5.498 14.54 14.2 29.66 15.68 2.322 0.2562 4.684 0.4425 6.992 0.465 0.7575 0.2462 1.829 0.1925 3.044-0.0813 2.312-0.1662 4.498-0.605 6.47-1.409 0.1938-0.0488 0.4062-0.1288 0.6388-0.2562 0.8088-0.3762 1.588-0.8038 2.304-1.332 0.6788-0.4112 1.246-0.875 1.731-1.368 0.1675-0.0588 0.4638-0.1975 0.8238-0.3975-1.086 0.72-1.98 1.42-2.569 2.065 2.258-1.636 6.935-3.775 12.57-5.942 2.638-1.172 5.48-2.105 6.924-4.341 0.7262-1.384 0.4212-2.524-0.1288-3.435 0.5538 0.3175 1.169 0.5738 1.855 0.6988 1.229 0.3025 2.16 0.8 2.841 1.386l-0.005 0.0175 0.005-0.0175c0.9638 0.8325 1.396 1.846 1.328 2.781-0.0537 0.2825-0.0613 0.5562 0.0188 0.8125-0.0387-1.179 1.489-2.3 2.458-4.135 5.799 10.7 34.88 22.03 58.34 5.07 0.7138-0.4388 1.398-0.8975 2.04-1.376 1.348-0.9062 2.664-1.829 3.96-2.748-0.0962 0.115-0.1962 0.2375-0.2825 0.35l-0.275 0.2638c0.2962-0.305 0.6725-0.6375 1.059-0.97 1.206-0.8488 2.402-1.672 3.604-2.46 3.819-2.125 9.199-3.829 15.37-2.899 4.688 0.7738 6.778 6.045 4.571 9.101-1.095 3.179-5.28 2.074-5.496 0.7988l0.1962 0.22c1.531 2.308 4.236-3.084 1.709-3.191-0.1362-0.1412-0.3012-0.2275-0.4888-0.1825l-0.235-0.1662 0.115 0.1262c0.075 0.0562 0.125 0.1125 0.175 0.1662-0.035-0.002-0.07-0.007-0.105-0.007-0.4312-0.1638-0.925-0.1162-1.426 0.0837-0.3775 0.0638-0.84 0.3662-1.076 0.6738-0.009 0.01-0.0188 0.0187-0.03 0.0312-0.165 0.0325-0.2825 0.1562-0.3562 0.3512-1.322 1.485-1.764 3.924 1.322 5.271 4.521 2.146 10.43-3.652 9.144-9.394" fill="white"/>
</svg>
